/* XPM */
static char *mafNode_xpm[] = {
/* columns rows colors chars-per-pixel */
"15 15 130 2",
"n  c #92CBF8",
"q. c #78A6CB",
"'  c #95CFFC",
"=  c #748695",
"<  c #6E99BB",
">. c #A1DFFF",
"#. c #9EDBFF",
"o. c #98D3FF",
"B  c #476379",
"6. c #D1EEFF",
"%. c #719DC0",
"w  c #77A5C9",
"9  c #506F87",
".  c #DDE9F2",
"E  c #94CEFB",
"0. c #7AA9CE",
"&. c #6D98B9",
"3  c #F0F3F6",
",. c #A0DEFF",
"+. c #9DDAFF",
">  c #97D2FF",
"h  c #709CBE",
"x  c #F3F7FB",
"O  c #73A0C3",
"2. c #76A4C7",
"K  c #76A4C8",
"@. c #9FDDFF",
"s  c #7CACD2",
"i. c #E2EDF6",
":. c #AFE0FF",
"-. c #F5FAFE",
"_  c #7FB0D7",
";. c #D2EAFD",
"}  c #587A95",
"+  c #88A1B4",
"u. c #A5C4DD",
"$. c #82B4DB",
"g  c #82B4DC",
"p  c #FBFCFC",
"z  c #EBF0F4",
"w. c #DBE7F0",
"^  c #5E829F",
"p. c #ABC9E1",
"F  c #7BABD0",
"y. c #7BABD1",
"-  c #A4C0D5",
"t. c #81B0D4",
"=. c #84A8C4",
"m  c #8EC4EF",
"[  c #81B3DB",
"j  c #5A7D98",
"|  c #5A7D99",
"V  c #334756",
"H  c #94CCF9",
";  c #87BBE4",
",  c #8ABFE9",
"u  c #567892",
"q  c #C3D1DD",
"#  c #7DAED5",
"X  c #90B8D8",
"8. c #8DC3EE",
"`  c #90C7F3",
"J  c #93CBF8",
"t  c #86BAE3",
"   c #FFFFFF",
"4. c #7CA4C4",
"A  c #AFC9DD",
"C  c #557791",
"*  c #6288A6",
"e. c #E2F1FD",
"9. c #7FB1D8",
"X. c #8CC2ED",
"a  c #95B0C5",
"k  c #3E566A",
"f  c #8FC6F1",
"M  c #82B5DD",
"{  c #6890B0",
"v  c #85B9E1",
"&  c #85B9E2",
"$  c #92CAF7",
"R  c #88BDE6",
"7  c #88BDE7",
"N  c #6187A5",
"]  c #9BD6FF",
":  c #98D2FF",
"G  c #8BC1EC",
"1. c #8EC5F0",
".. c #A7C2D7",
"L  c #678FAF",
"I  c #435D71",
"r. c #AACCE6",
"Z  c #7DA3C0",
"r  c #94CDFA",
"0  c #76828C",
"D  c #7DA6C6",
"/  c #466177",
"Q  c #97D1FE",
"6  c #97D1FF",
")  c #709BBD",
"!  c #8AC0EB",
"U  c #638AA8",
"S  c #E3EDF5",
"P  c #3C5467",
"c  c #739CBC",
"d  c #8DC4EF",
"8  c #739FC2",
"y  c #739FC3",
"7. c #A6DFFF",
"b  c #90C8F4",
"(  c #5C819D",
"2  c #CFD3D6",
"e  c #93CCF8",
"*. c #6C96B7",
"@  c #EFF4F8",
"%  c #96D0FD",
"W  c #96D0FE",
"<. c #99D4FF",
"O. c #9CD8FF",
"~  c #7CABD1",
"Y  c #6F9ABC",
"1  c #48647A",
"T  c #7FAFD4",
"5  c #8CC3ED",
"l  c #7B8690",
"4  c #729EC0",
"3. c #729EC1",
" . c #658DAC",
"i  c #314351",
"5. c #F8FDFF",
"o  c #82B3D9",
/* pixels */
"        . X o O +             ",
"      @ # $ % & * =           ",
"      - ; : > , < 1 2         ",
"    3 4 5 6 6 7 8 9 0         ",
"    q w , e r t y u i p       ",
"    a s d $ f g h j k l z     ",
"  x c v b n m M h N B V C Z A ",
"S D F G H r J ; K L C P I U Y ",
"T s R b E W Q ! ~ Y ^ B / ( ) ",
"_ ; ` ' Q ] ] b [ K { } |  ...",
"& X.o.O.+.@.#.> G $.%.&.*.=.  ",
"-.;.:.#.@.>.,.<.1._ 2.3.4.@   ",
"      5.6.7.<.8.9.0.q.2.w.    ",
"            e.r.t.y.0.u.      ",
"                  i.p.x       "
};
