/* XPM */
static char * FRAME_ICON32x32_xpm[] = {
"32 32 814 2",
"  	c None",
". 	c #F69E43",
"+ 	c #F59147",
"@ 	c #F48849",
"# 	c #F69E42",
"$ 	c #FCE219",
"% 	c #FDF210",
"& 	c #FFF810",
"* 	c #FDE921",
"= 	c #FEEE17",
"- 	c #FEF505",
"; 	c #FDF105",
"> 	c #FCEE07",
", 	c #FBDD20",
"' 	c #F7AE40",
") 	c #F6AB41",
"! 	c #F7B340",
"~ 	c #F8B93E",
"{ 	c #F9C836",
"] 	c #F8D210",
"^ 	c #F7B63E",
"/ 	c #F79F42",
"( 	c #F7B829",
"_ 	c #F6BC17",
": 	c #EAAD1F",
"< 	c #F6B420",
"[ 	c #F6AD3F",
"} 	c #F5AA40",
"| 	c #F6B03E",
"1 	c #F7A73F",
"2 	c #FCD825",
"3 	c #FEF411",
"4 	c #FFF911",
"5 	c #FDE722",
"6 	c #FBCC2F",
"7 	c #FEEE0E",
"8 	c #FDEF09",
"9 	c #FDEC10",
"0 	c #FBE01B",
"a 	c #F8BD37",
"b 	c #F7BA38",
"c 	c #F8BD3A",
"d 	c #F8BC3B",
"e 	c #F8BA3C",
"f 	c #F8CD1C",
"g 	c #F8BD2B",
"h 	c #F7AA3B",
"i 	c #F6B625",
"j 	c #BC8B15",
"k 	c #5F4508",
"l 	c #F6BB23",
"m 	c #F8C72F",
"n 	c #FADF16",
"o 	c #FBE908",
"p 	c #FBD824",
"q 	c #FBCF2D",
"r 	c #FEEE1C",
"s 	c #FEF114",
"t 	c #FBC731",
"u 	c #FDE41A",
"v 	c #FCEA13",
"w 	c #FCE814",
"x 	c #FBE514",
"y 	c #FBDF18",
"z 	c #FADA1C",
"A 	c #FAD521",
"B 	c #F9D026",
"C 	c #F9C72F",
"D 	c #F9CA26",
"E 	c #F8C61D",
"F 	c #EEB922",
"G 	c #916E0D",
"H 	c #563F08",
"I 	c #56400A",
"J 	c #F6BE24",
"K 	c #F59E3C",
"L 	c #F58D48",
"M 	c #F49448",
"N 	c #FAE019",
"O 	c #FDF201",
"P 	c #FEF605",
"Q 	c #FEED1C",
"R 	c #FBD82C",
"S 	c #FEF019",
"T 	c #FEEE14",
"U 	c #FCD627",
"V 	c #FCE618",
"W 	c #FBE415",
"X 	c #FBE116",
"Y 	c #FADD18",
"Z 	c #F9D919",
"` 	c #F8D51B",
" .	c #F8D11B",
"..	c #F7CE1C",
"+.	c #F7CA1D",
"@.	c #E2B719",
"#.	c #755C08",
"$.	c #554205",
"%.	c #553F09",
"&.	c #553F07",
"*.	c #F6BF27",
"=.	c #F5B628",
"-.	c #F3844B",
";.	c #F4934A",
">.	c #F38A4D",
",.	c #F3894D",
"'.	c #F48F4A",
").	c #F49249",
"!.	c #F38D4C",
"~.	c #F27F4F",
"{.	c #FCEE15",
"].	c #FFFC02",
"^.	c #FFF90F",
"/.	c #FDEC1D",
"(.	c #FCE520",
"_.	c #FDEB14",
":.	c #FCE617",
"<.	c #FCE715",
"[.	c #FBE416",
"}.	c #FADF19",
"|.	c #F9DB1B",
"1.	c #F9D81C",
"2.	c #F9D41C",
"3.	c #F8D11D",
"4.	c #F7CD1D",
"5.	c #D7AE18",
"6.	c #644F06",
"7.	c #544004",
"8.	c #523D03",
"9.	c #503903",
"0.	c #F2B320",
"a.	c #F5C017",
"b.	c #F7B238",
"c.	c #F5A644",
"d.	c #F5A246",
"e.	c #F5A545",
"f.	c #F7B53E",
"g.	c #F8C13A",
"h.	c #F7B93F",
"i.	c #F59E48",
"j.	c #F6AC43",
"k.	c #FFF909",
"l.	c #FFF510",
"m.	c #FEF212",
"n.	c #FDEF13",
"o.	c #FCEA14",
"p.	c #FBE318",
"q.	c #FADF1B",
"r.	c #F9DB1C",
"s.	c #F9D71D",
"t.	c #F9D41D",
"u.	c #F8D01D",
"v.	c #F7CD1E",
"w.	c #F7CA1E",
"x.	c #D0A818",
"y.	c #5A4605",
"z.	c #543F04",
"A.	c #513B03",
"B.	c #816904",
"C.	c #4D3503",
"D.	c #4E3503",
"E.	c #EFAB1E",
"F.	c #F6C813",
"G.	c #F8D316",
"H.	c #F9D029",
"I.	c #F9CD2F",
"J.	c #FAD52A",
"K.	c #FCE817",
"L.	c #FDF011",
"M.	c #FEF314",
"N.	c #FBD92F",
"O.	c #F6A845",
"P.	c #FDE91E",
"Q.	c #FCEB14",
"R.	c #FCE716",
"S.	c #FBE219",
"T.	c #FADE1B",
"U.	c #F8D41D",
"V.	c #F8D01E",
"W.	c #F7C91F",
"X.	c #D0A718",
"Y.	c #594405",
"Z.	c #543E03",
"`.	c #CCAB05",
" +	c #CAA905",
".+	c #4D3402",
"++	c #4E3303",
"@+	c #EFA71F",
"#+	c #F7CE13",
"$+	c #F9D912",
"%+	c #FAE011",
"&+	c #FBE411",
"*+	c #FCE912",
"=+	c #FDEF11",
"-+	c #FEF510",
";+	c #FFF812",
">+	c #FAD231",
",+	c #FDE81F",
"'+	c #FBE21A",
")+	c #FADE1C",
"!+	c #F8D41E",
"~+	c #F7CD1F",
"{+	c #F6C920",
"]+	c #DBB01B",
"^+	c #5C4706",
"/+	c #533D03",
"(+	c #CEA906",
"_+	c #F6CB07",
":+	c #CEA806",
"<+	c #4D3203",
"[+	c #EEA31F",
"}+	c #F8D114",
"|+	c #FADC10",
"1+	c #FBE30F",
"2+	c #FCE313",
"3+	c #FDE418",
"4+	c #FDED16",
"5+	c #FFF811",
"6+	c #FEF511",
"7+	c #FEF014",
"8+	c #FDEE13",
"9+	c #F8D01F",
"0+	c #F7CD20",
"a+	c #E8BA1D",
"b+	c #695207",
"c+	c #543F05",
"d+	c #CEA606",
"e+	c #F5C608",
"f+	c #F5C508",
"g+	c #D3A807",
"h+	c #4C3103",
"i+	c #4D3103",
"j+	c #EE9F20",
"k+	c #FAE503",
"l+	c #FBEB02",
"m+	c #FDEF05",
"n+	c #FDE31D",
"o+	c #FCD62A",
"p+	c #FFF514",
"q+	c #FFF511",
"r+	c #FEF112",
"s+	c #FDED13",
"t+	c #F9DB1D",
"u+	c #F9D71E",
"v+	c #F8D31E",
"w+	c #F7CC20",
"x+	c #F6C921",
"y+	c #F3C320",
"z+	c #886B0C",
"A+	c #C99E06",
"B+	c #F4C208",
"C+	c #F4C209",
"D+	c #F4C10A",
"E+	c #D8A908",
"F+	c #4C3003",
"G+	c #4D2F03",
"H+	c #ED9B21",
"I+	c #FCEF01",
"J+	c #FDF501",
"K+	c #F9B53A",
"L+	c #FDE620",
"M+	c #FDEB13",
"N+	c #FBE319",
"O+	c #F8D020",
"P+	c #F6C521",
"Q+	c #B38E13",
"R+	c #523C04",
"S+	c #BE9407",
"T+	c #F4BE09",
"U+	c #F3BD09",
"V+	c #F3BC0B",
"W+	c #F4BC0D",
"X+	c #D9A50A",
"Y+	c #4C2F03",
"Z+	c #4D2E03",
"`+	c #ED9721",
" @	c #FDE520",
".@	c #FCE024",
"+@	c #FDEA14",
"@@	c #FCE714",
"#@	c #FBE317",
"$@	c #DCAE1B",
"%@	c #564105",
"&@	c #A07906",
"*@	c #F3BA0A",
"=@	c #F3B90A",
"-@	c #F3B80C",
";@	c #F4B80F",
">@	c #F8B912",
",@	c #D9A20C",
"'@	c #4C2E03",
")@	c #4C2D03",
"!@	c #ED9422",
"~@	c #F47E4C",
"{@	c #F47B4B",
"]@	c #FEEF13",
"^@	c #FEF012",
"/@	c #FDEC14",
"(@	c #FADF1A",
"_@	c #F7CC21",
":@	c #F3BF21",
"<@	c #80620A",
"[@	c #533D05",
"}@	c #715204",
"|@	c #ECB20B",
"1@	c #F2B50B",
"2@	c #F2B40C",
"3@	c #F3B40F",
"4@	c #F8B613",
"5@	c #F8B513",
"6@	c #D99D0D",
"7@	c #4C2C03",
"8@	c #4C2C04",
"9@	c #EC9122",
"0@	c #F6AB42",
"a@	c #F37C4C",
"b@	c #F3824C",
"c@	c #F59346",
"d@	c #F7AE3F",
"e@	c #FBD82B",
"f@	c #FCE121",
"g@	c #FCE519",
"h@	c #FBE315",
"i@	c #FAE018",
"j@	c #F5C122",
"k@	c #C19516",
"l@	c #543D05",
"m@	c #513904",
"n@	c #D39C0A",
"o@	c #F1B10B",
"p@	c #F1B00D",
"q@	c #F3B010",
"r@	c #F7B214",
"s@	c #F9B214",
"t@	c #F8B115",
"u@	c #D8990E",
"v@	c #4C2B03",
"w@	c #4C2B04",
"x@	c #EC8D23",
"y@	c #FDEA1F",
"z@	c #F59646",
"A@	c #F4864B",
"B@	c #F59547",
"C@	c #F59A47",
"D@	c #F6A743",
"E@	c #FAD42A",
"F@	c #FBDE19",
"G@	c #FADB1A",
"H@	c #F9D71C",
"I@	c #F7C920",
"J@	c #EDB71F",
"K@	c #664C06",
"L@	c #9E7207",
"M@	c #F0AE0C",
"N@	c #F0AD0D",
"O@	c #F2AD10",
"P@	c #F7AF14",
"Q@	c #F8AF15",
"R@	c #F8AE16",
"S@	c #F7AC16",
"T@	c #D7950F",
"U@	c #4B2A04",
"V@	c #4C2904",
"W@	c #EC8B23",
"X@	c #FFFA04",
"Y@	c #FBD52B",
"Z@	c #F6A942",
"`@	c #F6AD42",
" #	c #F7B93D",
".#	c #F9CF2E",
"+#	c #FAD428",
"@#	c #FAD624",
"##	c #FAD71D",
"$#	c #F5BD22",
"%#	c #B58814",
"&#	c #533B04",
"*#	c #5C4003",
"=#	c #E5A30C",
"-#	c #EFAA0D",
";#	c #F0A90F",
">#	c #F6AC14",
",#	c #F8AC16",
"'#	c #F8AB16",
")#	c #F8AA17",
"!#	c #F7A816",
"~#	c #D69010",
"{#	c #4B2904",
"]#	c #4C2804",
"^#	c #EB8824",
"/#	c #FEF705",
"(#	c #FEEE12",
"_#	c #FCDF24",
":#	c #FBDA27",
"<#	c #FBDF20",
"[#	c #FBE015",
"}#	c #FADC16",
"|#	c #F9D619",
"1#	c #F8D31C",
"2#	c #F5C121",
"3#	c #EDB31F",
"4#	c #624606",
"5#	c #513804",
"6#	c #B37D09",
"7#	c #EEA60E",
"8#	c #EEA60F",
"9#	c #F2A713",
"0#	c #F8A817",
"a#	c #F7A617",
"b#	c #F7A518",
"c#	c #F5A217",
"d#	c #D58B11",
"e#	c #4B2804",
"f#	c #4C2704",
"g#	c #EB8524",
"h#	c #FDEF07",
"i#	c #FCEB10",
"j#	c #FBE115",
"k#	c #FADD16",
"l#	c #FAD917",
"m#	c #F8D31A",
"n#	c #F4B922",
"o#	c #BD8A16",
"p#	c #533904",
"q#	c #634304",
"r#	c #E79F0E",
"s#	c #EDA20F",
"t#	c #EFA111",
"u#	c #F5A416",
"v#	c #F7A418",
"w#	c #F7A318",
"x#	c #F7A218",
"y#	c #F7A019",
"z#	c #F49E18",
"A#	c #D48712",
"B#	c #4B2704",
"C#	c #4B2604",
"D#	c #EA8225",
"E#	c #FCEC06",
"F#	c #FCE809",
"G#	c #FBE412",
"H#	c #FBE114",
"I#	c #FADD15",
"J#	c #FAD916",
"K#	c #F9D617",
"L#	c #F8D01C",
"M#	c #F6C91F",
"N#	c #F5BE22",
"O#	c #F3B321",
"P#	c #714F08",
"Q#	c #4F3503",
"R#	c #533703",
"S#	c #5E3E04",
"T#	c #5E3D04",
"U#	c #613D06",
"V#	c #653F07",
"W#	c #653E07",
"X#	c #653D08",
"Y#	c #653C08",
"Z#	c #653B08",
"`#	c #633808",
" $	c #5A3106",
".$	c #4B2505",
"+$	c #E97F26",
"@$	c #FBE408",
"#$	c #FAE00A",
"$$	c #FADC0D",
"%$	c #F9D814",
"&$	c #F9D318",
"*$	c #F7CD1C",
"=$	c #F7C91E",
"-$	c #F6C520",
";$	c #F5BD21",
">$	c #F4B522",
",$	c #D2971A",
"'$	c #513704",
")$	c #4D2E04",
"!$	c #4D2D04",
"~$	c #4C2B05",
"{$	c #4C2A05",
"]$	c #4C2905",
"^$	c #4C2705",
"/$	c #4B2605",
"($	c #4A2405",
"_$	c #4B2305",
":$	c #E97B28",
"<$	c #FADC0A",
"[$	c #F9D70B",
"}$	c #F8D310",
"|$	c #F8D116",
"1$	c #F8CF18",
"2$	c #F6CA1D",
"3$	c #F6C51F",
"4$	c #F5C120",
"5$	c #F5BE21",
"6$	c #F4BA22",
"7$	c #F3B122",
"8$	c #A17011",
"9$	c #4F3403",
"0$	c #5F3D04",
"a$	c #8A5807",
"b$	c #8B5807",
"c$	c #8B5707",
"d$	c #8B5508",
"e$	c #8B5409",
"f$	c #8A5309",
"g$	c #8A5209",
"h$	c #8A500A",
"i$	c #8A4F0A",
"j$	c #8C4F0B",
"k$	c #81480A",
"l$	c #4A2305",
"m$	c #4B2205",
"n$	c #E87829",
"o$	c #F8D30D",
"p$	c #F8D117",
"q$	c #F7CC19",
"r$	c #F6C61D",
"s$	c #F5C220",
"t$	c #F4B921",
"u$	c #F0AA21",
"v$	c #5C3D06",
"w$	c #AB6D0B",
"x$	c #E99512",
"y$	c #E99313",
"z$	c #E99214",
"A$	c #E89015",
"B$	c #E88E15",
"C$	c #E88C16",
"D$	c #E78A17",
"E$	c #E78917",
"F$	c #E78718",
"G$	c #E78518",
"H$	c #CE7515",
"I$	c #4A2205",
"J$	c #4A2105",
"K$	c #E7742A",
"L$	c #F49A46",
"M$	c #F8C825",
"N$	c #F8C529",
"O$	c #F9C82A",
"P$	c #F8CD1A",
"Q$	c #F7C91A",
"R$	c #F6C31E",
"S$	c #F5BE20",
"T$	c #F4BA21",
"U$	c #F4B621",
"V$	c #F2AD22",
"W$	c #D1911B",
"X$	c #533605",
"Y$	c #CF8310",
"Z$	c #E89213",
"`$	c #E99116",
" %	c #EA9018",
".%	c #EA8E19",
"+%	c #E98C1A",
"@%	c #E98A1A",
"#%	c #E9881B",
"$%	c #E9871C",
"%%	c #E8851C",
"&%	c #E8831D",
"*%	c #CD7117",
"=%	c #4A2005",
"-%	c #E6712B",
";%	c #F59745",
">%	c #F8AE3C",
",%	c #F8B03A",
"'%	c #F8BF31",
")%	c #F7C91D",
"!%	c #F6C61A",
"~%	c #F5C01E",
"{%	c #F4BB20",
"]%	c #F3B222",
"^%	c #F3AE22",
"/%	c #F3AA23",
"(%	c #AE7615",
"_%	c #503304",
":%	c #513204",
"<%	c #E48E13",
"[%	c #E78E15",
"}%	c #EC9019",
"|%	c #F2921C",
"1%	c #F3911D",
"2%	c #F28F1E",
"3%	c #F28D1E",
"4%	c #F28B1F",
"5%	c #F18920",
"6%	c #F18721",
"7%	c #EF8421",
"8%	c #CE6E19",
"9%	c #4A1F05",
"0%	c #4A1F06",
"a%	c #E66E2C",
"b%	c #F7A440",
"c%	c #F27B4E",
"d%	c #F7A241",
"e%	c #F8B13B",
"f%	c #F8C12A",
"g%	c #F7C81A",
"h%	c #F6C21B",
"i%	c #F5BD1E",
"j%	c #F4B720",
"k%	c #F3B221",
"l%	c #F2AB23",
"m%	c #F2A723",
"n%	c #86580D",
"o%	c #4E3003",
"p%	c #7A4A07",
"q%	c #E68C15",
"r%	c #E68B16",
"s%	c #EE8F1B",
"t%	c #F3901E",
"u%	c #F38F1E",
"v%	c #F38D1F",
"w%	c #F28B20",
"x%	c #F28821",
"y%	c #F28622",
"z%	c #F18423",
"A%	c #EF8123",
"B%	c #CD6A1A",
"C%	c #491E06",
"D%	c #4A1E06",
"E%	c #E56B2D",
"F%	c #F8BD2F",
"G%	c #F6A143",
"H%	c #F7AA3F",
"I%	c #F9C031",
"J%	c #F7C81C",
"K%	c #F6C21A",
"L%	c #F5BE1B",
"M%	c #F4BA1D",
"N%	c #F3B420",
"O%	c #F3AF21",
"P%	c #F2AB22",
"Q%	c #EFA222",
"R%	c #573706",
"S%	c #975A0B",
"T%	c #E58916",
"U%	c #E68718",
"V%	c #F08D1D",
"W%	c #F38B20",
"X%	c #F28921",
"Y%	c #F28721",
"Z%	c #F18522",
"`%	c #F18223",
" &	c #F07F24",
".&	c #EE7C25",
"+&	c #CC661B",
"@&	c #491D06",
"#&	c #4A1D06",
"$&	c #E5682E",
"%&	c #F9CD1A",
"&&	c #F8C52C",
"*&	c #F8C91F",
"=&	c #F6C31B",
"-&	c #F5BF1B",
";&	c #F5BC1C",
">&	c #F4B81D",
",&	c #F3B120",
"'&	c #F2AC22",
")&	c #F2A822",
"!&	c #F2A523",
"~&	c #DE941F",
"{&	c #533305",
"]&	c #AE670F",
"^&	c #E38517",
"/&	c #E5841A",
"(&	c #F08B1F",
"_&	c #F18622",
":&	c #F18323",
"<&	c #F08124",
"[&	c #F07E25",
"}&	c #EF7B26",
"|&	c #ED7826",
"1&	c #CB621D",
"2&	c #491C06",
"3&	c #4A1B07",
"4&	c #E4652E",
"5&	c #F8CA16",
"6&	c #F7CB19",
"7&	c #F7C919",
"8&	c #F5BB1C",
"9&	c #F4B51D",
"0&	c #F3AF20",
"a&	c #F2AA22",
"b&	c #F1A522",
"c&	c #F1A123",
"d&	c #D48A1D",
"e&	c #533206",
"f&	c #4D2C04",
"g&	c #C17013",
"h&	c #E28219",
"i&	c #E3811B",
"j&	c #EF8820",
"k&	c #F18821",
"l&	c #F18523",
"m&	c #F08323",
"n&	c #F08024",
"o&	c #EF7D25",
"p&	c #EF7A27",
"q&	c #EE7827",
"r&	c #EC7428",
"s&	c #C95E1E",
"t&	c #491B06",
"u&	c #491A07",
"v&	c #E4622F",
"w&	c #F6C612",
"x&	c #F7C617",
"y&	c #F6C21D",
"z&	c #F6BC24",
"A&	c #F5B426",
"B&	c #F5B325",
"C&	c #F4B31F",
"D&	c #F3B21E",
"E&	c #F2AE20",
"F&	c #F2A721",
"G&	c #F1A323",
"H&	c #F19F23",
"I&	c #BF7B1A",
"J&	c #533106",
"K&	c #4D2B05",
"L&	c #C97316",
"M&	c #E17F1A",
"N&	c #E27E1D",
"O&	c #EE8522",
"P&	c #F08523",
"Q&	c #F08223",
"R&	c #F07F25",
"S&	c #EF7D26",
"T&	c #EE7A27",
"U&	c #EE7728",
"V&	c #ED7429",
"W&	c #EB7029",
"X&	c #C85B1F",
"Y&	c #491907",
"Z&	c #E36030",
"`&	c #F5C013",
" *	c #F6C018",
".*	c #F6B929",
"+*	c #F7AC39",
"@*	c #F7A43E",
"#*	c #F7A63D",
"$*	c #F5AB31",
"%*	c #F3AE20",
"&*	c #F2AD1F",
"**	c #F1A621",
"=*	c #F0A023",
"-*	c #F09C24",
";*	c #B67319",
">*	c #523006",
",*	c #4D2A05",
"'*	c #D17618",
")*	c #E07B1B",
"!*	c #E17B1E",
"~*	c #ED8323",
"{*	c #F08224",
"]*	c #EF7F25",
"^*	c #EE7C26",
"/*	c #EE7927",
"(*	c #ED7628",
"_*	c #ED732A",
":*	c #EC702A",
"<*	c #EA6D2B",
"[*	c #C75720",
"}*	c #481807",
"|*	c #491807",
"1*	c #E25E30",
"2*	c #F4B815",
"3*	c #F6A243",
"4*	c #F79E42",
"5*	c #F59446",
"6*	c #F5AD2D",
"7*	c #F2AA20",
"8*	c #F2A923",
"9*	c #F09A24",
"0*	c #995F13",
"a*	c #522F06",
"b*	c #D8791C",
"c*	c #E37A20",
"d*	c #ED8124",
"e*	c #EE8025",
"f*	c #EE7D26",
"g*	c #ED7927",
"h*	c #EC732A",
"i*	c #EB702B",
"j*	c #EB6D2C",
"k*	c #E96A2C",
"l*	c #C85522",
"m*	c #491808",
"n*	c #4A1808",
"o*	c #DF5B30",
"p*	c #F58749",
"q*	c #F5A042",
"r*	c #F5B629",
"s*	c #F3AD2A",
"t*	c #F1A128",
"u*	c #DE9224",
"v*	c #D78B23",
"w*	c #D68623",
"x*	c #EA8624",
"y*	c #EC8425",
"z*	c #EB8226",
"A*	c #EC8027",
"B*	c #EC7C28",
"C*	c #EB7928",
"D*	c #EA7529",
"E*	c #EA722B",
"F*	c #E96E2C",
"G*	c #E86B2D",
"H*	c #E8682E",
"I*	c #E7652F",
"J*	c #E05F2E",
"K*	c #CC532B",
"L*	c #C7502A",
"M*	c #D4572E",
"              . + @ # $ % & * = - ; > , ' ) ! ~ { ] ^ / ( _ : < ",
"              [ } | 1 2 3 4 5 6 7 8 9 0 a b c d e f g h i j k l ",
"              m n o p q r 4 s t u v w x y z A B C D E F G H I J ",
"K         L M   N O P Q R S T U V w W X Y Z `  ...+.@.#.$.%.&.*.",
"=.-.;.>.,.'.).!.~.{.].^./.(._.:.<.[.}.|.1.2.3.4.+.5.6.7.8.9.9.0.",
"a.b.c.d.e.f.g.h.i.j.k.l.m.n.o.<.p.q.r.s.t.u.v.w.x.y.z.A.B.C.D.E.",
"F.G.H.I.J.K.L.M.N.O.P.m.n.Q.R.S.T.r.s.U.V.v.W.X.Y.z.Z.`. +.+++@+",
"#+$+%+&+*+=+-+4 ;+>+,+n.Q.R.'+)+r.s.!+V.~+{+]+^+z./+(+_+:+<+<+[+",
"}+|+1+2+3+4+5+4 6+7+8+_.R.'+)+r.s.!+9+0+{+a+b+c+A.d+e+f+g+h+i+j+",
"  k+l+m+n+o+p+q+r+s+Q.<.'+)+t+u+v+9+w+x+y+z+c+A.A+B+C+D+E+F+G+H+",
"    I+J+  K+L+r+8+M+<.N+T.r.u+v+O+w+{+P+Q+c+R+S+T+U+V+W+X+Y+Z+`+",
"           @.@s++@@@#@q.r.s.!+O+w+x+P+$@%@R+&@*@=@-@;@>@,@'@)@!@",
"~@{@    ]@^@/@M+@@W (@r.s.!+O+_@x+P+:@<@[@}@|@1@2@3@4@5@6@7@8@9@",
"0@a@b@c@d@e@f@g@h@i@|.s.v+O+w+x+P+j@k@l@m@n@o@p@q@r@s@t@u@v@w@x@",
"y@z@A@B@C@D@c E@F@G@H@v+9+w+I@P+j@J@K@m@L@M@N@O@P@Q@R@S@T@U@V@W@",
"X@Y@Z@`@ #.#+#@###H@!+9+w+x+P+j@$#%#&#*#=#-#;#>#,#'#)#!#~#{#]#^#",
"/#(#_#:#<#W [#}#|#1#V.~+{+P+2#$#3#4#5#6#7#8#9#!#0#a#b#c#d#e#f#g#",
"  h#i#w W j#k#l#m#u.~+{+P+2#$#n#o#p#q#r#s#t#u#v#w#x#y#z#A#B#C#D#",
"  E#F#G#H#I#J#K#L#v.M#P+2#N#n#O#P#Q#R#S#T#U#V#W#X#Y#Z#`# $C#.$+$",
"    @$#$$$%$K#&$*$=$-$2#;$n#>$,$'$++i+F+Y+)$!$8@~${$]$^$/$($_$:$",
"      <$[$}$|$1$2$3$4$5$6$>$7$8$9$0$a$b$c$d$e$f$g$h$i$j$k$l$m$n$",
"      o$}$p$1$q$r$s$5$t$>$7$u$v$++w$x$y$z$A$B$C$D$E$F$G$H$I$J$K$",
"L$    M$N$O$P$Q$R$S$T$U$7$V$W$X$i+Y$Z$`$ %.%+%@%#%$%%%&%*%J$=%-%",
";%    >%,%'%)%!%~%{%U$]%^%/%(%_%:%<%[%}%|%1%2%3%4%5%6%7%8%9%0%a%",
"b%c%d%e%f%g%!%h%i%j%k%^%l%m%n%o%p%q%r%s%t%u%v%w%x%y%z%A%B%C%D%E%",
"F%G%H%I%J%!%K%L%M%N%O%P%m%Q%R%G+S%T%U%V%v%W%X%Y%Z%`% &.&+&@&#&$&",
"%&&&&&*&!%=&-&;&>&,&'&)&!&~&{&!$]&^&/&(&w%x%_&:&<&[&}&|&1&2&3&4&",
"5&6&7&!%h%L%8&>&9&0&a&b&c&d&e&f&g&h&i&j&k&l&m&n&o&p&q&r&s&t&u&v&",
"w&x&!%y&z&A&B&C&D&E&F&G&H&I&J&K&L&M&N&O&P&Q&R&S&T&U&V&W&X&u&Y&Z&",
"  `& *.*+*@*#*$*%*&***=*-*;*>*,*'*)*!*~*{*]*^*/*(*_*:*<*[*}*|*1*",
"    2*    3*4*5*6*7*8*=*9*0*a*,*b*!*c*d*e*f*g*(*h*i*j*k*l*m*n*o*",
"              p*q*a&r*s*t*u*v*w*x*y*z*A*B*C*D*E*F*G*H*I*J*K*L*M*"};
