/* XPM */
static char * GENERATE_REPORT_ICON_xpm[] = {
"20 20 121 2",
"  	c None",
". 	c #C6C6C6",
"+ 	c #A4A4A4",
"@ 	c #B7B7B7",
"# 	c #B0B0B0",
"$ 	c #B3B3B3",
"% 	c #ACACAC",
"& 	c #B8B8B8",
"* 	c #B9B9B9",
"= 	c #5C5C5C",
"- 	c #070707",
"; 	c #0A0A0A",
"> 	c #0C0C0C",
", 	c #020202",
"' 	c #161616",
") 	c #000000",
"! 	c #010101",
"~ 	c #393939",
"{ 	c #C4C4C4",
"] 	c #646464",
"^ 	c #505050",
"/ 	c #515151",
"( 	c #414141",
"_ 	c #4E4E4E",
": 	c #545454",
"< 	c #373737",
"[ 	c #4C4C4C",
"} 	c #B5B5B5",
"| 	c #616161",
"1 	c #060606",
"2 	c #E5E5E5",
"3 	c #FEFEFE",
"4 	c #FFFFFF",
"5 	c #FDFDFD",
"6 	c #DDDDDD",
"7 	c #454545",
"8 	c #030303",
"9 	c #434343",
"0 	c #5D5D5D",
"a 	c #DADADA",
"b 	c #F6F6F6",
"c 	c #F3F3F3",
"d 	c #F7F7F7",
"e 	c #F2F2F2",
"f 	c #D9D9D9",
"g 	c #4A4A4A",
"h 	c #353535",
"i 	c #676767",
"j 	c #D1D1D1",
"k 	c #EEEEEE",
"l 	c #F1F1F1",
"m 	c #4B4B4B",
"n 	c #6B6B6B",
"o 	c #CCCCCC",
"p 	c #EFEFEF",
"q 	c #878787",
"r 	c #7B7B7B",
"s 	c #C5C5C5",
"t 	c #808080",
"u 	c #080808",
"v 	c #FCFCFC",
"w 	c #F9F9F9",
"x 	c #C9C9C9",
"y 	c #787878",
"z 	c #656565",
"A 	c #040404",
"B 	c #D3D3D3",
"C 	c #F5F5F5",
"D 	c #F4F4F4",
"E 	c #1B1B1B",
"F 	c #303030",
"G 	c #6A6A6A",
"H 	c #6F6F6F",
"I 	c #CBCBCB",
"J 	c #F8F8F8",
"K 	c #292929",
"L 	c #2D2D2D",
"M 	c #474747",
"N 	c #858585",
"O 	c #777777",
"P 	c #6C6C6C",
"Q 	c #DBDBDB",
"R 	c #383838",
"S 	c #E7E7E7",
"T 	c #525252",
"U 	c #747474",
"V 	c #767676",
"W 	c #262626",
"X 	c #2A2A2A",
"Y 	c #5E5E5E",
"Z 	c #E3E3E3",
"` 	c #DFDFDF",
" .	c #101010",
"..	c #202020",
"+.	c #E1E1E1",
"@.	c #090909",
"#.	c #BABABA",
"$.	c #BCBCBC",
"%.	c #CECECE",
"&.	c #BEBEBE",
"*.	c #AFAFAF",
"=.	c #DEDEDE",
"-.	c #C7C7C7",
";.	c #AAAAAA",
">.	c #707070",
",.	c #626262",
"'.	c #2E2E2E",
").	c #333333",
"!.	c #323232",
"~.	c #3E3E3E",
"{.	c #2B2B2B",
"].	c #3A3A3A",
"^.	c #050505",
"/.	c #717171",
"(.	c #575757",
"_.	c #111111",
":.	c #151515",
"<.	c #0F0F0F",
"[.	c #0D0D0D",
"}.	c #171717",
"|.	c #0B0B0B",
"                                        ",
"                                        ",
"      . + @ # $ % & & *                 ",
"      = - ; > , ' ) ! ; ~ {             ",
"      ] ) ^ / ( _ / : < , [ }           ",
"      | 1 2 3 4 5 5 4 6 7 8 9           ",
"      0 ) a b c d 4 e 4 f g 1 h         ",
"      i ; j d 4 3 k 3 l 4 f m > ]       ",
"      n ) o 4 4 p q r 3 l 4 s ) t       ",
"      ] ) a 4 5 4 u ' v w 5 x ) y       ",
"      z A B C D 4 E F 4 p b . > G       ",
"      H , I 4 4 J K L p M N f ) O       ",
"      P , Q c 6 4 ' R S ) T 6 ! U       ",
"      0 - f V ( l W X d u Y Z ) y       ",
"      z 8 ` h ) d  ...c ) / +.! y       ",
"      | @.#.I $.%.&.*.=.$ -.;.A >.      ",
"      ,.@.'.).R !.~ ~.{.< ].R ^./.      ",
"      (.@._.:.> <.[.<.}.; |. .|.]       ",
"                                        ",
"                                        "};
