/* XPM */
static char * VIEW_ARB_ORTHO_xpm[] = {
"11 11 3 1",
" 	c None",
".	c #000000",
"+	c #CCCCCC",
"...........",
"...........",
".+++.+++++.",
".+++.+++++.",
".++++.++...",
".++++...++.",
".++...++++.",
"...++.++++.",
".+++++.+++.",
".+++++.+++.",
"..........."};
