/* XPM */
static char * albaVMEPolylineSpline_xpm[] = {
"15 15 5 1",
" 	c #FFFFFF",
".	c #1E1B1B",
"+	c #7D7D7D",
"@	c #E8E8E8",
"#	c #BCBCBC",
"               ",
"               ",
"               ",
"     ..        ",
"    +..@       ",
"   +@ @+       ",
"  +@   +@      ",
" ##    ##      ",
"..      +@     ",
"..       +     ",
"         ##    ",
"           +@  ",
"           @.. ",
"            .. ",
"               "};
