/* XPM */
static char * albaVMEGeneric_xpm[] = {
"15 15 119 2",
"  	c None",
". 	c #FFFFFF",
"+ 	c #C8C8C8",
"@ 	c #9E9E9E",
"# 	c #898989",
"$ 	c #A8A7A7",
"% 	c #D3D3D3",
"& 	c #E3E3E3",
"* 	c #8F8F8F",
"= 	c #777777",
"- 	c #7E7E7F",
"; 	c #858586",
"> 	c #8C8D8D",
", 	c #939394",
"' 	c #B0B0B0",
") 	c #EEEEEE",
"! 	c #7C7C7C",
"~ 	c #777677",
"{ 	c #7E7E7E",
"] 	c #858585",
"^ 	c #8C8B8B",
"/ 	c #929392",
"( 	c #999A9A",
"_ 	c #A0A1A1",
": 	c #AEAFAF",
"< 	c #F0F0F0",
"[ 	c #8F8F8E",
"} 	c #7D7E7D",
"| 	c #848584",
"1 	c #8B8C8C",
"2 	c #929292",
"3 	c #999999",
"4 	c #A0A0A0",
"5 	c #A7A7A7",
"6 	c #AEAEAD",
"7 	c #C5C5C5",
"8 	c #767576",
"9 	c #7D7D7D",
"0 	c #838484",
"a 	c #8B8B8B",
"b 	c #919292",
"c 	c #989898",
"d 	c #9FA0A0",
"e 	c #A6A6A7",
"f 	c #B5B4B5",
"g 	c #BBBCBB",
"h 	c #E7E7E7",
"i 	c #9C9C9C",
"j 	c #838483",
"k 	c #929192",
"l 	c #9F9F9F",
"m 	c #A5A6A6",
"n 	c #ADADAD",
"o 	c #B4B4B3",
"p 	c #BBBBBB",
"q 	c #C2C2C2",
"r 	c #D8D7D8",
"s 	c #858685",
"t 	c #838382",
"u 	c #898A8A",
"v 	c #919191",
"w 	c #989798",
"x 	c #A6A6A5",
"y 	c #ACACAD",
"z 	c #B4B3B3",
"A 	c #BBBABA",
"B 	c #C1C1C1",
"C 	c #D2D2D2",
"D 	c #A5A6A5",
"E 	c #898A89",
"F 	c #909090",
"G 	c #979797",
"H 	c #A5A5A4",
"I 	c #ACACAC",
"J 	c #B2B3B3",
"K 	c #BABABA",
"L 	c #C1C1C0",
"M 	c #CECECF",
"N 	c #E1E1E1",
"O 	c #D2D2D1",
"P 	c #969797",
"Q 	c #9D9E9D",
"R 	c #A4A5A5",
"S 	c #ABABAB",
"T 	c #B3B2B2",
"U 	c #B9BAB9",
"V 	c #C0C1C1",
"W 	c #C8C7C7",
"X 	c #CFCECE",
"Y 	c #D5D5D5",
"Z 	c #F1F1F1",
"` 	c #9D9D9D",
" .	c #A4A4A4",
"..	c #B2B2B2",
"+.	c #B9B9B9",
"@.	c #BFC0C0",
"#.	c #C6C6C7",
"$.	c #CDCECE",
"%.	c #E2E2E3",
"&.	c #EDEDED",
"*.	c #ABAAAB",
"=.	c #ABAAAA",
"-.	c #B1B1B2",
";.	c #B9B8B9",
">.	c #C0BFBF",
",.	c #CDCDCD",
"'.	c #D4D4D4",
").	c #DEDEDE",
"!.	c #F9F9F9",
"~.	c #EFEFEF",
"{.	c #B7B8B8",
"].	c #BEBFBF",
"^.	c #C6C5C6",
"/.	c #D3D4D4",
"(.	c #E2E2E2",
"_.	c #E6E6E6",
":.	c #D5D6D5",
"<.	c #D0D0D0",
"[.	c #DFDFE0",
". . . . . . . . . . . . . . . ",
". . . . . + @ # $ % . . . . . ",
". . . & * = - ; > , ' ) . . . ",
". . & ! ~ { ] ^ / ( _ : < . . ",
". . [ ~ } | 1 2 3 4 5 6 7 . . ",
". + 8 9 0 a b c d e 6 f g h . ",
". i ! j a k c l m n o p q r . ",
". s t u v w @ x y z A B + C . ",
". D E F G @ H I J K L + M N . ",
". O F P Q R S T U V W X Y Z . ",
". . n `  .S ..+.@.#.$.Y %.. . ",
". . &.*.=.-.;.>.#.,.'.).!.. . ",
". . . ~.q {.].^.,./.(.!.. . . ",
". . . . . _.:.<.[.< . . . . . ",
". . . . . . . . . . . . . . . "};
