/* XPM */
static char * albaVMEMeter_xpm[] = {
"15 15 5 1",
" 	c None",
".	c #FFFFFF",
"+	c #000000",
"@	c #616161",
"#	c #AFAFAF",
"...............",
"...........+...",
"..........@#+..",
".........+###@.",
"........@#+###@",
".......+#####@.",
"......@#+###@..",
".....+#####@...",
"....@#+###@....",
"...+#####@.....",
"..@#+###@......",
".+#####@.......",
"..+###@........",
"...@#@.........",
"....@.........."};
