/* XPM */
static char * albaVMEVolume_xpm[] = {
"15 15 99 2",
"  	c None",
". 	c #FFFFFF",
"+ 	c #FEFEFE",
"@ 	c #FDFDFD",
"# 	c #FBFBFB",
"$ 	c #F5F5F5",
"% 	c #F4F4F4",
"& 	c #F7F7F7",
"* 	c #FAFAFA",
"= 	c #FCFCFC",
"- 	c #F6F6F6",
"; 	c #F0F0F0",
"> 	c #EDEDED",
", 	c #EEEEEE",
"' 	c #F1F1F1",
") 	c #F3F3F3",
"! 	c #EBEBEB",
"~ 	c #DBDBDB",
"{ 	c #DCDCDC",
"] 	c #D5D5D5",
"^ 	c #E0E0E0",
"/ 	c #E4E4E4",
"( 	c #E8E8E8",
"_ 	c #ECECEC",
": 	c #E1E1E1",
"< 	c #C5C5C5",
"[ 	c #959595",
"} 	c #838383",
"| 	c #B6B6B6",
"1 	c #9E9E9E",
"2 	c #A0A0A0",
"3 	c #A9A9A9",
"4 	c #B2B2B2",
"5 	c #BBBBBB",
"6 	c #C4C4C4",
"7 	c #CECECE",
"8 	c #D7D7D7",
"9 	c #BFBFBF",
"0 	c #939393",
"a 	c #757575",
"b 	c #707070",
"c 	c #A1A1A1",
"d 	c #9D9D9D",
"e 	c #9A9A9A",
"f 	c #989898",
"g 	c #969696",
"h 	c #979797",
"i 	c #8D8D8D",
"j 	c #767676",
"k 	c #6F6F6F",
"l 	c #6E6E6E",
"m 	c #868686",
"n 	c #A4A4A4",
"o 	c #A2A2A2",
"p 	c #9F9F9F",
"q 	c #9B9B9B",
"r 	c #737373",
"s 	c #6D6D6D",
"t 	c #878787",
"u 	c #C3C3C3",
"v 	c #A6A6A6",
"w 	c #A5A5A5",
"x 	c #A3A3A3",
"y 	c #727272",
"z 	c #6C6C6C",
"A 	c #898989",
"B 	c #C6C6C6",
"C 	c #A7A7A7",
"D 	c #9C9C9C",
"E 	c #717171",
"F 	c #6B6B6B",
"G 	c #8C8C8C",
"H 	c #CACACA",
"I 	c #ABABAB",
"J 	c #AAAAAA",
"K 	c #A8A8A8",
"L 	c #6A6A6A",
"M 	c #696969",
"N 	c #8F8F8F",
"O 	c #CDCDCD",
"P 	c #AEAEAE",
"Q 	c #ACACAC",
"R 	c #686868",
"S 	c #929292",
"T 	c #CFCFCF",
"U 	c #AFAFAF",
"V 	c #676767",
"W 	c #D2D2D2",
"X 	c #B0B0B0",
"Y 	c #ADADAD",
"Z 	c #666666",
"` 	c #D9D9D9",
" .	c #E2E2E2",
"..	c #D1D1D1",
"+.	c #BCBCBC",
"@.	c #777777",
"#.	c #F9F9F9",
"$.	c #D6D6D6",
"%.	c #BDBDBD",
". + + @ # $ % & * = + + + + @ ",
"# * - ; > , ; ; ; ' ' ) ' ! ~ ",
"{ ] ~ ^ / ( ! , ; ' _ : < [ } ",
"| 1 2 3 4 5 6 7 8 8 9 0 a b } ",
"5 c 2 1 d e f g h i j k k l m ",
"9 n o c p d q f [ m r l l s t ",
"u v w x c 2 d e f m y s z z A ",
"B 3 C v n c p D e t E z F F G ",
"H I J K v n c 1 q t b L L M N ",
"O P Q J C w o 2 D t k M M R S ",
"T U P I 3 v n c 1 t l R R V 0 ",
"W X U Y J C w c p t s V Z b 9 ",
"^ 5 X Y J K w o p t z Z i ` & ",
"@ * )  ...+.I o p m @.| ; @ + ",
". . . . #.$.%.X +.8 * . . . . "};
