/* XPM */
static char *albaVMESlicer_xpm[] = {
"15 15 85 1",
" 	c None",
".	c #FDFDFD",
"+	c #FCFCFC",
"@	c #FAFAFA",
"#	c #F5F5F5",
"$	c #F4F4F4",
"%	c #F7F7F7",
"&	c #F9F9F9",
"*	c #FBFBFB",
"=	c #F6F6F6",
"-	c #F1F1F1",
";	c #EFEFEF",
">	c #F0F0F0",
",	c #ADADAD",
"'	c #323232",
")	c #F2F2F2",
"!	c #EDEDED",
"~	c #E0E0E0",
"{	c #E1E1E1",
"]	c #DBDBDB",
"^	c #E4E4E4",
"/	c #E7E7E7",
"(	c #6A6A6A",
"_	c #EEEEEE",
":	c #E5E5E5",
"<	c #CECECE",
"[	c #A7A7A7",
"}	c #989898",
"|	c #C2C2C2",
"1	c #AEAEAE",
"2	c #B0B0B0",
"3	c #B7B7B7",
"4	c #BFBFBF",
"5	c #CDCDCD",
"6	c #D5D5D5",
"7	c #DDDDDD",
"8	c #C9C9C9",
"9	c #A5A5A5",
"0	c #8D8D8D",
"a	c #898989",
"b	c #C6C6C6",
"c	c #B1B1B1",
"d	c #A9A9A9",
"e	c #A8A8A8",
"f	c #A0A0A0",
"g	c #8E8E8E",
"h	c #888888",
"i	c #878787",
"j	c #9B9B9B",
"k	c #B3B3B3",
"l	c #AFAFAF",
"m	c #ACACAC",
"n	c #8B8B8B",
"o	c #868686",
"p	c #CCCCCC",
"q	c #B5B5B5",
"r	c #B4B4B4",
"s	c #B2B2B2",
"t	c #ABABAB",
"u	c #8A8A8A",
"v	c #858585",
"w	c #9D9D9D",
"x	c #CFCFCF",
"y	c #B6B6B6",
"z	c #D2D2D2",
"A	c #B9B9B9",
"B	c #B8B8B8",
"C	c #848484",
"D	c #838383",
"E	c #A2A2A2",
"F	c #BBBBBB",
"G	c #BABABA",
"H	c #828282",
"I	c #A4A4A4",
"J	c #D6D6D6",
"K	c #BCBCBC",
"L	c #818181",
"M	c #D9D9D9",
"N	c #BDBDBD",
"O	c #808080",
"P	c #DEDEDE",
"Q	c #E6E6E6",
"R	c #C7C7C7",
"S	c #DCDCDC",
"T	c #C8C8C8",
"...+@#$%&*....+",
"@&=-;>-,'')$)!~",
"{]~^/(''-)_:<[}",
"|1234'5677890a}",
"bc21,'dedfghhij",
"8kccl'md[jniioj",
"pqrsc',tdjuovvw",
"x3yqk'l,tjavvvf",
"zABy'(c1mjaCCDE",
"6FGB',c2,jhDDHI",
"JKFA'qkc1jiHHL9",
"MNKG'yrcljoLOa8",
"^bNG'yrcljvOfP%",
"+&$Q'RAcljg|-+.",
"....&STNR7&...."};
