/* XPM */
static char * albaVMEPolyline_xpm[] = {
"15 15 7 1",
" 	c #FFFFFF",
".	c #000000",
"+	c #7D7D7D",
"@	c #EDEDED",
"#	c #A2A2A2",
"$	c #FEFEFE",
"%	c #CCCCCC",
"               ",
" ..            ",
" ..       ..   ",
"  +      @..   ",
"  #@     +$%   ",
"  %%    #@$%   ",
"  @#  ..% $%   ",
"   +  ..  $%   ",
"   #@ #@  $%   ",
"   %$%%   $%   ",
"   %%#@   $%   ",
"   ..%    $#   ",
"   ..     ..   ",
"          ..   ",
"               "};
