/* XPM */
static char * albaVmeCloud_xpm[] = {
"15 15 36 1",
" 	c None",
".	c #FFFFFF",
"+	c #6B6C6B",
"@	c #757575",
"#	c #7B7B7B",
"$	c #6E6E6E",
"%	c #80807F",
"&	c #878686",
"*	c #8D8E8D",
"=	c #8D8D8C",
"-	c #6A6B6B",
";	c #7F7F7F",
">	c #868686",
",	c #8D8D8D",
"'	c #949494",
")	c #9B9B9B",
"!	c #999A9A",
"~	c #747474",
"{	c #858586",
"]	c #939493",
"^	c #9A9B9A",
"/	c #A1A1A2",
"(	c #A2A1A2",
"_	c #797979",
":	c #8C8C8C",
"<	c #939393",
"[	c #9A9A9A",
"}	c #A1A1A1",
"|	c #A8A8A8",
"1	c #A9AAAA",
"2	c #8C8B8C",
"3	c #99999A",
"4	c #A0A1A0",
"5	c #A8A7A7",
"6	c #AAAAAA",
"7	c #989898",
".........+@#...",
"........$%&*=..",
".......-;>,')!.",
".......~{,]^/(.",
"......._:<[}|1.",
"...+@#..23456..",
"..$%&*=..7}|...",
".-;>,')!.......",
".~{,]^/(..+@#..",
"._:<[}|1.$%&*=.",
"..23456.-;>,')!",
"...7}|..~{,]^/(",
"........_:<[}|1",
".........23456.",
"..........7}|.."};
