/* XPM */
static char * albaVMESurface_xpm[] = {
"15 15 80 1",
" 	c None",
".	c #FDFDFD",
"+	c #E6E6E6",
"@	c #B6B6B6",
"#	c #B0B0B0",
"$	c #A0A0A0",
"%	c #A3A3A3",
"&	c #F1F1F1",
"*	c #ACACAC",
"=	c #C5C5C5",
"-	c #C9C9C9",
";	c #8A8A8A",
">	c #8B8B8B",
",	c #BFBFBF",
"'	c #B7B7B7",
")	c #CCCCCC",
"!	c #BBBBBB",
"~	c #9A9A9A",
"{	c #6B6B6B",
"]	c #D4D4D4",
"^	c #9E9E9E",
"/	c #BEBEBE",
"(	c #CBCBCB",
"_	c #B9B9B9",
":	c #9F9F9F",
"<	c #757575",
"[	c #898989",
"}	c #D0D0D0",
"|	c #A5A5A5",
"1	c #C7C7C7",
"2	c #7D7D7D",
"3	c #4E4E4E",
"4	c #FAFAFA",
"5	c #ABABAB",
"6	c #C1C1C1",
"7	c #9C9C9C",
"8	c #818181",
"9	c #5F5F5F",
"0	c #8D8D8D",
"a	c #EEEEEE",
"b	c #C3C3C3",
"c	c #C0C0C0",
"d	c #B1B1B1",
"e	c #6A6A6A",
"f	c #525252",
"g	c #EBEBEB",
"h	c #AAAAAA",
"i	c #BDBDBD",
"j	c #A4A4A4",
"k	c #919191",
"l	c #5E5E5E",
"m	c #666666",
"n	c #AEAEAE",
"o	c #C8C8C8",
"p	c #9B9B9B",
"q	c #858585",
"r	c #686868",
"s	c #C2C2C2",
"t	c #CFCFCF",
"u	c #7E7E7E",
"v	c #828282",
"w	c #8F8F8F",
"x	c #D1D1D1",
"y	c #D2D2D2",
"z	c #9D9D9D",
"A	c #999999",
"B	c #979797",
"C	c #A9A9A9",
"D	c #F8F8F8",
"E	c #D9D9D9",
"F	c #D6D6D6",
"G	c #D5D5D5",
"H	c #CDCDCD",
"I	c #F9F9F9",
"J	c #E9E9E9",
"K	c #D7D7D7",
"L	c #AFAFAF",
"M	c #A6A6A6",
"N	c #E5E5E5",
"O	c #F5F5F5",
"....+@#$%......",
"...&*=-@;>.....",
"...,'))!~{]....",
"..&^/((_:<[....",
"..}|!=1':234...",
"..#5,=6#7890a..",
"..7@b=cd7[ef2%.",
".ghi=1='jk2lm01",
"+n_bo-(!hpqerqp",
"nns-(ttb#jkuvw6",
",@)}x]y)i#zABC.",
".DEy]FGHcnj^|&.",
"...IJKH/LM|jN..",
"......a-nhMb...",
".........g1O..."};
