/* XPM */
static char * albaVMEProcedural_xpm[] = {
"15 15 90 1",
" 	c None",
".	c #FFFFFF",
"+	c #F1F1F1",
"@	c #D9D8D9",
"#	c #DCDCDC",
"$	c #EDEDED",
"%	c #EBEBEB",
"&	c #AEAEAD",
"*	c #BBBBBB",
"=	c #CECECE",
"-	c #E0E0E0",
";	c #F3F2F2",
">	c #AEAEAE",
",	c #9C9C9C",
"'	c #AEAFAE",
")	c #C1C1C1",
"!	c #D3D3D4",
"~	c #E6E5E6",
"{	c #F9F8F8",
"]	c #848484",
"^	c #8F908F",
"/	c #A2A2A2",
"(	c #B4B4B4",
"_	c #C7C7C7",
":	c #DAD9D9",
"<	c #EBECEC",
"[	c #FDFDFD",
"}	c #F9F9F9",
"|	c #777878",
"1	c #838283",
"2	c #969595",
"3	c #A7A8A8",
"4	c #BBBBBA",
"5	c #CCCCCC",
"6	c #E0DFE0",
"7	c #EFEEEF",
"8	c #CFCFCF",
"9	c #F2F2F2",
"0	c #939494",
"a	c #777777",
"b	c #898889",
"c	c #9B9B9C",
"d	c #C1C1C0",
"e	c #D3D3D2",
"f	c #D2D2D2",
"g	c #FAFAFA",
"h	c #737373",
"i	c #7C7C7D",
"j	c #8F8E8E",
"k	c #A1A1A1",
"l	c #B3B4B3",
"m	c #C5C5C5",
"n	c #979797",
"o	c #CACACA",
"p	c #DDDDDD",
"q	c #E1E1E1",
"r	c #888888",
"s	c #9A999A",
"t	c #B6B6B6",
"u	c #868686",
"v	c #989898",
"w	c #CBCBCB",
"x	c #969696",
"y	c #818181",
"z	c #9F9F9F",
"A	c #CDCDCD",
"B	c #E9E9E9",
"C	c #D8D8D8",
"D	c #8F8F8F",
"E	c #A8A8A8",
"F	c #D0D0D0",
"G	c #D7D7D7",
"H	c #F6F6F6",
"I	c #FCFCFC",
"J	c #B2B2B2",
"K	c #D1D1D1",
"L	c #D3D3D3",
"M	c #DEDEDE",
"N	c #F8F8F8",
"O	c #8B8B8B",
"P	c #D4D4D4",
"Q	c #D6D6D6",
"R	c #E7E7E7",
"S	c #FEFEFE",
"T	c #B7B7B7",
"U	c #C0C0C0",
"V	c #D9D9D9",
"W	c #EAEAEA",
"X	c #F0F0F0",
"Y	c #E2E2E2",
"...............",
"..+@#$.........",
".%&*=-;........",
".>,')!~{.......",
".]^/(_:<[}.....",
".|123456789....",
".0abc&de5=fg...",
".-hijklmn5op...",
"..q,rstuv5woq..",
"......xyzw5=AB.",
".....CDuE5==FGH",
".....IzDJ=FKLMN",
"......GO*fPQR..",
".....S.TUVW[.S.",
".......XYg....."};
