/* XPM */
static char * mafVMERefSys_xpm[] = {
"15 15 8 1",
" 	c None",
".	c #FFFFFF",
"+	c #ABA4A4",
"@	c #C6BEBE",
"#	c #777777",
"$	c #3C3C3C",
"%	c #685B5B",
"&	c #8B7979",
".+.............",
"@+@............",
"+++............",
".+........#$...",
".+......$$$#...",
".+.......$$....",
".+......$.$....",
".+.....$.......",
".+....$........",
".+...$.........",
".+..$..........",
".+.$...........",
".+$.........%&.",
".$%%%%%%%%%%%%%",
"............%&."};
