/* XPM */
static char * mafVMEProcedural_xpm[] = {
"15 15 107 2",
"  	c None",
". 	c #FDFDFD",
"+ 	c #E2E2E2",
"@ 	c #8B8B8B",
"# 	c #777777",
"$ 	c #939393",
"% 	c #DFDFDF",
"& 	c #FAFAFA",
"* 	c #EBEBEB",
"= 	c #464646",
"- 	c #979797",
"; 	c #CBCBCB",
"> 	c #C5C5C5",
", 	c #ABABAB",
"' 	c #E8E8E8",
") 	c #A1A1A1",
"! 	c #676767",
"~ 	c #D0D0D0",
"{ 	c #D1D1D1",
"] 	c #6D6D6D",
"^ 	c #B3B3B3",
"/ 	c #BDBDBD",
"( 	c #6C6C6C",
"_ 	c #E5E5E5",
": 	c #F6F6F6",
"< 	c #7B7B7B",
"[ 	c #616161",
"} 	c #C7C7C7",
"| 	c #E7E7E7",
"1 	c #F3F3F3",
"2 	c #525252",
"3 	c #C8C8C8",
"4 	c #F7F7F7",
"5 	c #A5A5A5",
"6 	c #858585",
"7 	c #A6A6A6",
"8 	c #797979",
"9 	c #BBBBBB",
"0 	c #E6E6E6",
"a 	c #757575",
"b 	c #EFEFEF",
"c 	c #F2F2F2",
"d 	c #9F9F9F",
"e 	c #6F6F6F",
"f 	c #ADADAD",
"g 	c #A0A0A0",
"h 	c #949494",
"i 	c #D5D5D5",
"j 	c #FBFBFB",
"k 	c #AEAEAE",
"l 	c #5A5A5A",
"m 	c #B6B6B6",
"n 	c #9E9E9E",
"o 	c #8D8D8D",
"p 	c #575757",
"q 	c #848484",
"r 	c #F8F8F8",
"s 	c #9A9A9A",
"t 	c #696969",
"u 	c #BABABA",
"v 	c #DBDBDB",
"w 	c #C0C0C0",
"x 	c #A8A8A8",
"y 	c #535353",
"z 	c #878787",
"A 	c #727272",
"B 	c #A7A7A7",
"C 	c #5D5D5D",
"D 	c #F4F4F4",
"E 	c #D9D9D9",
"F 	c #6A6A6A",
"G 	c #666666",
"H 	c #909090",
"I 	c #868686",
"J 	c #565656",
"K 	c #737373",
"L 	c #7C7C7C",
"M 	c #E4E4E4",
"N 	c #484848",
"O 	c #787878",
"P 	c #828282",
"Q 	c #8C8C8C",
"R 	c #969696",
"S 	c #EAEAEA",
"T 	c #F9F9F9",
"U 	c #363636",
"V 	c #DADADA",
"W 	c #898989",
"X 	c #4D4D4D",
"Y 	c #585858",
"Z 	c #7E7E7E",
"` 	c #DCDCDC",
" .	c #F0F0F0",
"..	c #B9B9B9",
"+.	c #C3C3C3",
"@.	c #CFCFCF",
"#.	c #FCFCFC",
"$.	c #838383",
"%.	c #6B6B6B",
"&.	c #D3D3D3",
"*.	c #CCCCCC",
"=.	c #EEEEEE",
"-.	c #717171",
";.	c #656565",
">.	c #CACACA",
",.	c #E3E3E3",
"'.	c #B4B4B4",
"  . . + @ # $ % & . . . . .   ",
"  . * = - ; > , ' . . . . .   ",
"  . ) ! ~ { ] ^ ; & . . . .   ",
"  . / ( _ : < [ } | : 1 . .   ",
"  . / 2 3 4 5 6 } 7 ! 8 9 .   ",
"  . 0 ( a b c + d e f g h i   ",
"  . j k l m i n ! o ^ p q 9   ",
"  r s t u v w x y z ; $ A B   ",
"  v C ^ D 0 b E F G m H I )   ",
"  x J _ 4 K L M s N O s P d   ",
"  Q R S T ; U V 0 W X Y Z M   ",
"  ` J {  ...n +.@.. * c #..   ",
"  E $.%.&.v *.g =.. . . . .   ",
"  . ^ -.;.Z O >.& . . . . .   ",
"  . . ,.w '.=.#.. . . . . .   "};
