/* XPM */
static char * mafVMEPointSet_xpm[] = {
"15 15 12 1",
" 	c None",
".	c #A6A6A6",
"+	c #646464",
"@	c #434343",
"#	c #656565",
"$	c #3C3C3C",
"%	c #949494",
"&	c #D6D6D6",
"*	c #D5D5D5",
"=	c #FFFFFF",
"-	c #646565",
";	c #626263",
"               ",
"    .+@@+.     ",
"   #$$$$$$+    ",
"  #$$%&&%$$+   ",
" .$$*====*$$.  ",
" +$%======%$+  ",
" @$&======&$@  ",
" @$&======&$@  ",
" +$%======%$+  ",
" .$$*====*$$.  ",
"  -$$%&&%$$;   ",
"   +$$$$$$;    ",
"    .+@@+.     ",
"               ",
"               "};
