/* XPM */
static char * mafVMEFem_xpm[] = {
"15 15 70 1",
" 	c None",
".	c #FFFFFF",
"+	c #FAFAFA",
"@	c #F9F9F9",
"#	c #FEFEFE",
"$	c #C0C0C0",
"%	c #D3D3D3",
"&	c #F8F8F8",
"*	c #E8E8E8",
"=	c #989898",
"-	c #CBCBCB",
";	c #D5D5D5",
">	c #B4B4B4",
",	c #8C8C8C",
"'	c #CECECE",
")	c #C8C8C8",
"!	c #E1E1E1",
"~	c #DFDFDF",
"{	c #797979",
"]	c #9B9B9B",
"^	c #CCCCCC",
"/	c #E9E9E9",
"(	c #898989",
"_	c #7F7F7F",
":	c #A3A3A3",
"<	c #F1F1F1",
"[	c #BABABA",
"}	c #808080",
"|	c #ABABAB",
"1	c #CDCDCD",
"2	c #CACACA",
"3	c #EBEBEB",
"4	c #8F8F8F",
"5	c #858585",
"6	c #7E7E7E",
"7	c #B3B3B3",
"8	c #D6D6D6",
"9	c #FBFBFB",
"0	c #FCFCFC",
"a	c #B8B8B8",
"b	c #8A8A8A",
"c	c #878787",
"d	c #848484",
"e	c #B9B9B9",
"f	c #CFCFCF",
"g	c #D0D0D0",
"h	c #F0F0F0",
"i	c #BFBFBF",
"j	c #919191",
"k	c #8B8B8B",
"l	c #D1D1D1",
"m	c #D4D4D4",
"n	c #ECECEC",
"o	c #A0A0A0",
"p	c #929292",
"q	c #C6C6C6",
"r	c #D2D2D2",
"s	c #DADADA",
"t	c #E6E6E6",
"u	c #F5F5F5",
"v	c #9A9A9A",
"w	c #D7D7D7",
"x	c #E3E3E3",
"y	c #F7F7F7",
"z	c #A1A1A1",
"A	c #D8D8D8",
"B	c #F4F4F4",
"C	c #DDDDDD",
"D	c #FDFDFD",
"E	c #F6F6F6",
"......+@.......",
".....#$%&......",
".....*=-;##....",
"....#>,')!.#...",
"....~{]^--/.#..",
"...#(_:^--^<...",
"...[}_|^-12'&..",
"..34567-^^'^89.",
".0abcde^'11fg!#",
".hijkki1''gl;mn",
"..hoppqfglrmstu",
"...'4v^%;%wxy##",
"....zz;AwxB....",
"....tzCxB#.#...",
"....D!ED......."};
