/* XPM */
static char *mafVMELandmark_xpm[] = {
/* columns rows colors chars-per-pixel */
"15 15 89 1",
"C c #6188A6",
"A c #3A5264",
", c #A1C1D9",
"U c #5D6B76",
"T c #FDFEFE",
"Q c #506F88",
"x c #6D98BA",
"/ c #F3F4F5",
"! c #425A6D",
"= c #7F95A6",
"o c #DFE6EB",
"I c #384D5D",
"V c #6C97B9",
"y c #B5BBBF",
"u c #E2EAF0",
"r c #48657B",
"B c #729FC2",
"l c #7FB0D7",
"3 c #5B7E99",
"& c #88A7C0",
"# c #FBFCFD",
"_ c #91A1AD",
"0 c #85B8E1",
"Y c #D1D4D8",
"7 c #F1F5F8",
"a c #81B3DB",
"w c #74A2C6",
"6 c #EAECED",
"O c #DAE0E5",
"g c #838C92",
"j c #8AADC8",
"Z c #507089",
"X c #F0F4F6",
"H c #7091AB",
"W c #638097",
"J c #6389A8",
"@ c #F6F6F7",
"i c #93B6D2",
"q c #80B2DA",
"f c #324655",
"~ c #62737F",
"( c #ECEFF1",
"D c #929AA0",
"z c #79A9CE",
"p c #86BAE3",
"  c None",
"; c #E2E5E6",
"n c #788188",
"e c #6288A6",
"b c #2E4150",
"- c #ABB5BC",
"1 c #75A4C8",
") c #BEC8CF",
"[ c #FEFEFE",
"K c #5E83A1",
"t c #475967",
"L c #547690",
"s c #6187A6",
"S c #30414F",
"F c #F7F8F9",
"c c #5A7E9B",
"% c #AAC3D5",
". c #FDFDFD",
"h c #DDE5EC",
": c #FDFDFE",
"5 c #939CA4",
"k c #7AABD0",
"4 c #566D7E",
"> c #E0E9F0",
"P c #466177",
"N c #709BBD",
"R c #E6EBEE",
"< c #80ADD0",
"* c #7C99B0",
"v c #425C71",
"^ c #B2B9BF",
"2 c #6C96B7",
"M c #8FACC2",
"$ c #DFE8EF",
"] c #D2D7DB",
"` c #8596A2",
"E c #A2B3C0",
"8 c #AFCADE",
"+ c #E2E6E9",
"d c #48647A",
"m c #E5EAEF",
"' c #9BA7B0",
"G c #B8C7D2",
"9 c #85B4D9",
/* pixels */
"               ",
"               ",
"    .XoO+@.    ",
"   #$%&*=-;.   ",
"  :>,<123456   ",
"  7890qwerty   ",
"  uiqpawsdfg   ",
"  hjklzxcvbn   ",
"  mMNBVCZASD   ",
"  FGHJKLPIUY   ",
"  TREWQr!~^/   ",
"   .()_`']/[   ",
"               ",
"               ",
"               "
};
