/* XPM */
static char *mafVMELandmarkCloud_xpm[] = {
/* columns rows colors chars-per-pixel */
"15 15 69 1",
"O c #EEF0F2",
"J c #C1CAD0",
"S c #748CA0",
"V c #E4E6E8",
"F c #5A7081",
"q c #4A677D",
"z c #3D566A",
"j c #74A1C5",
"D c #5D778C",
"Z c #FAFAFB",
"k c #6A94B5",
"* c #99ABBA",
"+ c #F9F9FA",
"# c #FCFDFD",
"G c #82909A",
"a c #456177",
"L c #E5E8EA",
"3 c #A8B0B6",
"5 c #F5F7FA",
"v c #C8D4DC",
"c c #C1C5C8",
"4 c #F1F2F3",
"% c #B4C9D8",
"X c #F4F6F8",
"M c #4A687F",
"d c #BABFC2",
"t c #A4C0D6",
"> c #A4C3DB",
"b c #7797B1",
"9 c #7AAAD0",
"w c #5C6B77",
", c #80ACCF",
"< c #739EC0",
"N c #3F5465",
"u c #80B2DA",
"6 c #B9D0E1",
"s c #455662",
"i c #76A5CA",
"8 c #83B6DF",
"- c #EFF0F1",
"x c #485763",
"f c #EFF3F6",
"  c #FFFFFF",
"n c #6288A7",
"g c #A5BCCF",
"l c #587B97",
"h c #75A1C3",
"& c #9BB2C5",
"@ c #FEFEFE",
"r c #EEF2F6",
"C c #D1D5D9",
"A c #B4C1CC",
"$ c #E4EBF1",
"B c #7D8891",
"0 c #678FAF",
"2 c #607788",
". c #FDFDFD",
"; c #FDFDFE",
"1 c #6387A4",
"K c #C6CDD3",
"p c #638AAA",
"m c #597D99",
"o c #ECF0F2",
"e c #CFD3D5",
"= c #BFC7CC",
"7 c #86B5DA",
"H c #D5DBE0",
"y c #7FAFD5",
": c #E5EDF3",
/* pixels */
"        .XoO+@ ",
"       #$%&*=-@",
"      ;:>,<1234",
"      567890qwe",
"      rtyuipasd",
" $%&*=fghjklzxc",
":>,<123vbnmMNBV",
"67890qwe$%&*=CZ",
"tyuipas:>,<123@",
"ghjklzx67890qwe",
"vbnmMNBtyuipasd",
" ASDFGCghjklzxc",
"  HJKL vbnmMNBV",
"        ASDFGC ",
"         HJKL  "
};
