/* XPM */
static char *VME_IMAGE_xpm[] = {
/* columns rows colors chars-per-pixel */
"15 15 91 1",
"* c #78A6CA",
"e c #78A6CB",
"U c #7BAAD0",
"$ c #F7FFFF",
"y c #719DC0",
"A c #77A5C9",
"& c #77A5CA",
"f c #7AA9CE",
"Y c #BDDAF0",
"` c #E0EDF7",
"l c #7DADD3",
"b c #80B1D8",
"5 c #73A0C3",
"p c #A6C8E2",
"> c #ABEAF1",
"3 c #76A4C8",
"r c #76A4C9",
"1 c #79A8CD",
"( c #7CACD1",
"s c #7CACD2",
"u c #6F9BBD",
"8 c #75A3C1",
"z c #729FC2",
"j c #7FB0D7",
"9 c #6B93AC",
"_ c #F8FBFE",
"/ c #82B4DC",
"G c #75A3C7",
"K c #85B8E1",
"2 c #78A7CC",
"x c #5E829F",
"+ c #DAFEFF",
"d c #7BABD0",
"q c #7BABD1",
"o c #B3F8FF",
"~ c #9BC6E8",
"F c #7EAFD5",
"6 c #719EC0",
"k c #7EAFD6",
"! c #D4E7F6",
"v c #81B3DA",
"4 c #74A2C5",
"C c #81B3DB",
"X c #B6EDF8",
"{ c #77A6CA",
"D c #84B7DF",
"H c #5D819E",
"] c #AACBE5",
"% c #9ABCD8",
"w c #7AAACF",
"= c #80B2D0",
"O c #B5FBFF",
": c #9FDBE8",
"a c #7DAED4",
"Z c #80B2D9",
"N c #73A1C4",
"0 c #A3C5DF",
"I c #80B2DA",
"E c #83B6DE",
"S c #B6D5ED",
"g c #76A5C9",
"Q c #5C809C",
"m c #79A9CE",
"  c #FFFFFF",
"c c #AFCFE8",
"W c #7FB1D8",
"P c #82B5DC",
"V c #82B5DD",
") c #5B7F9B",
"; c #94CDDF",
"T c #85B9E2",
"i c #5E83A0",
"[ c #8EB9DB",
"n c #7EB0D6",
"- c #8AC0D8",
"B c #B4D3EB",
"} c #5A7E9A",
"' c #C7DDEF",
"R c #84B8E0",
"^ c #87B9E1",
"7 c #709BBD",
". c #D6EBF4",
"L c #83B7DF",
"M c #76A3C7",
"@ c #E5FFFF",
"J c #B9D7EE",
"h c #ACCCE6",
", c #B7F9FB",
"< c #9FC1DC",
"# c #EEFFFF",
"t c #75A2C6",
/* pixels */
"               ",
"  .XoO+@#$     ",
"  %&*=-;:>,+@  ",
"  <12&3456789  ",
"  0qw1ert5yui  ",
"  pasdf2gt5yi  ",
"  hjklqf234zx  ",
"  cvbnaqmeMNx  ",
"  BVCZkld1Atx  ",
"  SDVCbFsfeGH  ",
"  JKLPIjlU23H  ",
"  YTRECWaq1AQ  ",
"  !~^E/bF(m&)  ",
"    _`'][sm{}  ",
"               "
};
