/* XPM */
static char * mafVMEImage_xpm[] = {
"15 15 10 1",
" 	c None",
".	c #FFFFFF",
"+	c #000000",
"@	c #666464",
"#	c #5CBDEA",
"$	c #F6F317",
"%	c #E31414",
"&	c #109A37",
"*	c #ABA4A4",
"=	c #32D760",
"...............",
"...............",
"..++++@........",
"..+###+++@.....",
"..+#$$###+++...",
"..+#$$#####+...",
"..+######%#+...",
"..+##&##%*%+...",
"..+#&=&#***+...",
"..+&===&*+*+...",
"..+=====@@@+...",
"..+++======+...",
"....@+++===+...",
".......@++++...",
"..............."};
