/* XPM */
static char *mafVMEVector_xpm[] = {
/* columns rows colors chars-per-pixel */
"15 15 194 2",
"V. c #F7FAFF",
"A. c #8DBCE8",
"9. c #97CAFF",
"#  c #E6F4FF",
"L. c #E9FEFF",
"K  c #757790",
"d  c #EEFFFF",
"O  c #C1D5EE",
"7  c #FFFFFD",
"<  c #184274",
"a  c #FFFFFF",
"D  c #9CC5FF",
"T. c #B3DCFC",
"'  c #1E307C",
"x. c #0D246A",
"%. c #FFFCFF",
"S  c #81AEE7",
"!  c #92BAFF",
"&  c #FFF9FA",
"$X c #FDFFFA",
"3. c #0D2470",
":  c #779AC0",
"O. c #FFF9FF",
"l  c #84BBFB",
"I. c #626888",
",  c #527EAD",
"8. c #5788C3",
"o  c #E2F1FF",
"t. c #0E347D",
"w  c #9DCCFF",
"XX c #D1E8F8",
"P. c #A6B5D2",
">. c #1C2D7D",
"B  c #90B7F8",
"^  c #243E89",
"#X c #FBFFFE",
"`  c #425CA7",
"g  c #84AFE6",
".  c #FBFFFF",
"r. c #89B6F1",
"E  c #E8FFFF",
">  c #507BA5",
";  c #DEF7FF",
"H. c #FBFCFF",
"T  c #A4BBE7",
"Z. c #E3F8FF",
"e  c #76ADE3",
"C. c #F9FFFF",
"[  c #F4FBFF",
"x  c #5275B7",
",. c #8F8FCB",
"=. c #AACFF9",
"v  c #8B98C2",
"t  c #8AC0FE",
"b. c #EAF0FF",
"1  c #41608F",
"^. c #FEFDFF",
"G. c #F4F5FF",
"9  c #F7FFFF",
"W. c #1D286A",
"s. c #7BA5D5",
"r  c #88C0F9",
")  c #FEFAFF",
"[. c #F7FCFF",
"(  c #40416F",
"]  c #EDF4FF",
"y  c #446DAB",
"J  c #E8F0FF",
":. c #87B0FF",
"I  c #8AABCE",
"+X c #1B2558",
"<. c #FEF7FF",
"X  c #F5FFFF",
"y. c #5767A5",
"@  c #B9CCEA",
"J. c #EBF7FF",
"l. c #88B7EB",
"m. c #60829E",
"U  c #6482CA",
"h  c #83B6F7",
"6  c #FCF7F4",
"F  c #35589A",
"W  c #6586A5",
"~  c #0D3280",
"~. c #F0F8FF",
"z  c #92C2FF",
"d. c #8DBBF7",
"V  c #103C85",
"a. c #29476D",
"u  c #1C356B",
"0. c #6C96EA",
"q  c #8DB2DE",
"A  c #4A78AA",
"=  c #FFFEFB",
"   c None",
"U. c #FAFAFF",
" . c #517FD5",
"*  c #FFFBF9",
"/. c #FAF7FE",
"j. c #FFFBFF",
"K. c #F1FFFF",
"+  c #B0C5E0",
" X c #FDFEFF",
"k. c #C7E2F7",
"n  c #DADCE8",
"z. c #2F5EA2",
".. c #3355AF",
"L  c #F8F7FF",
"6. c #B5C0D4",
"}  c #4D73A2",
"$  c #FBFEFF",
"Q  c #93BAF1",
"k  c #6CA7E1",
"f. c #5C82C1",
"R. c #91BDEE",
"i  c #7280A7",
"w. c #A3A4DC",
"+. c #8CADCE",
"F. c #475093",
"(. c #FEFFFF",
"p  c #F9FBFF",
"R  c #EBFFFF",
"0  c #E1F7FF",
"{  c #DCF3FF",
"n. c #D7EFFF",
"s  c #F4F4FC",
"!. c #F7FEFF",
"`. c #9DB3E5",
"-. c #71A2E5",
"G  c #0A245F",
"Y. c #FCFFFF",
"Z  c #6F9FCF",
"P  c #E9FFFF",
"2. c #6E8FD4",
"M  c #E4FBFF",
"Q. c #636598",
"f  c #B7D4F2",
"4. c #B8BBEE",
"%  c #FCF9FF",
"D. c #233B83",
"|. c #FAFFFF",
"2  c #B4C4E8",
"@X c #F0F7FF",
"_  c #E7FFFF",
"/  c #707AB8",
"e. c #ABC9E3",
"5  c #FFFDFB",
"h. c #CFD2FD",
"i. c #C0C0E6",
"$. c #D9DAFF",
"4  c #FFFDFF",
"&. c #F5F5FD",
"N. c #3D5988",
"}. c #F8FFFF",
"E. c #627BBD",
"M. c #40638D",
"oX c #B2C4EC",
"). c #E5FFFF",
"_. c #AED0EC",
"5. c #FFFAFF",
"c  c #102962",
"N  c #95B6D7",
"q. c #0D1F69",
"8  c #F8F9FE",
"j  c #5F9AD4",
"c. c #BEC6FF",
";. c #8EC1FF",
"@. c #6A86CF",
"{. c #F1F8FF",
"1. c #98B7D4",
"u. c #F6F9FF",
"H  c #C4D4FF",
"OX c #424E82",
"-  c #F4FFFF",
"#. c #061864",
"o. c #53548D",
"S. c #6999D7",
"g. c #13245C",
"X. c #010E5C",
"p. c #596283",
"7. c #6486AC",
"3  c #F9FDFF",
"C  c #1C4B83",
"*. c #F2FFFF",
"|  c #8CBBFF",
"b  c #EAF1FF",
"%X c #FEFEFC",
"'. c #3B4A85",
".X c #FEFEFE",
"m  c #FEFEFF",
"v. c #F9FAFF",
"]. c #181F56",
"B. c #111E4A",
"Y  c #0C2671",
/* pixels */
"  . X o O + @ # $ % & * =     ",
". - ; : > , < 1 2 3 4 5 6 7 8 ",
"9 0 q w e r t y u i p     a s ",
"d f g h j k l z x c v b $ n m ",
"M N B V C Z A S D F G H J K L ",
"P I U Y T R E W Q ! ~ ^ / ( ) ",
"_ I ` ' ] [ 9 { } |  ...X.o.O.",
"E +.@.#.$.%.&.*.=.-.;.:.>.,.<.",
"P 1.2.3.4.5.% 6.7.8.9.0.q.w.5.",
"d e.r.t.y.u.i.p.a.s.d.f.g.h.j.",
"- k.l.z.x.c.v.b.n.m.M.N.B.V.%.",
"C.Z.A.S.D.F.G.H.J.K.L.P.I.U.%.",
"Y.*.T.R.E.W.Q.H.!.X 9 ~.$ ^./.",
"(.9 )._.`.'.].[.{.}.}.|. X^..X",
".X}.K.XXoXOX+X@X[ C.#X$X%X%X%X"
};
