/* XPM */
static char * mafVMEImage_xpm[] = {
"15 15 116 2",
"  	c None",
". 	c #FFFFFF",
"+ 	c #FEFEFE",
"@ 	c #706E6E",
"# 	c #7E7C7C",
"$ 	c #929191",
"% 	c #DDDDDD",
"& 	c #ECEBEC",
"* 	c #F7F6F6",
"= 	c #7C7B7B",
"- 	c #605F5F",
"; 	c #6A6A6A",
"> 	c #868586",
", 	c #959494",
"' 	c #8F8E8E",
") 	c #959393",
"! 	c #E3E3E3",
"~ 	c #FAFAFA",
"{ 	c #686666",
"] 	c #595859",
"^ 	c #5A5A5B",
"/ 	c #626262",
"( 	c #666566",
"_ 	c #666565",
": 	c #797878",
"< 	c #7E7E7D",
"[ 	c #979696",
"} 	c #646262",
"| 	c #5A595A",
"1 	c #606160",
"2 	c #676867",
"3 	c #6E6E6E",
"4 	c #757475",
"5 	c #737372",
"6 	c #6B6B6B",
"7 	c #6B6A6A",
"8 	c #7F7E7E",
"9 	c #848383",
"0 	c #FDFDFD",
"a 	c #666464",
"b 	c #686868",
"c 	c #706F6F",
"d 	c #767676",
"e 	c #7D7D7D",
"f 	c #838384",
"g 	c #8A8A8A",
"h 	c #8B8B8A",
"i 	c #787676",
"j 	c #696969",
"k 	c #707070",
"l 	c #777777",
"m 	c #7E7E7E",
"n 	c #858585",
"o 	c #8C8C8B",
"p 	c #939292",
"q 	c #999A99",
"r 	c #8D8D8C",
"s 	c #767575",
"t 	c #70706F",
"u 	c #797979",
"v 	c #808080",
"w 	c #868786",
"x 	c #8D8D8D",
"y 	c #949494",
"z 	c #9A9A9B",
"A 	c #A2A1A2",
"B 	c #818181",
"C 	c #888888",
"D 	c #959595",
"E 	c #9C9D9C",
"F 	c #A3A3A3",
"G 	c #AAA9AA",
"H 	c #9A9999",
"I 	c #6D6B6B",
"J 	c #6B6969",
"K 	c #7C7C7C",
"L 	c #898989",
"M 	c #8F9090",
"N 	c #979697",
"O 	c #9D9D9D",
"P 	c #A4A4A4",
"Q 	c #ABABAB",
"R 	c #B2B2B1",
"S 	c #9F9F9F",
"T 	c #6A6868",
"U 	c #727070",
"V 	c #787878",
"W 	c #848484",
"X 	c #9E9D9D",
"Y 	c #A6A6A6",
"Z 	c #ADACAD",
"` 	c #B3B4B4",
" .	c #BAB9BA",
"..	c #A5A5A5",
"+.	c #F7F7F7",
"@.	c #979797",
"#.	c #999999",
"$.	c #8E8E8E",
"%.	c #828282",
"&.	c #989898",
"*.	c #B0B0AF",
"=.	c #B9B9BA",
"-.	c #C0C0C0",
";.	c #AEAEAE",
">.	c #EFEFEF",
",.	c #DADADA",
"'.	c #9B9B9B",
").	c #8C8B8B",
"!.	c #7E7F7E",
"~.	c #A2A3A3",
"{.	c #6F6D6D",
"].	c #F8F8F8",
"^.	c #EDEDED",
"/.	c #7C7A7A",
"(.	c #6E6C6C",
"_.	c #727272",
". . . + + . . . . . . . . . . ",
". . @ # $ % & * + . . . . . . ",
". . = - ; > , ' ) ! ~ . . . . ",
". . { ] ^ / ( _ : < [ % ~ . . ",
". . } | 1 2 3 4 5 6 7 8 9 0 . ",
". . a / b c d e f g h = i + . ",
". . a j k l m n o p q r s . . ",
". . a t u v w x y z A p @ . . ",
". . a l B C ' D E F G H I . . ",
". . J K L M N O P Q R S T . . ",
". . U V W p X Y Z `  ...T . . ",
". . +.@.#.$.%.&.*.=.-.;.@ . . ",
". . . 0 >.,.'.).u !.~...{.. . ",
". . . . . . + ].^./.(._.T . . ",
". . . . . . . . . . . . . . . "};
