/* XPM */
static char * mafVMELandmark_xpm[] = {
"15 15 13 1",
" 	c None",
".	c #FFFFFF",
"+	c #5B5A5A",
"@	c #171717",
"#	c #040303",
"$	c #CCCCCC",
"%	c #181717",
"&	c #000000",
"*	c #747474",
"=	c #CACACA",
"-	c #1F1F1F",
";	c #C9C9C9",
">	c #CBCBCB",
"...............",
"....+@##@+.....",
"..$%&*==*&%$...",
"..%-;....;-%...",
".+&;......;&+..",
".@*........*@..",
".#=........=#..",
".#=........=#..",
".@*........*@..",
".+&;......;&+..",
"..%-;....;-@...",
"..$%&*==*&@>...",
"....+@##@+.....",
"...............",
"..............."};
