/* XPM */
static char *mafVMEGroup_xpm[] = {
/* columns rows colors chars-per-pixel */
"15 15 114 2",
"f  c #6B95B6",
"-  c #F1FDFE",
"#  c #EEF3F7",
"y  c #87B7C9",
"z  c #6188A5",
"$  c #719DBA",
">. c #D1DCE5",
"]  c #6188A6",
"T  c #6E99BB",
"Y  c #C4D1DB",
"-. c #D4E0E9",
".. c #719DBF",
"w  c #648CAA",
"'  c #648CAB",
"O  c #E0FFFF",
"V  c #6790AF",
">  c #6790B0",
"o. c #6A94B4",
"B  c #6A94B5",
"d  c #EDF2F6",
"%  c #709CB8",
"G  c #6D98B9",
",. c #D0DBE4",
"`  c #6D98BA",
"X  c #DCFDFF",
"}  c #709CBE",
"j  c #668FAE",
"2. c #C9D5DE",
"s  c #CCDFE6",
"[  c #D9E1E8",
"%. c #D9E4ED",
"&  c #6F9BB6",
"X. c #6C97B8",
"a  c #8BBAC9",
"p  c #8BBACA",
"*. c #D8E3EC",
"#. c #FBFCFE",
"7  c #EBF0F5",
" . c #DEE5EB",
"t  c #87B8CA",
"5  c #F4FFFF",
":. c #D1DDE6",
"i  c #8AB9CA",
"3. c #FAFBFC",
"b  c #5D819D",
"U  c #5D819E",
"M  c #EDF3F7",
"r  c #86B7C9",
"P  c #6085A3",
"/  c #6389A8",
"q  c #668DAD",
"2  c #9FC9D8",
"n  c #5C809C",
"9  c #6991B1",
"W  c #CCD7E0",
"I  c #5F84A1",
"@  c #FFFFFF",
"c  c #5F84A2",
"+  c #E8FFFF",
"Z  c #6288A6",
"o  c #DEFEFF",
"=. c #D5E0E9",
"<  c #658CAB",
"&. c #D8E4ED",
"+. c #5B7F9B",
"H  c #6890B0",
"3  c #F1FFFF",
"~  c #6B94B5",
"v  c #5E83A0",
"D  c #5E83A1",
"(  c #D1DBE3",
"A  c #6187A4",
"L  c #6187A5",
";. c #D4DFE8",
"1  c #648BA9",
"E  c #648BAA",
"e  c #678FAC",
"0  c #678FAF",
"m  c #BAC9D5",
";  c #EAF0F5",
"=  c #80ADC2",
"g  c #6A93B3",
"<. c #CDD9E2",
"8  c #6A93B4",
"*  c #709BB6",
"4  c #F3FFFF",
")  c #F0F5F8",
"x  c #6086A3",
"|  c #6086A4",
"{  c #F0F5F9",
"!  c #6D97B9",
"_  c #709BBD",
"C  c #638AA8",
".  c #DCFCFF",
"K  c #638AA9",
",  c #668EAD",
"J  c #668EAE",
"O. c #5C819D",
":  c #6992B2",
"   c #FCFFFF",
"1. c #CCD8E1",
"^  c #6992B3",
"$. c #DCE7F0",
"R  c #6C96B7",
"F  c #BFCDD8",
"S  c #5F85A2",
"N  c #6C96B8",
"u  c #88B8C9",
"6  c #F5FFFF",
"Q  c #6F9ABC",
"l  c #6289A7",
"k  c #658DAC",
"h  c #6891B1",
"@. c #EBEFF3",
/* pixels */
"  . X o O + @ @ @ @ @ @ @ @ @ ",
"# $ % & * = - @ @ @ @ @ @ @ @ ",
"; : > , < 1 2 3 3 4 4 5 6 6   ",
"7 8 9 0 q w e r t y u i p a s ",
"d f g h j k 1 l z x c v b n m ",
"d f g h j k 1 l z x c v b n m ",
"M N B : V q w C Z A S D b n F ",
"M G f g H J < K l L P I U n Y ",
"M T R B h 0 k E l L x I U n W ",
"# Q ! ~ ^ V q E / L x I U n ( ",
") _ ` R g H , ' C ] x I U n [ ",
"{ } T R 8 h J < C Z | I U n  .",
"{ ..Q X.o.h j < C Z x I O.+.@.",
"#.$.%.&.*.=.-.;.:.>.,.<.1.2.3.",
"@ @ @ @ @ @ @ @ @ @ @ @ @ @ @ "
};
