/* XPM */
static char *mafVMEProber_xpm[] = {
/* columns rows colors chars-per-pixel */
"15 15 128 2",
"b  c #92CBF8",
"8. c #78A6CB",
"_  c #95CFFC",
"=  c #748695",
"<  c #6E99BB",
"-. c #A1DFFF",
"+. c #9EDBFF",
".. c #98D3FF",
"N  c #476379",
"3. c #D1EEFF",
"#. c #719DC0",
"w  c #77A5C9",
"9  c #506F87",
".  c #DDE9F2",
"T  c #94CEFB",
"7. c #7AA9CE",
"$. c #6D98B9",
"3  c #F0F3F6",
";. c #A0DEFF",
"o. c #9DDAFF",
">  c #97D2FF",
"h  c #709CBE",
"u. c #F3F7FB",
"O  c #73A0C3",
",. c #76A4C7",
"G  c #76A4C8",
"O. c #9FDDFF",
"s  c #7CACD2",
"t. c #E2EDF6",
"=. c #AFE0FF",
"*. c #F5FAFE",
"(  c #7FB0D7",
"[  c #587A95",
"+  c #88A1B4",
"r. c #A5C4DD",
"@. c #82B4DB",
"g  c #82B4DC",
"p  c #FBFCFC",
"z  c #EBF0F4",
"9. c #DBE7F0",
"~  c #5E829F",
"y. c #ABC9E1",
"A  c #7BABD0",
"e. c #7BABD1",
"-  c #A4C0D5",
"w. c #81B0D4",
"&. c #84A8C4",
"n  c #8EC4EF",
"'  c #81B3DB",
"j  c #5A7D98",
"{  c #5A7D99",
"B  c #334756",
"I  c #DAE9F4",
"D  c #94CCF9",
";  c #87BBE4",
" . c #9AC2E2",
",  c #8ABFE9",
"u  c #567892",
"q  c #C3D1DD",
"#  c #7DAED5",
"X  c #90B8D8",
"5. c #8DC3EE",
")  c #90C7F3",
"F  c #93CBF8",
"t  c #86BAE3",
"   c #FFFFFF",
"1. c #7CA4C4",
"P  c #AFC9DD",
"V  c #557791",
"*  c #6288A6",
"0. c #E2F1FD",
"6. c #7FB1D8",
"a  c #95B0C5",
"k  c #3E566A",
"f  c #8FC6F1",
"m  c #82B5DD",
"]  c #6890B0",
"c  c #85B9E1",
"&  c #85B9E2",
"$  c #92CAF7",
"Y  c #88BDE6",
"7  c #88BDE7",
"M  c #6187A5",
"`  c #9BD6FF",
":  c #98D2FF",
"S  c #8BC1EC",
">. c #8EC5F0",
"|  c #A7C2D7",
"H  c #678FAF",
"K  c #435D71",
"q. c #AACCE6",
"C  c #7DA3C0",
"r  c #94CDFA",
"0  c #76828C",
"^  c #466177",
"E  c #97D1FE",
"6  c #97D1FF",
"W  c #8AC0EB",
"L  c #638AA8",
"Z  c #E3EDF5",
"J  c #3C5467",
"x  c #739CBC",
"d  c #8DC4EF",
"8  c #739FC2",
"y  c #739FC3",
"4. c #A6DFFF",
"v  c #90C8F4",
"/  c #5C819D",
"2  c #CFD3D6",
"e  c #93CCF8",
"%. c #6C96B7",
"@  c #EFF4F8",
"%  c #96D0FD",
"R  c #96D0FE",
":. c #99D4FF",
"X. c #9CD8FF",
"!  c #6F9ABC",
"Q  c #7CABD1",
"1  c #48647A",
"U  c #7FAFD4",
"5  c #8CC3ED",
"l  c #7B8690",
"4  c #729EC0",
"<. c #729EC1",
"}  c #658DAC",
"i  c #314351",
"2. c #F8FDFF",
"o  c #82B3D9",
/* pixels */
"        . X o O +             ",
"      @ # $ % & * =           ",
"      - ; : > , < 1 2         ",
"    3 4 5 6 6 7 8 9 0         ",
"    q w , e r t y u i p       ",
"    a s d $ f g h j k l z     ",
"    x c v b n m h M N B V C   ",
"  Z A S D r F ; G H V J K L P ",
"I U Y v T R E W Q ! ~ N ^ / ! ",
"( ( ) _ E ` ` v ' G ] [ { } | ",
" .& ..X.o.O.+.> S @.#.$.%.&.  ",
"  *.=.+.O.-.;.:.>.( ,.<.1.@   ",
"      2.3.4.:.5.6.7.8.,.9.    ",
"            0.q.w.e.7.r.      ",
"                  t.y.u.      "
};
