/* XPM */
static char * C:\Users\Nicola\Desktop\LTM\Apps\MAF Icons\New\VME\mafVmeCloud_xpm[] = {
"15 15 3 1",
" 	c None",
".	c #FFFFFF",
"+	c #000000",
"...............",
".........+++...",
"........+...+..",
".......+.....+.",
".......+.....+.",
"..+++..+.....+.",
".+...+..+...+..",
"+.....+..+++...",
"+.....+..+++...",
"+.....+.+...+..",
".+...+.+.....+.",
"..+++..+.....+.",
".......+.....+.",
"........+...+..",
".........+++..."};
