/* XPM */
static char * mafVMEVolumeLarge_xpm[] = {
"15 15 166 2",
"  	c None",
". 	c #FFFFFF",
"+ 	c #FEFEFF",
"@ 	c #FDFEFF",
"# 	c #FAFEFF",
"$ 	c #EEFEFF",
"% 	c #D8FDFF",
"& 	c #D3FDFF",
"* 	c #DCFEFF",
"= 	c #E6FFFF",
"- 	c #EFFFFF",
"; 	c #F8FFFF",
"> 	c #FBFFFF",
", 	c #FCFFFF",
"' 	c #FCFDFE",
") 	c #F9FCFD",
"! 	c #F3FCFE",
"~ 	c #E1FCFF",
"{ 	c #C7FBFF",
"] 	c #B7FBFF",
"^ 	c #B6FDFF",
"/ 	c #B8FFFF",
"( 	c #B9FFFF",
"_ 	c #BAFFFF",
": 	c #BBFFFF",
"< 	c #BEFFFF",
"[ 	c #C6FFFF",
"} 	c #CDFBFC",
"| 	c #CEF3F5",
"1 	c #CADFE5",
"2 	c #C7E1EE",
"3 	c #A9DFEF",
"4 	c #A7E8F4",
"5 	c #ABEDF5",
"6 	c #AEF2F7",
"7 	c #B1F6F9",
"8 	c #B5F9FB",
"9 	c #B9FCFD",
"0 	c #BCFEFE",
"a 	c #BDFFFF",
"b 	c #BAF9FA",
"c 	c #B2EDF0",
"d 	c #9BCFD9",
"e 	c #739DB0",
"f 	c #6A889F",
"g 	c #99BBD8",
"h 	c #77A5CA",
"i 	c #79A7CB",
"j 	c #7FB1CF",
"k 	c #86BBD5",
"l 	c #8EC5DA",
"m 	c #96CFE0",
"n 	c #9FDAE7",
"o 	c #A7E3EC",
"p 	c #A9E3EA",
"q 	c #95C9D3",
"r 	c #719AAD",
"s 	c #587A93",
"t 	c #54758F",
"u 	c #6B879E",
"v 	c #9DC0DC",
"w 	c #79A8CE",
"x 	c #78A7CC",
"y 	c #DE0C20",
"z 	c #74A1C5",
"A 	c #729FC2",
"B 	c #719DBF",
"C 	c #719EBE",
"D 	c #6B94B0",
"E 	c #597C96",
"F 	c #53748E",
"G 	c #53738D",
"H 	c #6F8AA0",
"I 	c #A1C4DF",
"J 	c #7BACD1",
"K 	c #7AAACF",
"L 	c #C51929",
"M 	c #74A2C5",
"N 	c #709CBF",
"O 	c #648CAB",
"P 	c #567892",
"Q 	c #52738D",
"R 	c #52738C",
"S 	c #52728C",
"T 	c #718BA0",
"U 	c #A6C8E2",
"V 	c #7DAED5",
"W 	c #7CADD3",
"X 	c #76A4C8",
"Y 	c #658CAC",
"Z 	c #557791",
"` 	c #52728B",
" .	c #51718B",
"..	c #51718A",
"+.	c #748DA1",
"@.	c #AACBE6",
"#.	c #7FB1D8",
"$.	c #7EAFD6",
"%.	c #77A6CB",
"&.	c #76A3C7",
"*.	c #73A1C4",
"=.	c #658DAC",
"-.	c #557690",
";.	c #507089",
">.	c #7790A3",
",.	c #AECFE8",
"'.	c #81B3DB",
").	c #80B2D9",
"!.	c #79A8CD",
"~.	c #75A2C6",
"{.	c #668DAD",
"].	c #506F88",
"^.	c #4F6E87",
"/.	c #7C93A5",
"(.	c #B2D2EB",
"_.	c #83B6DE",
":.	c #81B4DB",
"<.	c #76A3C8",
"[.	c #4F6E86",
"}.	c #4E6D85",
"|.	c #7F95A6",
"1.	c #B4D4EC",
"2.	c #84B7E0",
"3.	c #82B6DD",
"4.	c #76A5C9",
"5.	c #4E6C84",
"6.	c #8196A7",
"7.	c #B8D7EE",
"8.	c #84B8E1",
"9.	c #83B7DF",
"0.	c #82B5DC",
"a.	c #668DAC",
"b.	c #4D6C84",
"c.	c #4D6B83",
"d.	c #58758A",
"e.	c #B4C1CA",
"f.	c #CDE3F4",
"g.	c #95C2E6",
"h.	c #85B8E0",
"i.	c #82B5DD",
"j.	c #81B2DA",
"k.	c #7FB0D6",
"l.	c #4D6B82",
"m.	c #7A90A1",
"n.	c #D2DAE0",
"o.	c #F6F7F8",
"p.	c #FBFDFE",
"q.	c #F7FAFD",
"r.	c #ECF4FA",
"s.	c #D4E5F3",
"t.	c #B9D5EA",
"u.	c #9DC2E0",
"v.	c #85B2D6",
"w.	c #77A7CB",
"x.	c #5E7C93",
"y.	c #A9B8C3",
"z.	c #EDF0F2",
"A.	c #FDFDFD",
"B.	c #FEFEFE",
"C.	c #F8F9FA",
"D.	c #D1D7DB",
"E.	c #B5BFC6",
"F.	c #A7B2BB",
"G.	c #B4BDC5",
"H.	c #D2D8DC",
"I.	c #F9FAFB",
". + @ # $ % & * = - ; > , , ' ",
") ! ~ { ] ^ / ( _ : < [ } | 1 ",
"2 3 4 5 6 7 8 9 0 a b c d e f ",
"g h i j k l m n o p q r s t u ",
"v w x y y z A B C D E F F G H ",
"I J K y y L M A N O P Q R S T ",
"U V W y y L X z A Y Z `  ...+.",
"@.#.$.y y L %.&.*.=.-...;.;.>.",
",.'.).y y L !.h ~.{.t ].].^./.",
"(._.:.y y L K x <.{.F ^.[.}.|.",
"1.2.3.y y y y y 4.{.Q }.}.5.6.",
"7.8.9.0.L L L L L a.` b.c.d.e.",
"f.g.h.i.j.k.W K %.=...l.m.n.o.",
"p.q.r.s.t.u.v.K w.O x.y.z.A.B.",
". . . . C.D.E.F.G.H.I.. . . . "};
