/* XPM */
static char * mafVMEScalar_xpm[] = {
"15 15 5 1",
" 	c None",
".	c #FFFFFF",
"+	c #3C3C3C",
"@	c #4D4D4D",
"#	c #808080",
"...............",
"+..............",
"+..............",
"+.....@........",
"+....@.@.....#.",
"+...@...@...#.#",
"+..@.....@.#...",
"+.@.......#....",
"+@.......#.@...",
"+.......#...@.@",
"+#.....#.....@.",
"+.#.#.#........",
"+..#.#.........",
"+++++++++++++++",
"..............."};
