/* XPM */
static char *mafVMEVolume_xpm[] = {
/* columns rows colors chars-per-pixel */
"15 15 174 2",
"0. c #B2D2EB",
";. c #658DAC",
"F. c #F7FAFD",
"/  c #567892",
"~. c #B4BDC5",
"O. c #51718A",
"o. c #51718B",
"w. c #81B4DB",
"^. c #D2D8DC",
"[  c #7CADD3",
"h  c #6A889F",
"l. c #77A6CA",
"*. c #77A6CB",
"G  c #729FC2",
"o  c #FAFEFF",
"+. c #748DA1",
"   c #FFFFFF",
"z  c #7FB1CF",
"L  c #597C96",
"V  c #54758F",
"f  c #9BCFD9",
"r. c #4F6E86",
"g. c #84B8E1",
"8. c #4F6E87",
"#. c #7FB1D8",
"R  c #7AAACF",
"u  c #B5F9FB",
"7  c #C6FFFF",
"<. c #AECFE8",
"~  c #709CBF",
"f. c #B8D7EE",
"d. c #8196A7",
"X. c #52728B",
"_  c #52728C",
"g  c #739DB0",
"j. c #82B5DC",
"C. c #4D6B82",
"N. c #82B5DD",
"c. c #4D6B83",
"%. c #7DAED4",
"]  c #7DAED5",
"Z  c #9DC0DC",
"|  c #78A7CB",
"S  c #78A7CC",
"*  c #FBFFFF",
"t  c #AEF2F7",
":. c #557690",
"7. c #506F88",
"N  c #719AAD",
"1  c #B6FDFF",
"2. c #80B2D9",
"{  c #7BABD0",
"&. c #7BABD1",
"y  c #B1F6F9",
"D  c #76A4C8",
"Q  c #76A4C9",
"$  c #E6FFFF",
"H  c #719DBF",
"u. c #B4D4EC",
"b  c #9FDAE7",
";  c #F9FCFD",
"J. c #B9D5EA",
"B  c #587A93",
"M  c #95C9D3",
"e  c #A7E8F4",
"I  c #53738D",
"s. c #4E6C84",
"q. c #83B6DE",
"w  c #A9DFEF",
"$. c #7EAFD6",
"E  c #79A8CD",
"+  c #D8FDFF",
"A  c #79A8CE",
"F  c #74A1C5",
"`  c #718BA0",
"6  c #BEFFFF",
" . c #658CAC",
"-  c #FCFDFE",
"A. c #D2DAE0",
"c  c #8EC5DA",
"1. c #81B3DB",
"k. c #7CACD2",
"O  c #EEFEFF",
"k  c #77A5CA",
"<  c #B7FBFF",
":  c #F3FCFE",
"i. c #84B7E0",
"I. c #5E7C93",
"V. c #7FB0D6",
"4  c #BAFFFF",
"5. c #75A2C6",
"K  c #6B94B0",
",. c #7790A3",
"z. c #668DAC",
"6. c #668DAD",
"r  c #ABEDF5",
"X  c #FDFEFF",
"s  c #BAF9FA",
"2  c #B8FFFF",
"K. c #9DC2E0",
"%  c #EFFFFF",
"4. c #7DADD4",
"W  c #78A6CB",
"U. c #A9B8C3",
"S. c #F6F7F8",
"y. c #7F95A6",
"M. c #85B8E0",
"=. c #76A3C7",
"@. c #AACBE6",
"e. c #76A3C8",
"L. c #85B2D6",
"H. c #D4E5F3",
"!. c #A7B2BB",
"l  c #79A7CB",
"=  c #FCFFFF",
"Y. c #EDF0F2",
"b. c #B4C1CA",
"P. c #77A7CB",
"Y  c #A1C4DF",
"'  c #A6C8E2",
"B. c #81B2DA",
"U  c #6F8AA0",
"p  c #BCFEFE",
"m. c #95C2E6",
"v  c #96CFE0",
"&  c #F8FFFF",
"d  c #B2EDF0",
"8  c #CDFBFC",
"q  c #C7E1EE",
"E. c #F8F9FA",
"9. c #7C93A5",
"Q. c #B5BFC6",
"T. c #FDFDFD",
")  c #52738C",
"(  c #52738D",
"p. c #82B6DD",
"x. c #4D6C84",
"G. c #ECF4FA",
"-. c #73A1C4",
"C  c #6B879E",
"a  c #BDFFFF",
"#  c #DCFEFF",
"^  c #648CAB",
"D. c #FBFDFE",
"Z. c #7A90A1",
".. c #557791",
"0  c #CADFE5",
">. c #507089",
"T  c #7BACD1",
"W. c #D1D7DB",
"a. c #76A5C9",
"J  c #719EBE",
">  c #E1FCFF",
"5  c #BBFFFF",
"m  c #A9E3EA",
"/. c #F9FAFB",
"R. c #FEFEFE",
".  c #FEFEFF",
"@  c #D3FDFF",
"P  c #53748E",
",  c #C7FBFF",
"h. c #83B7DF",
"t. c #4E6D85",
"3. c #7EB0D7",
"v. c #58758A",
"3  c #B9FFFF",
"}  c #79A9CE",
"n. c #CDE3F4",
"9  c #CEF3F5",
"n  c #A7E3EC",
"!  c #74A2C5",
"j  c #99BBD8",
"x  c #86BBD5",
"i  c #B9FCFD",
/* pixels */
"  . X o O + @ # $ % & * = = - ",
"; : > , < 1 2 3 4 5 6 7 8 9 0 ",
"q w e r t y u i p a s d f g h ",
"j k l z x c v b n m M N B V C ",
"Z A S k D F G H J K L P P I U ",
"Y T R E W Q ! G ~ ^ / ( ) _ ` ",
"' ] [ { } | D F G  ...X.o.O.+.",
"@.#.$.%.&.} *.=.-.;.:.O.>.>.,.",
"<.1.2.3.4.&.E k 5.6.V 7.7.8.9.",
"0.q.w.2.$.[ R S e.6.P 8.r.t.y.",
"u.i.p.1.#.] &.E a.6.( t.t.s.d.",
"f.g.h.j.2.$.k.} l.z.X.x.c.v.b.",
"n.m.M.N.B.V.[ R *.;.O.C.Z.A.S.",
"D.F.G.H.J.K.L.R P.^ I.U.Y.T.R.",
"        E.W.Q.!.~.^./.        "
};
