/* XPM */
static char * C:\Users\Nicola\Desktop\LTM\Apps\MAF Icons\New\VME\mafVMEGeneric_xpm[] = {
"15 15 12 1",
" 	c None",
".	c #FFFFFF",
"+	c #EAEAEA",
"@	c #8C8C8C",
"#	c #2E2E2E",
"$	c #060606",
"%	c #A4A4A4",
"&	c #000000",
"*	c #494949",
"=	c #ABABAB",
"-	c #E7E7E7",
";	c #989898",
"...............",
"....+@#$#@+....",
"...%&*=-=*&%...",
"..%&;.....;&%..",
".+&;.......;&+.",
".@*.........*@.",
".#=.........=#.",
".$-.........-$.",
".#=.........=#.",
".@*.........*@.",
".+&;.......;&+.",
"..%&;.....;&%..",
"...%&*=-=*&%...",
"....+@#$#@+....",
"..............."};
