/* XPM */
static char * mafVMERefSys_xpm[] = {
"20 20 5 1",
" 	c None",
".	c #FFFFFF",
"+	c #ABA4A4",
"@	c #3C3C3C",
"#	c #685B5B",
"....................",
"....................",
"...+................",
"...+................",
"..+++...............",
"..+++...............",
"...+........@@......",
"...+......@@@@......",
"...+.......@@.......",
"...+......@.@.......",
"...+.....@..........",
"...+....@...........",
"...+...@............",
"...+..@.............",
"...+.@..............",
"...+@.........##....",
"...@##############..",
"..............##....",
"....................",
"...................."};
