/* XPM */
static char * mafVMEVector_xpm[] = {
"15 15 2 1",
" 	c None",
".	c #3C3C3C",
"               ",
"               ",
"        .....  ",
"         ....  ",
"         ....  ",
"        .....  ",
"       ...  .  ",
"      ...      ",
"     ...       ",
"    ...        ",
"   ...         ",
"   ..          ",
"               ",
"               ",
"               "};
