/* XPM */
static char *mafVMEGeneric_xpm[] = {
/* columns rows colors chars-per-pixel */
"15 15 164 2",
"B. c #445665",
"1  c #78A6CA",
"0. c #6B95B6",
"F. c #74838F",
"p. c #617F97",
",. c #F1F4F6",
"-. c #6E99BB",
"b. c #54748E",
":. c #719DBF",
"~  c #719DC0",
"C  c #8EBDE2",
"c. c #5A768C",
"l. c #40515E",
"`  c #74A1C4",
"K  c #81B2DA",
"i  c #5D7A91",
"#  c #FAFAFB",
"9. c #6A94B4",
"6. c #FDFEFE",
" . c #BDCBD6",
"s  c #C3C7CA",
"#. c #F0F3F6",
"Y  c #6D98BA",
"G  c #2C3A45",
"Z  c #7AA9CF",
"v. c #53738D",
"x. c #B6C2CA",
"r. c #49667C",
"%  c #93AFC5",
"D  c #99A8B3",
"$  c #D6E0E8",
"+. c #73A0C3",
"O  c #A9B7C2",
"W  c #25343F",
".. c #6993B3",
"(  c #83B5DD",
"f  c #99B7D0",
"g. c #7F98AB",
"|  c #A2A8AD",
"U  c #79A8CD",
"j  c #DCEBF7",
"l  c #BCD3E6",
"t  c #EFF5F9",
"7  c #456176",
":  c #758591",
"I. c #D2D8DC",
"k  c #EFF5FA",
"_  c #7CACD2",
"y  c #F2F6F9",
"-  c #55768F",
"Z. c #788C9B",
"I  c #9CC7EA",
"w  c #7FB0D6",
"G. c #C8CED3",
";. c #729FC2",
"9  c #ABB1B5",
"+  c #B8C2CA",
"}  c #24333E",
"v  c #314453",
"o  c #B8C5D0",
"/  c #82B4DB",
")  c #82B4DC",
"b  c #646F77",
"h  c #85B8E1",
"2  c #78A7CC",
"5. c #D1D4D6",
"J. c #D1D7DB",
"@. c #CEDCE7",
"O. c #7BABD0",
"w. c #B1C5D4",
"<  c #7EA6C5",
"P. c #B4BDC5",
"s. c #6186A4",
"B  c #9BC6E8",
"L. c #A7B2BB",
"*. c #23323D",
"{  c #304352",
"X  c #D7DFE5",
"T  c #B7C7D5",
"0  c #D7E2EB",
"3  c #74A2C5",
"E  c #334756",
"n  c #FAFBFB",
"F  c #334757",
".  c #FAFBFC",
"2. c #364B5B",
"3. c #293A47",
"h. c #637D91",
"o. c #7AAACF",
"J  c #C0D0DC",
">  c #C3C8CC",
"d. c #6085A3",
"[  c #566C7E",
"&. c #2C3E4C",
"$. c #667E90",
"u  c #C3D1DB",
"g  c #7DAED4",
"6  c #567892",
"y. c #6C7780",
"M. c #3C5366",
"=. c #668AA6",
"a  c #3F4E5B",
">. c #96B4CB",
"x  c #E9EEF1",
"U. c #F9FAFB",
"<. c #6C869A",
"M  c #76A2C4",
"Q  c #AFB4B8",
"V. c #AFB7BD",
"q. c #6991B1",
"N. c #354A5B",
"L  c #86BAE3",
"=  c #5F84A1",
"   c #FFFFFF",
"m. c #A2AFBA",
"k. c #384E5F",
"^  c #7CADD2",
"K. c #B5BFC6",
"r  c #BFD8EC",
"@  c #D5DADE",
"t. c #314554",
"H. c #F8F9FA",
"8  c #415463",
"7. c #8BA3B5",
"D. c #415769",
"S. c #9EAAB4",
"H  c #CED1D4",
"&  c #6B91B0",
"R  c #A1AEB8",
"!  c #B1C3D1",
"4  c #6E98BA",
"%. c #3A5163",
"S  c #C4D3DE",
"5  c #648BA9",
"p  c #3D5568",
"'  c #A7BFD1",
"N  c #81B4DB",
",  c #C7D7E3",
"m  c #DAE4EB",
"d  c #FAFCFD",
"a. c #5D829F",
"j. c #435D72",
"f. c #708FA8",
"]  c #F0F2F4",
"8. c #638AA8",
"q  c #80AACA",
"4. c #2F3D49",
"e. c #A9B9C6",
"i. c #CCD5DB",
"X. c #76A3C7",
"1. c #425C70",
"u. c #FCFCFD",
"c  c #526B7E",
"A  c #6F9ABC",
"e  c #8CBADE",
"z. c #C8CDD0",
"A. c #4B657A",
"C. c #C8D0D6",
"n. c #A8B8C4",
"V  c #F5F9FD",
"*  c #658DAC",
"z  c #C8D9E5",
";  c #4E697D",
"P  c #92C2E9",
/* pixels */
"        . X o O + @ #         ",
"      $ % & * = - ; : >       ",
"    , < 1 2 3 4 5 6 7 8 9     ",
"  0 q w e r t   y u i p a s   ",
"d f g h j   k l z   x c v b n ",
"m M N B   V C Z A S   D F G H ",
"J 3 K L P I N U Y T   R E W Q ",
"! ~ ^ / ( ) _ ` '   ] [ { } | ",
" ...X.o.O.U +.@.  #.$.%.&.*.Q ",
"X =.-.;.+.:.>.  ,.<.1.2.3.4.5.",
"6.7.8.9.0.q.w.  e.r.p t.3.y.u.",
"  i.p.a.s.d.f.g.h.j.k.{ l.z.  ",
"    x.c.v.b.n.  m.M.N.B.V.    ",
"      C.Z.A.m.  S.D.F.G.      ",
"        H.J.K.L.P.I.U.        "
};
