/* XPM */
static char *home_xpm[] = {
/* columns rows colors chars-per-pixel */
"24 24 265 2",
"eX c #8DBFEE",
"3X c #92C3EF",
"+  c #F2F3F2",
"=  c #D14624",
"P  c #FFA641",
"*  c #990101",
"Q  c #D6C3BD",
"n  c #FFAC5A",
";X c #B5D6E8",
"u. c #E0B375",
"O. c #EBF2F9",
"6. c #FFA03B",
"CX c #EBECEA",
"d. c #898AAF",
"wX c #95C4ED",
"H. c #8BBCED",
"X  c #AD7B7A",
"|  c #FF9A35",
"/  c #F8A85C",
"W. c #9DCFF2",
"B  c #F5E5CF",
"l. c #E48F45",
"a  c #FFCC67",
"c. c #F3F7FB",
"D. c #AFE2F7",
"s  c #FFC964",
"#. c #DDEAF4",
"6X c #69699B",
"+X c #A0D3F3",
"uX c #7878AA",
"FX c #CCE1EF",
"sX c #8BA4C7",
"2X c #96C8F0",
"!X c #F1F1ED",
"AX c #84ACE0",
"L  c #FFC05B",
"mX c #8F92BD",
"lX c #D6E6F2",
"/. c #F1F1EE",
"1. c #9B94C0",
"V  c #FEAA4B",
"BX c #E2E2E5",
"x. c #FBFCFE",
"i  c #FFBD58",
"^. c #AFD3E7",
"~X c #D3D3DD",
"5X c #CAE1EF",
"`. c #AAD2F2",
"i. c #FB9735",
"<  c #FDC96F",
"jX c #8CB7E6",
"o  c #B68A89",
"UX c #A6A6C4",
"MX c #A6A6C5",
"RX c #7E80AA",
"LX c #B5B5D3",
"&. c #A0869E",
"u  c #FFB44F",
"L. c #DEEBF4",
">  c #FFB14C",
"pX c #8B95C0",
"8X c #818AB5",
"1  c #F9DEA5",
"TX c #8B92B9",
"-X c #7C83AD",
"h  c #FE9834",
"4X c #A3CBF0",
"#X c #A8CFF1",
"0. c #CDE2F0",
"C  c #FFAE49",
"h. c #9CCDF2",
"y  c #FFAB46",
",X c #A6CFE5",
":. c #D7E7F2",
"z  c #F2F2EF",
":  c #FFA843",
"F. c #AEE0F7",
"2  c #F7E7C7",
".  c #D3B8B7",
"yX c #7272A4",
"m  c #F3B883",
"@. c #E1ECF5",
"PX c #CFD0E0",
"cX c #8181B3",
"SX c #97C0ED",
"I. c #7F84AE",
"&  c #C77B7A",
"M. c #B4BFD6",
"XX c #F0F2ED",
";. c #FCF1E6",
"3  c #C77872",
"=. c #A3B6CB",
"@X c #95C6F0",
"3. c #9EB8DF",
"S  c #F5F9FC",
"4. c #F7C66A",
".X c #8989AF",
" X c #A9D0E6",
";  c #FDAB51",
"'  c #D4C8C9",
"C. c #C4DEED",
"%X c #DFECF5",
"D  c #D8A788",
"M  c #DC833E",
"2. c #DCDCE7",
"rX c #9FC8EF",
"'. c #E9F1F8",
"`  c #A6797A",
"7  c #FFCB66",
"X. c #F8FAFD",
"N. c #9EA6C5",
"Z  c #FFC863",
"q. c #C7DFEE",
"k. c #F89536",
"n. c #E2EDF6",
"E. c #A0D2F3",
"p  c #FFC560",
"9X c #A0CCE4",
"m. c #C9D3E4",
"<. c #A59BB8",
">. c #D1E4F1",
"YX c #8395C5",
"W  c #AB6B58",
"{  c #FFC25D",
"e  c #F1F3EF",
"ZX c #9498C0",
"T  c #F1F6FA",
"H  c #FEAC4D",
"IX c #E7E8EA",
"9  c #FFBF5A",
"x  c #FEA94A",
"F  c #BA6E48",
"T. c #A8DAF5",
"f. c #AFD5EE",
"HX c #A9B8D6",
"bX c #8A8ABD",
"<X c #CECEDF",
"!  c #FFB954",
"_. c #99CBF1",
"]  c #F8D3A5",
"q  c #EC8A38",
"0  c #FFB651",
"[. c #D4E5F1",
"J. c #8ABCED",
"y. c #9EC9E7",
"5  c #FFB34E",
"9. c #FBE9DA",
"V. c #C8E0EE",
"$X c #E3EEF6",
"J  c #FFB04B",
"e. c #9292C1",
"G. c #A1D3F3",
"(. c #A8CEEC",
"O  c #D8C7C6",
"oX c #D6D6E4",
"}  c #FFAD48",
"v. c #EDF3F9",
"G  c #D8BEB1",
"o. c #F2F7FB",
"   c None",
"5. c #FFAA45",
"xX c #C1DCEC",
"p. c #ED9446",
"B. c #939CBF",
"R. c #A4D7F4",
"t. c #B0D6EE",
"KX c #9A9AC6",
"w. c #C1D9EA",
"|. c #B0D3E7",
"iX c #7C7CAE",
"w  c #E97132",
"zX c #CBE1EF",
"7. c #FC9735",
"^  c #FFA43F",
"Q. c #B0D6F4",
"(  c #E6EFF7",
"4  c #FDB360",
"g  c #FFA13C",
"-  c #E78361",
"A. c #BAD8EA",
"GX c #B7CBE1",
"*X c #D5E6F2",
"fX c #9393B5",
"#  c #F9D1A3",
"b  c #FF9E39",
"a. c #C4DDED",
"I  c #FF9B36",
"]. c #DFEBF5",
"%  c #F5ECE0",
"r. c #D7D7E5",
"{. c #7D83AD",
"=X c #CEE2F0",
"_  c #B89796",
"*. c #D2CDD6",
"r  c #F5E3CD",
"s. c #BDD9EA",
"!. c #D8E7F2",
"8  c #FFCA65",
"E  c #C2998C",
"gX c #DFDFE4",
"). c #A5D8F5",
"0X c #DFDFE6",
"v  c #FFC762",
"7X c #6E6EA0",
":X c #B1D4E8",
"U  c #FBAA5B",
"Y  c #FDF7F2",
"z. c #B5BFCF",
" . c #F6A65D",
"+. c #E7F0F7",
"%. c #AC929E",
"6  c #FFC45F",
"1X c #97AAD6",
"}. c #BBD9EA",
"EX c #A3A3C0",
"VX c #F1F2ED",
"~  c #FFC15C",
"l  c #F1F2EE",
"k  c #F1F2EF",
"^X c #E2E3E5",
"dX c #7E8AB4",
"j. c #C1A991",
"d  c #FFBE59",
"QX c #E7E7EA",
">X c #AAD0E6",
"-. c #F19645",
"tX c #C5DEED",
")  c #E0ECF5",
"P. c #676799",
"t  c #FCB460",
",  c #FFBB56",
"Y. c #AAD0EC",
"vX c #8585B8",
"WX c #C9C9DA",
"$  c #F8D8B2",
"U. c #B4D5E8",
"kX c #9BC4EE",
"~. c #7E84AE",
"DX c #CFE3F0",
"K  c #FFB853",
"R  c #EAF1F8",
"g. c #B5E8F9",
",. c #CADCEC",
"f  c #FFB550",
"N  c #E4C5AF",
"Z. c #BEDAEB",
"8. c #EF9645",
"&X c #D9E8F3",
"hX c #9AA5CC",
"@  c #F4F0E8",
"nX c #8D90C1",
"OX c #A6D9F5",
"[  c #FFB24D",
"$. c #D4E1EC",
"S. c #ADD4ED",
"qX c #95A1CE",
"JX c #A4ADD5",
"K. c #ADD4F3",
"A  c #FEF8F2",
"NX c #C2C2D3",
"b. c #E8F1F8",
".. c #FEF8F3",
"aX c #9EBFDA",
"c  c #FFAC47",
"j  c #EA9564",
/* pixels */
"                            . X o O   + + + + + ",
"              @ # $ %       & * = -   + + + + + ",
"            @ ; : > , < 1 2 3 * = -   + + + + + ",
"          @ 4 : 5 , 6 7 8 9 0 q w -   + + + + + ",
"e e e e r t y u i p a s d f y g h j k l l l l z ",
"e e e r x c f d v a v i 5 : b n m M N l l l l z ",
"e e B V C f 9 Z a p , > : b n A S D F G l l l z ",
"e B H J K L 8 a 6 , > P I U Y S T R E W Q l l z ",
"B H > ! ~ 7 7 ~ K C ^ I / Y S T R ( ) _ ` ' l z ",
"] [ , { 7 8 ~ K } ^ |  ...X.o.O.+.@.#.$.%.&.*.z ",
"e =.6 a 8 9 f y g h -.;.X.o.O.+.@.#.:.>.,.<.1.2.",
"e 3.=.4.d u 5.6.7.8.9.X.o.O.+.@.#.:.>.0.q.w.e.r.",
"e 3.t.y.u.: b i.p.9.X.o.O.+.@.#.:.>.0.q.a.s.d.z ",
"e 3.f.g.h.j.k.l.z.x.c.v.b.n.m.M.N.B.V.C.Z.A.d.z ",
"e 3.S.D.F.G.H.J.K.c.v.b.n.L.P.P.P.I.C.Z.A.U.d.z ",
"e 3.Y.F.T.R.E.W.Q.v.b.n.L.!.P.P.P.~.Z.A.U.^.d.z ",
"/.3.(.T.).E.W._.`.'.n.].!.[.P.P.P.{.}.U.|. X.XXX",
"/.oX3.OX+XW._.@X#X$X%X&X*X=XP.P.P.-X;X:X>X,X.XXX",
"/./.<X1XW._.2X3X4X%X&X*X=X5XP.6X7X8X:X>X,X9X.XXX",
"/././.0XqXwX3XeXrX&X*X=X5XtXyXuXiXpX>XaXsXdXfXXX",
"/./././.gXhXjXJ.kXlX=XzXtXxXcXvXbXnXmXMXNXBX/.XX",
"/./././.VXCXZXAXSXDXFXGXHXJXKXLXPXIXVX/./././.XX",
"/./././.VXVXCXUXYXTXRXEXWXQX!XVXVXVXVX/./././.XX",
"/./././.VXVXVXVX~X^Xl !X!X!X!XVXVXVXVX/./././.XX"
};
