/* XPM */ 
static char * MDICHILD_ICON_xpm[] = {
"32 32 651 2",
"  	c None",
"! 	c #E9F3E9",
"# 	c #A8D3A8",
"$ 	c #61AF61",
"% 	c #5AAC5A",
"& 	c #54A954",
"' 	c #51A751",
"( 	c #4BA44B",
") 	c #49A349",
"* 	c #45A145",
"+ 	c #439F43",
", 	c #3F9D3F",
"- 	c #3D9D3D",
". 	c #409F40",
"0 	c #419F41",
"1 	c #419E41",
"2 	c #3D9C3E",
"3 	c #369A37",
"4 	c #329833",
"5 	c #2F972F",
"6 	c #309830",
"7 	c #30972F",
"8 	c #2F962E",
"9 	c #2B942A",
": 	c #259124",
"; 	c #1C8D1B",
"< 	c #1B881C",
"= 	c #178017",
"> 	c #72AE72",
"? 	c #D2E4D2",
"@ 	c #FFFEFF",
"A 	c #CFE6CF",
"B 	c #A0CFA0",
"C 	c #6DB56D",
"D 	c #68B368",
"E 	c #62B062",
"F 	c #5EAE5E",
"G 	c #57AA57",
"H 	c #53A853",
"I 	c #4FA64F",
"J 	c #4DA54D",
"K 	c #47A247",
"L 	c #48A248",
"M 	c #4AA44A",
"N 	c #3D9E3E",
"O 	c #3A9C3A",
"P 	c #379B37",
"Q 	c #369B36",
"R 	c #359934",
"S 	c #319830",
"T 	c #239022",
"U 	c #208B20",
"V 	c #1A831A",
"W 	c #60A460",
"X 	c #ACCDAC",
"Y 	c #D1E0D1",
"Z 	c #99CB99",
"[ 	c #8EC68E",
"] 	c #84C184",
"^ 	c #84C284",
"_ 	c #7FBF7F",
"` 	c #79BC79",
"a 	c #6FB76F",
"b 	c #69B469",
"c 	c #64B164",
"d 	c #61B061",
"e 	c #5BAC5B",
"f 	c #5CAC5C",
"g 	c #5DAD5E",
"h 	c #5CAD5C",
"i 	c #55AA54",
"j 	c #4EA64C",
"k 	c #4CA54A",
"l 	c #47A248",
"m 	c #45A146",
"n 	c #43A142",
"o 	c #3E9F3D",
"p 	c #379B36",
"q 	c #289028",
"r 	c #208920",
"s 	c #3B903B",
"t 	c #5F9E5F",
"u 	c #6FA46F",
"v 	c #65B265",
"w 	c #9CCE9C",
"x 	c #A0D0A0",
"y 	c #9ACD9A",
"z 	c #92C892",
"{ 	c #85C285",
"| 	c #7EBF7E",
"} 	c #78BC78",
"~ 	c #74BA74",
" !	c #71B871",
"!!	c #6EB66E",
"#!	c #6CB46C",
"$!	c #6CB36C",
"%!	c #6BB46B",
"&!	c #62B060",
"'!	c #5BAD58",
"(!	c #5AAB57",
")!	c #57A955",
"*!	c #54A854",
"+!	c #4EA74F",
",!	c #4AA54A",
"-!	c #43A143",
".!	c #3E9F3E",
"0!	c #329632",
"1!	c #299029",
"2!	c #1A7D1A",
"3!	c #156F15",
"4!	c #116811",
"5!	c #67B267",
"6!	c #82C082",
"7!	c #9DCE9D",
"8!	c #98CC98",
"9!	c #8FC78F",
":!	c #83C183",
";!	c #7DBE7D",
"<!	c #77BB77",
"=!	c #73B973",
">!	c #71B771",
"?!	c #6AB36A",
"@!	c #6AB369",
"A!	c #67B266",
"B!	c #63B061",
"C!	c #5EAE5C",
"D!	c #58AB57",
"E!	c #56A954",
"F!	c #52A850",
"G!	c #51A850",
"H!	c #4FA64E",
"I!	c #3E9E3E",
"J!	c #339633",
"K!	c #2D922D",
"L!	c #1F7E1F",
"M!	c #176F17",
"N!	c #136813",
"O!	c #5FAE5F",
"P!	c #7CBD7C",
"Q!	c #99CC99",
"R!	c #9CCD9C",
"S!	c #A6D2A6",
"T!	c #E2F0E2",
"U!	c #DFEFDF",
"V!	c #DEEEDE",
"W!	c #DCEDDC",
"X!	c #DBEDDB",
"Y!	c #B4D9B4",
"Z!	c #67B167",
"[!	c #63B063",
"]!	c #63B062",
"^!	c #5FAE5E",
"_!	c #5AAC59",
"`!	c #57AA56",
"a!	c #85C184",
"b!	c #D3E9D3",
"c!	c #D2E9D2",
"d!	c #D2E8D2",
"e!	c #D1E8D1",
"f!	c #D0E7D0",
"g!	c #87C387",
"h!	c #3C9E3C",
"i!	c #349734",
"j!	c #309330",
"k!	c #207E20",
"l!	c #156E15",
"m!	c #0F650F",
"n!	c #74B974",
"o!	c #90C790",
"p!	c white",
"q!	c #EBF5EB",
"r!	c #60AD60",
"s!	c #5CAB5C",
"t!	c #5BAB5B",
"u!	c #58AA58",
"v!	c #BCDDBC",
"w!	c #389C38",
"x!	c #2F932F",
"y!	c #238023",
"z!	c #1A721A",
"{!	c #156A15",
"|!	c #55A955",
"}!	c #6DB66D",
"~!	c #88C388",
" #	c #A1D0A1",
"!#	c #6EB46F",
"##	c #57A957",
"$#	c #57A857",
"%#	c #55A855",
"&#	c #52A751",
"'#	c #4EA64D",
"(#	c #E8F4E8",
")#	c #359A34",
"*#	c #319631",
"+#	c #268226",
",#	c #1D741D",
"-#	c #196D19",
".#	c #52A752",
"0#	c #67B367",
"1#	c #7CBE7C",
"2#	c #96C996",
"3#	c #55A755",
"4#	c #54A753",
"5#	c #51A650",
"6#	c #319931",
"7#	c #2F9530",
"8#	c #278327",
"9#	c #1F7520",
":#	c #1C6E1C",
";#	c #66B266",
"<#	c #7ABD7A",
"=#	c #F1F8F1",
">#	c #BFDEBF",
"?#	c #51A651",
"@#	c #8EC78E",
"A#	c #F6FBF6",
"B#	c #97CC97",
"C#	c #2F9830",
"D#	c #2F9430",
"E#	c #319231",
"F#	c #298329",
"G#	c #217521",
"H#	c #1D6E1D",
"I#	c #6BB56B",
"J#	c #6CB66C",
"K#	c #D6EAD6",
"L#	c #E9F4E9",
"M#	c #4EA64E",
"N#	c #4DA64D",
"O#	c #4BA64C",
"P#	c #BADDBA",
"Q#	c #BBDFBC",
"R#	c #94CD94",
"S#	c #2A9B2B",
"T#	c #2B962C",
"U#	c #2C952D",
"V#	c #268426",
"W#	c #1E751E",
"X#	c #1A6D1A",
"Y#	c #3D9E3D",
"Z#	c #4CA54C",
"[#	c #86C286",
"]#	c #D5E9D5",
"^#	c #CDE5CD",
"_#	c #61B162",
"`#	c #4BA64B",
"a#	c #49A649",
"b#	c #47A547",
"c#	c #EEF7EE",
"d#	c #99D099",
"e#	c #93CE93",
"f#	c #269E26",
"g#	c #269B26",
"h#	c #279927",
"i#	c #218621",
"j#	c #1A751B",
"k#	c #176D18",
"l#	c #339833",
"m#	c #7FBD7F",
"n#	c #D4E9D4",
"o#	c #A0CFA1",
"p#	c #8CC78D",
"q#	c #45A545",
"r#	c #59B059",
"s#	c #C4E4C4",
"t#	c #98D199",
"u#	c #90D090",
"v#	c #20A220",
"w#	c #1F9F1F",
"x#	c #209C20",
"y#	c #167617",
"z#	c #136D15",
"{#	c #50A750",
"|#	c #80BE80",
"}#	c #6EB56E",
"~#	c #43A543",
" $	c #87C787",
"!$	c #91CE92",
"#$	c #8ED08F",
"$$	c #1DA21E",
"%$	c #1E9F1D",
"&$	c #1F9C1E",
"'$	c #1A891A",
"($	c #147717",
")$	c #126F15",
"*$	c #2F962F",
"+$	c #3B9C3B",
",$	c #4CA44C",
"-$	c #81BE81",
".$	c #F0F7F0",
"0$	c #42A542",
"1$	c #B6DDB6",
"2$	c #56B557",
"3$	c #99D299",
"4$	c #8CD18D",
"5$	c #1AA41A",
"6$	c #1AA11A",
"7$	c #1A9E1A",
"8$	c #178A16",
"9$	c #127813",
":$	c #106F12",
";$	c #2C952C",
"<$	c #379A37",
"=$	c #81BF81",
">$	c #CCE5CC",
"?$	c #5CB05C",
"@$	c #42A642",
"A$	c #E7F4E7",
"B$	c #35A735",
"C$	c #98D398",
"D$	c #8CD28C",
"E$	c #18A618",
"F$	c #18A318",
"G$	c #18A018",
"H$	c #158A14",
"I$	c #127810",
"J$	c #116E0F",
"K$	c #2B942B",
"L$	c #7DBD7D",
"M$	c #52A852",
"N$	c #8AC78A",
"O$	c #59B259",
"P$	c #C4E6C4",
"Q$	c #34A833",
"R$	c #8BD28B",
"S$	c #18A718",
"T$	c #18A418",
"U$	c #17A017",
"V$	c #148B13",
"W$	c #116F0E",
"X$	c #389A38",
"Y$	c #51A951",
"Z$	c #B9DDB9",
"[$	c #88C888",
"]$	c #91D191",
"^$	c #32AA32",
"_$	c #97D497",
"`$	c #8BD38B",
"a$	c #18A818",
"b$	c #17A018",
"c$	c #148A14",
"d$	c #127910",
"e$	c #11700F",
"f$	c #399B39",
"g$	c #50A850",
"h$	c #B7DEB8",
"i$	c #56B856",
"j$	c #97D496",
"k$	c #8BD48B",
"l$	c #19A918",
"m$	c #19A318",
"n$	c #179F19",
"o$	c #138A15",
"p$	c #117A11",
"q$	c #10710F",
"r$	c #2A942A",
"s$	c #7BBD7B",
"t$	c #51A851",
"u$	c #4FA84F",
"v$	c #CAE5CA",
"w$	c #EEF8EE",
"x$	c #36AB36",
"y$	c #30AB30",
"z$	c #95D595",
"{$	c #8BD58B",
"|$	c #17AA17",
"}$	c #17A316",
"~$	c #159F16",
" %	c #118A13",
"!%	c #0F790F",
"#%	c #0D700D",
"$%	c #279327",
"%%	c #349934",
"&%	c #43A043",
"'%	c #79BB79",
"(%	c #4EA74E",
")%	c #9DCF9D",
"*%	c #C5E6C4",
"+%	c #37AB36",
",%	c #2FAC2E",
"-%	c #94D694",
".%	c #16AB16",
"0%	c #14A314",
"1%	c #139F14",
"2%	c #0F8910",
"3%	c #0C770D",
"4%	c #0B6D0B",
"5%	c #239123",
"6%	c #2E972E",
"7%	c #76B976",
"8%	c #4DA74D",
"9%	c #4CA64C",
":%	c #67B567",
";%	c #94D092",
"<%	c #34AB33",
"=%	c #2AAD29",
">%	c #91D691",
"?%	c #8AD68A",
"@%	c #13AC13",
"A%	c #10A410",
"B%	c #109F0F",
"C%	c #0C880C",
"D%	c #097509",
"E%	c #086B08",
"F%	c #1F8F1F",
"G%	c #2B952B",
"H%	c #3B9D3B",
"I%	c #409E40",
"J%	c #74B874",
"K%	c #4AA64A",
"L%	c #48A647",
"M%	c #EFF7EF",
"N%	c #57B755",
"O%	c #30AB2E",
"P%	c #26AE25",
"Q%	c #90D690",
"R%	c #89D689",
"S%	c #10AD10",
"T%	c #0DA50D",
"U%	c #0D9F0D",
"V%	c #0A870A",
"W%	c #077507",
"X%	c #066B06",
"Y%	c #1B8D1B",
"Z%	c #369A36",
"[%	c #3C9D3C",
"]%	c #48A548",
"^%	c #46A545",
"_%	c #D0E8D0",
"`%	c #30A92F",
"a%	c #2AAA29",
"b%	c #22AD21",
"c%	c #8FD68F",
"d%	c #88D688",
"e%	c #0EAE0E",
"f%	c #0AA60B",
"g%	c #099F09",
"h%	c #078706",
"i%	c #057405",
"j%	c #046B04",
"k%	c #188B18",
"l%	c #229022",
"m%	c #319831",
"n%	c #45A345",
"o%	c #44A344",
"p%	c #42A342",
"q%	c #9FD19F",
"r%	c #CCE9CB",
"s%	c #2AA829",
"t%	c #25A825",
"u%	c #1FAA1F",
"v%	c #8ED58E",
"w%	c #86D687",
"x%	c #0BAD0C",
"y%	c #08A508",
"z%	c #069E06",
"{%	c #038503",
"|%	c #027302",
"}%	c #026902",
"~%	c #168B16",
" &	c #1F901F",
"!&	c #2D962D",
"#&	c #329832",
"$&	c #6AB46A",
"%&	c #41A241",
"&&	c #40A241",
"'&	c #3FA23F",
"(&	c #6EB96E",
")&	c #96D296",
"*&	c #27A628",
"+&	c #24A724",
",&	c #1FA91F",
"-&	c #8ED48E",
".&	c #86D586",
"0&	c #0AAC0A",
"1&	c #05A406",
"2&	c #049E04",
"3&	c #028502",
"4&	c #027202",
"5&	c #016801",
"6&	c #128812",
"7&	c #1A8C1A",
"8&	c #269226",
"9&	c #359A35",
":&	c #399C39",
";&	c #3B9E3B",
"<&	c #3A9E3A",
"=&	c #399E39",
">&	c #399F39",
"?&	c #389F38",
"@&	c #379F37",
"A&	c #32A033",
"B&	c #2DA12E",
"C&	c #28A129",
"D&	c #23A225",
"E&	c #21A322",
"F&	c #1CA51D",
"G&	c #1AA61A",
"H&	c #15A815",
"I&	c #12A912",
"J&	c #0FAB0F",
"K&	c #0BA90C",
"L&	c #07A807",
"M&	c #03A003",
"N&	c #029A02",
"O&	c #018101",
"P&	c #006E00",
"Q&	c #006500",
"R&	c #0C840C",
"S&	c #158915",
"T&	c #289328",
"U&	c #309730",
"V&	c #379C37",
"W&	c #359D35",
"X&	c #359D36",
"Y&	c #359C36",
"Z&	c #319C31",
"[&	c #2B9E2C",
"]&	c #279F27",
"^&	c #22A023",
"_&	c #1FA120",
"`&	c #19A31A",
"a&	c #17A317",
"b&	c #13A612",
"c&	c #10A910",
"d&	c #0CAA0D",
"e&	c #09A709",
"f&	c #05A606",
"g&	c #029D02",
"h&	c #029702",
"i&	c #007E00",
"j&	c #006B00",
"k&	c #006200",
"l&	c #0B7E0B",
"m&	c #108210",
"n&	c #1A881A",
"o&	c #278F27",
"p&	c #299129",
"q&	c #2D932D",
"r&	c #309430",
"s&	c #2E942E",
"t&	c #2C962D",
"u&	c #2D952D",
"v&	c #2D942D",
"w&	c #2B932B",
"x&	c #279527",
"y&	c #229822",
"z&	c #1C9B1C",
"{&	c #199B1A",
"|&	c #149C15",
"}&	c #129D13",
"~&	c #0FA00F",
" '	c #0CA20C",
"!'	c #09A209",
"#'	c #059E06",
"$'	c #039D04",
"%'	c #009401",
"&'	c #008D00",
"''	c #007600",
"('	c #006700",
")'	c #005F00",
"*'	c #157E15",
"+'	c #127F12",
",'	c #148114",
"-'	c #198419",
".'	c #218821",
"0'	c #238A23",
"1'	c #278C27",
"2'	c #288C28",
"3'	c #2A8D2A",
"4'	c #288D29",
"5'	c #278E27",
"6'	c #268F27",
"7'	c #268F26",
"8'	c #278E26",
"9'	c #268D26",
":'	c #238E24",
";'	c #1E931E",
"<'	c #189718",
"='	c #169617",
">'	c #129613",
"?'	c #109811",
"@'	c #0D9A0D",
"A'	c #0B9A0B",
"B'	c #079908",
"C'	c #049604",
"D'	c #039504",
"E'	c #008C01",
"F'	c #008400",
"G'	c #017301",
"H'	c #096909",
"I'	c #0D640D",
"J'	c #75AF75",
"K'	c #449344",
"L'	c #127512",
"M'	c #0F710F",
"N'	c #147414",
"O'	c #177717",
"P'	c #1A791A",
"Q'	c #1B791B",
"R'	c #1C791C",
"S'	c #1D7A1D",
"T'	c #1D791B",
"U'	c #1C7A1B",
"V'	c #1B7B1B",
"W'	c #1B7D1C",
"X'	c #1C7D1C",
"Y'	c #1E7D1E",
"Z'	c #1D7E1E",
"['	c #1A8319",
"]'	c #158614",
"^'	c #148614",
"_'	c #118512",
"`'	c #10850F",
"a'	c #0C850C",
"b'	c #09830A",
"c'	c #058206",
"d'	c #038003",
"e'	c #007D00",
"f'	c #017701",
"g'	c #007000",
"h'	c #2F832F",
"i'	c #649D64",
"j'	c #7EAA7E",
"k'	c #D0E1D0",
"l'	c #75AA75",
"m'	c #0A650A",
"n'	c #0B650B",
"o'	c #106A10",
"p'	c #126C12",
"q'	c #146C14",
"r'	c #156B14",
"s'	c #156A13",
"t'	c #156B13",
"u'	c #146D14",
"v'	c #157017",
"w'	c #177118",
"x'	c #1B741B",
"y'	c #187617",
"z'	c #157914",
"{'	c #147A14",
"|'	c #137912",
"}'	c #127710",
"~'	c #0E740C",
" (	c #097309",
"!(	c #057206",
"#(	c #027004",
"$(	c #026801",
"%(	c #5B965B",
"&(	c #B9D1B9",
"'(	c #E7EDE7",
"! # $ % & ' ( ) * + , - , . . 0 1 2 3 4 5 6 7 8 9 : ; < = > ? @ ",
"A B C D E F G H I J ) K L ) ) M ) * N O P P Q R S 9 T U V W X Y ",
"Z [ ] ^ _ ` a b c d F e e f f g h i j k ) l m n o p 6 q r s t u ",
"v _ w x y z { | } ~  !!!C #!$!%!D &!'!(!)!*!' +!,!-!.!0!1!2!3!4!",
"5!6!7!x 8!9!:!;!<!=!>!C #!?!@!A!B!C!D!E!F!G!H!J M -!I!J!K!L!M!N!",
"O!P!Q!R!S!T!U!V!W!X!X!Y!Z![!]!^!_!`!a!b!c!d!e!e!f!g!h!i!j!k!l!m!",
"% n!o!z # p!p!p!p!p!p!q!r!s!t!u!& G!v!p!p!p!p!p!p!R!w!J!x!y!z!{!",
"|!}!{ ~! #p!p!p!p!p!p!p!!###$#%#&#'#(#p!p!p!p!p!p!y )#*#j!+#,#-#",
".#0#1#| y p!p!p!p!p!p!p!2#%#3#4#5#[!p!p!p!p!p!p!p!8!6#7#x!8#9#:#",
".#;#` <#8!p!p!p!=#p!p!p!>#.#.#?#H!@#p!p!p!A#p!p!p!B#C#D#E#F#G#H#",
") % I#J#9!p!p!p!K#=#p!p!L#M#N#O#,!P#p!p!p!Q#p!p!p!R#S#T#U#V#W#X#",
"Y#Z#h F [#p!p!p!]#^#p!p!p!_#`#a#b#(#p!p!c#d#p!p!p!e#f#g#h#i#j#k#",
"l#. I .#m#p!p!p!n#o#p!p!p!p#b#q#r#p!p!p!s#t#p!p!p!u#v#w#x#< y#z#",
"l#. {#H |#p!p!p!n#}#p!p!p!P#b#~# $p!p!p!!$t#p!p!p!#$$$%$&$'$($)$",
"*$+$,$.#-$p!p!p!n#.#.$p!p!(#q#0$1$p!p!p!2$3$p!p!p!4$5$6$7$8$9$:$",
";$<$) ' =$p!p!p!n#.#>$p!p!p!?$@$A$p!p!c#B$C$p!p!p!D$E$F$G$H$I$J$",
"K$<$L I L$p!p!p!n#M$x p!p!p!N$O$p!p!p!P$Q$C$p!p!p!R$S$T$U$V$I$W$",
";$X$L J <#p!p!p!n#Y$}!p!p!p!Z$[$p!p!p!]$^$_$p!p!p!`$a$T$b$c$d$e$",
";$f$) N#P!p!p!p!n#Y$g$.$p!p!(#h$p!p!p!i$^$j$p!p!p!k$l$m$n$o$p$q$",
"r$<$K ( s$p!p!p!n#t$u$v$p!p!p!A$p!p!w$x$y$z$p!p!p!{$|$}$~$ %!%#%",
"$%%%&%L '%p!p!p!b!u$(%)%p!p!p!p!p!p!*%+%,%-%p!p!p!{$.%0%1%2%3%4%",
"5%6%I!&%7%p!p!p!b!8%9%:%p!p!p!p!p!p!;%<%=%>%p!p!p!?%@%A%B%C%D%E%",
"F%G%H%I%J%p!p!p!c!`#K%L%M%p!p!p!p!p!N%O%P%Q%p!p!p!R%S%T%U%V%W%X%",
"Y%$%Z%[%>!p!p!p!d!]%]%^%_%p!p!p!p!p!`%a%b%c%p!p!p!d%e%f%g%h%i%j%",
"k%l%m%Z%}!p!p!p!e!n%o%p%q%p!p!p!p!r%s%t%u%v%p!p!p!w%x%y%z%{%|%}%",
"~% &!&#&$&p!p!p!_%%&&&'&(&p!p!p!p!)&*&+&,&-&p!p!p!.&0&1&2&3&4&5&",
"6&7&8&K$#&9&:&H%h!;&<&=&>&?&@&A&B&C&D&E&F&G&H&I&J&K&L&M&N&O&P&Q&",
"R&S&5%T&U&#&Z%P :&w!V&W&W&X&Y&Z&[&]&^&_&`&a&b&c&d&e&f&g&h&i&j&k&",
"l&m&n&U o&p&q&x!r&r&s&U#t&u&v&w&x&y&z&{&|&}&~& '!'#'$'%'&'''(')'",
"*'+','-'.'0'1'2'3'3'4'5'6'7'8'9':';'<'='>'?'@'A'B'C'D'E'F'G'H'I'",
"J'K'L'M'N'O'P'Q'R'S'T'U'V'W'X'Y'Z'[']'^'_'`'a'b'c'd'e'f'g'h'i'j'",
"k'l'l!m'n'o'p'p'q'r's't'u'v'w'z!x'y'z'{'|'}'~' (!(#(j&$(k&%(&('("};