/* XPM */
static char * albaVMERoot_xpm[] = {
"15 15 4 1",
" 	c None",
".	c #FFFFFF",
"+	c #000000",
"@	c #C8C8C8",
"...............",
"++++++.........",
"+@@@@+.........",
"+@@@@+++++++++.",
"+@@@@@@@@@@@@+.",
"+@@@@@@@@@@@@+.",
"+@@@@@@@@@@@@+.",
"+@@@@@@@@@@@@+.",
"+@@@@@@@@@@@@+.",
"+@@@@@@@@@@@@+.",
"+@@@@@@@@@@@@+.",
"+@@@@@@@@@@@@+.",
"+@@@@@@@@@@@@+.",
"++++++++++++++.",
"..............."};
