/* XPM */
static char * mafNodeGeneric_xpm[] = {
"15 15 4 1",
" 	c None",
".	c #FFFFFF",
"+	c #3C3C3C",
"@	c #000000",
".....+@@@+.....",
"...+@@@@@@@+...",
"..+@@@+++@@@+..",
".+@@+.....+@@+.",
".@@+.......+@@.",
"+@@.........@@+",
"@@+.........+@@",
"@@+.........+@@",
"@@+.........+@@",
"+@@.........@@+",
".@@+.......+@@.",
".+@@+.....+@@+.",
"..+@@@+++@@@+..",
"...+@@@@@@@+...",
".....+@@@+....."};
