/* XPM */
static char *mafNodeRoot_xpm[] = {
/* columns rows colors chars-per-pixel */
"15 15 91 1",
"T c #5E84A2",
", c #6E96B4",
"L c #E1E8ED",
"n c #6185A3",
"t c #6489A6",
"O c #F7FFFF",
"3 c #8DBCCD",
"@ c #77A2BD",
"N c #749EBE",
"] c #D7E1E9",
"X c #EDFEFF",
"6 c #90BDCE",
"c c #6D95B3",
"/ c #E0EAF2",
"m c #6084A2",
"k c #6388A5",
"H c #739DBD",
"e c #668CAA",
"5 c #8FBCCD",
"W c #76A1C2",
"2 c #6C94B0",
"< c #6C94B2",
"a c #5F839F",
"q c #6F98B7",
"b c #6287A4",
"# c #75A0BB",
"x c #729CBC",
"[ c #D5DFE7",
"K c #658BA9",
"P c #75A0C1",
"= c #6B93B1",
"R c #5E829E",
"& c #6E97B6",
"u c #6186A3",
"9 c #D4E4EA",
"Q c #719BBB",
"{ c #D4DEE6",
"~ c #E4EDF4",
"r c #648AA8",
"z c #C7D3DD",
"0 c #709ABA",
"V c #D3DDE5",
"I c #6389A7",
"A c #7097B8",
"J c #6991AF",
"o c #EFFFFF",
"Y c #769FC2",
"M c #CCD7E0",
") c #DCE6EE",
"* c #6C95B4",
"p c #5F84A1",
"+ c #FFFFFF",
"f c #6F99B9",
"s c #C2D0DA",
"> c #6F96B7",
"Z c #729ABC",
"  c #EBFDFF",
"F c #D8E1E8",
"D c #688DAC",
"_ c #DBE5ED",
"w c #6B91AF",
"1 c #6B91B1",
"E c #EEF2F6",
"} c #D1DBE3",
"^ c #E1EAF1",
"S c #6E95B6",
"v c #6488A6",
"d c #7199BB",
"- c #6A90AE",
"( c #E0E9F0",
": c #A6CDDC",
"! c #F3F6F9",
"y c #6387A5",
"U c #E6EBF0",
"h c #668BA8",
"G c #76A0C0",
"` c #D9E3EB",
"8 c #92BFCE",
"; c #698FAD",
"i c #5F85A3",
"% c #85B1C5",
"l c #6286A4",
"$ c #759FB9",
"B c #729BBA",
"j c #658AA7",
". c #EBFEFF",
"4 c #8EBDCE",
"C c #759FBF",
"' c #D8E2EA",
"7 c #91BECD",
"g c #688EAC",
/* pixels */
" .XoO++++++++++",
"@#$$%++++++++++",
"&*=-;:+++++++++",
">,<1;2343567879",
"0q,=w;ertyuipas",
"0q,=w;ertyuipas",
"df&<1;ghjklipaz",
"x0qc=-gervbnmaM",
"NBf,<w;ertbnmaV",
"CZAS<1;DrtbumaF",
"GHBqc=JgKtbumaL",
"PNB>,=-ghIbnmaU",
"YNdq,=-ghtbnTRE",
"WCQq,=-ghtbiTR!",
"~^/())_`'][{{}+"
};
