/* XPM */
static char *mafNode_xpm[] = {
/* columns rows colors chars-per-pixel */
"15 15 34 1",
"0 c #949EA6",
"8 c #94AABB",
"% c #6486A1",
"1 c #C7D5E0",
"o c #C0CFDB",
"= c #C6D7E5",
"& c #82909B",
"+ c #EBEDEE",
"9 c #5E7C94",
"7 c #EEF1F3",
"5 c #546C7E",
"# c #9EC1DC",
"2 c #77A0C0",
", c #6A95B6",
"< c #D0D3D5",
"> c #465A6A",
"$ c #7AA7CA",
"* c #F0F1F2",
"q c #F6F6F7",
"- c #83B3D9",
"  c #FFFFFF",
": c #5F84A2",
"w c #F2F4F5",
"; c #7CADD3",
". c #FEFEFE",
"@ c #EAF0F5",
"3 c #50718A",
"4 c #465866",
"O c #C0CBD3",
"e c #F6F7F8",
"t c #D9DDE1",
"X c #E9EFF3",
"6 c #D5D8DA",
"r c #D5DBDF",
/* pixels */
"               ",
" .XoO+.  .XoO+.",
" @#$%&*  @#$%&*",
" =-;:>,,,,-;:><",
" 12,3455552,346",
" 78950q  78950q",
" .w,5e.  .w,5e.",
"   ,5      ,5  ",
" .X,5+.  .X,5+.",
" @#$%&*  @#$%&*",
" =-;:>,,,,-;:><",
" 12,3455552,346",
" 78950q  78950q",
" .wrte.  .wrte.",
"               "
};
