/* XPM */
static char * mafVME_xpm[] = {
"15 15 3 1",
" 	c None",
".	c #FFFFFF",
"+	c #000000",
"...............",
"...++.....++...",
"..+..+...+..+..",
".+....+++....+.",
".+....+++....+.",
"..+..+...+..+..",
"...++.....++...",
"...++.....++...",
"...++.....++...",
"..+..+...+..+..",
".+....+++....+.",
".+....+++....+.",
"..+..+...+..+..",
"...++.....++...",
"..............."};
