/* XPM */
static char * Color_Pick_Up_xpm[] = {
"64 64 5 1",
" 	c None",
".	c #000000",
"+	c #C1C1C1",
"@	c #FFFFFF",
"#	c #908F8F",
"                                                                ",
"                                                                ",
"                                                                ",
"            .                                                   ",
"           .+.                                                  ",
"          .+++.                                                 ",
"         .+++++.                                                ",
"        .+++++++.                                               ",
"       .+++++++++.                                              ",
"      .+++++++++++.                                             ",
"     .+++++++++++++.                                            ",
"    .+++++++++++++++.                                           ",
"   .+++++++++++++++++.                                          ",
"  .+++++++++++++++++++.                   .....                 ",
"  ......+++++++++......                 ..@@@@@..               ",
"       .+++++++++.                     .@@@@@@@@@.              ",
"       .+++++++++.                    .@@@@@@@@@@.              ",
"       .+++++++++.                   .@@@@@@@@@@@@.             ",
"       .+++++++++.                  .@@@@@@@@@@@@@.             ",
"       .+++++++++.                 .@@@@@@@@@@@@@@.             ",
"       .+++++++++.                .@@@@@@@@@@@@@@@.             ",
"       .+++++++++.           ..  .@@@@@@@@@@@@@@@@.             ",
"       .+++++++++.          .@@..@@@@@@@@@@@@@@@@.              ",
"       .+++++++++.         .@@@@.@@@@@@@@@@@@@@@@.              ",
"       .+++++++++.        .@@@@@@.@@@@@@@@@@@@@@.               ",
"       .+++++++++.       .@@@@@@@@.@@@@@@@@@@@@.                ",
"       .+++++++++.       .@@@@@@@@@.@@@@@@@@@@.                 ",
"       .+++++++++.        .@@@@@@@@@.@@@@@@@@.                  ",
"       ...........         .@@@@@@@@@.@@@@@@.                   ",
"                           ..@@@@@@@@@.@@@@.                    ",
"                          .++.@@@@@@@@@.@@.                     ",
"                         .++++.@@@@@@@@@..                      ",
"                        .++++++.@@@@@@@@@.                      ",
"                       .++++++++.@@@@@@@@@.                     ",
"                      .++++++++++.@@@@@@@@.                     ",
"                     .++++++++++++.@@@@@@.                      ",
"                    .+++++++++++++..@@@@.                       ",
"                   .+++++++++++++.  .@@.                        ",
"                  .+++++++++++++.    ..                         ",
"                 .+++++++++++++.                                ",
"                .+++++++++++++.                                 ",
"               .+++++++++++++.                                  ",
"              .+++++++++++++.                                   ",
"             .+++++++++++++.                                    ",
"            .+++++++++++++.                                     ",
"           .+++++++++++++.                                      ",
"          .+++++++++++++.                                       ",
"         .+++++++++++++.                                        ",
"        .+++++++++++++.                                         ",
"       .+++++++++++++.                                          ",
"      .+++++++++++++.                                           ",
"     .+++++++++++++.                                            ",
"    .+++++++++++++.                                             ",
"    .++++++++++++.                                              ",
"   .###+++++++++.                                               ",
"   .#######++++.                                                ",
"   .##########.                                                 ",
"   .#########.                                                  ",
"  .#########.                                                   ",
" .########..                                                    ",
".#####....                                                      ",
" .###.                                                          ",
"  .#.                                                           ",
"   .                                                            "};
