/* XPM */
static char * Color_Pick_xpm[] = {
"64 64 4 1",
" 	c None",
".	c #000000",
"+	c #FFFFFF",
"@	c #C1C1C1",
"                                                                ",
"                                                                ",
"                                                                ",
"                                                                ",
"                                                                ",
"                                                                ",
"                                                                ",
"                                                                ",
"                                                                ",
"                                                                ",
"                                                                ",
"                                                                ",
"                                                                ",
"                                          .....                 ",
"                                        ..+++++..               ",
"                                       .+++++++++.              ",
"                                      .++++++++++.              ",
"                                     .++++++++++++.             ",
"                                    .+++++++++++++.             ",
"                                   .++++++++++++++.             ",
"                                  .+++++++++++++++.             ",
"                             ..  .++++++++++++++++.             ",
"                            .++..++++++++++++++++.              ",
"                           .++++.++++++++++++++++.              ",
"                          .++++++.++++++++++++++.               ",
"                         .++++++++.++++++++++++.                ",
"                         .+++++++++.++++++++++.                 ",
"                          .+++++++++.++++++++.                  ",
"                           .+++++++++.++++++.                   ",
"                           ..+++++++++.++++.                    ",
"                          .@@.+++++++++.++.                     ",
"                         .@@@@.+++++++++..                      ",
"                        .@@@@@@.+++++++++.                      ",
"                       .@@@@@@@@.+++++++++.                     ",
"                      .@@@@@@@@@@.++++++++.                     ",
"                     .@@@@@@@@@@@@.++++++.                      ",
"                    .@@@@@@@@@@@@@..++++.                       ",
"                   .@@@@@@@@@@@@@.  .++.                        ",
"                  .@@@@@@@@@@@@@.    ..                         ",
"                 .@@@@@@@@@@@@@.                                ",
"                .@@@@@@@@@@@@@.                                 ",
"               .@@@@@@@@@@@@@.                                  ",
"              .@@@@@@@@@@@@@.                                   ",
"             .@@@@@@@@@@@@@.                                    ",
"            .@@@@@@@@@@@@@.                                     ",
"           .@@@@@@@@@@@@@.                                      ",
"          .@@@@@@@@@@@@@.                                       ",
"         .@@@@@@@@@@@@@.                                        ",
"        .@@@@@@@@@@@@@.                                         ",
"       .@@@@@@@@@@@@@.                                          ",
"      .@@@@@@@@@@@@@.                                           ",
"     .@@@@@@@@@@@@@.                                            ",
"    .@@@@@@@@@@@@@.                                             ",
"    .@@@@@@@@@@@@.                                              ",
"   .@@@@@@@@@@@@.                                               ",
"   .@@@@@@@@@@@.                                                ",
"   .@@@@@@@@@@.                                                 ",
"   .@@@@@@@@@.                                                  ",
"  .@@@@@@@@..                                                   ",
" .@@@@@....                                                     ",
".@@@@@.                                                         ",
" .@@@.                                                          ",
"  .@.                                                           ",
"   .                                                            "};
