/* XPM */
static char * Fill_Erase_xpm[] = {
"64 64 5 1",
" 	c None",
".	c #000000",
"+	c #FFFFFF",
"@	c #C1C1C1",
"#	c #908F8F",
"                                                                ",
"                                                                ",
"                                                                ",
"                                                                ",
"                                                                ",
"                                                                ",
"                       ......                                   ",
"                     ..........                                 ",
"                    ...      ...                                ",
"                   ...        ...                               ",
"                   ..          ..                               ",
"                  ..            ..                              ",
"                  ..            ..                              ",
"                  ..            ..                              ",
"                  ..            ..                              ",
"                  ..   ......   ..                              ",
"                  ..  .++++++.  ..                              ",
"                  .. .++++++++. ..                              ",
"                  ...++++++++++...                              ",
"                  ..++++++++++++..                              ",
"                  ..+++++++++++++.                              ",
"                 ...++++++++++++++.                             ",
"        @@@@@@@@.+..+++++++++++++++.                            ",
"       @#######.++..++++++++++++++++.                           ",
"      @#######.+++..+++++++++++++++++.                          ",
"     @#######.++++..++++++++++++++++++.                         ",
"    @#######.+++++..+++++++++++++++++++.                        ",
"   @#######.++++++..++++++++++++++++++++.                       ",
"  @#######.+++++++..+++++++++++++++++++++.                      ",
" @#######.++++++++..++++++++++++++++++++++.                     ",
"@#######.+++++++++..+++++++++++++++++++++++.                    ",
"@######.++++++++......++++++++++++++++++++++.                   ",
"@#####.++++++++.@@..@@.++++++++++++++++++++++.                  ",
"@####.+++++++++.@@..@@.+++++++++++++++++++++++.                 ",
"@####+++++++++.@@@..@@@.+++++++++++++++++++++++.                ",
"@####+++++++++.@@@@@@@@.++++++++++++++++++++++++.               ",
"@####++++++++++.@@@@@@.++++++++++++++++++++++++++.              ",
"@####.+++++++++.@@@@@@.+++++++++++++++++++++++++++.             ",
"@####@.+++++++++..@@..++++++++++++++++++++++++++++.             ",
"@####@ .++++++++++..++++++++++++++++++++++++++++++.             ",
"@####@  .+++++++++++++++++++++++++++++++++++++++++.             ",
"@####@   .++++++++++++++++++++++++++++++++++++++++.             ",
"@####@    .++++++++++++++++++++++++++++++++++++++.              ",
"@####@     .++++++++++++++++++++++++++++++++++++.               ",
"@####@      .++++++++++++++++++++++++++++++++++.                ",
"@####@       .++++++++++++++++++++++++++++++++.                 ",
"@####@        .++++++++++++++++++++++++++++++.                  ",
"@####@         .++++++++++++++++++++++++++++.                   ",
"@####@          .++++++++++++++++++++++++++.                    ",
"@####@           .++++++++++++++++++++++++.                     ",
"@####@            .++++++++++++++++++++++.                      ",
"@####@             .++++++++++++++++++++.                       ",
"@####@              .++++++++++++++++++.                        ",
"@####@               .++++++++++++++++.                         ",
"@####@                .++++++++++++++.                          ",
"@####@                 .++++++++++++.                           ",
"@####@                  .++++++++++.                            ",
"@####@                   .++++++++.                             ",
"@####@                    .++++++.                              ",
"@####@                     .++++.                               ",
"@####@                      ....                                ",
"@####@                                                          ",
"@####@                                                          ",
"@####@                                                          "};
