/* XPM */
static char * Fill_xpm[] = {
"64 64 5 1",
" 	c None",
".	c #000000",
"+	c #FFFFFF",
"@	c #908F8F",
"#	c #C1C1C1",
"                                                                ",
"                                                                ",
"                                                                ",
"                                                                ",
"                                                                ",
"                                                                ",
"                           ......                               ",
"                         ..........                             ",
"                        ...      ...                            ",
"                       ...        ...                           ",
"                       ..          ..                           ",
"                      ..            ..                          ",
"                      ..            ..                          ",
"                      ..            ..                          ",
"                      ..            ..                          ",
"                      ..   ......   ..                          ",
"                      ..  .++++++.  ..                          ",
"                      .. .++++++++. ..                          ",
"                      ...++++++++++...                          ",
"                      ..++++++++++++..                          ",
"                  @@@@..+++++++++++++.                          ",
"            @@@@@@@@@...++++++++++++++.                         ",
"        @@@@@@@@@@@@.+..+++++++++++++++.                        ",
"      @@@@@@@@@@@@@.++..++++++++++++++++.                       ",
"    @@@@@@@@@@@@@@.+++..+++++++++++++++++.                      ",
"   @@@@@@@@@@@@@@.++++..++++++++++++++++++.                     ",
"  @@@@@@@@@@@@@@.+++++..+++++++++++++++++++.                    ",
"  @@@@@@@@@@@@@.++++++..++++++++++++++++++++.                   ",
"  @@@@@@@@@@@@.+++++++..+++++++++++++++++++++.                  ",
" @@@@@@@@@@@@.++++++++..++++++++++++++++++++++.                 ",
" @@@@@@@@@@@.+++++++++..+++++++++++++++++++++++.                ",
" @@@@@@@@@@.++++++++......++++++++++++++++++++++.               ",
" @@@@@@@@@.++++++++.##..##.++++++++++++++++++++++.              ",
" @@@@@@@@.+++++++++.##..##.+++++++++++++++++++++++.             ",
" @@@@@@@@+++++++++.###..###.+++++++++++++++++++++++.            ",
" @@@@@@@@+++++++++.########.++++++++++++++++++++++++.           ",
" @@@@@@@@++++++++++.######.++++++++++++++++++++++++++.          ",
" @@@@@@@@.+++++++++.######.+++++++++++++++++++++++++++.         ",
" @@@@@@@@ .+++++++++..##..++++++++++++++++++++++++++++.         ",
" @@@@@@@@  .++++++++++..++++++++++++++++++++++++++++++.         ",
" @@@@@@@@   .+++++++++++++++++++++++++++++++++++++++++.         ",
" @@@@@@@@    .++++++++++++++++++++++++++++++++++++++++.         ",
" @@@@@@@@     .++++++++++++++++++++++++++++++++++++++.          ",
" @@@@@@@@      .++++++++++++++++++++++++++++++++++++.           ",
"  @@@@@@        .++++++++++++++++++++++++++++++++++.            ",
"  @@@@@@         .++++++++++++++++++++++++++++++++.             ",
"  @@@@@@          .++++++++++++++++++++++++++++++.              ",
"  @@@@@@           .++++++++++++++++++++++++++++.               ",
"  @@@@@@            .++++++++++++++++++++++++++.                ",
"  @@@@@@             .++++++++++++++++++++++++.                 ",
"  @@@@@@              .++++++++++++++++++++++.                  ",
"  @@@@@@               .++++++++++++++++++++.                   ",
"  @@@@@@                .++++++++++++++++++.                    ",
"   @@@@@                 .++++++++++++++++.                     ",
"   @@@@@                  .++++++++++++++.                      ",
"   @@@@@                   .++++++++++++.                       ",
"   @@@@@                    .++++++++++.                        ",
"   @@@@@                     .++++++++.                         ",
"    @@@@                      .++++++.                          ",
"    @@@@                       .++++.                           ",
"    @@@                         ....                            ",
"     @@                                                         ",
"     @@                                                         ",
"     @                                                          "};
