/* XPM */
static char * Pencil_xpm[] = {
"64 64 5 1",
" 	c None",
".	c #000000",
"+	c #E7E7E7",
"@	c #C1C1C1",
"#	c #908F8F",
"                                                                ",
"                                                                ",
"                                                                ",
"                                                                ",
"                                                                ",
"                                                                ",
"                                                                ",
"                                                                ",
"                                                                ",
"                                                                ",
"                                           .                    ",
"                                          .+.                   ",
"                                         .+++.                  ",
"                                        .+++++.                 ",
"                                       .+++++++.                ",
"                                      .+++++++++.               ",
"                                     .+++++++++++.              ",
"                                    .+++++++++++++.             ",
"                                   .+++++++++++++++.            ",
"                                  .+++++++++++++++++.           ",
"                                 ..++++++++++++++++++.          ",
"                                .@..++++++++++++++++.           ",
"                               .@@@..++++++++++++++.            ",
"                              .@@@@@..++++++++++++.             ",
"                             .@@@@@@@..++++++++++.              ",
"                            .@@@@@@@@@..++++++++.               ",
"                           .@@@@@@@@@@@..++++++.                ",
"                          .@@@@@@@@@@@@@..++++.                 ",
"                         .@@@@@@@@@@@@@@@..++.                  ",
"                        .@@@@@@@@@@@@@@@@@...                   ",
"                       .@@@@@@@@@@@@@@@@@@@.                    ",
"                      .@@@@@@@@@@@@@@@@@@@.                     ",
"                     .@@@@@@@@@@@@@@@@@@@.                      ",
"                    .@@@@@@@@@@@@@@@@@@@.                       ",
"                   .@@@@@@@@@@@@@@@@@@@.                        ",
"                  .@@@@@@@@@@@@@@@@@@@.                         ",
"                 .@@@@@@@@@@@@@@@@@@@.                          ",
"                .@@@@@@@@@@@@@@@@@@@.                           ",
"               .@@@@@@@@@@@@@@@@@@@.                            ",
"              .@@@@@@@@@@@@@@@@@@@.                             ",
"             .@@@@@@@@@@@@@@@@@@@.                              ",
"            .@@@@@@@@@@@@@@@@@@@.                               ",
"           .@@@@@@@@@@@@@@@@@@@.                                ",
"          .@@@@@@@@@@@@@@@@@@@.                                 ",
"         .@@@@@@@@@@@@@@@@@@@.                                  ",
"        .@@@@@@@@@@@@@@@@@@@.                                   ",
"       .@@@@@@@@@@@@@@@@@@@.                                    ",
"      .@@@@@@@@@@@@@@@@@@@.                                     ",
"     .@@@@@@@@@@@@@@@@@@@.                                      ",
"     ..@@@@@@@@@@@@@@@@@.                                       ",
"    .##.@@@@@@@@@@@@@@@.                                        ",
"    .###.@@@@@@@@@@@@@.                                         ",
"    .####.@@@@@@@@@@@.                                          ",
"   .######.@@@@@@@@@.                                           ",
"   .#######.@@@@@@@.                                            ",
"  .#########.@@@@@.                                             ",
"  .##########.@@@.                                              ",
"  .###########.@.                                               ",
" ..###########..                                                ",
" ...########..                                                  ",
" ....####...                                                    ",
".........                                                       ",
"......                                                          ",
"...                                                             "};
