/* XPM */
static char * Slice_Up_xpm[] = {
"64 64 13 1",
" 	c None",
".	c #000000",
"+	c #C1C1C1",
"@	c #DCDCDC",
"#	c #D9D9D9",
"$	c #DADADA",
"%	c #4A4A4A",
"&	c #3F3F3F",
"*	c #3A3A3A",
"=	c #7B7B7B",
"-	c #D4D4D4",
";	c #D5D5D5",
">	c #C6C6C6",
"                                                                ",
"                                                                ",
"                                                                ",
"                                                                ",
"                                                                ",
"                                                                ",
"                               .                                ",
"                              .+.                               ",
"                             .+++.                              ",
"                            .+++++.                             ",
"                           .+++++++.                            ",
"                          .+++++++++.                           ",
"                         .+++++++++++.                          ",
"                        .+++++++++++++.                         ",
"                       .+++++++++++++++.                        ",
"                      .+++++++++++++++++.                       ",
"                     .+++++++++++++++++++.                      ",
"                     ......+++++++++......                      ",
"                          .+++++++++.                           ",
"                          .+++++++++.                           ",
"                          .+++++++++.                           ",
"                          .+++++++++.                           ",
"                          .+++++++++.                           ",
"                      .....+++++++++......                      ",
"                     .@@@@.+++++++++.@@@@@.                     ",
"                    .@@@@@.+++++++++.@@@@@@.                    ",
"                   .@@@@@@.+++++++++.@@@@@@@.                   ",
"                  .@@@++++.+++++++++.+++++@@@.                  ",
"                 .@@@+@@@@.+++++++++.@@@@@+@@@.                 ",
"                .@@@+@@@@@.+++++++++.@@@@@@+@@@.                ",
"               .@@@+@@@@@@.+++++++++.@@@@@@@+@@@.               ",
"              .@@@+@@@####...........#####@@@+@@@.              ",
"             .@@@+@@@#@@@@@@@@@@@@@@@@@@@@#@@@+@@@.             ",
"            .@@@+@@@#@@@@@@@@@@@@@@@@@@@@@@#@@@+@@@.            ",
"           .@@@+@@@#@@@@@@@@@@@@@@@@@@@@@@@@#@@@+@@@.           ",
"          .@@@+@@@#@@@$$$$$$$$$$$$$$$$$$$$@@@#@@@+@@@.          ",
"         .@@@+@@@#@@@$@@@@@@@@@@@@@@@@@@@@$@@@#@@@+@@@.         ",
"        .@@@+@@@#@@@$@@@@@@@@@@@@@@@@@@@@@@$@@@#@@@+@@@.        ",
"       .@@@+@@@#@@@$@@@@@@@@@@@@@@@@@@@@@@@@$@@@#@@@+@@@.       ",
"      .@@@+@@@#@@@$@@@@@@@@@@@@@@@@@@@@@@@@@@$@@@#@@@+@@@.      ",
"      ...%...&...*............................*...&...%...      ",
"        =@@@-@@@;@@@@@@@@@@@@@@@@@@@@@@@@@@@@@@;@@@-@@@=        ",
"       =@@@-@@@;@@@@@@@@@@@@@@@@@@@@@@@@@@@@@@@@;@@@-@@@=       ",
"      =@@@-@@@;@@@@@@@@@@@@@@@@@@@@@@@@@@@@@@@@@@;@@@-@@@=      ",
"      ====================================================      ",
"        =@@@>@@@@@@@@@@@@@@@@@@@@@@@@@@@@@@@@@@@@@@>@@@=        ",
"       =@@@>@@@@@@@@@@@@@@@@@@@@@@@@@@@@@@@@@@@@@@@@>@@@=       ",
"      =@@@>@@@@@@@@@@@@@@@@@@@@@@@@@@@@@@@@@@@@@@@@@@>@@@=      ",
"      ====================================================      ",
"                                                                ",
"                                                                ",
"                                                                ",
"                                                                ",
"                                                                ",
"                                                                ",
"                                                                ",
"                                                                ",
"                                                                ",
"                                                                ",
"                                                                ",
"                                                                ",
"                                                                ",
"                                                                ",
"                                                                "};
