/* XPM */
static char * FRAME_ICON16x16_xpm[] = {
"16 16 43 1",
" 	c None",
".	c #625E5E",
"+	c #656262",
"@	c #6C6A6A",
"#	c #6B6868",
"$	c #7F7D7D",
"%	c #838181",
"&	c #726F6F",
"*	c #656161",
"=	c #817F7F",
"-	c #DBDBDB",
";	c #8C8A8A",
">	c #EDEDED",
",	c #FFFFFF",
"'	c #B8B7B7",
")	c #AFADAD",
"!	c #6F6C6C",
"~	c #E4E4E4",
"{	c #EDECEC",
"]	c #E4E3E3",
"^	c #6C6868",
"/	c #716E6E",
"(	c #AFAEAE",
"_	c #F6F6F6",
":	c #DBDADA",
"<	c #959393",
"[	c #787676",
"}	c #A6A5A5",
"|	c #7A7878",
"1	c #6E6B6B",
"2	c #807B7B",
"3	c #858080",
"4	c #7F7A7A",
"5	c #7F7B7B",
"6	c #7E7A7A",
"7	c #B6ACAC",
"8	c #B1A8A8",
"9	c #AFA7A7",
"0	c #AFA6A6",
"a	c #B6AEAE",
"b	c #B7AEAE",
"c	c #B5ACAC",
"d	c #B6ADAD",
"     .+@@+.     ",
"    #$%&&%$#    ",
"   *=--;;--=*   ",
"   #%>,'),>%#   ",
"  .!%~~{]]~%!.  ",
"  ^/%-(__):%/^  ",
"  .!%-<--<-%!.  ",
"   #%-%%%%-%#   ",
"   *[}|&&|}[*   ",
"    #1&&&&1#    ",
"     234536     ",
"     789087     ",
"     abbbba     ",
"     ab77ba     ",
"     7c  da     ",
"                "};
