/* XPM */
static char * FRAME_ICON32x32_xpm[] = {
"32 32 23 1",
" 	c None",
".	c #484646",
"+	c #575555",
"@	c #666363",
"#	c #6F6C6C",
"$	c #4C4A4A",
"%	c #726F6F",
"&	c #5E5B5B",
"*	c #FFFFFF",
"=	c #716E6E",
"-	c #B5ADAD",
";	c #999292",
">	c #7B7777",
",	c #7F7878",
"'	c #817C7C",
")	c #837D7D",
"!	c #7F7A7A",
"~	c #999191",
"{	c #B1A8A8",
"]	c #B7AEAE",
"^	c #B6ADAD",
"/	c #B4ABAB",
"(	c #B5ACAC",
"            .+@##@+.            ",
"          $#%%%%%%%%#$          ",
"         &%%%%%%%%%%%%&         ",
"        @%%%%%%%%%%%%%%@        ",
"       &%%****%%%%****%%&       ",
"      $%%%****%%%%****%%%$      ",
"      #%%%*****%%*****%%%#      ",
"     .%%%%*****%%*****%%%%.     ",
"     +%%%%******=*****%%%%+     ",
"     @%%%%**%******%**%%%%@     ",
"     #%%%%**%******=**%%%%#     ",
"     #%%%%**%%****%%**%%%%#     ",
"     @%%%%**%%****%%**%%%%@     ",
"     +%%%%**%%****%%**%%%%+     ",
"     .%%%%**%%%%%%%%**%%%%.     ",
"      #%%%**%%%%%%%%**%%%#      ",
"      $%%%**%%%%%%%%**%%%$      ",
"       &%%%%%%%%%%%%%%%%&       ",
"        @%%%%%%%%%%%%%%@        ",
"         &%%%%%%%%%%%%&         ",
"          $%%%%%%%%%#$          ",
"           -;>,')!)~{           ",
"           ]]]]]^/^]]           ",
"           ]]]]]]]]]]           ",
"           ]]]]]]]]]]           ",
"           ]]]]]]]]]]           ",
"           ]]]]]]]]]]           ",
"           ]]]]^]]]]]           ",
"           ]]](  ]]]]           ",
"           ]]/    ]]]           ",
"           ^       ]]           ",
"                                "};
