/* XPM */
static char * EDIT_COPY_xpm[] = {
"11 11 6 1",
" 	c None",
".	c #000000",
"+	c #FFFFFF",
"@	c #D3D3D3",
"#	c #FEFEFE",
"$	c #EFEFEF",
"    ...... ",
"    .++++. ",
"    @++#+. ",
" ......++. ",
" .++++.++. ",
" .++++.++. ",
" .++++.++. ",
" .++++.$.. ",
" .++++.    ",
" .++++.    ",
" ......    "};
