/* XPM */
static char * EDIT_EXPAND_TREE_xpm[] = {
"11 11 3 1",
" 	c None",
".	c #989696",
"+	c #000000",
"           ",
"     .+.   ",
"   ..+ +   ",
"   . .+.   ",
"  .+.      ",
"..+ +      ",
"  .+.      ",
"   . .+.   ",
"   ..+ +   ",
"     .+.   ",
"           "};
