/* XPM */
static char * EDIT_DELETE_xpm[] = {
"11 11 3 1",
" 	c None",
".	c #9A0000",
"+	c #C45151",
"           ",
" .+     ++ ",
"+...   .++ ",
" ...+ +++  ",
"  .....+   ",
"   +...    ",
"   ..+.+   ",
"  ..+ ++.  ",
" ...   +++ ",
"...     +++",
" +         "};
