/* XPM */
static char * EDIT_FIND_xpm[] = {
"11 11 4 1",
" 	c None",
".	c #000000",
"+	c #C8C8C8",
"@	c #FFFFFF",
"        ...",
" .......++.",
" .++++++++.",
" .+...++++.",
" +.+@+.+++.",
" .+@@@+.++.",
" .@@@@@.++.",
" .+@@@+.+..",
" +.+@+.    ",
"+.+...     ",
".+         "};
