/* XPM */
static char * EDIT_CUT_xpm[] = {
"11 11 12 1",
" 	c None",
".	c #4E4E4E",
"+	c #272727",
"@	c #565656",
"#	c #1D1D1D",
"$	c #5B5B5B",
"%	c #383838",
"&	c #323232",
"*	c #212121",
"=	c #303030",
"-	c #232323",
";	c #333333",
"  .     .  ",
"  +.   .+  ",
"  @#   +@  ",
"   @+ +@   ",
"    +.+    ",
"    $%$    ",
"    $&$    ",
"  &&$ $&&  ",
" *  = =  * ",
" -  ; ;  - ",
"  &&   &&  "};
