/* XPM */
static char * EDIT_SETTINGS_xpm[] = {
"11 11 3 1",
" 	c None",
".	c #646464",
"+	c #0F0F0F",
"    .+.    ",
" .+ .+. +. ",
" +++++++++ ",
"  ++. .++  ",
"..+.   .+..",
"+++     +++",
"..+.   .+..",
"  ++. .++  ",
" +++++++++ ",
" .+ .+. +. ",
"    .+.    "};
