/* XPM */
static char * EDIT_REDO_xpm[] = {
"11 11 7 1",
" 	c None",
".	c #8585C2",
"+	c #6767CD",
"@	c #5F5FD0",
"#	c #5E5ED0",
"$	c #6060D0",
"%	c #5D5DD1",
"    ..     ",
"  .+++++   ",
" .@@+#+.. $",
" @@@  %@@@@",
".@.    ..@@",
"+.     %%@@",
"#.    @@@@@",
"..         ",
".@         ",
"           ",
"           "};
