/* XPM */
static char * EDIT_REPARENT_xpm[] = {
"11 11 7 1",
" 	c None",
".	c #989696",
"+	c #000000",
"@	c #FF6372",
"#	c #911717",
"$	c #96E897",
"%	c #026A05",
"..+ +      ",
". .+.      ",
".  . @#@   ",
".  ..# #   ",
".    @#@   ",
". .+.      ",
"..+ +      ",
"  .+.      ",
"   . $%$   ",
"   ..% %   ",
"     $%$   "};
