/* XPM */
static char * EDIT_SHOW_HISTORY_xpm[] = {
"11 11 2 1",
" 	c None",
".	c #000000",
"   . . .   ",
" .       . ",
"           ",
".    .    .",
"     .     ",
".    .... .",
"           ",
".         .",
"           ",
" .       . ",
"   . . .   "};
