/* XPM */
static char *FILE_OPEN_xpm[] = {
"11 11 9 1",
" 	c None",
".	c #000000",
"+	c #FFFFFF",
"@	c #FDFDFD",
"#	c #070707",
"$	c #060606",
"%	c #878787",
"&	c #090909",
"*	c #020202",
"   .       ",
"  ...      ",
"   .  .... ",
" ++.++.... ",
" @@.+++++# ",
" ++++++++$ ",
"........+$ ",
"........+# ",
"........%# ",
"%.......&* ",
" ......... "};
