/* XPM */
static char * FILE_PRINT_xpm[] = {
"11 11 7 1",
" 	c None",
".	c #2B2B2B",
"+	c #FFFFFF",
"@	c #000000",
"#	c #020202",
"$	c #F7F7F7",
"%	c #EAEAEA",
"  .......  ",
"  .+++++.  ",
"  .+++++.  ",
"  .+++++.  ",
" @@@@@@@@@ ",
" @+@@@@@#@ ",
" @@@@@@@@@ ",
" @@@@@@@@@ ",
" @.+$%$+.@ ",
" @.+++++.@ ",
"  .......  "};
