/* XPM */
static char * FILE_NEW_xpm[] = {
"11 11 4 1",
" 	c None",
".	c #000000",
"+	c #FFFFFF",
"@	c #FEFEFE",
" ......    ",
" .+++++.   ",
" .++++++.  ",
" .++++@++. ",
" .+++++++. ",
" .+++++++. ",
" .+++++++. ",
" .+++++++. ",
" .+++++++. ",
" .+++++++. ",
" ......... "};
