/* XPM */
static char * FILE_SAVE_xpm[] = {
"11 11 6 1",
" 	c None",
".	c #000000",
"+	c #060606",
"@	c #FFFFFF",
"#	c #141414",
"$	c #1F1F1F",
"           ",
" .+@@..@#  ",
" .+@@..@.$ ",
" .+@@..@.$ ",
" .+@@@@@.. ",
" ......... ",
" ......... ",
" ......... ",
" ......... ",
" ......... ",
"           "};
