/* XPM */
static char * HELP_HELP_xpm[] = {
"11 11 5 1",
" 	c None",
".	c #000000",
"+	c #939393",
"@	c #070707",
"#	c #4E4E4E",
"  ......   ",
" ........  ",
" ..+  +..  ",
" .@   +..  ",
"     +..+  ",
"    ...#   ",
"    ..+    ",
"    ..     ",
"           ",
"    ..     ",
"    ..     "};
