/* XPM */
static char * HIDE_xpm[] = {
"20 20 66 1",
" 	c None",
".	c #000000",
"+	c #B0B0B0",
"@	c #616161",
"#	c #363636",
"$	c #2F2F2F",
"%	c #4E4E4E",
"&	c #040404",
"*	c #8E8E8E",
"=	c #4B4B4B",
"-	c #3C3C3C",
";	c #888888",
">	c #B6B6B6",
",	c #B1B1B1",
"'	c #838383",
")	c #1D1D1D",
"!	c #020202",
"~	c #8F8F8F",
"{	c #1A1A1A",
"]	c #757575",
"^	c #ECECEC",
"/	c #FFFFFF",
"(	c #E7E7E7",
"_	c #B9B9B9",
":	c #212121",
"<	c #0A0A0A",
"[	c #8B8B8B",
"}	c #1E1E1E",
"|	c #C0C0C0",
"1	c #191919",
"2	c #050505",
"3	c #B4B4B4",
"4	c #171717",
"5	c #727272",
"6	c #282828",
"7	c #6C6C6C",
"8	c #232323",
"9	c #FDFDFD",
"0	c #FBFBFB",
"a	c #5D5D5D",
"b	c #424242",
"c	c #E4E4E4",
"d	c #222222",
"e	c #777777",
"f	c #C5C5C5",
"g	c #898989",
"h	c #707070",
"i	c #666666",
"j	c #0D0D0D",
"k	c #A5A5A5",
"l	c #C6C6C6",
"m	c #FCFCFC",
"n	c #F7F7F7",
"o	c #C2C2C2",
"p	c #2B2B2B",
"q	c #818181",
"r	c #0B0B0B",
"s	c #7A7A7A",
"t	c #CBCBCB",
"u	c #CECECE",
"v	c #AFAFAF",
"w	c #686868",
"x	c #333333",
"y	c #4C4C4C",
"z	c #202020",
"A	c #373737",
"                    ",
"                    ",
"                    ",
"                    ",
"              ..    ",
"       +@#$% &.     ",
"     *=-;>,')!      ",
"    ~{]^/(_:<[}     ",
"    =]//|1.2|/34    ",
"   56(//7..890/a5   ",
"    b;/cd..e//f)    ",
"    g:hijklmnop     ",
"     qr2stuvwx      ",
"     .! yz}A        ",
"     .              ",
"                    ",
"                    ",
"                    ",
"                    ",
"                    "};
