/* XPM */
static char * SHOW_xpm[] = {
"20 20 59 1",
" 	c None",
".	c #616161",
"+	c #363636",
"@	c #2F2F2F",
"#	c #4E4E4E",
"$	c #4B4B4B",
"%	c #3C3C3C",
"&	c #888888",
"*	c #B6B6B6",
"=	c #B9B9B9",
"-	c #9E9E9E",
";	c #545454",
">	c #3A3A3A",
",	c #1A1A1A",
"'	c #757575",
")	c #ECECEC",
"!	c #FFFFFF",
"~	c #E7E7E7",
"{	c #D9D9D9",
"]	c #F2F2F2",
"^	c #B0B0B0",
"/	c #1E1E1E",
"(	c #C0C0C0",
"_	c #1F1F1F",
":	c #070707",
"<	c #848484",
"[	c #B4B4B4",
"}	c #171717",
"|	c #727272",
"1	c #282828",
"2	c #000000",
"3	c #FDFDFD",
"4	c #FBFBFB",
"5	c #5D5D5D",
"6	c #424242",
"7	c #111111",
"8	c #777777",
"9	c #C5C5C5",
"0	c #1D1D1D",
"a	c #212121",
"b	c #898989",
"c	c #F8F8F8",
"d	c #D5D5D5",
"e	c #C6C6C6",
"f	c #FCFCFC",
"g	c #F7F7F7",
"h	c #C2C2C2",
"i	c #2B2B2B",
"j	c #414141",
"k	c #484848",
"l	c #9A9A9A",
"m	c #CBCBCB",
"n	c #CECECE",
"o	c #AFAFAF",
"p	c #686868",
"q	c #333333",
"r	c #4C4C4C",
"s	c #202020",
"t	c #373737",
"                    ",
"                    ",
"                    ",
"                    ",
"                    ",
"        .+@#        ",
"      $%&*=-;>      ",
"     ,')!~{!]^/     ",
"    $'!!(_:<!![}    ",
"   |1~!!'22@34!5|   ",
"    6&!!*728!!90    ",
"     abc!defghi     ",
"      jklmnopq      ",
"        rs/t        ",
"                    ",
"                    ",
"                    ",
"                    ",
"                    ",
"                    "};
