/* XPM */
static char * SHOW_HISTORY_xpm[] = {
"16 16 2 1",
" 	c None",
".	c #000000",
"       ..       ",
"     .    .     ",
"   .        .   ",
"  .    ..    .  ",
"       ..       ",
" .     ..     . ",
"       ..       ",
".      ..      .",
".      ....... .",
"                ",
" .            . ",
"                ",
"  .          .  ",
"   .        .   ",
"     .    .     ",
"       ..       "};
