/* XPM */
static char * WINDOW_NEXT_xpm[] = {
"11 11 2 1",
" 	c None",
".	c #000000",
"           ",
"           ",
"  .   .    ",
"   .   .   ",
"    .   .  ",
"     .   . ",
"    .   .  ",
"   .   .   ",
"  .   .    ",
"           ",
"           "};
