/* XPM */
static char *open_xpm[] = {
/* columns rows colors chars-per-pixel */
"24 24 321 2",
"RX c #EDCE80",
"]. c #FFEDA6",
"9. c #FFFFE2",
"n. c #FFFFE3",
"u. c #8C7F56",
"WX c #FFDE78",
"K  c #FCFBFA",
"OX c #F2C050",
".. c #D2BA72",
"I. c #FFEDAD",
"*X c #7D7C77",
"e  c #E1C981",
"@  c #EBD798",
"t. c #FFFFEC",
"Y  c #F9F388",
"f  c #FDF9C6",
"X. c #B9B29C",
"2  c #EBD79D",
"b. c #FFEDB5",
"W  c #F0E4BF",
"!X c #F3D05E",
":. c #FFFFF7",
";. c #FFFFF8",
"r. c #FFEDBC",
",o c #B2902B",
"=X c #D2D2D2",
"ho c #E1E1E1",
"W. c #F0C96E",
"C. c #FFD87C",
"   c None",
"@o c #857B5E",
"&. c #F3E8BC",
"#. c #ECD574",
"ao c #948A6F",
"zX c #A69141",
"KX c #E2BE46",
"VX c #E2C150",
";o c #F3C755",
"o. c #DFCFA1",
"F  c #BCBCBC",
"l  c #F6ECB4",
"m  c #E7D794",
"8X c #E9E9E9",
"io c #F8F5ED",
"qo c #83723F",
")X c #8D7A42",
"&  c #F8F8F8",
"}. c #7E714B",
"d. c #FBD86E",
"*o c #DDC06A",
"iX c #746F60",
"#X c #FFFE98",
"3  c #F6ECC0",
"yX c #FEEB90",
"4. c #FEE57F",
"7  c #F1E5BA",
"N  c #FFFEA1",
"=. c #FBF0CA",
"BX c #FEE27B",
"7. c #EACC63",
"z. c #FEFDD5",
"to c #ABAAA8",
"mX c #E7B946",
"l. c #F6ECCC",
"Z  c #FFFEA6",
"(  c #FFF892",
"B. c #C4C4C4",
"yo c #D3D3D3",
"sX c #F6EFDB",
".o c #E0B537",
"9X c #F6EFDC",
"M. c #C7B679",
" X c #F1F1F1",
",  c #FBF9F5",
"+  c #E5CB7A",
"1. c #E5C870",
"{  c #E0CD8F",
"6  c #FFFEB5",
"5. c #F7DB6E",
"@X c #FFFEB6",
"&X c #BBA247",
"E  c #C2B58F",
"+. c #FFEF89",
"Q  c #EFE2B9",
"`  c #F0E07C",
"L  c #E0D0A2",
"z  c #FCF7C6",
"|. c #AEAEAE",
"i. c #A4A3A2",
"V. c #E5C269",
"FX c #F9EDC8",
"MX c #F4E6BD",
" . c #F4E9C7",
"{X c #FEE299",
"5  c #FFFEC0",
"O. c #FFEF8F",
"m. c #FCFAD8",
"Z. c #FED36C",
"$  c #D4B963",
"J  c #F9F6ED",
"<o c #937C39",
"+o c #84764A",
" o c #EDC44D",
"=  c #FEFDFB",
"_X c #847957",
"tX c #FFE983",
"wX c #E3BC52",
"8  c #BBAB7C",
"p  c #DEC783",
"ro c #939189",
"NX c #FFEC94",
"~. c #E8CC7C",
"3. c #FFE680",
"Y. c #F5F0BD",
"LX c #AF9131",
"GX c #FFE37D",
":X c #E8C05B",
"ZX c #ACABAB",
"S  c #F1E471",
"~  c #E8E4D8",
"9o c #C39B28",
"fX c #EDBE4F",
"%  c #DEDCD9",
"r  c #E1C879",
"j. c #EBD385",
"H. c #FDFBC6",
"8o c #E1BF5E",
"xX c #878684",
"8. c #F5EAC3",
"<. c #969288",
"D. c #FAF4D9",
"!  c #E6D5A3",
"YX c #F5F0DF",
"bX c #F5EDD6",
"b  c #AD9D63",
"9  c #E6E1D3",
"i  c #EBEBEB",
"-. c #FFF5DB",
">o c #D5A82A",
"UX c #FAFAFA",
"6. c #F1D25E",
"*. c #F8F1CF",
"do c #85837D",
"3o c #8A8474",
"`X c #9E9D98",
"R  c #AB9138",
"Q. c #FFD174",
"[  c #ECDA8D",
"f. c #ECC54D",
"uo c #E4E4E4",
"0o c #9C7F2C",
"t  c #E2C66D",
"-  c #FDFBF7",
"<X c #FBF5D3",
"lX c #F9E079",
"I  c #FFFD97",
"v  c #F2E581",
">X c #F8CA68",
"EX c #FBE9B2",
"R. c #8D8B88",
"4o c #9C9A96",
"^. c #FEFCD2",
"5o c #B0B0B0",
"'X c #F6F1E1",
"j  c #EAD485",
"H  c #FBF8EF",
"T  c #EBD85E",
"M  c #FFFDA8",
">  c #FBF8F0",
"-X c #FBFBFB",
":  c #FBF8F1",
"rX c #FFF48E",
"h  c #E0C97F",
"/  c #FFF799",
",. c #AE9E6C",
"+X c #EFDEA3",
"C  c #FFFDAF",
"$X c #FFF18B",
"gX c #EAD189",
"w  c #EADAA9",
"p. c #E5C46D",
"c  c #FFFDB8",
"D  c #9D8C4C",
"jX c #FFEE88",
"go c #B8B8B8",
"AX c #F4EED9",
"'. c #FFF194",
"oo c #A78B35",
"/X c #BB9B39",
"T. c #A28D48",
"6X c #84723B",
"QX c #FCDB72",
"'  c #F0DF83",
"6o c #F4F4F4",
"y. c #E8DDAF",
"_  c #EEDC6A",
"P. c #FFF1A0",
"k. c #F2E2AD",
"kX c #FFE57F",
"#  c #F2E5BA",
"DX c #E8C25F",
"$o c #A2A2A2",
"SX c #E3BE5F",
"!. c #FECC66",
"v. c #FFF1AB",
"hX c #FFF4B7",
"0X c #E8C56D",
"4  c #FFFDD6",
"IX c #CFCFCF",
"CX c #827548",
"y  c #E1C465",
"cX c #DEDEDE",
"G  c #FCFCFA",
"eX c #FFFAD3",
"vX c #FCFCFC",
";  c #FCF9F3",
"e. c #FFF1B9",
"PX c #7D7764",
"so c #736F64",
"{. c #DFD38D",
"s. c #FFDC76",
"#o c #918D81",
"a. c #FFDF83",
"U  c #FEFB95",
"HX c #F8DB6F",
"}  c #E6D7A9",
"S. c #F0DFAB",
"fo c #A09F9C",
"}X c #FFD973",
"|  c #F0E2B7",
"~X c #E9C348",
",X c #E6B63E",
"%o c #B9B9B9",
"X  c #F0E2BA",
"Xo c #C6A130",
"k  c #EEDC93",
")  c #F9EE83",
"Oo c #8F7B40",
"|X c #F8D266",
"A. c #E9C051",
"%. c #F3E6B7",
"u  c #D5C594",
"G. c #FBF7C7",
"J. c #FEFEC0",
"a  c #FEFBB7",
"pX c #C1C1C1",
"E. c #DFDFDF",
"h. c #E7C968",
"0  c #F8F3E5",
"jo c #EEEEEE",
"<  c #FDFDFD",
"2o c #7E7558",
":o c #E7BA3C",
"d  c #FFFF99",
"$. c #F1E3AD",
"s  c #FFFF9A",
"A  c #FFFF9B",
"eo c #7E7868",
"XX c #E7BD50",
"7X c #9C9C9C",
"`. c #FFFFA4",
"dX c #E7C366",
"_. c #FFFFA5",
"TX c #E2BF66",
"5X c #F7EE9B",
"). c #FFFFA6",
"[X c #F1DDA6",
"2X c #FFF993",
"q  c #F1E6C4",
"(X c #9F883C",
"(. c #FFFFA8",
"P  c #FFFC9E",
".X c #F6EDD2",
"n  c #C9C9C9",
"&o c #D8D8D8",
"uX c #D9C155",
"/. c #FFFFAC",
"g. c #EAC759",
";X c #F6EDD5",
"aX c #F6F6F6",
"1X c #FFF99C",
"1  c #FBF7ED",
"1o c #817349",
"F. c #F9F4CF",
"wo c #776E52",
"7o c #DBBE67",
"N. c #817960",
"L. c #FFFFB5",
"o  c #E0C575",
"K. c #FFFFB7",
"oX c #FBCD6D",
"@. c #FAE97F",
"po c #D1C298",
">. c #F9F4DC",
"^  c #E0D1A7",
"3X c #FFED87",
"c. c #FFFFC4",
"=o c #F4E1B0",
"x. c #FFFFC5",
"V  c #FFFCBB",
"-o c #FEDA83",
".  c #FEFEFD",
"*  c #FEFEFE",
"O  c #DEBF61",
"B  c #FFFCC2",
"qX c #F4C65F",
"[. c #FFFFCE",
"]  c #F0E18F",
"x  c #FFFCC5",
"g  c #E3CF8F",
"]X c #DEBC5E",
"JX c #F0CF5A",
"nX c #E3BD58",
"4X c #FFED99",
"U. c #FFFFD7",
"w. c #FFFFD8",
"2. c #FFE788",
"^X c #D7B23B",
"%X c #FFED9E",
"q. c #FFFFDA",
"0. c #FFFFDC",
/* pixels */
"                                                ",
". X o O + @ # $ % & * = - ; : > > , < *         ",
"1 2 3 4 5 6 5 7 8 9 0 q w e r t y u i *         ",
"  p a s d d d f g h j k l z x c v b n <         ",
"  m M d d d d N B V C Z A d d d S D F G H J K   ",
"  L P I I I I I I I I I I I U Y T R E W Q ! ~   ",
"  ^ / ( ( ( ( ( ( ( ( ) _ ` ' ] [ { } |  ...X.  ",
"  o.O.+.+.+.+.+.+.+.@.#.$.%.&.*.=.-.;.:.>.,.<.  ",
"  1.2.3.3.3.3.4.5.6.7.8.9.0.q.w.e.r.t.t.y.u.i.  ",
"  p.a.s.d.f.g.h.j.k.l.z.x.c.c.c.v.b.n.m.M.N.B.  ",
"  V.C.Z.A.S.D.F.G.H.J.K.L.L.L.L.P.I.U.Y.T.R.E.  ",
"  W.Q.!.~.^./.(.)._.`.`.`.`.`.`.'.].[.{.}.|. X  ",
".XXXoXOX+X@X#X#X#X#X#X#X#X#X#X#X$X%XJ.&X*X=X-X  ",
";X:X>X,X<X1X2X2X2X2X2X2X2X2X2X2X3X4X5X6X7X8X*   ",
"9X0XqXwXeXrXrXrXrXrXrXrXrXrXrXrXtXyXuXiXpXaX*   ",
"sXdXfXgXhXjXjXjXjXjXjXjXjXjXjXjXkXlXzXxXcXvX    ",
"bXnXmXMXNXtXtXtXtXtXtXtXtXtXtXtXBXVXCXZX X*     ",
"AXSXDXFXGXGXGXGXGXGXGXGXGXBXHXJXKXLXPXIXUX      ",
"YXTXRXEXWXWXWXWXWXWXQX!X~X^X/X(X)X_X`X8X*       ",
"'X]X[X{X}X}X}X|X o.oXoooOo+o@o#o$o%o&o&         ",
"'X*o=o-o;o:o>o,o<o1o2o3o4o5oB.&o8X6oUX*         ",
"'X7o8o9o0oqowoeorotopXyouo X& UX< * *           ",
"iopoaosodofogoIXhojo& -X< * * *                 ",
"                                                "
};
