/* XPM */
static char * FRAME_ICON32x32_xpm[] = {
"32 32 455 2",
"  	c None",
". 	c #FB4747",
"+ 	c #FB5245",
"@ 	c #FDA63A",
"# 	c #FEE632",
"$ 	c #FEE832",
"% 	c #FEE532",
"& 	c #FFE932",
"* 	c #FB5045",
"= 	c #FC7740",
"- 	c #FB5744",
"; 	c #FDAB39",
"> 	c #FEE732",
", 	c #FEE033",
"' 	c #FC7C40",
") 	c #FB6243",
"! 	c #FB5644",
"~ 	c #FB5A44",
"{ 	c #FC7D3F",
"] 	c #FEC736",
"^ 	c #FB4F45",
"/ 	c #FC933D",
"( 	c #FEC936",
"_ 	c #FC7341",
": 	c #FDB139",
"< 	c #FEE432",
"[ 	c #FEDE33",
"} 	c #FEC037",
"| 	c #FDB339",
"1 	c #FDB239",
"2 	c #FDB938",
"3 	c #FED135",
"4 	c #FB5445",
"5 	c #FEC636",
"6 	c #FEC336",
"7 	c #FD9C3B",
"8 	c #FEE332",
"9 	c #FCE238",
"0 	c #FADF3A",
"a 	c #F9DD3D",
"b 	c #F8DB3E",
"c 	c #F8DB3D",
"d 	c #F9DD3A",
"e 	c #FAE038",
"f 	c #FBE235",
"g 	c #FDE632",
"h 	c #FB4946",
"i 	c #FB6543",
"j 	c #FEE232",
"k 	c #FDAE39",
"l 	c #FDA83A",
"m 	c #FED834",
"n 	c #FEDF33",
"o 	c #FEC836",
"p 	c #FDE535",
"q 	c #FADF3B",
"r 	c #F8D941",
"s 	c #F8D942",
"t 	c #F8DA41",
"u 	c #F8D940",
"v 	c #F8D93F",
"w 	c #F8DA3E",
"x 	c #C3AB2F",
"y 	c #806F1F",
"z 	c #A28D26",
"A 	c #FAD837",
"B 	c #FB6143",
"C 	c #FDAC39",
"D 	c #FEE132",
"E 	c #FDE432",
"F 	c #F8D842",
"G 	c #F8D843",
"H 	c #F8D742",
"I 	c #F8D640",
"J 	c #F8D53E",
"K 	c #8E7923",
"L 	c #373425",
"M 	c #191711",
"N 	c #060503",
"O 	c #F8D23C",
"P 	c #FC913D",
"Q 	c #FED434",
"R 	c #FCE235",
"S 	c #F8DA3F",
"T 	c #F8D743",
"U 	c #F8D744",
"V 	c #F8D644",
"W 	c #F8D544",
"X 	c #F8D243",
"Y 	c #F8D042",
"Z 	c #5E4E17",
"` 	c #201E16",
" .	c #171610",
"..	c #000000",
"+.	c #040403",
"@.	c #F8CA3A",
"#.	c #FCE236",
"$.	c #F8D645",
"%.	c #F8D546",
"&.	c #F8D346",
"*.	c #F8D245",
"=.	c #F8D043",
"-.	c #F8CF43",
";.	c #8D7426",
">.	c #100F0B",
",.	c #030302",
"'.	c #F8C23A",
").	c #FC7041",
"!.	c #FECD35",
"~.	c #FED933",
"{.	c #FC863E",
"].	c #FC7E3F",
"^.	c #FDBD37",
"/.	c #FCE436",
"(.	c #F8D643",
"_.	c #F8D547",
":.	c #F8D447",
"<.	c #F8D348",
"[.	c #F8D045",
"}.	c #F8CE45",
"|.	c #796321",
"1.	c #0C0B08",
"2.	c #090906",
"3.	c #050403",
"4.	c #FAB93C",
"5.	c #FC953C",
"6.	c #FEDB33",
"7.	c #FEDA33",
"8.	c #FDE534",
"9.	c #F8D841",
"0.	c #F8D349",
"a.	c #F8D247",
"b.	c #F8CF47",
"c.	c #F8CD47",
"d.	c #997C2B",
"e.	c #0F0E0A",
"f.	c #090806",
"g.	c #030201",
"h.	c #FAB23C",
"i.	c #FD9D3B",
"j.	c #F9DC3D",
"k.	c #F8D545",
"l.	c #F8D448",
"m.	c #F8D147",
"n.	c #F8CF48",
"o.	c #F8CB47",
"p.	c #C39C37",
"q.	c #0C0C08",
"r.	c #13110C",
"s.	c #343124",
"t.	c #14110B",
"u.	c #030202",
"v.	c #FBAB3B",
"w.	c #FEDD33",
"x.	c #FBE138",
"y.	c #F8D34A",
"z.	c #F8D248",
"A.	c #F8D148",
"B.	c #F8CE48",
"C.	c #F8CB48",
"D.	c #C39C38",
"E.	c #1D1B13",
"F.	c #0E0D0A",
"G.	c #11100C",
"H.	c #604A29",
"I.	c #FBA93B",
"J.	c #161108",
"K.	c #FBA73A",
"L.	c #FDE732",
"M.	c #F8CE49",
"N.	c #F8CA49",
"O.	c #E3B641",
"P.	c #322E21",
"Q.	c #1B1912",
"R.	c #353224",
"S.	c #FBA63A",
"T.	c #FBA53A",
"U.	c #1B1308",
"V.	c #040402",
"W.	c #FCA438",
"X.	c #FB6343",
"Y.	c #FEDC33",
"Z.	c #F8CA48",
"`.	c #F8C547",
" +	c #957329",
".+	c #252319",
"++	c #473A23",
"@+	c #FBA539",
"#+	c #FCA43A",
"$+	c #020201",
"%+	c #FBA137",
"&+	c #FC8E3D",
"*+	c #FECA35",
"=+	c #FED334",
"-+	c #F9DB3D",
";+	c #F8C948",
">+	c #F8C548",
",+	c #A37E2D",
"'+	c #232017",
")+	c #070604",
"!+	c #1F1D15",
"~+	c #FBA338",
"{+	c #FBA439",
"]+	c #FCA439",
"^+	c #FCA338",
"/+	c #201609",
"(+	c #FDA237",
"_+	c #FDA13B",
":+	c #FCD236",
"<+	c #F8D249",
"[+	c #F8D149",
"}+	c #F8CD49",
"|+	c #F8C448",
"1+	c #DAA73C",
"2+	c #33260D",
"3+	c #181610",
"4+	c #0B0A07",
"5+	c #FCA339",
"6+	c #FCA238",
"7+	c #0F0B04",
"8+	c #FDBE37",
"9+	c #FAC83A",
"0+	c #F9BF45",
"a+	c #AD7F2C",
"b+	c #0C0A08",
"c+	c #8D5F28",
"d+	c #E89432",
"e+	c #1D1409",
"f+	c #070705",
"g+	c #FCA036",
"h+	c #F9CF3D",
"i+	c #F8D246",
"j+	c #F8CE47",
"k+	c #F8C647",
"l+	c #F9C146",
"m+	c #E5AA3C",
"n+	c #1C1A12",
"o+	c #14130D",
"p+	c #FDA238",
"q+	c #34240E",
"r+	c #FB9F38",
"s+	c #F9D43F",
"t+	c #F8D445",
"u+	c #F8CC47",
"v+	c #F8C747",
"w+	c #F9BA43",
"x+	c #70501C",
"y+	c #0B0B07",
"z+	c #AC732E",
"A+	c #FDA236",
"B+	c #E79431",
"C+	c #2C1F0E",
"D+	c #FA9B39",
"E+	c #F8D741",
"F+	c #F8D542",
"G+	c #F8D145",
"H+	c #F8CF46",
"I+	c #F8CC45",
"J+	c #F8C846",
"K+	c #F9C246",
"L+	c #F9BC43",
"M+	c #C38D31",
"N+	c #1D1508",
"O+	c #15130E",
"P+	c #554021",
"Q+	c #3D3726",
"R+	c #373426",
"S+	c #16140E",
"T+	c #F8963C",
"U+	c #F8D740",
"V+	c #F8D443",
"W+	c #F7CE45",
"X+	c #F8CD45",
"Y+	c #F8C945",
"Z+	c #F9C445",
"`+	c #F9BD44",
" @	c #F9B742",
".@	c #7F5A1F",
"+@	c #F6913E",
"@@	c #F8CA44",
"#@	c #F9C545",
"$@	c #F9C044",
"%@	c #F9B943",
"&@	c #FAB33E",
"*@	c #614317",
"=@	c #010100",
"-@	c #F48C40",
";@	c #FDB838",
">@	c #F8D63F",
",@	c #F8D143",
"'@	c #F8CC43",
")@	c #F8C742",
"!@	c #F9C243",
"~@	c #F8BB41",
"{@	c #FAB640",
"]@	c #FBB13E",
"^@	c #0F0D09",
"/@	c #070603",
"(@	c #333022",
"_@	c #343123",
":@	c #363325",
"<@	c #0A0A07",
"[@	c #F28842",
"}@	c #FD9E3B",
"|@	c #F9D63D",
"1@	c #F8CF42",
"2@	c #F8CA42",
"3@	c #F9C542",
"4@	c #F9BF42",
"5@	c #FAB941",
"6@	c #FAB340",
"7@	c #B57E2B",
"8@	c #0D0C08",
"9@	c #9D6726",
"0@	c #FDA336",
"a@	c #FCA136",
"b@	c #FCA137",
"c@	c #FA9C39",
"d@	c #F9983B",
"e@	c #F7953C",
"f@	c #F18644",
"g@	c #FB6D42",
"h@	c #F9DA3A",
"i@	c #F8CE40",
"j@	c #F9C841",
"k@	c #F9C241",
"l@	c #F9BC41",
"m@	c #FAB741",
"n@	c #FAB13E",
"o@	c #31220B",
"p@	c #D88B2F",
"q@	c #FCA236",
"r@	c #FB9F37",
"s@	c #FA9D38",
"t@	c #F9993A",
"u@	c #F5903E",
"v@	c #0B0B08",
"w@	c #F08445",
"x@	c #FC803F",
"y@	c #FDBC37",
"z@	c #FDA43A",
"A@	c #FBDE37",
"B@	c #F8CC3F",
"C@	c #F9C640",
"D@	c #F9C03F",
"E@	c #FABA40",
"F@	c #FAB440",
"G@	c #FAB03D",
"H@	c #3A280D",
"I@	c #060604",
"J@	c #EF9A34",
"K@	c #FCA037",
"L@	c #FB9D38",
"M@	c #F99A3A",
"N@	c #F08346",
"O@	c #FECE35",
"P@	c #FCE334",
"Q@	c #F8CC3D",
"R@	c #F9C53E",
"S@	c #F9BF3E",
"T@	c #FAB93F",
"U@	c #FAB43E",
"V@	c #FBB03C",
"W@	c #16150F",
"X@	c #222016",
"Y@	c #FDA437",
"Z@	c #FCA237",
"`@	c #F8983B",
" #	c #F6933D",
".#	c #F48E40",
"+#	c #F28A42",
"@#	c #F9D03A",
"##	c #F9C43D",
"$#	c #F9BE3E",
"%#	c #FAB83E",
"&#	c #FAB33D",
"*#	c #FBAF3C",
"=#	c #262319",
"-#	c #232118",
";#	c #FDA537",
">#	c #FBA037",
",#	c #F7953D",
"'#	c #F58F3F",
")#	c #F38B41",
"!#	c #F18743",
"~#	c #EF8346",
"{#	c #FEE133",
"]#	c #FDB438",
"^#	c #FBDC36",
"/#	c #F9C53B",
"(#	c #F9BE3C",
"_#	c #FAB73D",
":#	c #FAB33C",
"<#	c #FAAF3A",
"[#	c #3B3728",
"}#	c #29261B",
"|#	c #FCA537",
"1#	c #F6923E",
"2#	c #F48D40",
"3#	c #F28942",
"4#	c #F18544",
"5#	c #EF8446",
"6#	c #FC813F",
"7#	c #F9C839",
"8#	c #F9BE3B",
"9#	c #FAB83D",
"0#	c #FAB33B",
"a#	c #FAAF3B",
"b#	c #050402",
"c#	c #3E3017",
"d#	c #FCA637",
"e#	c #F99B3A",
"f#	c #F7963C",
"g#	c #F5913F",
"h#	c #F38B42",
"i#	c #F08545",
"j#	c #EF8546",
"k#	c #FB4C46",
"l#	c #FECC35",
"m#	c #FCDA35",
"n#	c #F9BF3A",
"o#	c #FAB83B",
"p#	c #FAB43B",
"q#	c #FBB13B",
"r#	c #29271C",
"s#	c #060603",
"t#	c #523711",
"u#	c #FCA737",
"v#	c #FAA236",
"w#	c #F99F37",
"x#	c #F89A3A",
"y#	c #F6933C",
"z#	c #F38F3F",
"A#	c #F18941",
"B#	c #EF8646",
"C#	c #FB5C44",
"D#	c #FACA36",
"E#	c #FABB3A",
"F#	c #FAB53A",
"G#	c #FBB03A",
"H#	c #FBAF39",
"I#	c #FCAD39",
"J#	c #FBAB38",
"K#	c #FCA937",
"L#	c #F7A237",
"M#	c #F69D38",
"N#	c #F6993A",
"O#	c #F4923D",
"P#	c #F28C40",
"Q#	c #F18943",
"R#	c #F18745",
"S#	c #F08546",
"T#	c #F08646",
"U#	c #EF8746",
"V#	c #EF8846",
"              . . . + @ # $ %               & & &     . .   * = ",
"                    - ; > & , '     &       & & >   ) - ! ~ { ] ",
"                    ^ / # > ( _ : < & & & & & & $ [ } | 1 2 3 < ",
".         4           5 $ & 6 7 8 & & & 9 0 a b b c c d e f g $ ",
"h i [ $ j k l m       n & > o 3 & p q r s r t r u v v w x y z A ",
"B C > & & > # $ &     D & > , E q s F G F H H H H I J K L M N O ",
"P D & & & & & & & & Q < & > R S G G T T U U V W X Y Z `  ...+.@.",
"P , $ 8 n > & & $ > $ > $ #.r G G V V $.%.&.*.=.-.;.>.>.....,.'.",
").!.~.{.].^.8 $ > % > $ /.G G (.V $._.:.<.*.[.}.|.1.2...3...+.4.",
"        + 5.6.8 ~.7.> 8.9.G U $.%.:.<.0.a.b.c.d.e.f...>.2.g.,.h.",
"          i.7.D j % & j.G T k.%.l.0.a.m.n.o.p.q.3...r.s.t.u.,.v.",
"          6 w., D $ x.F T W %.l.y.z.A.B.C.D.E.F...G.H.I.J.u.,.K.",
". .       7.w.% , L.S T V %.l.y.0.A.M.N.O.P.Q...>.R.S.T.U.V.,.W.",
"  h   X.7 Y.< > 8 x.G V %.l.y.0.A.M.Z.`. +.+..f.++S.@+#+U.$+,.%+",
"  i &+C *+=+j > 8 -+T W %.0.a.A.M.;+>+,+'+)+..!+~+{+]+^+/+V.,.(+",
"  _+~.< $ 8 j [ :+F U %.l.<+[+}+N.|+1+2+3+..4+S.]+5+^+6+7+,.,.(+",
"  8+% $ $ > < 8 9+T V _.z.m.B.Z.>+0+a+b+..,.c+6+^+6+(+d+e+f+,.g+",
"    < $ & $ % > h+T k.i+m.j+C.k+l+m+n+o+..e.W.^+p+(+(+d+q+f+,.r+",
"      & & # < $ s+V t+m.b.u+v+l+w+x+e...y+z+6+p+(+(+A+B+C+f+,.D+",
"          w.8 $ E+F+G+H+I+J+K+L+M+N+N ..O+P+Q+R+R+R+R+R+S+)+,.T+",
"            6.$ U+V+W+X+Y+Z+`+ @.@V.....,.,.,.,.,.,.,.,.$+..,.+@",
"          j D # I V+}.@@#@$@%@&@*@,...=@=@=@=@=@=@$+$+$+....,.-@",
"        ;@< $ & >@,@'@)@!@~@{@]@^@/@..` (@_@_@R.:@:@R+R+..<@,.[@",
".     4 }@j $ $ |@1@2@3@4@5@6@7@8@..g.9@(+0@a@b@r+c@d@e@..<@,.f@",
"*   4 g@^.< # # h@i@j@k@l@m@n@o@2...u.p@(+q@a@r@s@t@e@u@..v@,.w@",
"x@y@z@*+> & > D A@B@C@D@E@F@G@H@I@..f.J@(+a@K@L@M@T++@-@..v@,.N@",
"O@> > $ & & $ > P@Q@R@S@T@U@V@W@+...X@Y@Z@b@r@c@`@ #.#+#..v@,.N@",
"*+> & & & > > > > @###$#%#&#*#=#+...-#;#q@>#s@M@,#'#)#!#..v@+.~#",
"  , & & {#]#5 [ % ^#/#(#_#:#<#[#=@+.}#|#q@>#c@`@1#2#3#4#..v@,.5#",
"    &   6#~ ).k , L.7#8#9#0#a#(@..b#c#d#Z@r+e#f#g#h#!#i#..v@+.j#",
"            k#).l#> m#n#o#p#q#r#..s#t#u#v#w#x#y#z#A#f@i#..v@+.B#",
"              C#: # $ D#E#F#q#G#H#I#J#K#L#M#N#O#P#Q#R#S#T#B#U#V#"};
