/* XPM */
static char * FRAME_ICON16x16_xpm[] = {
"16 16 192 2",
"  	c None",
". 	c #FBCE38",
"+ 	c #FADA37",
"@ 	c #FAC839",
"# 	c #FAD337",
"$ 	c #FBD434",
"% 	c #FCD834",
"& 	c #FED135",
"* 	c #FEC736",
"= 	c #F96B43",
"- 	c #F8B341",
"; 	c #F7D43F",
"> 	c #F7D63F",
", 	c #F8D83F",
"' 	c #F7D53D",
") 	c #E5C73A",
"! 	c #A7902D",
"~ 	c #C19D2D",
"{ 	c #FDBC37",
"] 	c #FDBF37",
"^ 	c #FECB34",
"/ 	c #F88F42",
"( 	c #F6C141",
"_ 	c #F8D643",
": 	c #F8D543",
"< 	c #F8D243",
"[ 	c #ECC63F",
"} 	c #7A6826",
"| 	c #11100B",
"1 	c #76601B",
"2 	c #FB5C44",
"3 	c #FCD736",
"4 	c #F9D33E",
"5 	c #F8D445",
"6 	c #F8D347",
"7 	c #F8D046",
"8 	c #F5CA44",
"9 	c #7D6826",
"0 	c #0F0E0A",
"a 	c #070604",
"b 	c #70531B",
"c 	c #FEE632",
"d 	c #FEE432",
"e 	c #FB5B45",
"f 	c #F8CE3D",
"g 	c #F7D642",
"h 	c #F8D247",
"i 	c #F8D047",
"j 	c #F8CB46",
"k 	c #886F2A",
"l 	c #41321A",
"m 	c #231E13",
"n 	c #724E1B",
"o 	c #FEE133",
"p 	c #FEDE33",
"q 	c #FD9C3B",
"r 	c #F79042",
"s 	c #F7D441",
"t 	c #F8CF47",
"u 	c #F8CA47",
"v 	c #967B32",
"w 	c #16140D",
"x 	c #583F1B",
"y 	c #C18434",
"z 	c #4B3618",
"A 	c #724B1A",
"B 	c #FEE132",
"C 	c #F96F41",
"D 	c #F7B841",
"E 	c #F8D444",
"F 	c #F8C847",
"G 	c #D8AA40",
"H 	c #2F2815",
"I 	c #4D3616",
"J 	c #CD8933",
"K 	c #ED9B37",
"L 	c #533A19",
"M 	c #734A19",
"N 	c #FECA35",
"O 	c #FECE35",
"P 	c #FAC238",
"Q 	c #F8D041",
"R 	c #F8D345",
"S 	c #F5BE44",
"T 	c #876728",
"U 	c #13120C",
"V 	c #A7712B",
"W 	c #FBA237",
"X 	c #EB9936",
"Y 	c #523919",
"Z 	c #734919",
"` 	c #FFE932",
" .	c #FBD439",
"..	c #F7D242",
"+.	c #F8C144",
"@.	c #C0923A",
"#.	c #191710",
"$.	c #4D391B",
"%.	c #DF9234",
"&.	c #E99735",
"*.	c #DB8F33",
"=.	c #4F3718",
"-.	c #72481A",
";.	c #FAD938",
">.	c #F6D141",
",.	c #F7CC45",
"'.	c #F8C444",
").	c #F6B741",
"!.	c #816128",
"~.	c #080705",
"{.	c #1C1B13",
"].	c #403019",
"^.	c #3F2F18",
"/.	c #16120B",
"(.	c #70431B",
"_.	c #FAC53B",
":.	c #F6CE42",
"<.	c #F8C643",
"[.	c #F8BC41",
"}.	c #E5A53C",
"|.	c #3F3016",
"1.	c #0B0B07",
"2.	c #18140C",
"3.	c #18150C",
"4.	c #19150D",
"5.	c #17140C",
"6.	c #020201",
"7.	c #6D3E1C",
"8.	c #F7B13F",
"9.	c #F7CB3E",
"0.	c #F8C141",
"a.	c #F9B63F",
"b.	c #B88533",
"c.	c #885C23",
"d.	c #CE8831",
"e.	c #CF8732",
"f.	c #CE8334",
"g.	c #A4672C",
"h.	c #191108",
"i.	c #6D3D20",
"j.	c #FEDC33",
"k.	c #FB6143",
"l.	c #F8C73C",
"m.	c #F9BE3F",
"n.	c #F9B33E",
"o.	c #8E672A",
"p.	c #0F0D09",
"q.	c #C7832E",
"r.	c #FCA136",
"s.	c #FA9D36",
"t.	c #F7963A",
"u.	c #CC7733",
"v.	c #191008",
"w.	c #6D3C20",
"x.	c #FECD35",
"y.	c #FED434",
"z.	c #FDBA37",
"A.	c #F9C739",
"B.	c #F9BB3D",
"C.	c #F1AD3B",
"D.	c #574422",
"E.	c #12100B",
"F.	c #CC8831",
"G.	c #FBA036",
"H.	c #F89938",
"I.	c #F5903C",
"J.	c #CA7235",
"K.	c #FEC936",
"L.	c #FEE031",
"M.	c #FACB36",
"N.	c #F8BB39",
"O.	c #F0AC39",
"P.	c #4A3A1C",
"Q.	c #241C0F",
"R.	c #D99134",
"S.	c #FA9F36",
"T.	c #F28C3F",
"U.	c #C97037",
"V.	c #6D3D21",
"W.	c #FDB638",
"X.	c #FCCE34",
"Y.	c #FAC236",
"Z.	c #F4AF38",
"`.	c #9B6B28",
" +	c #9C6724",
".+	c #FAA235",
"++	c #F69A36",
"@+	c #F48F3A",
"#+	c #F18540",
"$+	c #DD773D",
"%+	c #814525",
"&+	c #B05B33",
"                    . + @ # $ % ",
"    & & *     = - ; > , ' ) ! ~ ",
"      { ] ^ / ( _ _ : < [ } | 1 ",
"        2 3 4 : 5 6 7 8 9 0 a b ",
"c d     e f g 5 h i j k 0 l m n ",
"o p q   r s 5 h t u v w x y z A ",
"  B p C D E h t F G H I J K L M ",
"  N O P Q R t u S T U V W X Y Z ",
"    `  ...7 j +.@.#.$.%.&.*.=.-.",
"    * ;.>.,.'.).!.~.{.].].^./.(.",
"      _.:.<.[.}.|.1.2.3.4.5.6.7.",
"      8.9.0.a.b.| c.d.e.f.g.h.i.",
"  j.k.  l.m.n.o.p.q.r.s.t.u.v.w.",
"  x.y.z.A.B.C.D.E.F.G.H.I.J.v.w.",
"    K.L.M.N.O.P.Q.R.S.t.T.U.v.V.",
"      W.X.Y.Z.`. +.+++@+#+$+%+&+"};
