/* XPM */
static char * FRAME_ICON16x16_xpm[] = {
"16 16 223 2",
"  	c None",
". 	c #F6A840",
"+ 	c #F59C44",
"@ 	c #FAC731",
"# 	c #FEF710",
"$ 	c #FCDD27",
"% 	c #FDF008",
"& 	c #FBE21C",
"* 	c #F7B23D",
"= 	c #F8B93C",
"- 	c #F8C928",
"; 	c #F7AE3A",
"> 	c #E7AD1C",
", 	c #D69E1B",
"' 	c #FBEA09",
") 	c #FDE221",
"! 	c #FEEE1D",
"~ 	c #FCDD24",
"{ 	c #FDE914",
"] 	c #FBE415",
"^ 	c #FADC18",
"/ 	c #F9D220",
"( 	c #F8CA24",
"_ 	c #D1A518",
": 	c #664D09",
"< 	c #BC911B",
"[ 	c #F5AA37",
"} 	c #F49A48",
"| 	c #F59F46",
"1 	c #F5A644",
"2 	c #F7BB3E",
"3 	c #FFF90B",
"4 	c #FDEC19",
"5 	c #FCE815",
"6 	c #FBE318",
"7 	c #F9DB1B",
"8 	c #F8D41D",
"9 	c #F7CD1E",
"0 	c #C8A116",
"a 	c #533F04",
"b 	c #654E03",
"c 	c #B88516",
"d 	c #F8D115",
"e 	c #FAD921",
"f 	c #FCE719",
"g 	c #FEF511",
"h 	c #FAD233",
"i 	c #FEF013",
"j 	c #FCEA14",
"k 	c #FBE219",
"l 	c #F9DA1C",
"m 	c #F8D31E",
"n 	c #F7CC1F",
"o 	c #C8A117",
"p 	c #533E04",
"q 	c #CCA906",
"r 	c #927504",
"s 	c #B77D15",
"t 	c #F9DC0D",
"u 	c #FCE90C",
"v 	c #FCE31F",
"w 	c #FFF711",
"x 	c #FEF112",
"y 	c #FDEA14",
"z 	c #FBE21A",
"A 	c #F9DA1D",
"B 	c #F7CC20",
"C 	c #D7AD1A",
"D 	c #CBA106",
"E 	c #F5C309",
"F 	c #916F05",
"G 	c #B67716",
"H 	c #FCDB27",
"I 	c #FDEB1A",
"J 	c #FBE218",
"K 	c #F8D31F",
"L 	c #EEBF1F",
"M 	c #695008",
"N 	c #C09307",
"O 	c #F3BB0A",
"P 	c #F5BA0E",
"Q 	c #906905",
"R 	c #B57117",
"S 	c #F4874A",
"T 	c #FBDC28",
"U 	c #FCE718",
"V 	c #FBE316",
"W 	c #F6C421",
"X 	c #A58011",
"Y 	c #916B06",
"Z 	c #F2B30B",
"` 	c #F4B310",
" .	c #F8B314",
"..	c #906407",
"+.	c #B56C17",
"@.	c #FAD230",
"#.	c #F7B53D",
"$.	c #FAD02C",
"%.	c #FADA1A",
"&.	c #DEAB1D",
"*.	c #583E04",
"=.	c #E2A20C",
"-.	c #F2AC10",
";.	c #F8AD16",
">.	c #F7AA16",
",.	c #8F5E08",
"'.	c #B46819",
").	c #FEF10A",
"!.	c #FCE21E",
"~.	c #FBE217",
"{.	c #FADC16",
"].	c #F8D31C",
"^.	c #F5BD22",
"/.	c #9F7511",
"(.	c #AC7608",
"_.	c #EEA30F",
":.	c #F6A516",
"<.	c #F7A418",
"[.	c #F5A118",
"}.	c #8E5809",
"|.	c #B3631A",
"1.	c #FBE30C",
"2.	c #FADC13",
"3.	c #F9D617",
"4.	c #F7CC1D",
"5.	c #F6C520",
"6.	c #F5BD21",
"7.	c #E8AB1F",
"8.	c #503604",
"9.	c #4D3103",
"0.	c #4D2F04",
"a.	c #502F05",
"b.	c #4F2D05",
"c.	c #4E2A05",
"d.	c #4B2505",
"e.	c #B25E1B",
"f.	c #F8D311",
"g.	c #F8CE18",
"h.	c #F6C51F",
"i.	c #F4B522",
"j.	c #BF8717",
"k.	c #744A05",
"l.	c #B6730C",
"m.	c #B9730E",
"n.	c #BF7310",
"o.	c #C57412",
"p.	c #CD7714",
"q.	c #7E440A",
"r.	c #B1581D",
"s.	c #F8B835",
"t.	c #F8C12F",
"u.	c #F7C91A",
"v.	c #F5BE1F",
"w.	c #F4B521",
"x.	c #F3AD22",
"y.	c #8B5D0E",
"z.	c #B06E0C",
"A.	c #E99016",
"B.	c #EE901B",
"C.	c #EE8C1C",
"D.	c #ED891D",
"E.	c #EC841F",
"F.	c #89480D",
"G.	c #B0531E",
"H.	c #F69F43",
"I.	c #F8B23A",
"J.	c #F7C61D",
"K.	c #F6C21B",
"L.	c #F4B81F",
"M.	c #F3AE22",
"N.	c #F1A622",
"O.	c #513204",
"P.	c #C97911",
"Q.	c #EB8C1A",
"R.	c #F38E1F",
"S.	c #F28A20",
"T.	c #F18522",
"U.	c #EF7F23",
"V.	c #89420F",
"W.	c #AF4E20",
"X.	c #F8CA1F",
"Y.	c #F7C71F",
"Z.	c #F5BB1C",
"`.	c #F3B31F",
" +	c #F2A822",
".+	c #DB921F",
"++	c #4F2F05",
"@+	c #D37B16",
"#+	c #EB871E",
"$+	c #F18822",
"%+	c #F08223",
"&+	c #EF7D25",
"*+	c #ED7727",
"=+	c #873D10",
"-+	c #AE4A21",
";+	c #F6C414",
">+	c #F6C020",
",+	c #F6B031",
"'+	c #F5AE2D",
")+	c #F2AE1F",
"!+	c #F1A422",
"~+	c #D68A1F",
"{+	c #E07E1A",
"]+	c #E98120",
"^+	c #F08224",
"/+	c #EE7C26",
"(+	c #ED7628",
"_+	c #EB702A",
":+	c #863812",
"<+	c #AD4622",
"[+	c #F69745",
"}+	c #F3A92C",
"|+	c #F3AC27",
"1+	c #D28820",
"2+	c #A36518",
"3+	c #E78121",
"4+	c #EA7F24",
"5+	c #ED7C27",
"6+	c #EB7529",
"7+	c #EA6E2B",
"8+	c #E8682D",
"9+	c #B14821",
"0+	c #BB4B27",
"      . + @ # $ % & * = - ; > , ",
"        ' ) ! ~ { ] ^ / ( _ : < ",
"[ } | 1 2 3 4 5 6 7 8 9 0 a b c ",
"d e f g h i j k l m n o p q r s ",
"t u v w x y z A m B C p D E F G ",
"    H I j J l K B L M N O P Q R ",
"S   T U V l m B W X Y Z `  ...+.",
"@.| #.$.%.m B W &.*.=.-.;.>.,.'.",
").!.~.{.].n W ^./.(._.:.<.[.}.|.",
"  1.2.3.4.5.6.7.8.9.0.a.b.c.d.e.",
"    f.g.h.6.i.j.k.l.m.n.o.p.q.r.",
"  s.t.u.v.w.x.y.z.A.B.C.D.E.F.G.",
"H.I.J.K.L.M.N.O.P.Q.R.S.T.U.V.W.",
"X.Y.K.Z.`. +.+++@+#+$+%+&+*+=+-+",
";+>+,+'+)+!+~+b.{+]+^+/+(+_+:+<+",
"      [+}+|+1+2+3+4+5+6+7+8+9+0+"};
