/* XPM */
static char * CAMERA_xpm[] = {
"20 20 4 1",
" 	c None",
".	c #000000",
"+	c #C9BFBF",
"@	c #989696",
"                    ",
"                    ",
"        ........    ",
"        .      .    ",
"        .      .    ",
"....................",
".                  .",
". ....    +@+      .",
". .  .   @...@     .",
". ....  @.@ @.@    .",
".      +.@   @.+   .",
".      @.     .@   .",
".      @.     .@   .",
".      +.@   @.+   .",
".       @.@ @.@    .",
".        @...@     .",
".         +@+      .",
".                  .",
"....................",
"                    "};
