/* XPM */
static char *CHECK_OFF_xpm[] = {
/* columns rows colors chars-per-pixel */
"15 15 14 1",
". c #D3D3D3",
"  c #F8F8F8",
"+ c #1A1A1A",
"X c #D1D1D1",
"% c #404040",
"$ c #AAAAAA",
"@ c #191919",
"# c #2C2C2C",
"O c #FFFFFF",
"= c #F4F4F4",
"* c #3B3B3B",
"o c #DFDFDF",
"- c #F2F2F2",
"& c #3A3A3A",
/* pixels */
" .XXXXXXXXXXXoO",
".+@+++++++++@#o",
"X@$XXXXXXXXX$@X",
"X+XOOOOOOOOOX+X",
"X+XOOOOOOOOOX+X",
"X+XOOOOOOOOOX+X",
"X+XOOOOOOOOOX+X",
"X+XOOOOOOOOOX+X",
"X+XOOOOOOOOOX+X",
"X+XOOOOOOOOOX+X",
"X+XOOOOOOOOOX+X",
"X+XOOOOOOOOOX+X",
"X@$XXXXXXXXX$@X",
"o%&*********&%o",
"O=-----------=O"
};
