/* XPM */
static char * CHECK_ON_xpm[] = {
"15 15 4 1",
" 	c None",
".	c #FFFFFF",
"+	c #000000",
"@	c #3C3C3C",
"...............",
".+++++++++++++.",
".+...........+.",
".+...........+.",
".+..+@...@+..+.",
".+..@+@.@+@..+.",
".+...@+++@...+.",
".+....+++....+.",
".+...@+++@...+.",
".+..@+@.@+@..+.",
".+..+@...@+..+.",
".+...........+.",
".+...........+.",
".+++++++++++++.",
"..............."};
