/* XPM */
static char * CLOSE_SASH_xpm[] = {
"13 13 7 1",
" 	c None",
".	c #000000",
"+	c #020101",
"@	c #E7E7E7",
"#	c #A5A5A5",
"$	c #DEDEDE",
"%	c #FFFFFF",
"             ",
" .......+..+ ",
" .+......... ",
" ..@#...#@.. ",
" ..#$#.#$#.. ",
" ...#$$$#... ",
" ....$%$.... ",
" ...#$$$#... ",
" +.#$#.#$#.. ",
" ..@#...#@.. ",
" ........... ",
" ...+...+... ",
"             "};
