/* XPM */
static char * DISABLED_xpm[] = {
"15 15 3 1",
" 	c None",
".	c #FFFFFF",
"+	c #808080",
"...............",
"...............",
"...............",
"...............",
"...............",
"...............",
"...............",
"...............",
"...............",
"+.+.+.+.+.+.+..",
"...............",
"...............",
"...............",
"...............",
"..............."};
