/* XPM */
static char * FILE_OPEN_xpm[] = {
"20 20 4 1",
" 	c None",
".	c #555555",
"+	c #000000",
"@	c #FFFFFF",
"                    ",
"      .             ",
"     .+.            ",
"    .+++.           ",
"   .+++++.          ",
"     +++            ",
"   +@+++@+++++++    ",
"   +@+++@@@@@@@+    ",
"   +@+++@@@@@@@+    ",
"   +@@@@@@@@@@@+    ",
"    @@++++++@@@+    ",
" ++++++++++++@@+    ",
"  +++++++++++@@+    ",
"  +++++++++++.@+    ",
"   +++++++++++@+    ",
"   +++++++++++.+    ",
"   +++++++++++++    ",
"    ++++++++++++    ",
"                    ",
"                    "};
