/* XPM */
static char *FILE_NEW_xpm[] = {
/* columns rows colors chars-per-pixel */
"20 20 69 1",
"M c #DEE7EF",
"Z c #5A7384",
"$ c #E7E7E7",
"& c #ADADAD",
"b c #6394A5",
"h c #BDCED6",
"F c #52636B",
"* c #EFEFEF",
"o c #B5B5B5",
"l c #6B9CAD",
"G c #6B7B84",
"5 c #7BA5B5",
"x c #949C9C",
"+ c #848484",
"g c #84C6DE",
"D c #5A6B73",
"t c #84BDD6",
"y c #94DEFF",
"H c #ADBDBD",
", c #94BDD6",
"J c #BDC6C6",
"% c #F7F7F7",
"O c #BDBDBD",
"4 c #ADBDC6",
"w c #BDC6CE",
"X c #C6C6C6",
"C c #52737B",
"@ c #8C8C8C",
"< c #9CCEDE",
"7 c #8CCEE7",
"2 c #9CADB5",
"s c #527384",
"- c #EFFFFF",
"8 c #8CCEEF",
"K c #A5ADAD",
"  c None",
"n c #6B94A5",
"6 c #7BB5CE",
"m c #7B94A5",
"d c #6B94AD",
". c #CECECE",
"L c #949494",
"c c #4A636B",
"9 c #94D6EF",
"V c #4A5A63",
"j c #4A6373",
"i c #5A7B8C",
"p c #94D6F7",
"r c #73A5B5",
"a c #73848C",
"k c #638494",
"B c #737B84",
"A c #637B8C",
"1 c #ADD6EF",
"z c #9CA5A5",
"; c #D6D6D6",
": c #C6D6DE",
"3 c #9C9C9C",
"u c #8C9CA5",
"> c #9CBDCE",
"0 c #8CBDD6",
"v c #526B7B",
"S c #7B8C8C",
"N c #B5BDBD",
"# c #A5A5A5",
"e c #6B8C9C",
"f c #7BADC6",
"q c #CEE7EF",
"= c #DEDEDE",
/* pixels */
" .XooOOOOOOO.       ",
" .o+@@@@@@@+#.      ",
" .o$%%%%%%%O&#.     ",
" .o$%%%%%%%.*&&.    ",
" .o$%%%%%%%.%$&&.   ",
" .o$%%%%%%%.%%=#&.  ",
" .o$%%%%%%%X%%%=#o. ",
" .o$%%%%--%X%%%%;#X ",
" .o$%%:>,<12....X3O ",
" .o$-4567890q%%%%oO ",
" .o.wert9yy8<-%%%oO ",
" .oOuirt8yp80q%%%oO ",
" .o#asdfg77gfh%%%oO ",
" .o3ajklf66f5h%%%oO ",
" .ozxcvkbllnmM%%%oO ",
" .o#NBVjCZZA4%%%%oO ",
" .o#.oSDFFGH*%%%%oO ",
" .oz..JoKKJ*%%%%%oO ",
" .o@ooooooO=$$$$$oO ",
" .oLLLLLLLLLLLLLLLO "
};
