/* XPM */
static char *FILE_NEW_xpm[] = {
/* columns rows colors chars-per-pixel */
"20 20 178 2",
"a  c #CACACA",
"H  c #89C8E5",
"R  c #6A8B9A",
"e  c #E8E8E8",
"r. c #6D9BB1",
"N. c #6C7C82",
"|  c #8ECCEC",
"t. c #6891A4",
";. c #76848A",
"1. c #7FB7D1",
":. c #4C6470",
"*  c #878787",
"(. c #969696",
"d  c #A5A5A5",
"Q  c #91D3F1",
".  c #D2D2D2",
"9  c #F0F0F0",
"   c None",
"#. c #87C2DD",
"]  c #82BBD6",
"p. c #B7BBBD",
"L. c #B2B4B2",
"Y. c #B2B4B4",
";  c #8F8F8F",
"4. c #BFCFD7",
"!  c #94DAFE",
"5  c #ADADAD",
"@  c #BCBCBC",
"q  c #CBCBCB",
"M. c #54666E",
"3  c #F8F8F8",
".. c #CCE1EA",
"3. c #78A1B4",
"5. c #BABCBA",
"M  c #9FAEB5",
"W. c #E7E9E7",
"2. c #7BAEC5",
"f  c #B5B5B5",
"X  c #C4C4C4",
"q. c #5F8191",
"$. c #8DCDEB",
"t  c #E2E2E2",
"K  c #92D1EE",
"n  c #99C9DF",
"J. c #BDC3C3",
"g. c #5A7786",
"_  c #8E9FA6",
"U. c #B3B5B3",
":  c #909090",
"z. c #AEAEAC",
"C  c #9F9F9F",
"b. c #7F8A8F",
"!. c #E0E2E0",
"0  c #AEAEAE",
"8  c #EFF1EF",
"L  c #8DC1D9",
"*. c #BDBDBD",
"<  c #CCCCCC",
"V. c #EFF1F3",
"h. c #587784",
"r  c #EAEAEA",
"+. c #6A96AA",
"i  c #ACAEAC",
"F  c #79A2B5",
"Q. c #E8EAE8",
"^  c #8ECEEC",
"2  c #E3E3E3",
"O. c #567482",
"e. c #6D9AAF",
"%. c #81B0C9",
"o. c #76868E",
"W  c #84BDDA",
"G  c #7FB6CF",
"C. c #B4B6B4",
"_. c #A0A0A0",
"Z  c #AFAFAF",
"I  c #BEBEBE",
"N  c #CDCDCD",
"s  c #DCDCDC",
"v  c #9ABECE",
"f. c #54717E",
"-. c #999C9D",
"D. c #C1C5C5",
"6  c #A8A8A8",
"j  c #F1FFFE",
"T  c #BAC7CC",
"`. c #C6C6C6",
">. c #618393",
"m. c #4F6169",
"D  c #A9BEC7",
"F. c #B0B6B6",
")  c #BABEBE",
">  c #838383",
"j. c #667E8A",
",  c #A1A1A1",
"9. c #4D6169",
"#  c #BFBFBF",
"$  c #CECECE",
"n. c #5C6A70",
"0. c #506B78",
"S  c #EDFFFD",
"T. c #BDBFBD",
"K. c #EFF3F1",
"c. c #CCCECC",
"A  c #DBDDDB",
"<. c #79ADC5",
"G. c #A2ABAC",
"k  c #D6D6D6",
"H. c #A7AFB1",
",. c #6F9CB1",
"h  c #EBFFFD",
"v. c #B1B7B7",
"7. c #9DA1A1",
"). c #989A98",
"y  c #A7A9A7",
"}  c #93DAFB",
"P  c #D2E5EE",
"l  c #A2A2A2",
"k. c #AFBDC3",
"u  c #B1B1B1",
"[  c #8ED0EE",
"U  c #C0C0C0",
"%  c #CFCFCF",
"'  c #72A0B6",
"d. c #4C6570",
"Z. c #A0A2A0",
"P. c #8C8C8C",
"&  c #9B9B9B",
"=. c #AAAAAA",
"o  c #B9B9B9",
"m  c #AED6E8",
"S. c #CBCFCD",
"{  c #94DBFC",
"l. c #B7B9B7",
"/. c #949494",
"a. c #747F84",
"(  c #B2B2B0",
"6. c #C1C1C1",
"g  c #D0D0D0",
"x  c #DFDFDF",
"`  c #5C7B8A",
"E  c #73A1B9",
"b  c #91BFD5",
"x. c #A1A3A1",
"u. c #DDE5E9",
"4  c #BFC1BF",
"=  c #8D8D8D",
"c  c #C2D4DE",
"B  c #CED0CE",
"@. c #7BAFC7",
"1  c #ABABAB",
"O  c #BABABA",
" . c #8ABED6",
"8. c #909A9E",
"V  c #C9C9C9",
"B. c #AEB8BC",
"p  c #E7E7E7",
"&. c #BBD0D9",
"~. c #A9ABA9",
"~  c #95DCFD",
"w. c #6790A5",
"E. c #E5E7E5",
"J  c #90D2F0",
"z  c #C2C2C2",
"^. c #D1D1D1",
"s. c #4B5D65",
"X. c #A2A7A8",
"i. c #A2A4A2",
"/  c #9CC8DC",
"y. c #7B97A5",
"I. c #B1B3B1",
"-  c #8E8E8E",
"A. c #CFD1CF",
"R. c #DEE0DE",
"Y  c #CFD1D1",
"7  c #ACACAC",
"+  c #BBBBBB",
"w  c #EDEFED",
/* pixels */
"  . X o o O + + @ @ + # $               ",
"  % & * = - ; : : ; ; > , <             ",
"  % 1 2 3 3 3 3 3 3 3 4 5 6 <           ",
"  % 7 8 3 3 3 3 3 3 3 $ 9 0 7 q         ",
"  $ 1 w 3 3 3 3 3 3 3 $ 3 e 1 0 <       ",
"  $ 7 r 3 3 3 3 3 3 3 < 3 3 t y u $     ",
"  $ i p 3 3 3 3 3 3 3 a 3 3 3 s d f g   ",
"  % 5 2 3 3 3 3 h j 3 a 3 3 3 3 k l z   ",
"  % 0 x 3 3 c v b n m M N N N B V C +   ",
"  % Z A S D F G H J K L P 3 3 3 3 I U   ",
"  g u Y T R E W Q ! ~ ^ / h 3 3 3 4 U   ",
"  g ( ) _ ` ' ] [ { } |  ...3 3 3 I U   ",
"  g 0 X.o.O.+.@.#.$.$.#.%.&.3 3 3 *.U   ",
"  g =.-.;.:.>.,.<.G 1.2.3.4.3 3 3 5.6.  ",
"  g =.7.8.9.0.q.w.e.r.t.y.u.3 3 3 o z   ",
"  g 1 i.p.a.s.d.f.g.h.j.k.3 3 3 3 l.z   ",
"  g z.x.c.v.b.n.m.M.N.B.V.3 3 3 3 C.z   ",
"  g 0 Z.A.S.D.F.G.H.J.K.3 3 3 3 3 L.6.  ",
"  g 5 P.I.L.U.U.Y.C.T.R.2 E.W.Q.!.~.6.  ",
"  ^.I /.(.(.(.(.(.(.).C _., _._.C l `.  "
};
