/* XPM */
static char *FILE_SAVE_xpm[] = {
/* columns rows colors chars-per-pixel */
"20 20 111 2",
"+  c #C1C1C1",
"l  c #B4E3F6",
"F  c #84B9D4",
"S  c #507580",
".. c #67879B",
"7  c #74B3D4",
"h  c #5A7688",
"X  c #909090",
";. c #A7B4C3",
"&. c #393939",
"`  c #696F6E",
"e  c #192D39",
"@. c #496671",
"-  c #597581",
"8  c #76B3CC",
"{  c #697279",
"i  c #E9FFFD",
"<  c #999999",
"[  c #496679",
"U  c #59636F",
">. c #86A7BC",
")  c #76A1BC",
"b  c #669BBC",
"3  c #7CC7E6",
"<. c #E2E1D8",
"d  c #8CB8D4",
"I  c #7CB2D4",
"1  c #B8C2C1",
">  c #78838A",
"O. c #414141",
"k  c #E2D8D9",
",. c #C8C8C8",
"j  c #414A4F",
"G  c #95C1DD",
"u  c #F8F8F8",
"0  c #6EA3BC",
"m  c #ABD8ED",
"'  c #6E8EA2",
"o  c #A1A1A1",
",  c #879190",
"-. c #DBCFD0",
"o. c #97C1CB",
"A  c #ABCFE5",
"5  c #84C6DE",
"R  c #7EA9C4",
"=  c #5A8090",
"N  c #EAE9DE",
"W  c #6DA2B3",
"w  c #507688",
"&  c #5D90AB",
"(  c #494F4E",
"L  c #506D80",
"#  c #9DC9DD",
"%  c #66A5BC",
":  c #697C81",
"*  c #598899",
"^  c #4F4E49",
"c  c #495259",
"r  c #90919A",
"Y  c #596D79",
"D  c #C6DEE4",
"q  c #5988A1",
"y  c #C3E9FF",
"*. c #D9D9D9",
"|  c #76ABCC",
"+. c #484848",
"E  c #AFC6D3",
"H  c #A2D9EE",
"C  c #6598B3",
".  c #A8A8A8",
"9  c #6EADC4",
"$. c #818181",
"K  c #D1F9FF",
"x  c #618799",
"z  c #CEE6EC",
"]  c #678F9B",
"X. c #717279",
"Z  c #5A6368",
"2  c #E1E1E1",
":. c #97B6C3",
"~  c #505050",
"p  c #E1F3FF",
"4  c #94CAE6",
"v  c #D7E3EB",
"_  c #496E79",
"O  c #B0B0B0",
"$  c #6DACCD",
"!  c #595959",
"V  c #EADEDF",
"   c #ECEADC",
"g  c #76A9C4",
"s  c #B6D6E4",
"#. c #B9B9B9",
"/  c #4F494A",
"J  c #BCEAF6",
"6  c #7CBAD4",
"f  c #7CB1CC",
"}  c #96B8D4",
"t  c #7CBDDE",
";  c #627480",
"a  c #CCE7F6",
"B  c #CFDCE3",
"T  c #6590AB",
"%. c #616161",
"n  c #515B61",
"=. c #E8E8E8",
"P  c #616A6F",
"@  c #D1D0C7",
" . c #515259",
"M  c #5A7F88",
"Q  c #84B9CC",
/* pixels */
"                                        ",
"      . X o O + @                       ",
"    # $ % & * = - - ; : > , < . 1 2     ",
"    3 4 4 5 6 7 7 8 8 9 0 & q w e r 2   ",
"    t y u u u i p a s # d f g f h j k   ",
"    t l u u u u u u u u u u z % x c 2   ",
"    t l u u u u u u u u u u v b = n 2   ",
"    t m u u u u u u u u u u z b M n N   ",
"    6 m u u u u u u u u u u B % h n V   ",
"    6 m u u u u u u u u u u B C h Z V   ",
"    6 A u u u u u u u u u u B C S Z 2   ",
"    6 A u u u u u u u u u u D C S Z V   ",
"    F f G H J K i u u u u u D C L P 2   ",
"    F I g U Y h x T R G A D E W L P 2   ",
"    Q f f ! ~ ~ ^ / ~ ( n & C ) _ ` 2   ",
"    Q f f ! ! ! ^ ; g ' / ] ) ) [ { 2   ",
"    } | 8 ! ~ ! ^ ; 8 |  ...W 0 [ X.2   ",
"      o.Q  .O.+.+.U 0 g  ...W W @.{ 2   ",
"        k   #.< $.%.+.( &.x C C @.o *.  ",
"              2 2 =.-.+ . ;.:.>.,.<.    "
};
