/* XPM */
static char * FILE_SAVE_xpm[] = {
"20 20 4 1",
" 	c None",
".	c #000000",
"+	c #FFFFFF",
"@	c #3C3C3C",
"                    ",
"                    ",
"                    ",
"                    ",
"  ....+++...+.@     ",
"  ....+++...+..@    ",
"  ....+++...+...@   ",
"  ....+++++++....   ",
"  ....+++++++....   ",
"  ...............   ",
"  ...............   ",
"  ...............   ",
"  ...............   ",
"  ...............   ",
"  ...............   ",
"  ...............   ",
"  ...............   ",
"  ...............   ",
"                    ",
"                    "};
