/* XPM */
static char *FILE_NEW_xpm[] = {
/* columns rows colors chars-per-pixel */
"20 20 6 1",
"+ c #4C4C4C",
"X c #D2D2D2",
"  c None",
"O c #FFFFFF",
". c #FFFF4C",
"o c #A6A6A6",
/* pixels */
"                    ",
"                    ",
"  .X o.  X          ",
"  o.XoO Xoooooo     ",
"   o.o.Xo.OOOOoo    ",
"  .Oo.Oo.OOOOOoOo   ",
"  oooO..OOOOOO++++  ",
"   X.oOOooooooOOX+  ",
"  oOXo.OOOOOOOOOX+  ",
"  .X oO.ooooooOOX+  ",
"     oOOOOOOOOOOX+  ",
"     oOOooooooOOX+  ",
"     oOOOOOOOOOOX+  ",
"     oOOooooooOOX+  ",
"     oOOOOOOOOOOX+  ",
"     oOOOOOOOOOOX+  ",
"     oXXXXXXXXXXX+  ",
"     +++++++++++++  ",
"                    ",
"                    "
};
