/* XPM */
static char *FLYTO_xpm[] = {
/* columns rows colors chars-per-pixel */
"20 20 26 1",
"- c #879FB3",
"3 c #A7B4C3",
"4 c #F0F0F0",
"; c #97AECB",
": c #4B98E7",
"7 c #F3E5E7",
"X c #A8B3BA",
"+ c #7EA0BC",
"> c #517AA1",
"o c #778EAB",
"O c #5982A1",
"% c #76A2C4",
"6 c #ACC5DC",
"$ c #4386C5",
"= c #5F81A3",
"@ c #4C83BC",
"< c #E1E1E1",
"* c #4586BD",
"& c #4C98DE",
"2 c #62A6E6",
". c #417EB1",
"# c #4B8ECD",
"5 c #EADEDF",
"  c #ECEADC",
", c #9FACBB",
"1 c #E8E8E8",
/* pixels */
"                    ",
"                    ",
"         ..         ",
"      XoO..OoX      ",
"     +@#$..$#@+     ",
"    %&*=-..-=*&%    ",
"   ;:>,<1..1<,>:;   ",
"   2*3415..5143*2   ",
"  6&o471<..<174o&6  ",
" .................. ",
" .................. ",
"  6&o471<..<174o&6  ",
"   2*3415..5143*2   ",
"   ;:>,<1..1<,>:;   ",
"    %&*=-..-=*&%    ",
"     +@#$..$#@+     ",
"      XoO..OoX      ",
"         ..         ",
"                    ",
"                    "
};
