/* XPM */
static char * FOLDER_xpm[] = {
"20 20 15 1",
" 	c None",
".	c #333333",
"+	c #FFFFFF",
"@	c #505050",
"#	c #9A9A9A",
"$	c #585858",
"%	c #959595",
"&	c #868686",
"*	c #727272",
"=	c #ACACAC",
"-	c #474747",
";	c #484848",
">	c #DFDFDF",
",	c #6C6C6C",
"'	c #848484",
"                    ",
"                    ",
"                    ",
"                    ",
"           .....    ",
"   ........++++.    ",
"   .+++++++++++.    ",
"   .+++++++++++.    ",
"   .+++++++++++.    ",
"   .+++++++++++.    ",
"  .@#++......++.    ",
"  $..........%+.    ",
"  &..........*+.    ",
"  =..........-+.    ",
"   ;..........>.    ",
"   ,..........'.    ",
"   #............    ",
"                    ",
"                    ",
"                    "};
