/* XPM */
static char * FOLDER_xpm[] = {
"20 20 12 1",
" 	c None",
".	c #FFFFFF",
"+	c #0F0F0F",
"@	c #181818",
"#	c #303030",
"$	c #1B1B1B",
"%	c #2E2E2E",
"&	c #292929",
"*	c #232323",
"=	c #363636",
"-	c #161616",
";	c #212121",
"....................",
"....................",
"....................",
"....................",
"...........+++++....",
"...++++++++....+....",
"...+...........+....",
"...+...........+....",
"...+...........+....",
"...+...........+....",
"..+@#..++++++..+....",
"..$++++++++++%.+....",
"..&++++++++++*.+....",
"..=++++++++++-.+....",
"...-++++++++++.+....",
"...;++++++++++&+....",
"...#++++++++++++....",
"....................",
"....................",
"...................."};
