/* XPM */
static char *FOLDER_xpm[] = {
/* columns rows colors chars-per-pixel */
"20 20 69 1",
"1 c #F7F7F7",
"X c #F5F4EB",
"  c #FFFFFF",
"d c #A06E08",
"t c #B4811C",
"h c #FFCC67",
"L c #FDFCFA",
"B c #996701",
"S c #4C4C4C",
"Z c #A87610",
"* c #DFC081",
"e c #BC8924",
"O c #CB9833",
"s c #F8C560",
"< c #B07E18",
"> c #B5821D",
"N c #D3A03B",
"G c #EAEAEA",
"m c #9A6802",
"0 c #FFE681",
"- c #BD8A25",
"o c #CC9934",
"u c #FFE07B",
"g c #D9BA7B",
"8 c #DEBE7F",
"q c #C5922D",
"V c #EBEBEB",
"a c #FFD46F",
"n c #DCA944",
"i c #A3710B",
"2 c #DFBF81",
": c #B7841F",
"D c #838383",
"3 c #FFF791",
"K c #FBFBF7",
"c c #9C6A04",
"4 c #FFF48E",
"C c #AB7913",
"l c #6D6D6D",
"z c #D8B87A",
"b c #BF8C27",
"J c #C7C7C7",
". c #F9F8F2",
"9 c #FFEB85",
", c #B3811B",
"r c #B88520",
"@ c #C7942F",
"7 c #DEDEDE",
"M c #D4B576",
"f c #6E6E6E",
"w c #C08D28",
"6 c #8C8C8C",
"& c #C8C8C8",
"A c #A5730D",
"y c #DCBD7E",
"x c #E6B34E",
"H c #D0D0D0",
"# c #DFDFDF",
"F c #FDFDFD",
"k c #9E6C06",
"= c #FFFF99",
"$ c #F6F6F6",
"; c #BA8722",
"+ c #C99631",
"v c #D6B778",
"5 c #AE7C16",
"p c #DBBB7D",
"% c #C28F2A",
"j c #EFBC57",
/* pixels */
"                    ",
" .XXXXXXXXXXXXXXXX. ",
" X                  ",
" X  oO+@#$          ",
" X o    %&$         ",
" X* ==== -;:>,<#1   ",
" X2344444     567   ",
" X890qqqqqqwert,,#  ",
" Xyuq         0 i6  ",
" Xpao=========s=df  ",
" XghO=33333333j=kl  ",
" Xzhq=99999999x=cl  ",
" Xvhb=uuuuuuuun=ml  ",
" XMhr=aaaaaaaaN=Bf  ",
" XV>,<5CZAidkcmBSD  ",
" XFGHJJJJJJJJJJJHG  ",
" KL                 ",
"                    ",
"                    ",
"                    "
};
