/* XPM */
static char *FRAME_ICON32x32_xpm[] = {
/* columns rows colors chars-per-pixel */
"32 32 3 1",
"  c Black",
"X c #FF0000",
". c #FFFFFF",
/* pixels */
"                                ",
" .............................. ",
" ..XXXXXXXXXXX....XXXXXXXXXXX.. ",
" .XXXXXXXXXXXXX..XXXXXXXXXXXXX. ",
" .XXXXXXXXXXXXX..XXXXXXXXXXXXX. ",
" .XXX..XXX..XXX..XXX..XXX..XXX. ",
" .XXX..XXX..XXX..XXX..XXX..XXX. ",
" .XXX..XXX..XXX..XXX..XXX..XXX. ",
" .XXX..XXX..XXX..XXX..XXX..XXX. ",
" .XXX..XXX..XXX..XXX..XXX..XXX. ",
" .XXX..XXX..XXX..XXX..XXX..XXX. ",
" .XXX..XXX..XXX..XXX..XXX..XXX. ",
" .XXX..XXX..XXX..XXX..XXX..XXX. ",
" .XXX..XXX..XXX..XXX..XXX..XXX. ",
" .XXX..XXX..XXX..XXX..XXX..XXX. ",
" .XXX..XXX..XXX..XXX..XXX..XXX. ",
" .XXX..XXX..XXX..XXX..XXX..XXX. ",
" .XXX..XXX..XXX..XXX..XXX..XXX. ",
" .XXX..XXX..XXX..XXX..XXX..XXX. ",
" .XXX..XXX..XXX..XXX..XXX..XXX. ",
" .XXX..XXX..XXX..XXX..XXX..XXX. ",
" .XXX..XXX..XXX..XXX..XXX..XXX. ",
" .XXX..XXX..XXX..XXX..XXX..XXX. ",
" .XXX..XXX..XXX..XXX..XXX..XXX. ",
" .XXX..XXX..XXX..XXX..XXX..XXX. ",
" .XXX..XXX..XXX..XXX..XXX..XXX. ",
" .XXX..XXX..XXX..XXX..XXX..XXX. ",
" .XXX..XXX..XXX..XXX..XXX..XXX. ",
" .XXX..XXX..XXX..XXX..XXX..XXX. ",
" .XXX..XXX..XXX..XXX..XXX..XXX. ",
" .............................. ",
"                                "
};
