/* XPM */
static char * GIZMO_ROTATE_ICON_xpm[] = {
"22 22 3 1",
" 	c None",
".	c #ADADAD",
"+	c #000000",
"                      ",
" .................... ",
" .                  . ",
" .                  . ",
" .                  . ",
" .                  . ",
" .       +++++      . ",
" .    ++++++++++    . ",
" .   +++      ++++  . ",
" .  ++           ++ . ",
" . ++             ++. ",
" . ++    +        ++. ",
" .  +++  ++      ++ . ",
" .   ++++++++  +++  . ",
" .     +++++  +++   . ",
" .       ++         . ",
" .       +          . ",
" .                  . ",
" .                  . ",
" .                  . ",
" .................... ",
"                      "};
