/* XPM */
static char * HINT_IMAGE_ICON_xpm[] = {
"20 20 42 1",
" 	c None",
".	c #FFFFFF",
"+	c #062818",
"@	c #000000",
"#	c #072D1B",
"$	c #E7F000",
"%	c #F3FC00",
"&	c #D1DD07",
"*	c #F5FE00",
"=	c #C4D50B",
"-	c #041E12",
";	c #BCD10B",
">	c #E3EC00",
",	c #F7FA00",
"'	c #03170E",
")	c #E5EE00",
"!	c #DFE800",
"~	c #03170F",
"{	c #A4C40E",
"]	c #9F9F9F",
"^	c #98C00C",
"/	c #A1C60C",
"(	c #B5CE0C",
"_	c #F9FC00",
":	c #EDF600",
"<	c #EFF800",
"[	c #041A0F",
"}	c #C3D30D",
"|	c #D9E105",
"1	c #063E22",
"2	c #FBFE00",
"3	c #F3F600",
"4	c #EBF400",
"5	c #C6D70B",
"6	c #DCE402",
"7	c #5CA50D",
"8	c #07311D",
"9	c #072918",
"0	c #062E1B",
"a	c #08341F",
"b	c #06301C",
"c	c #073520",
"........+@@@+.......",
"......#@$%%%$@#.....",
".....@&**%%%**&@....",
"....@=*%%%%%%%*=-...",
"....@*%%%***%%%*@...",
"...@;%%**>,>**%%;@..",
"...'>**)!@@@!)**>'..",
"...~>**{]^/^]{**>~..",
"...@(**;@*_*@;**(@..",
"....@*%:@<*<@:%*@...",
"....[}**@|*|@**}[...",
".....1)2(]<](2)1....",
"......@34@5@43@.....",
".......@6@7@6@......",
".......8]]]]]8......",
".......9.....9......",
".......0]]]]]0......",
".......a.....a......",
"........b]]]b.......",
".........c@c........"};
