/* XPM */
static char * IMAGE_PREVIEW_xpm[] = {
"20 20 24 1",
" 	c None",
".	c #000000",
"+	c #CDCDCD",
"@	c #CCCCCC",
"#	c #D5D5D5",
"$	c #FFFFFF",
"%	c #DADADA",
"&	c #888888",
"*	c #8E8E8E",
"=	c #898989",
"-	c #CFCFCF",
";	c #D1D1D1",
">	c #989898",
",	c #D0D0D0",
"'	c #838383",
")	c #848484",
"!	c #C8C8C8",
"~	c #999999",
"{	c #040404",
"]	c #C0C0C0",
"^	c #B9B9B9",
"/	c #D8D8D8",
"(	c #070707",
"_	c #D4D4D4",
"                    ",
"                    ",
"                    ",
"                    ",
"                    ",
" .................. ",
" .                . ",
" .  +@@+          . ",
" . #$$$%          . ",
" . +@@@+          . ",
" .          &&&   . ",
" .        &&&&&&  . ",
" .*     &==-@@@;> . ",
" .,'   =)!@@@@@@;~{ ",
" .#]'&'^+@@@@@@@@/( ",
" ._@@@@@@@@@@@@@@/( ",
" .................( ",
" .................( ",
" .................. ",
"                    "};
