/* XPM */
static char * IMPORT_VTK_xpm[] = {
"20 20 41 1",
" 	c None",
".	c #FFFFFF",
"+	c #E6E6E6",
"@	c #989898",
"#	c #4B4B4B",
"$	c #313131",
"%	c #BEBEBE",
"&	c #6F6F6F",
"*	c #2E2E2E",
"=	c #A2A2A2",
"-	c #454545",
";	c #2A2A2A",
">	c #CACACA",
",	c #797979",
"'	c #272727",
")	c #232323",
"!	c #767676",
"~	c #BBBBBB",
"{	c #A0A0A0",
"]	c #3F3F3F",
"^	c #202020",
"/	c #4A4A4A",
"(	c #ACACAC",
"_	c #C8C8C8",
":	c #757575",
"<	c #1C1C1C",
"[	c #8E8E8E",
"}	c #191919",
"|	c #161616",
"1	c #121212",
"2	c #0F0F0F",
"3	c #0B0B0B",
"4	c #C2C2C2",
"5	c #555555",
"6	c #080808",
"7	c #E1E1E1",
"8	c #737373",
"9	c #141414",
"0	c #040404",
"a	c #A1A1A1",
"b	c #414141",
".                   ",
"                    ",
"                    ",
"       +@#$#@+      ",
"     %&*******&%    ",
"   =-;;;;;;;;;;;-=  ",
"   >,''''''''''',>  ",
"   )!~{])))))]{~!)  ",
"   ^^^/(_:^:_(/^^^  ",
"   <<<<<;[ [;<<<<<  ",
"   }}}}}}} }}}}}}}  ",
"   ||||||| |||||||  ",
"   1111111 1111111  ",
"   2222222 2222222  ",
"   3333333 3333333  ",
"   4566666 6666654  ",
"     78900 00987    ",
"        ab ba       ",
"                    ",
"                    "};
