/* XPM */
static char * IMPORT_DICOM_xpm[] = {
"20 20 132 2",
"  	c None",
". 	c #767676",
"+ 	c #272727",
"@ 	c #2C2C2C",
"# 	c #8B8B8B",
"$ 	c #CFCFCF",
"% 	c #666666",
"& 	c #464646",
"* 	c #585858",
"= 	c #858585",
"- 	c #7C7C7C",
"; 	c #555555",
"> 	c #424242",
", 	c #AAAAAA",
"' 	c #4B4B4B",
") 	c #5A5A5A",
"! 	c #C0C0C0",
"~ 	c #ECECEC",
"{ 	c #E7E7E7",
"] 	c #B9B9B9",
"^ 	c #7A7A7A",
"/ 	c #5B5B5B",
"( 	c #4F4F4F",
"_ 	c #5D5D5D",
": 	c #7D7D7D",
"< 	c #525252",
"[ 	c #2A2A2A",
"} 	c #6F6F6F",
"| 	c #C5C5C5",
"1 	c #FAFAFA",
"2 	c #FFFFFF",
"3 	c #F4F4F4",
"4 	c #BABABA",
"5 	c #5E5E5E",
"6 	c #2E2E2E",
"7 	c #595959",
"8 	c #939393",
"9 	c #CBCBCB",
"0 	c #FEFEFE",
"a 	c #F7F7F7",
"b 	c #C4C4C4",
"c 	c #888888",
"d 	c #4E4E4E",
"e 	c #6C6C6C",
"f 	c #4D4D4D",
"g 	c #7B7B7B",
"h 	c #BCBCBC",
"i 	c #B3B3B3",
"j 	c #616161",
"k 	c #696969",
"l 	c #E8E8E8",
"m 	c #D4D4D4",
"n 	c #909090",
"o 	c #565656",
"p 	c #9C9C9C",
"q 	c #DCDCDC",
"r 	c #E2E2E2",
"s 	c #5F5F5F",
"t 	c #B7B7B7",
"u 	c #D2D2D2",
"v 	c #A9A9A9",
"w 	c #ADADAD",
"x 	c #DBDBDB",
"y 	c #AEAEAE",
"z 	c #747474",
"A 	c #737373",
"B 	c #606060",
"C 	c #343434",
"D 	c #050505",
"E 	c #1F1F1F",
"F 	c #646464",
"G 	c #AFAFAF",
"H 	c #DDDDDD",
"I 	c #D9D9D9",
"J 	c #A4A4A4",
"K 	c #161616",
"L 	c #0B0B0B",
"M 	c #3C3C3C",
"N 	c #636363",
"O 	c #707070",
"P 	c #545454",
"Q 	c #373737",
"R 	c #060606",
"S 	c #151515",
"T 	c #494949",
"U 	c #414141",
"V 	c #0E0E0E",
"W 	c #0D0D0D",
"X 	c #3E3E3E",
"Y 	c #515151",
"Z 	c #898989",
"` 	c #E6E6E6",
" .	c #BFBFBF",
"..	c #323232",
"+.	c #181818",
"@.	c #383838",
"#.	c #C9C9C9",
"$.	c #E3E3E3",
"%.	c #6D6D6D",
"&.	c #626262",
"*.	c #959595",
"=.	c #D1D1D1",
"-.	c #F2F2F2",
";.	c #BDBDBD",
">.	c #8A8A8A",
",.	c #8D8D8D",
"'.	c #CCCCCC",
").	c #EFEFEF",
"!.	c #CACACA",
"~.	c #3A3A3A",
"{.	c #000000",
"].	c #1D1D1D",
"^.	c #C8C8C8",
"/.	c #F0F0F0",
"(.	c #EEEEEE",
"_.	c #656565",
":.	c #121212",
"<.	c #434343",
"[.	c #6E6E6E",
"}.	c #DEDEDE",
"|.	c #353535",
"1.	c #474747",
"2.	c #090909",
"3.	c #232323",
"4.	c #363636",
"5.	c #818181",
"6.	c #3B3B3B",
"7.	c #191919",
"8.	c #0A0A0A",
"9.	c #9F9F9F",
"0.	c #9D9D9D",
"a.	c #B4B4B4",
"                                        ",
"                                        ",
"                . + @ #                 ",
"          $ % & * = - ; > -             ",
"      , ' ; ) = ! ~ { ] ^ / ( _         ",
"    : < [ } | 1 2 2 2 2 3 4 5 6 7       ",
"      = ( ; 8 9 0 2 2 a b c d 7 =       ",
"          e _ f g h i } d j k           ",
"          l m n d ; f o p q r           ",
"      s * : t l u v w x r y z * j       ",
"    A B C D E F G H I J 7 K L M N       ",
"      ~ O P Q R S T U V W X Y Z         ",
"          `  .} ..K +.@.- #.$.          ",
"      %.&.*.=.-.;.>.,.'.).!.Z N %.      ",
"    e ~.+.{.].z ^./.(.;._.:.{.].<.[.    ",
"      }.k |.E {.:.Y 1.2.{.3.4.5.{       ",
"          H ,.6.7.2.8.].<.9.            ",
"              2 0.T d a.                ",
"                                        ",
"                                        "};
