/* XPM */
static char * INFO_xpm[] = {
"20 20 4 1",
" 	c None",
".	c #3C3C3C",
"+	c #000000",
"@	c #FFFFFF",
"                    ",
"       .++++.       ",
"     .++++++++.     ",
"    .++++++++++.    ",
"   .+++++@@+++++.   ",
"  .++++++@@++++++.  ",
"  ++++++++++++++++  ",
" .++++++++++++++++. ",
" +++++++@@@++++++++ ",
" ++++++++@@++++++++ ",
" ++++++++@@++++++++ ",
" ++++++++@@++++++++ ",
" .+++++++@@+++++++. ",
"  +++++++@@+++++++  ",
"  .++++++@@++++++.  ",
"   .++++@@@@++++.   ",
"    .++++++++++.    ",
"     .++++++++.     ",
"       .++++.       ",
"                    "};
