/* XPM */
static char *INFO_xpm[] = {
/* columns rows colors chars-per-pixel */
"20 20 81 1",
": c Black",
"9 c #6D6B65",
"b c #EAE8DA",
"^ c #FAF7E9",
"d c #CDCBC0",
"E c #A6A49A",
"A c #595752",
"k c #2C2B29",
"Q c #CCCABE",
"t c #050404",
"# c #DFDDD0",
"F c #FFFEEF",
"6 c #F2F0E1",
"0 c #484743",
"Y c #4B4B46",
"D c #F5F4E7",
"& c #B8B6AB",
"p c #31322E",
"~ c #DEDCCF",
"K c #070706",
"H c #171615",
", c #F1EFDF",
"N c #94938A",
"7 c #F1EFE0",
"@ c #F1EFE1",
"C c #8A8981",
"Z c #10100F",
"% c #6D6C66",
"o c #FAF8E9",
"h c #908E86",
"< c #E0DFD1",
"4 c #F0EEDF",
"S c #C3C2B7",
"M c #292826",
"$ c #A6A59B",
"U c #595853",
"T c #4C4D48",
"> c #898880",
"B c #F6F3E5",
"! c #C9C7BB",
"P c #F9F7E8",
"2 c #6F6F68",
"J c #050505",
"w c #EFEDDE",
"X c #EFEDDF",
"O c #FFFFF4",
"n c #FFFFF5",
"j c #F8F6E7",
"m c #CBCABE",
"W c #FBFAEB",
"c c #31302E",
"f c #716F69",
"a c #919087",
"* c #EEECDE",
"g c #171716",
"y c #87867D",
"+ c #F7F5E6",
"1 c #ADACA0",
"5 c #EDEBDD",
"L c #73726C",
"- c #D3D2C5",
"; c #696861",
"8 c #C6C4B8",
"= c #F6F4E6",
"e c #C9C8BC",
"i c #ACABA0",
"3 c #BCBAAF",
"v c #8F8E85",
"  c #ECEADC",
"u c #FCF9EB",
"I c #B2B0A5",
"V c #E2E0D3",
"R c #4B4A46",
"s c #F5F3E5",
"l c #8E8D84",
". c #EBE9DB",
"r c #61615B",
"z c #FEFCED",
"x c #C4C2B6",
"G c #97968D",
"q c #AAA99E",
/* pixels */
"                    ",
"       .XoO+        ",
"       @#$%&**      ",
"       =-;:>,X      ",
"       @<1234*      ",
"       5X6X5        ",
"      57890qw*      ",
"      =ert:y4X      ",
"      uip::a4X      ",
"      sdfg:h4X      ",
"      5j&k:l4X      ",
"       zxc:v7X      ",
"      bnmM:NBw      ",
"      6VCZ:ASD      ",
"      FGHJK:LO      ",
"      PIUYTREW      ",
"      X#Q!!!~4      ",
"      .@j^P^6.      ",
"                    ",
"                    "
};
