/* XPM */
static char * INTERPOLATE_ICON_xpm[] = {
"20 20 47 1",
" 	c #FFFFFF",
".	c #000000",
"+	c #7F7F7F",
"@	c #333333",
"#	c #777777",
"$	c #BEBEBE",
"%	c #DDDDDD",
"&	c #F1F1F1",
"*	c #FAFAFA",
"=	c #FDFDFD",
"-	c #1D1D1D",
";	c #4C4C4C",
">	c #808080",
",	c #A5A5A5",
"'	c #CECECE",
")	c #E4E4E4",
"!	c #F5F5F5",
"~	c #101010",
"{	c #202020",
"]	c #3C3C3C",
"^	c #5B5B5B",
"/	c #848484",
"(	c #A9A9A9",
"_	c #D7D7D7",
":	c #353535",
"<	c #232323",
"[	c #1A1A1A",
"}	c #242424",
"|	c #3F3F3F",
"1	c #676767",
"2	c #7E7E7E",
"3	c #3D3D3D",
"4	c #212121",
"5	c #CDCDCD",
"6	c #818181",
"7	c #4E4E4E",
"8	c #F2F2F2",
"9	c #E1E1E1",
"0	c #C5C5C5",
"a	c #F7F7F7",
"b	c #FEFEFE",
"c	c #F8F8F8",
"d	c #DBDBDB",
"e	c #8A8A8A",
"f	c #0D0D0D",
"g	c #040404",
"h	c #0A0A0A",
"       ..++@#$%&*=  ",
"     ....++-;>,')!= ",
"   ......++~{]^/(_!=",
"  .......++:<[}|1()*",
"  .......++2^34[|/'&",
" ....... ++5,674}^,%",
" .....   ++89063[]>$",
"......   ++=a9,^<{;#",
".....    ++ =852:~-@",
".....    ++ bcde]fgh",
".....    ++ bcde]fgh",
".....    ++ =852:~-@",
"......   ++=a9,^<{;#",
" .....   ++89063[]>$",
" ....... ++5,674}^,%",
"  .......++2^34[|/'&",
"  .......++:<[}|1()*",
"   ......++~{]^/(_!=",
"     ....++-;>,')!= ",
"       ..++@#$%&*=  "};
