/* XPM */
static char *MDICHILD_ICON_xpm[] = {
/* columns rows colors chars-per-pixel */
"16 16 3 1",
"  c Black",
". c #FFFFFF",
"X c #808080",
/* pixels */
"               .",
" ............. .",
" .XXXXX.XXXXX. .",
" .X.X.X.X.X.X. .",
" .X.X.X.X.X.X. .",
" .X.X.X.X.X.X. .",
" .X.X.X.X.X.X. .",
" .X.X.X.X.X.X. .",
" .X.X.X.X.X.X. .",
" .X.X.X.X.X.X. .",
" .X.X.X.X.X.X. .",
" .X.X.X.X.X.X. .",
" .X.X.X.X.X.X. .",
" .X.X.X.X.X.X. .",
" ............. .",
"               ."
};
