/* XPM */
static char * MENU_OP_IMPORT_PROSTHESIS_xpm[] = {
"11 11 5 1",
" 	c None",
".	c #646464",
"+	c #A2A2A2",
"@	c #000000",
"#	c #00C115",
"    ...    ",
"   .+++.   ",
"    .++.   ",
" .. ..+.   ",
".++.  .    ",
".+++.      ",
".+..   @   ",
".+.   @#@@@",
".+.  @####@",
".+.   @#@@@",
"...    @   "};
