/* XPM */
static char * MENU_IMPORT_STL_xpm[] = {
"11 11 6 1",
" 	c None",
".	c #BABABA",
"+	c #F8F8F8",
"@	c #E4E4E4",
"#	c #FEFEFE",
"$	c #000000",
"    ...    ",
"   .+++.   ",
" @.+++++.@ ",
" .#.+++.@. ",
" .##.+.@@. ",
" .#$$$$$@. ",
"$$$##$@@$. ",
"$.###$@@$. ",
" $.##$@@$@ ",
"  $.#$@.$  ",
"$$$ .$.@$$$"};
