/* XPM */
static char * MENU_OP_TRANSFORM_A2B_xpm[] = {
"11 11 4 1",
" 	c None",
".	c #151515",
"+	c #5F5F5F",
"@	c #3C3C3C",
"        ..+",
"        . .",
"        ..+",
"        . .",
"   @@@@ ..+",
"     @@    ",
"+.+ @ @    ",
". .@  @    ",
"...        ",
". .        ",
". .        "};
