/* XPM */
static char * MENU_IMPORT_ALBA_xpm[] = {
"11 11 2 1",
" 	c None",
".	c #000000",
"           ",
"       .   ",
"      ..   ",
"     . .   ",
"     . .   ",
"    .  .   ",
"    ....   ",
"   .   .   ",
"   .   .   ",
"           ",
"           "};
