/* XPM */
static char * MENU_IMPORT_IMAGE_xpm[] = {
"11 11 4 1",
" 	c None",
".	c #000000",
"+	c #FFFFFF",
"@	c #9F9F9F",
"           ",
" ......... ",
" .+++++++. ",
" .+++++++. ",
" .++.++++. ",
" .+.@..++. ",
" ..@@@@.+. ",
" .@@@@@@.. ",
" .@@@@@@@. ",
" ......... ",
"           "};
