/* XPM */
static char * MENU_OP_MEASURE_AXIS_ROTATION_xpm[] = {
"11 11 17 1",
" 	c None",
".	c #000000",
"+	c #020202",
"@	c #2C2C2C",
"#	c #151515",
"$	c #646464",
"%	c #232323",
"&	c #141414",
"*	c #292929",
"=	c #2D2D2D",
"-	c #616161",
";	c #010101",
">	c #626262",
",	c #242424",
"'	c #2E2E2E",
")	c #636363",
"!	c #2A2A2A",
"           ",
"     .+@   ",
" #    $%&  ",
"*.*     %= ",
"...     -; ",
" .       . ",
" ;$     >; ",
" *,     ,' ",
"  #,) ),&  ",
"   !;.;'   ",
"           "};
