/* XPM */
static char * MENU_OP_EXTACT_ISOSURFACE_xpm[] = {
"11 11 6 1",
" 	c None",
".	c #A89E9C",
"+	c #E7DFDC",
"@	c #F6ECE9",
"#	c #221814",
"$	c #504E4D",
"   .+++.   ",
" ..@@@@@.. ",
" .@@@@@@@. ",
" .@##@##@. ",
" .@##@##@. ",
"  .@@@@@.  ",
"  .@@#@@.  ",
"$$$$$$$$$$$",
"$$$$$$$$$$$",
"$$$$$$$$$$$",
"$$$$$$$$$$$"};
