/* XPM */
static char * MENU_IMPORT_VTK_xpm[] = {
"11 11 5 1",
" 	c None",
".	c #000000",
"+	c #E7E7E7",
"@	c #9F9F9F",
"#	c #FFFFFF",
"    ...    ",
"   .+++.   ",
" @.+++++.@ ",
" .#.+++.@. ",
" .##.+.@@. ",
" .###.@@@. ",
" .###.@@@. ",
" .###.@@@. ",
" @.##.@@.@ ",
"   .#.@.@  ",
"    ...@   "};
