/* XPM */
static char * MENU_IMPORT_DICOM_xpm[] = {
"11 11 9 1",
" 	c None",
".	c #000000",
"+	c #9F9F9F",
"@	c #FFFFFF",
"#	c #1C1C1C",
"$	c #1D1D1D",
"%	c #3F3F3F",
"&	c #333333",
"*	c #303030",
"     .     ",
"   +.@.+   ",
"  .+@@@+.  ",
" .@@@@@@@. ",
"  .@@@@@.  ",
" .@#@@@$@. ",
"  .@%&*@.  ",
" .@#@@@$@. ",
"  .@%&*@.  ",
"   .@@@.   ",
"    ...    "};
