/* XPM */
static char * MENU_CALIBRATION_ICON_xpm[] = {
"11 11 2 1",
" 	c None",
".	c #000000",
"           ",
"    .....  ",
"   ..   .  ",
"  ..       ",
"  ..       ",
"  ..       ",
"  ..       ",
"  ..       ",
"   ..   .  ",
"    .....  ",
"           "};
