/* XPM */
static char *NODE_RED_xpm[] = {
/* columns rows colors chars-per-pixel */
"15 15 54 1",
"= c #F55429",
"1 c #CA400A",
"n c #9D6B57",
"t c #A07260",
"u c #A9390D",
"7 c #B23C0E",
"3 c #FF500B",
"l c #581A02",
"> c #F96639",
"k c #A92A0D",
"w c #A92405",
"o c #E9A291",
"b c #D2C3BC",
"8 c #9C2206",
", c #F86830",
": c #D8C8C0",
"; c #CB8A71",
"+ c #DBA28B",
"i c #872B07",
"< c #E44506",
"O c #E49678",
"x c #B7A39B",
"X c #E4BAAA",
"v c #7D6359",
"m c #805B4C",
"c c #AD6C53",
"y c #BD8169",
"z c #4C200E",
"g c #4C1702",
"$ c #E0CDC4",
"e c #922E06",
"* c #F37149",
"  c #FFFFFF",
"f c #6E260A",
"2 c #BB7357",
"4 c #EC3808",
"p c #641C00",
"% c #F29D86",
"- c #F24618",
"a c #875F4F",
"h c #907164",
"9 c #BDA99F",
"0 c #CD9179",
"& c #FD7C49",
"# c #DDD6D1",
"r c #792909",
"6 c #CA330A",
"q c #EC4808",
"5 c #D63408",
"s c #BC7E74",
"j c #C5ABA1",
"@ c #D5B1A3",
"d c #922006",
". c #DBCEC9",
/* pixels */
"               ",
"               ",
"    .XoO+@#    ",
"   $%&&*=-;:   ",
"  #O>>,=-<12.  ",
"  @==3-456789  ",
"  04q<567wert  ",
"  y5567ueirpa  ",
"  s77u8drfpgh  ",
"  jkw8drfplzx  ",
"  .cdirfplgv#  ",
"   bnfplgzvb   ",
"    #xhmhx#    ",
"               ",
"               "
};
