/* XPM */
static char *NODE_YELLOW_xpm[] = {
/* columns rows colors chars-per-pixel */
"15 15 52 1",
"0 c #CB9107",
"j c #695503",
"u c #786000",
"a c #AE7D08",
"& c #F8CF62",
"g c #E2DECE",
"x c #978E6B",
"i c #A3955F",
"1 c #FFD941",
"p c #D1BF9D",
"9 c #F8D02E",
"f c #A7A07F",
"r c #D0C492",
": c #FADE6C",
"7 c #DBD8C9",
"< c #CCBC7E",
"d c #5B4903",
"X c #F8F5E8",
"6 c #BC8708",
"k c #5B4C11",
"2 c #F8C12E",
"v c #B2A674",
"3 c #F7BA15",
"q c #AE8D08",
"z c #BEB076",
"c c #F3F2ED",
"w c #91760B",
"t c #CCA610",
", c #F4C60C",
"l c #D5D1C3",
"; c #FBDA77",
". c #FFFFFD",
"  c #FFFFFF",
"$ c #FEE78C",
"> c #FACE20",
"+ c #EDE5C3",
"5 c #D7AF11",
"% c #F7DB87",
"* c #F5C74B",
"o c #F6EBD2",
"y c #A18309",
"b c #9A8E5C",
"e c #B4AA80",
"- c #F9F8F3",
"s c #846C0C",
"= c #DDD1A1",
"O c #F0E4B4",
"8 c #E0D5AA",
"@ c #EEEAD8",
"h c #CC9510",
"# c #FAEECC",
"4 c #F4B50C",
/* pixels */
"               ",
"               ",
"    .XoO+@     ",
"   .#$$%&*=-   ",
"   O;;:&*>,<.  ",
"  @&&1*234567  ",
"  829>3450qwe  ",
"  r3345tqywui  ",
"  p55t6awsudf  ",
"  gh06awsujkl  ",
"  .zaywsujdx   ",
"   cvsujdkxc   ",
"     lfbfl     ",
"               ",
"               "
};
