/* XPM */
static char *NODE_BLUE_xpm[] = {
/* columns rows colors chars-per-pixel */
"15 15 48 1",
"z c #739494",
"u c #084A4A",
"h c #216B63",
"X c #7BC6BD",
"5 c #10736B",
"i c #316B6B",
"= c #39B5AD",
"; c #18BDB5",
"o c #63CECE",
"2 c #189C94",
"& c #21C6BD",
"d c #84A5A5",
": c #18A5A5",
"t c #18847B",
"6 c #849C9C",
"+ c #73ADAD",
"4 c #188484",
"k c #295252",
"j c #085A5A",
"f c #738C8C",
"@ c #ADBDBD",
"s c #084242",
"g c #318484",
"e c #108C8C",
". c #9CADAD",
"p c #106B63",
"9 c #106B6B",
"w c #5A9C9C",
"O c #63C6C6",
"  c #FFFFFF",
"3 c #18948C",
"$ c #31D6CE",
"* c #21B5AD",
"> c #189494",
"l c #085252",
"a c #185252",
"# c #9CBDBD",
"8 c #107B73",
"r c #108484",
"y c #106363",
"0 c #105A5A",
"1 c #18ADA5",
"7 c #63B5AD",
", c #5A9494",
"- c #21CEC6",
"% c #21CECE",
"q c #5A7373",
"< c #73B5B5",
/* pixels */
"               ",
"               ",
"    .XoOO+@    ",
"   #o$%%&*=.   ",
"  .o%%%-;:>,.  ",
"  <&--;123456  ",
"  711:234890q  ",
"  w22ert9y0ui  ",
"  ,r4t9p0ausq  ",
"  d885p0aussf  ",
"  #ghyjaussk@  ",
"   .qlusssq.   ",
"    #zqiqf.    ",
"               ",
"               "
};
