/* XPM */
static char * NODE_YELLOW_xpm[] = {
"15 15 6 1",
" 	c None",
".	c #FFFFFF",
"+	c #F8C63F",
"@	c #F7BB18",
"#	c #F7BA15",
"$	c #F9CB51",
"...............",
".....+@#@+.....",
"...$#######$...",
"..$#########$..",
"..###########..",
".+###########+.",
".@###########@.",
".#############.",
".@###########@.",
".+###########+.",
"..###########..",
"..$#########$..",
"...$#######$...",
".....+@#@+.....",
"..............."};
