/* XPM */
static char * NODE_RED_xpm[] = {
"15 15 4 1",
" 	c None",
".	c #FF2929",
"+	c #FF1919",
"@	c #FF3030",
"               ",
"     .+++.     ",
"   @+++++++@   ",
"  @+++++++++@  ",
"  +++++++++++  ",
" .+++++++++++. ",
" +++++++++++++ ",
" +++++++++++++ ",
" +++++++++++++ ",
" .+++++++++++. ",
"  +++++++++++  ",
"  @+++++++++@  ",
"   @+++++++@   ",
"     .+++.     ",
"               "};
