/* XPM */
static char *NODE_GRAY_xpm[] = {
/* columns rows colors chars-per-pixel */
"15 15 44 1",
", c #C1C1C1",
"h c #A4A4A4",
"g c #F1F1F1",
"5 c #CACACA",
"d c #ADADAD",
"u c #DDDDDD",
"e c #C0C0C0",
"> c #D3D3D3",
"7 c #727272",
"; c #BFBFBF",
"r c #686868",
"1 c #B5B5B5",
"- c #C8C8C8",
"a c #4A4A4A",
"& c #C7C7C7",
"* c #F7F7F7",
"$ c #DADADA",
"0 c #A0A0A0",
"# c #EDEDED",
"s c #D0D0D0",
"i c #969696",
"w c #5C5C5C",
"+ c #E3E3E3",
"2 c #A9A9A9",
"f c #8C8C8C",
"= c #D9D9D9",
"% c #CFCFCF",
"  c #FFFFFF",
"O c #E2E2E2",
"8 c #A8A8A8",
"p c #515151",
"y c #9E9E9E",
"o c #EBEBEB",
". c #FEFEFE",
"X c #F4F4F4",
"4 c #D7D7D7",
"< c #BABABA",
"t c #464646",
"6 c #939393",
": c #B9B9B9",
"@ c #E9E9E9",
"9 c #C2C2C2",
"3 c #888888",
"q c #7E7E7E",
/* pixels */
"               ",
"               ",
"    .XoO+@     ",
"   .#++$%&%*   ",
"   O===%&-;:.  ",
"  @%%>&,<1234  ",
"  >,5-<126378  ",
"  9<<1203q7w6  ",
"  e2203q7rwty  ",
"  ui63q7rwpas  ",
"  .dqq7rwptf   ",
"   ghrwptafg   ",
"     syfys     ",
"               ",
"               "
};
