/* XPM */
static char * OP_2D_MEASURES_xpm[] = {
"20 20 3 1",
" 	c None",
".	c #000000",
"+	c #C9BFBF",
" ..+                ",
" .+.+               ",
" . +.+              ",
" . .+.+             ",
" .   +.+       +.   ",
" .   .+.+     +.+.  ",
" .     +.+   +.+  . ",
" .     .+.+ +.+.   .",
" .       +.+.+    . ",
" .       .+.+.   .  ",
" .       +.+    .   ",
" .      +.+.   .    ",
" ......+.+    .     ",
"      +.+.   .      ",
"     +.+    .       ",
"    +.+.   .        ",
"    .+    .         ",
"     .   .          ",
"      . .           ",
"       .            "};
