/* XPM */
static char * C:\Users\utente\Desktop\OP_ADD_LANDMARK_xpm[] = {
"20 20 20 1",
" 	c None",
".	c #636363",
"+	c #676767",
"@	c #848484",
"#	c #585858",
"$	c #5A5A5A",
"%	c #828282",
"&	c #989898",
"*	c #313131",
"=	c #525252",
"-	c #737373",
";	c #666666",
">	c #454545",
",	c #363636",
"'	c #4F4F4F",
")	c #535353",
"!	c #575757",
"~	c #3D3D3D",
"{	c #131313",
"]	c #3F3F3F",
"                    ",
"            .+@     ",
"           #$%&%    ",
"   .+@     *=-%;    ",
"  #$%&%    >,')!    ",
"  *=-%;     ~{]     ",
"  >,')!             ",
"   ~{]              ",
"                    ",
"             .+@    ",
"            #$%&%   ",
"            *=-%;   ",
"            >,')!   ",
"     .+@     ~{]    ",
"    #$%&%           ",
"    *=-%;           ",
"    >,')!           ",
"     ~{]            ",
"                    ",
"                    "};
