/* XPM */
static char *OP_CUT_xpm[] = {
/* columns rows colors chars-per-pixel */
"20 20 72 1",
"f c #3A4348",
"$ c #C1C1C1",
"d c #91DFFF",
"8 c #303030",
"2 c #84B9D4",
"w c #5A7688",
"j c #506C78",
"F c #97B7CB",
"< c #8DADBB",
"l c #909090",
"H c #393939",
"* c #6D98B3",
"r c #496671",
"O c #597581",
"; c #495D69",
"9 c #999999",
"m c #495461",
"@ c #59636F",
"h c #76A1BC",
"V c #9FBFCB",
"q c #8CCDEE",
"> c #686868",
". c #B8C2C1",
"J c #AFBCCB",
"I c #414141",
"S c #C8C8C8",
"v c #414A4F",
"Z c #313239",
"+ c #516571",
"z c #A1A1A1",
"e c #618091",
"b c #879190",
"a c #84C6DE",
"C c #3A3B40",
"3 c #6DA2B3",
"s c #91D4F7",
", c #707070",
"5 c #506D80",
"k c #90919A",
"% c #797979",
"x c #8CCEE6",
"& c #7F9FAB",
"# c #7F8A91",
"D c #484848",
"M c #98A2A1",
"G c #313938",
"P c #A8A8A8",
"o c #617E89",
"n c #818181",
"7 c #717B81",
"- c #618799",
"X c #879EAB",
"L c #505050",
"= c #6D97AB",
"y c #B0B0B0",
"p c #595959",
"  c #ECEADC",
"4 c #76A9C4",
"U c #B9B9B9",
"i c #282828",
"1 c #7CB1CC",
"K c #7FA0B3",
"u c #888888",
"0 c #8CC3E6",
"g c #6590AB",
"A c #717978",
"B c #616161",
"6 c #415561",
": c #616A6F",
"c c #3A403F",
"t c #414C59",
"N c #84B9CC",
/* pixels */
" .XoO+@#$  %$       ",
".&**=-O;:. >,       ",
"<12343-567 %89      ",
"10q=w1*ertyuip      ",
"asd1fgh-jtkliiz     ",
"0sdxcvg-jtbniil     ",
"asdsmitej6M,ii9     ",
"NxsqOiif;+.Bi8y     ",
"V200hCiiZASDip      ",
" F111wGiiH,8il      ",
"  J<K&#>8iiiL       ",
"        P%HiIP$Pz$  ",
"          >IpHIiiDl ",
"         UD%SDBzP>i9",
"        uI8L$B,  y8%",
"       li,zD%%89 ui9",
"       B>  >DyLH>Hp ",
"      $In  ,I U%ILy ",
"       LH%9LB       ",
"       PB8i8z       "
};
