/* XPM */
static char * OP_DELETE_xpm[] = {
"20 20 3 1",
" 	c None",
".	c #9A0000",
"+	c #C45151",
"                    ",
"                    ",
"                    ",
"                    ",
"     .        ++    ",
"    +..      +.+    ",
"   +....    +.++    ",
"     ....  +.++     ",
"      ......++      ",
"       +...++       ",
"        ....+       ",
"       ...+..+      ",
"      ...+ ++.+     ",
"     ...+   ++.+    ",
"    ....      +++   ",
"   ....        +++  ",
"   +..           +  ",
"    ++              ",
"                    ",
"                    "};
