/* XPM */
static char * OP_FIND_xpm[] = {
"20 20 59 1",
" 	c None",
".	c #FFFFFF",
"+	c #333333",
"@	c #363636",
"#	c #777777",
"$	c #FAFAFA",
"%	c #DFDFDF",
"&	c #C2C2C2",
"*	c #F1F1F1",
"=	c #929292",
"-	c #606060",
";	c #3E3E3E",
">	c #808080",
",	c #646464",
"'	c #FEFEFE",
")	c #9A9A9A",
"!	c #4F4F4F",
"~	c #F8F8F8",
"{	c #C8C8C8",
"]	c #5D5D5D",
"^	c #3D3D3D",
"/	c #FCFCFC",
"(	c #E2E2E2",
"_	c #303030",
":	c #FBFBFB",
"<	c #FDFDFD",
"[	c #6B6B6B",
"}	c #949494",
"|	c #EBEBEB",
"1	c #EDEDED",
"2	c #090909",
"3	c #626262",
"4	c #E4E4E4",
"5	c #373737",
"6	c #1E1E1E",
"7	c #7F7F7F",
"8	c #F3F3F3",
"9	c #3B3B3B",
"0	c #070707",
"a	c #E7E7E7",
"b	c #F2F2F2",
"c	c #F5F5F5",
"d	c #BEBEBE",
"e	c #7D7D7D",
"f	c #B3B3B3",
"g	c #636363",
"h	c #8D8D8D",
"i	c #919191",
"j	c #2D2D2D",
"k	c #DADADA",
"l	c #696969",
"m	c #000000",
"n	c #7C7C7C",
"o	c #939393",
"p	c #0A0A0A",
"q	c #E0E0E0",
"r	c #676767",
"s	c #DDDDDD",
"t	c #DCDCDC",
"....................",
"..............+++++.",
"......++++++++....+.",
"......@...........+.",
"......#...........+.",
"......$%&%*.......+.",
".....=-;>,;#.'....+.",
"....)!%~..{]^/*$..+.",
"...(_~'.'':<-#:'<.+.",
"...[}'<''../|;1.'.+.",
".'%2~.'.....~34~<.5.",
"..&6........<7&$/89.",
".'%0a.<...'.b;|cbd5.",
"...&e.'..'.<fg/hi;+.",
"...4jk.....~!=......",
".'.lmjna.~o_).......",
"..;ml(&06p[q........",
"<rm;...%&%..........",
"smr.'..'.'..........",
":t'................."};
