/* XPM */
static char * OP_HELP_xpm[] = {
"12 12 2 1",
" 	c None",
".	c #537197",
"....    ....",
"...      ...",
"..  ....  ..",
"..  ....  ..",
"........  ..",
".......  ...",
"......  ....",
".....  .....",
".....  .....",
"............",
".....  .....",
".....  ....."};
