/* XPM */
static char *OP_PASTE_xpm[] = {
/* columns rows colors chars-per-pixel */
"19 20 106 2",
"+. c #C1C1C1",
"!  c #91DFFF",
"x  c #A7B1B0",
"K  c #7796A3",
"r  c #696651",
"&. c #A7BDC3",
"d  c #9A8E88",
"~  c #84B9D4",
"e  c #695D49",
"F  c #5A7688",
"E  c #506C78",
"+  c #797871",
"]  c #6F6E61",
"o. c #A9A89F",
"B  c #496671",
"/  c #597581",
"^  c #668FA2",
"G  c #495D69",
"}  c #B0B1BA",
"Z  c #6F6E69",
"j  c #697279",
"4  c #999999",
"&  c #716E51",
"P  c #8CD6EE",
"m  c #76A1BC",
"*  c #817459",
"a  c #716551",
"=. c #AFBCC3",
"I  c #8CCDEE",
"q  c #918F7F",
"7  c #B3A477",
"6  c #817769",
"%. c #78838A",
"H  c #415359",
"O  c #414141",
"-. c #A8B3BA",
"X. c #B1B0A7",
"f  c #9A9888",
"T  c #6EA3BC",
"N  c #618091",
"y  c #797659",
"S  c #84C6DE",
"#  c #D3C5A7",
"A  c #7EA9C4",
"O. c #BAB9B0",
"=  c #897C61",
" . c #797661",
"Q  c #91D4F7",
",  c #A2946E",
"i  c #796D59",
"2  c #807F7A",
"C  c #909A99",
"w  c #796D61",
">  c #AB9D77",
"v  c #727971",
"l  c #596D79",
".  c #D2D0BE",
"<  c #A29788",
"L  c #8CCEE6",
"8  c #918469",
"$. c #6598AB",
"_  c #99DCFF",
"0  c #615749",
":  c #C3B485",
".. c #88939A",
"1  c #818181",
"R  c #618799",
"|  c #77A1AB",
"5  c #918788",
"X  c #9A8D80",
"-  c #A3967F",
"u  c #898671",
"o  c #505050",
"s  c #695F51",
"p  c #6F6D59",
"b  c #6D97AB",
"`  c #84BBDE",
"'  c #394A4F",
"*. c #909BA2",
"V  c #495C61",
"3  c #B0B0B0",
"%  c #9B8C67",
"g  c #928670",
"n  c #76A9BC",
"$  c #D4C28C",
"{  c #394D59",
"   c #ECEADC",
";  c #D4C596",
"#. c #76A9C4",
"@  c #B9B9B9",
"J  c #9FA9A8",
"D  c #7CBAD4",
"9  c #615E49",
")  c #918E77",
"Y  c #7CB1CC",
"k  c #627480",
"@. c #9FB5C3",
"U  c #8CC3E6",
"t  c #9A8B6E",
"c  c #918577",
"M  c #6590AB",
"z  c #516469",
"W  c #617379",
"(  c #415561",
"h  c #676661",
"[  c #84B9CC",
/* pixels */
"        . X o O O + @                 ",
"        # $ % & * = -                 ",
"      . ; ; : > > , , < 1 2 3         ",
"3 4 5 6 , $ 7 > > , , 8 9 0 q         ",
"w 0 e r 8 : > > > , , t y e q         ",
"u y i i t > t 8 = * i p r e q         ",
"u y i i i p a a a r r s s e d         ",
"u i i i p & a a a r r s 9 9 f         ",
"g i i i p a a a r h j k l z j x       ",
"c i i p p a a a v b n m M N B V C     ",
"c i i p & a a Z A S S D n M F G H J   ",
"c i i p a a a K L P I U Y T R E H W   ",
"c i i p a a p Y Q ! ! I ~ n ^ / ( H @ ",
") i p a a a Z ~ Q _ ! Q ` n ^ / ( ' x ",
") p p a a a ] [ P Q Q I ~ m R E ( { } ",
") p & a a a r | U I L S Y b N E H z   ",
"X p a a a p  ...Y ` ~ Y m ^ / G H C   ",
"X.q f o.O.+.    @.n #.m $.N E G %.    ",
"                  &.| ^ N / k *.      ",
"                      =.-.-.          "
};
