/* XPM */
static char * OP_REDO_xpm[] = {
"20 20 3 1",
" 	c None",
".	c #8080C4",
"+	c #5F5FD0",
"                    ",
"                    ",
"       .++++.    +  ",
"     .++++++++. .+  ",
"    +++++..+++++++  ",
"   .+++.    .+++++  ",
"   +++       .++++  ",
"  .++         ++++  ",
"  +++       ++++++  ",
"  ++.      +++++++  ",
"  ++.               ",
"  +++               ",
"   ++.              ",
"   +++              ",
"    +               ",
"                    ",
"                    ",
"                    ",
"                    ",
"                    "};
