/* XPM */
static char *OP_REDO_xpm[] = {
/* columns rows colors chars-per-pixel */
"20 20 68 1",
". c #C1C1C1",
"7 c #5596CD",
"a c #5E93BC",
"5 c #659CD5",
"# c #B0BAB9",
"B c #457EBD",
"6 c #74AAD4",
"1 c #416A99",
"V c #5E8ABC",
"u c #74ADDE",
"> c #4B8FD5",
"+ c #999999",
"0 c #4B98E7",
"N c #395771",
"G c #5D95C5",
"9 c #AFBCC3",
"q c #6AA3DE",
"< c #4391CD",
"J c #AFBCCB",
"t c #7CA9CC",
"S c #9FB6CB",
"2 c #7F8CA3",
"H c #6692C4",
"x c #B8B9C2",
"i c #BECAD2",
"w c #A5BEDD",
"b c #6E9ABC",
"- c #617791",
"n c #C7D3DB",
"s c #5597D5",
": c #4E85B4",
"4 c #4B8DC5",
"% c #517AA1",
"$ c #778EA3",
"M c #4174A9",
"o c #90919A",
"C c #4B84C5",
"l c #9DC0DD",
"m c #6687A2",
"K c #B6C3D2",
"r c #AFC6D3",
"X c #98A2A1",
"A c #568DBC",
"z c #ACC5DC",
"O c #88939A",
"y c #4386C5",
"j c #AFBDD3",
"* c #497CB1",
"v c #4C83BC",
"h c #4586BD",
"e c #C7D1D0",
", c #4C98DE",
"f c #BECBDC",
"3 c #97ADBB",
"= c #41698F",
"& c #4175A1",
"F c #C7C8D1",
"D c #417EB1",
"@ c #B0B0B0",
"; c #97A4BB",
"p c #8DAFCB",
"  c None",
"d c #649DDE",
"Z c #6D9ACD",
"c c #9FB5C3",
"g c #76A3CC",
"k c #8CBADE",
"8 c #4387CD",
/* pixels */
"                    ",
"      .XoO+@        ",
"    #$%&**&=-X      ",
"   ;:>,,>>><<12     ",
"  34,,,56657<8*$    ",
" 970,qwe   rtyy*3   ",
" t0,ui       pyya   ",
"is0df         gyhj  ",
"j,,k          jyhp  ",
"l,,z        x#cvhb@@",
"flln        m1Mhh&NN",
"            pyyhhBBV",
"            rCyhhBBp",
"             ZhhBBAi",
"             ShhBDp ",
"             FGBBHe ",
"              pBvJ  ",
"              iVp   ",
"               K    ",
"                    "
};
