/* XPM */
static char *OP_REDO_xpm[] = {
/* columns rows colors chars-per-pixel */
"20 20 3 1",
"X c #4D4DA6",
"  c None",
". c #A6A6A6",
/* pixels */
"                    ",
"                    ",
"                    ",
"                    ",
"                    ",
"                    ",
"     .XXXX          ",
"    .X    XX   X    ",
"    X       X XX    ",
"    X        XXX    ",
"    X       XXXX    ",
"    .X     XXXXX    ",
"     X.             ",
"                    ",
"                    ",
"                    ",
"                    ",
"                    ",
"                    ",
"                    "
};
