/* XPM */
static char * OP_RENAME_xpm[] = {
"20 20 3 1",
" 	c None",
".	c #000000",
"+	c #FFFFFF",
"                    ",
"                    ",
"                    ",
"                    ",
"                    ",
"                    ",
" .................. ",
" .++++++++++++++++. ",
" .+.++++++++++++++. ",
" .+.++++++++++++++. ",
" .+.++++++++++++++. ",
" .+.++++++++++++++. ",
" .+.++++++++++++++. ",
" .++++++++++++++++. ",
" .................. ",
"                    ",
"                    ",
"                    ",
"                    ",
"                    "};
