/* XPM */
static char * OP_TRANSFORM_xpm[] = {
"20 20 4 1",
" 	c None",
".	c #000000",
"+	c #9F9F9F",
"@	c #151515",
"           .        ",
"    .     .+        ",
"   ...   .....      ",
"  .+.+.   .+ ...    ",
"    @      .   ..   ",
"                .   ",
"                ..  ",
"    .            .  ",
"    .          .+.+.",
". . . . . .     ... ",
"    .            .  ",
"    .     .         ",
"    .               ",
"    .     .     .   ",
"    .           +.  ",
"    .........  .... ",
"                +.  ",
"          .     .   ",
"                    ",
"          .         "};
