/* XPM */
static char *OP_UNDO_xpm[] = {
/* columns rows colors chars-per-pixel */
"20 20 64 1",
". c #C1C1C1",
"D c #5C9FDE",
"; c #617689",
"k c #5584B3",
"F c #95B7DD",
"7 c #5596CD",
"N c #97B7CB",
"y c #659CD5",
"e c #457EBD",
"3 c #416A99",
"Z c #5D89AB",
"m c #84B3DE",
"0 c #74ADDE",
"2 c #4B8FD5",
"+ c #999999",
"1 c #4B98E7",
"M c #AFBCC3",
"c c #7CA9CC",
"6 c #9FB6CB",
"5 c #C8C8C8",
"8 c #53A0E7",
"# c #B8B9C2",
"r c #6E859A",
"u c #A5BEDD",
"i c #C7D3DB",
"w c #5597D5",
"% c #517AA9",
"o c #90919A",
"q c #6DA5D5",
"p c #AFC6D3",
", c #568DBC",
"$ c #7F96AB",
"n c #B6C3DC",
"t c #BFC0C9",
"O c #88939A",
"v c #4386C5",
"B c #7F96B3",
"h c #8CB0D4",
"a c #7CAAD4",
": c #9899A2",
"< c #4C98DE",
"* c #4586BD",
"d c #879EAB",
"g c #BECBDC",
"b c #97ADBB",
"z c #62A6E6",
"- c #41698F",
"= c #4175A1",
"4 c #708692",
"S c #A7BFD3",
"& c #417EB1",
"@ c #B0B0B0",
"s c #4B8ECD",
"  c #ECEADC",
"9 c #64A6DE",
"x c #B6CDDC",
"l c #74ACE6",
"A c #396289",
"V c #5D94CD",
"X c #9FA0A9",
"C c #76A3CC",
"> c #9FACBB",
"f c #8CBADE",
"j c #4387CD",
/* pixels */
"                    ",
"        .XoO+@      ",
"      #$%&**=-;:    ",
"     >,<1<<<<22345  ",
"    67888900qw22er5 ",
"   ty880ui   passed ",
"   f880g       hsjk.",
"   l8zx         cvvb",
"  n88m          psvc",
"#MN11B@@5        VvC",
"Z=*1<=A-M        S6S",
"m11<<<<q            ",
"n8<<<<<h            ",
" m<<<<wn            ",
" nD<<2a             ",
"  F<22S             ",
"  iq2q              ",
"   pyS              ",
"    n               ",
"                    "
};
