/* XPM */
static char * OP_UNDO_xpm[] = {
"20 20 3 1",
" 	c None",
".	c #5F5FD0",
"+	c #8080C4",
"                    ",
"                    ",
"  .    +....+       ",
"  .+ +........+     ",
"  .......++.....    ",
"  .....+    +...+   ",
"  ....+       ...   ",
"  ....         ..+  ",
"  ......       ...  ",
"  .......      +..  ",
"               +..  ",
"               ...  ",
"              +..   ",
"              ...   ",
"               .    ",
"                    ",
"                    ",
"                    ",
"                    ",
"                    "};
