/* XPM */
static char * PIC_ORTHO_xpm[] = {
"25 25 3 1",
" 	c None",
".	c #000000",
"+	c #6AA3BE",
"                         ",
"                         ",
"                         ",
"                         ",
"                         ",
"                         ",
"      .............      ",
"      .+++++++++++.      ",
"      .+++++++++++.      ",
"      .+++++++++++.      ",
"      .+++++++++++.      ",
"      .+++++++++++.      ",
"      .+++++++++++.      ",
"      .+++++++++++.      ",
"      .+++++++++++.      ",
"      .+++++++++++.      ",
"      .+++++++++++.      ",
"      .+++++++++++.      ",
"      .............      ",
"                         ",
"                         ",
"                         ",
"                         ",
"                         ",
"                         "};
