/* XPM */
static char * PIC_RIGHT_xpm[] = {
"25 25 147 2",
"  	c None",
". 	c #D8D8D8",
"+ 	c #CECECE",
"@ 	c #DADADA",
"# 	c #BBBDBB",
"$ 	c #A4A4A4",
"% 	c #A0A0A0",
"& 	c #8B8B8B",
"* 	c #445258",
"= 	c #818D93",
"- 	c #C8C8C8",
"; 	c #B8B8B8",
"> 	c #8A8A8A",
", 	c #A3A3A3",
"' 	c #B7B7B7",
") 	c #D6D6D6",
"! 	c #EFEFEF",
"~ 	c #F8F8F8",
"{ 	c #D3D3D3",
"] 	c #567482",
"^ 	c #6094AC",
"/ 	c #5B7583",
"( 	c #8A9498",
"_ 	c #D2D2D4",
": 	c #767676",
"< 	c #444444",
"[ 	c #BFBFBF",
"} 	c #CDCDCD",
"| 	c #557483",
"1 	c #69A2BD",
"2 	c #5E8EA4",
"3 	c #607984",
"4 	c #92979A",
"5 	c #D7D9D9",
"6 	c #9E9E9E",
"7 	c #474747",
"8 	c #AFAFAF",
"9 	c #F7F7F7",
"0 	c #C9C9C9",
"a 	c #567584",
"b 	c #659AB3",
"c 	c #5B8497",
"d 	c #4B6977",
"e 	c #394B53",
"f 	c #293033",
"g 	c #6D6F6F",
"h 	c #A2A2A2",
"i 	c #D4D4D4",
"j 	c #B3B3B3",
"k 	c #4C4C4C",
"l 	c #9A9A9A",
"m 	c #F2F2F2",
"n 	c #D1D1D1",
"o 	c #8D8D8D",
"p 	c #333D43",
"q 	c #2F3A3F",
"r 	c #2F3C41",
"s 	c #3D525D",
"t 	c #4C6D7C",
"u 	c #5B8599",
"v 	c #778287",
"w 	c #ACACAC",
"x 	c #C2C2C2",
"y 	c #4F4F4F",
"z 	c #5F5F5F",
"A 	c #535353",
"B 	c #505050",
"C 	c #3E545E",
"D 	c #598295",
"E 	c #659AB5",
"F 	c #6295B0",
"G 	c #838B8F",
"H 	c #B6B6B6",
"I 	c #B4B4B4",
"J 	c #F6F6F6",
"K 	c #3B3B3B",
"L 	c #B2B2B2",
"M 	c #E2E2E2",
"N 	c #BEBEBE",
"O 	c #527686",
"P 	c #5D8DA3",
"Q 	c #8F9495",
"R 	c #C5C5C5",
"S 	c #F4F4F4",
"T 	c #484848",
"U 	c #E7E7E7",
"V 	c #E9E9E9",
"W 	c #979797",
"X 	c #557989",
"Y 	c #5A8294",
"Z 	c #9D9FA1",
"` 	c #BDBDBD",
" .	c #393939",
"..	c #757575",
"+.	c #4D4D4D",
"@.	c #5A6C76",
"#.	c #6195AD",
"$.	c #68A1BC",
"%.	c #517585",
"&.	c #E4E4E4",
"*.	c #878787",
"=.	c #6F6F6F",
"-.	c #454545",
";.	c #202020",
">.	c #838383",
",.	c #BCBCBC",
"'.	c #E5E5E5",
").	c #74848C",
"!.	c #5E8A9E",
"~.	c #527180",
"{.	c #5C5C5C",
"].	c #646464",
"^.	c #999999",
"/.	c #DEDEDE",
"(.	c #F0F0F0",
"_.	c #ECECEC",
":.	c #D7D7D7",
"<.	c #7E898E",
"[.	c #587D8E",
"}.	c #57717F",
"|.	c #B5B5B5",
"1.	c #9C9C9C",
"2.	c #D9D9D9",
"3.	c #E6E6E6",
"4.	c #E3E3E3",
"5.	c #8D9295",
"6.	c #587786",
"7.	c #5E747E",
"8.	c #E1E1E1",
"9.	c #D2D2D2",
"0.	c #EEEEEE",
"a.	c #EAEAEA",
"b.	c #CBCBCB",
"c.	c #616263",
"d.	c #6E7376",
"e.	c #AEAEAE",
"f.	c #EBEBEB",
"g.	c #E8E8E8",
"h.	c #929292",
"i.	c #8E8E8E",
"j.	c #A7A7A7",
"k.	c #848484",
"l.	c #353535",
"m.	c #C6C6C6",
"n.	c #989898",
"o.	c #464646",
"p.	c #7D7D7D",
"                                                  ",
"                                                  ",
"                                                  ",
"                                                  ",
"                          . +                     ",
"                @ # $ % % & * = -                 ",
"          ; > , , ' ) ! ~ { ] ^ / ( _             ",
"          : < [ ~ ~ ~ ~ ~ } | 1 1 2 3 4 5         ",
"          6 & 7 8 ~ ~ ~ 9 0 a b c d e f g         ",
"          h i j k l ~ m n o p q r s t u v         ",
"          w x ~ x y z A k B C D E 1 1 F G         ",
"          H I ~ J I K L M N O 1 1 1 1 P Q         ",
"          R w 9 S - T U V W X 1 1 1 1 Y Z         ",
"          ) h J S `  ...B +.@.#.$.1 1 %.w         ",
"          &.*., =.-.;.>.,.'.0 ).!.1 1 ~.;         ",
"            {.].^.8 < /.(.! _.:.<.[.1 }.x         ",
"            |.1.S /.< 2.(._.3.4./.5.6.7.          ",
"              h $ 8.-.9.0.a.&.8.8.b.c.d.          ",
"                1.e.< + f.g.M e.h.i.j.            ",
"                4.k.l.m.} ^.i.n.                  ",
"                    o.p.W '                       ",
"                                                  ",
"                                                  ",
"                                                  ",
"                                                  "};
