/* XPM */
static char *PIC_FRONT_xpm[] = {
/* columns rows colors chars-per-pixel */
"25 25 164 2",
">. c #649BB4",
" . c #A4A4A4",
"9. c #878787",
"_  c #5A676C",
"S. c #D1D9DD",
"u. c #4A5E68",
"r  c #F1F1F1",
"B  c #D4D4D4",
"H. c #C4D4DC",
"i  c #B7B7B7",
"@. c #4D6E7D",
"O  c #9A9A9A",
"k. c #506066",
"G. c #C7CCCF",
"%. c #6AA3BE",
"-  c #CACACA",
"j. c #ADADAD",
"<. c #909090",
"4. c #DDDDDD",
"b  c #A3A3A3",
"^  c #4C4C4C",
"C  c #F0F0F0",
">  c #D3D3D3",
"n  c #B6B6B6",
"R  c #999999",
"[  c #69A2BD",
"n. c #425158",
"|  c #C9C9C9",
"X  c #ACACAC",
"]  c #5F92A9",
"6. c #455B65",
":  c #DCDCDC",
"q. c #384D56",
"G  c #BFBFBF",
"A  c #A2A2A2",
"U  c #4B4B4B",
"M  c #EFEFEF",
"v. c #D2D2D2",
"+. c #4B6069",
"J. c #E2E4E4",
"$  c #B5B5B5",
"+  c #989898",
"I. c #E5E5E5",
"k  c #C8C8C8",
",  c #BBBDBB",
"O. c #616B6F",
"B. c #D8DADC",
"W  c #44545A",
"M. c #9BBDCD",
"7. c #ABC6D3",
"4  c #F8F8F8",
"D. c #DBDBDB",
"{  c #7EAFC6",
"o  c #A1A1A1",
"b. c #848484",
"H  c #EEEEEE",
"V  c #D1D1D1",
"7  c #979797",
",. c #94BACC",
"w. c #B4C9D4",
"5  c #E4E4E4",
":. c #40555E",
"S  c #C7C7C7",
"-. c #8D8D8D",
"o. c #606162",
"#. c #5D8A9F",
"y  c #F7F7F7",
"d  c #DADADA",
"5. c #BDBDBD",
"Z. c #8DB7CB",
"'  c #537787",
"g  c #A0A0A0",
"N. c #BDCFD7",
"N  c #494949",
"F. c #EDEDED",
"3. c #A0C1D0",
"A. c #B0CAD6",
"/  c #D0D0D0",
"V. c #59676D",
"w  c #B3B3B3",
"r. c #5C5C5C",
"K  c #E3E3E3",
"T  c #C6C6C6",
"m. c #79ACC3",
")  c #323436",
"(  c #8C8C8C",
"0. c #6F6F6F",
"&. c #89B5C9",
";. c #F6F6F6",
"l. c #6CA4BE",
"=. c #D9D9D9",
".  c #BCBCBC",
"&  c #9F9F9F",
"2. c #455C67",
"P  c #484848",
"Z  c #ECECEC",
"e  c #CFCFCF",
"6  c #B2B2B2",
"Q  c #758F9B",
"z  c #959595",
"!  c #DFE4E7",
"Y  c #E2E2E2",
"p  c #A8A8A8",
"h  c #8B8B8B",
"3  c #F5F5F5",
";  c #D8D8D8",
"8  c #9E9E9E",
"t. c #646464",
"t  c #CECECE",
"d. c #B1B1B1",
"<  c #949494",
"*. c #E1E1E1",
"}  c #E1E4E5",
"1. c #C4C4C4",
"~  c #A7A7A7",
"c. c #C7D1D5",
"x. c #A7C2CF",
"9  c #F4F4F4",
"8. c #D7D7D7",
"a  c #BABABA",
"@  c #9D9D9D",
"J  c #EAEAEA",
"2  c #CDCDCD",
"i. c #BDCDD5",
"=  c #B0B0B0",
"L  c #939393",
"`  c #49626D",
"K. c #E0E0E0",
"#  c #A6A6A6",
"v  c #898989",
"z. c #86B2C6",
"   c #ECEADC",
"X. c #4F4F4F",
"s  c #F3F3F3",
"$. c #69A1BB",
"m  c #D6D6D6",
"x  c #B9B9B9",
"1  c #9C9C9C",
"h. c #C9D1D5",
"u  c #E9E9E9",
"L. c #CCCCCC",
"E  c #72777A",
"C. c #6FA6BF",
"y. c #AFAFAF",
"*  c #929292",
"D  c #757575",
"j  c #3B3B3B",
"0  c #DFDFDF",
".. c #C2C2C2",
"f  c #A5A5A5",
"s. c #C2CED4",
"c  c #F2F2F2",
"p. c #4E6068",
"e. c #D5D5D5",
"%  c #B8B8B8",
"q  c #9B9B9B",
"f. c #516169",
"F  c #444444",
"P. c #E8E8E8",
"a. c #6EA5BE",
"I  c #AEAEAE",
"U. c #919191",
"g. c #7EAEC4",
"l  c #DEDEDE",
/* pixels */
"                . X o O + + @ # $                 ",
"            % & * = - ; : : > , o < X             ",
"          # 1 2 3 4 4 4 4 4 4 4 4 5 6 7 %         ",
"        8 . 9 4 4 4 4 4 4 4 4 4 4 4 4 0 q w       ",
"      & e 4 4 4 4 4 4 4 r ; t 4 4 4 4 y u 8 i     ",
"    p a 4 4 4 s d , f & g h j @ k y y 3 r l z     ",
"  x + c 4 % v b b n m M 4 > N B b g V 9 C Z . A   ",
"  A S 4 4 D F G 4 4 4 4 4 t N H y m g O m J K * . ",
"  L C 4 4 8 h P I 4 4 4 y k U Y T R E W Q ! 5 = ~ ",
"6 ~ 4 4 4 A B 6 ^ O 4 c / ( ) _ ` ' ] [ { } K | 7 ",
" ...4 4 4 X ..4 ..X.o.O.+.@.#.$.[ %.%.[ &.5 *.=.-.",
"& 2 4 4 4 i $ 4 ;.$ :.>.%.%.[ %.[ %.[ [ ,.Y 0 d <.",
"1 > 4 4 4 1.X y 9 k 2.%.%.%.%.%.%.[ [ [ 3.*.4.=.L ",
"@ V 4 4 4 m o ;.9 5.6.%.%.[ %.%.%.[ %.[ 7.l d 8.L ",
"A k 4 4 4 5 9.b 0.F q.%.%.[ [ [ %.[ %.[ w.: ; e.( ",
"I I 4 4 4 c r.t.R y.u.%.%.%.[ [ [ [ [ [ i.=.m 1.< ",
", < y 4 4 4 $ 1 9 l p.%.%.%.[ [ [ [ [ a.s.e.> d.A ",
"  q B 4 4 4 y o  .*.f.%.%.[ [ [ [ [ [ g.h.B V z % ",
"  w A 4 4 4 y 9 1 j.k.[ %.[ [ %.l.z.x.c.e.v.a O   ",
"    g 2 4 y ;.9 K b.n.%.[ [ m.M.N.B.=.m v.2 < x   ",
"    . R K 9 c C H | V.C.Z.A.S.l D.=.e.> / o j.    ",
"      x + m M F.u u G.H.J.K.l D.; m > L.o ~       ",
"        . R y.K.P.I.K *.0 4.=.8.e.V % z I         ",
"            X L # ..e.l 4.d v...X L @ x           ",
"                I & U.h -.h ( + f x               "
};
