/* XPM */
static char * PIC_FRONT_xpm[] = {
"25 25 113 2",
"  	c None",
". 	c #D8D8D8",
"+ 	c #CECECE",
"@ 	c #DADADA",
"# 	c #BBBDBB",
"$ 	c #A5A5A5",
"% 	c #9F9F9F",
"& 	c #A0A0A0",
"* 	c #8B8B8B",
"= 	c #3B3B3B",
"- 	c #9D9D9D",
"; 	c #C8C8C8",
"> 	c #B8B8B8",
", 	c #898989",
"' 	c #A3A3A3",
") 	c #B6B6B6",
"! 	c #D6D6D6",
"~ 	c #EFEFEF",
"{ 	c #F8F8F8",
"] 	c #D3D3D3",
"^ 	c #494949",
"/ 	c #D4D4D4",
"( 	c #D1D1D1",
"_ 	c #757575",
": 	c #444444",
"< 	c #BFBFBF",
"[ 	c #EEEEEE",
"} 	c #F7F7F7",
"| 	c #9A9A9A",
"1 	c #9E9E9E",
"2 	c #484848",
"3 	c #AEAEAE",
"4 	c #4B4B4B",
"5 	c #E2E2E2",
"6 	c #C6C6C6",
"7 	c #999999",
"8 	c #72777A",
"9 	c #44545A",
"0 	c #758F9B",
"a 	c #A2A2A2",
"b 	c #B2B2B2",
"c 	c #4C4C4C",
"d 	c #F2F2F2",
"e 	c #D0D0D0",
"f 	c #8C8C8C",
"g 	c #323436",
"h 	c #5A676C",
"i 	c #49626D",
"j 	c #537787",
"k 	c #5F92A9",
"l 	c #69A2BD",
"m 	c #7EAFC6",
"n 	c #ACACAC",
"o 	c #C2C2C2",
"p 	c #4F4F4F",
"q 	c #606162",
"r 	c #616B6F",
"s 	c #4B6069",
"t 	c #4D6E7D",
"u 	c #5D8A9F",
"v 	c #69A1BB",
"w 	c #6AA3BE",
"x 	c #89B5C9",
"y 	c #B7B7B7",
"z 	c #B5B5B5",
"A 	c #F6F6F6",
"B 	c #40555E",
"C 	c #649BB4",
"D 	c #94BACC",
"E 	c #C4C4C4",
"F 	c #F4F4F4",
"G 	c #455C67",
"H 	c #A0C1D0",
"I 	c #A1A1A1",
"J 	c #BDBDBD",
"K 	c #455B65",
"L 	c #ABC6D3",
"M 	c #E4E4E4",
"N 	c #878787",
"O 	c #6F6F6F",
"P 	c #384D56",
"Q 	c #B4C9D4",
"R 	c #5C5C5C",
"S 	c #646464",
"T 	c #AFAFAF",
"U 	c #4A5E68",
"V 	c #BDCDD5",
"W 	c #9C9C9C",
"X 	c #DEDEDE",
"Y 	c #4E6068",
"Z 	c #6EA5BE",
"` 	c #C2CED4",
" .	c #A4A4A4",
"..	c #E1E1E1",
"+.	c #516169",
"@.	c #7EAEC4",
"#.	c #ADADAD",
"$.	c #506066",
"%.	c #6CA4BE",
"&.	c #86B2C6",
"*.	c #A7C2CF",
"=.	c #E3E3E3",
"-.	c #848484",
";.	c #425158",
">.	c #79ACC3",
",.	c #9BBDCD",
"'.	c #BDCFD7",
").	c #C9C9C9",
"!.	c #59676D",
"~.	c #6FA6BF",
"{.	c #8DB7CB",
"].	c #B0CAD6",
"^.	c #C4D4DC",
"                                                  ",
"                                                  ",
"                                                  ",
"                                                  ",
"                          . +                     ",
"                @ # $ % & * = - ;                 ",
"          > , ' ' ) ! ~ { ] ^ / ' & (             ",
"          _ : < { { { { { + ^ [ } ! & | !         ",
"          1 * 2 3 { { { } ; 4 5 6 7 8 9 0         ",
"          a / b c | { d e f g h i j k l m         ",
"          n o { o p q r s t u v l w w l x         ",
"          y z { A z B C w w l w l w l l D         ",
"          E n } F ; G w w w w w w l l l H         ",
"          ! I A F J K w w l w w w l w l L         ",
"          M N ' O : P w w l l l w l w l Q         ",
"            R S 7 T U w w w l l l l l l V         ",
"            z W F X Y w w w l l l l l Z `         ",
"              I  ...+.w w l l l l l l @.          ",
"                W #.$.l w l l w %.&.*.            ",
"                =.-.;.w l l >.,.'.                ",
"                  ).!.~.{.].                      ",
"                      ^.                          ",
"                                                  ",
"                                                  ",
"                                                  "};
