/* XPM */
static char *PIC_BOTTOM_xpm[] = {
/* columns rows colors chars-per-pixel */
"25 25 190 2",
"=  c #CACACA",
"o. c #D9D9D9",
"E  c #E8E8E8",
"y  c #F7F7F7",
"#. c #3C3C3C",
"!  c #4B4B4B",
"l. c #AAAFB2",
"5. c #878787",
"g. c #3D525B",
"f  c #A5A5A5",
"$  c #B4B4B4",
"[  c #C3C3C3",
"(. c #60747E",
"R. c #D2D2D2",
"I  c #E1E1E1",
"u. c #384850",
"V  c #F0F0F0",
"S  c #444444",
"L. c #69A1BB",
"R  c #717171",
"8  c #9E9E9E",
" X c #ADADAD",
".  c #BCBCBC",
"/. c #4D6E7D",
"d  c #DADADA",
"D. c #EEF0F2",
"u  c #E9E9E9",
"M. c #92999C",
"4  c #F8F8F8",
"I. c #526F7C",
"U. c #6D7D83",
"P  c #4C4C4C",
"^. c #5D90A7",
"+  c #979797",
"0. c #5A8094",
"   c None",
"<  c #A6A6A6",
"]. c #3B4041",
"@. c #B5B5B5",
"X. c #C4C4C4",
">  c #D3D3D3",
"$. c #E2E2E2",
"~. c #5D8A9F",
"r  c #F1F1F1",
"h. c #545454",
"F. c #7A8990",
"x. c #6094AC",
"*. c #909090",
"w  c #9F9F9F",
"t. c #AEAEAE",
"z  c #BDBDBD",
"E. c #CCCCCC",
"8. c #1B1C1D",
"&. c #DBDBDB",
"K  c #EAEAEA",
"z. c #4E6C7A",
"V. c #283438",
"T  c #3E3E3E",
"(  c #4D4D4D",
"'. c #C0C4C6",
"T. c #CACFD2",
"j. c #BBBDBB",
"U  c #989898",
"#  c #A7A7A7",
"_  c #C5C5C5",
"J. c #5E8EA4",
"M  c #D4D4D4",
"5  c #E3E3E3",
"x  c #F2F2F2",
"}. c #A5ADB1",
"m. c #646464",
"+X c #919191",
"Z. c #6195AD",
"|. c #D7DBDD",
"o  c #A0A0A0",
"*  c #AFAFAF",
"%. c #BEBEBE",
"A. c #384A52",
"2  c #CDCDCD",
":  c #DCDCDC",
"n. c #444646",
";. c #EBEBEB",
",. c #4E4E4E",
"9. c #455F6B",
"r. c #6C6C6C",
"XX c #C6CCD0",
"c  c #8A8A8A",
"p. c #527788",
"W. c #DADFE2",
"O  c #999999",
"p  c #A8A8A8",
"i  c #B7B7B7",
"C. c #5F8FA5",
"n  c #D5D5D5",
"W  c #E4E4E4",
"s  c #F3F3F3",
"_. c #BAC1C6",
"L  c #929292",
"f. c #6296AE",
",  c #A1A1A1",
"[. c #4D616B",
"D  c #BFBFBF",
"t  c #CECECE",
";  c #DDDDDD",
"C  c #ECECEC",
".X c #BDC5C7",
")  c #4F4F4F",
"g  c #8B8B8B",
"q. c #659AB5",
"c. c #6093AA",
"q  c #9A9A9A",
"`. c #DBDDDD",
"%  c #B8B8B8",
"Z  c #C7C7C7",
"). c #848D92",
"J  c #D6D6D6",
"OX c #E5E5E5",
"Y. c #98A0A4",
"/  c #2A2A2A",
"9  c #F4F4F4",
":. c #393939",
"N  c #484848",
"Q. c #5F6E75",
"H. c #283338",
"A  c #757575",
"2. c #848484",
"1. c #2D3437",
"&  c #939393",
"s. c #6397AF",
"v  c #A2A2A2",
"G. c #517587",
"Q  c #B1B1B1",
"e  c #CFCFCF",
"k  c #DEDEDE",
"G  c #EDEDED",
"b. c #476471",
"w. c #5E8A9E",
".. c #414141",
" . c #505050",
"}  c #5F5F5F",
"<. c #353F43",
"!. c #21292D",
"^  c #8C8C8C",
"1  c #9B9B9B",
"7  c #B9B9B9",
"B. c #6194AF",
"H  c #D7D7D7",
"`  c #E6E6E6",
"7. c #3F4143",
"3  c #F5F5F5",
"d. c #69A2BD",
">. c #767676",
"k. c #949494",
"b  c #A3A3A3",
"6  c #B2B2B2",
"]  c #C1C1C1",
"~  c #D0D0D0",
"0  c #DFDFDF",
"3. c #EEEEEE",
"S. c #606364",
"{. c #77868D",
"6. c #6F6F6F",
"O. c #8D8D8D",
"=. c #9C9C9C",
"4. c #ABABAB",
"a  c #BABABA",
"j  c #C9C9C9",
"-  c #D8D8D8",
"e. c #34434A",
"-. c #E7E7E7",
"i. c #4B6977",
"+. c #F6F6F6",
"h  c #3B3B3B",
"F  c #4A4A4A",
"K. c #6AA3BE",
"Y  c #686868",
"P. c #587E90",
"l  c #959595",
"'  c #A4A4A4",
"{  c #C2C2C2",
"B  c #D1D1D1",
"oX c #E0E0E0",
"m  c #EFEFEF",
"y. c #575959",
"|  c #525252",
"v. c #68A0BA",
"a. c #283238",
"N. c #4C7080",
"@  c #9D9D9D",
"X  c #ACACAC",
/* pixels */
"                . X o O + O @ # $                 ",
"            % o & * = - ; : > . , & X             ",
"          < 1 2 3 4 4 4 4 4 4 4 4 5 6 + 7         ",
"        8 . 9 4 4 4 4 4 4 4 4 4 4 4 4 0 q $       ",
"      w e 4 4 4 4 4 4 4 r - t 4 4 4 4 y u 8 i     ",
"    p a 4 4 4 s d a f o o g h @ j y y 3 r k l z   ",
"  a O x 4 i c v b i n m 4 M N M b o B 9 V C . v   ",
"  v Z 4 4 A S D 4 4 4 4 4 t F G y H o q J K 5 L . ",
"  L V 4 4 8 g N * 4 4 4 y j P I Z U Y T R E W Q # ",
"6 # 4 4 4 v > 6 ! q 4 x ~ ^ / ( ) A v _ L ` 5 j + ",
"' ] 4 4 4 X [ 4 { ) } | P  ...X.K 9 r k l W I o.O.",
"w 2 4 4 4 i $ 4 +.@.#.6 $.%. .+.3 r G = O $.0 &.*.",
"=.> 4 4 4 _ X y 9 Z N -.E +  .x r m ;.% , I ; o.L ",
"8 B 4 4 4 n , +.9 z :.>.,.<.1.2.K 3.;.b 4.k d H & ",
"v Z 4 4 4 5 5.b 6.7.8.9.0.q.w.e.r.H -.O % : - n O.",
"t.t.4 4 4 s y.u.i.p.a.s.d.d.d.f.g.h.j.k.{ o.J X.k.",
"j.l y 4 4 4 l.z.d.x.a.c.d.d.d.d.v.b.n.m.~ J > Q v ",
"  =.M 4 4 4 y M.N.B.V.C.d.d.d.d.d.Z.A.S.J M B k.% ",
"  6 b 4 4 4 y D.F.G.H.J.K.d.L.P.I.U.Y.T.n R.a q   ",
"    o E.4 y +.9 W.Q.!.~.^./.(.)._.`.o.n R.2 k.7   ",
"    . O 5 9 x V 3.'.].[.{.}.|.; &.o.n > ~ v  X    ",
"      7 O J m G K u .XXX5 oXk &.H J > E., #       ",
"        . U t.oXE OX5 oX0 ; d - n B i l  X        ",
"            4.& f ] J k ; d > { 4.& 8 a           ",
"                * w +Xg O.g O.O f a               "
};
