/* XPM */
static char * PIC_BACK_xpm[] = {
"25 25 165 2",
"  	c None",
". 	c #E3EBEF",
"+ 	c #C6CED2",
"@ 	c #C9CCCD",
"# 	c #E5EDF1",
"$ 	c #C9D1D5",
"% 	c #A9B1B5",
"& 	c #88949A",
"* 	c #72848E",
"= 	c #5F7783",
"- 	c #48616E",
"; 	c #363838",
"> 	c #9D9D9D",
", 	c #C8C8C8",
"' 	c #A0A9AE",
") 	c #6C787C",
"! 	c #607986",
"~ 	c #506F7E",
"{ 	c #567A8C",
"] 	c #5F8FA5",
"^ 	c #689FB8",
"/ 	c #6BA4BF",
"( 	c #5E8CA2",
"_ 	c #424344",
": 	c #D5D5D5",
"< 	c #A3A3A3",
"[ 	c #A0A0A0",
"} 	c #D1D1D1",
"| 	c #62696C",
"1 	c #2A3438",
"2 	c #5B8193",
"3 	c #6AA3BE",
"4 	c #5E8A9E",
"5 	c #454747",
"6 	c #EDEDED",
"7 	c #F7F7F7",
"8 	c #D6D6D6",
"9 	c #9A9A9A",
"0 	c #7A8990",
"a 	c #435E6B",
"b 	c #2B363B",
"c 	c #537787",
"d 	c #5D879B",
"e 	c #484A4A",
"f 	c #E2E2E2",
"g 	c #C6C6C6",
"h 	c #999999",
"i 	c #686868",
"j 	c #3D3D3D",
"k 	c #717171",
"l 	c #889398",
"m 	c #5D8DA3",
"n 	c #517587",
"o 	c #2C373C",
"p 	c #4B6977",
"q 	c #68A0BA",
"r 	c #5E8BA0",
"s 	c #47626F",
"t 	c #292929",
"u 	c #4D4D4D",
"v 	c #4F4F4F",
"w 	c #757575",
"x 	c #A2A2A2",
"y 	c #929292",
"z 	c #99A1A5",
"A 	c #588194",
"B 	c #2D393F",
"C 	c #35454D",
"D 	c #323E44",
"E 	c #2F3A3F",
"F 	c #303B42",
"G 	c #424242",
"H 	c #C4C4C4",
"I 	c #EBEBEB",
"J 	c #F5F5F5",
"K 	c #F1F1F1",
"L 	c #DEDEDE",
"M 	c #959595",
"N 	c #A7ADB1",
"O 	c #527788",
"P 	c #54798C",
"Q 	c #252D31",
"R 	c #54788A",
"S 	c #6498B0",
"T 	c #588092",
"U 	c #515151",
"V 	c #F6F6F6",
"W 	c #CACACA",
"X 	c #989898",
"Y 	c #B6BCC0",
"Z 	c #4E7282",
"` 	c #5C889C",
" .	c #2A373C",
"..	c #669DB6",
"+.	c #679EB7",
"@.	c #F2F2F2",
"#.	c #EFEFEF",
"$.	c #B8B8B8",
"%.	c #A1A1A1",
"&.	c #C9CED1",
"*.	c #4E6C7C",
"=.	c #242C30",
"-.	c #3F555F",
";.	c #364146",
">.	c #4A4A4A",
",.	c #3F3F3F",
"'.	c #848484",
").	c #EAEAEA",
"!.	c #EEEEEE",
"~.	c #ABABAB",
"{.	c #D6DDE0",
"].	c #48616C",
"^.	c #4F707F",
"/.	c #3C505A",
"(.	c #33393D",
"_.	c #202020",
":.	c #838383",
"<.	c #BDBDBD",
"[.	c #E5E5E5",
"}.	c #C9C9C9",
"|.	c #595959",
"1.	c #6D6D6D",
"2.	c #D7D7D7",
"3.	c #E7E7E7",
"4.	c #535759",
"5.	c #646464",
"6.	c #AFAFAF",
"7.	c #434343",
"8.	c #F0F0F0",
"9.	c #ECECEC",
"0.	c #545454",
"a.	c #BBBDBB",
"b.	c #949494",
"c.	c #C2C2C2",
"d.	c #B5B5B5",
"e.	c #9B9B9B",
"f.	c #F4F4F4",
"g.	c #444444",
"h.	c #D9D9D9",
"i.	c #E6E6E6",
"j.	c #E3E3E3",
"k.	c #DDDDDD",
"l.	c #494949",
"m.	c #A4A4A4",
"n.	c #E1E1E1",
"o.	c #454545",
"p.	c #D2D2D2",
"q.	c #E4E4E4",
"r.	c #CBCBCB",
"s.	c #5F5F5F",
"t.	c #666666",
"u.	c #9C9C9C",
"v.	c #AEAEAE",
"w.	c #CECECE",
"x.	c #E8E8E8",
"y.	c #ADADAD",
"z.	c #8E8E8E",
"A.	c #A7A7A7",
"B.	c #353535",
"C.	c #CDCDCD",
"D.	c #8F8F8F",
"E.	c #464646",
"F.	c #7D7D7D",
"G.	c #979797",
"H.	c #B6B6B6",
"                                                  ",
"                                                  ",
"                                                  ",
"                                                  ",
"                        . + @                     ",
"              # $ % & * = - ; > ,                 ",
"          ' ) ! ~ { ] ^ / ( _ : < [ }             ",
"          | 1 2 / / / / 3 4 5 6 7 8 [ 9 8         ",
"          0 a b c / / 3 3 d e f g h i j k         ",
"          l m n o p / q r s t u v w x g y         ",
"          z A / A B C D E F G H I J K L M         ",
"          N O / 3 P Q R S T U V J K 6 W X         ",
"          Y Z / 3 `  ...+.p v @.K #.I $.%.        ",
"          &.*./ 3 A =.-.;.>.,.'.).!.I < ~.        ",
"          {.].^./.(._.:.<.[.}.|.1.2.3.9 $.        ",
"            4.5.h 6.7.L 8.#.9.2.1.0.a.b.c.        ",
"            d.e.f.L g.h.8.9.i.j.k.'.l.5.          ",
"              x m.n.o.p.!.).q.n.n.r.s.t.          ",
"                u.v.o.w.I x.f y.y z.A.            ",
"                q.'.B.g C.h D.X                   ",
"                  }.E.F.G.H.                      ",
"                                                  ",
"                                                  ",
"                                                  ",
"                                                  "};
