/* XPM */
static char *PIC_LEFT_xpm[] = {
/* columns rows colors chars-per-pixel */
"25 25 173 2",
";  c #CACACA",
"q. c #D9D9D9",
"~  c #E8E8E8",
"y  c #F7F7F7",
"N. c #C6DCE6",
"h. c #5A5A5A",
"'  c #9B9D9F",
"Q. c #CDD1D3",
"x  c #969696",
"+. c #A5A5A5",
"%  c #B4B4B4",
"D. c #D2D2D2",
"R  c #E1E1E1",
"S  c #5B6D75",
"K. c #9FC3D3",
"V  c #F0F0F0",
"&. c #535353",
"!  c #717171",
"T. c #8F8F8F",
"i  c #9E9E9E",
"A. c #B3D0DD",
"X  c #ADADAD",
".  c #BCBCBC",
"F. c #CBCBCB",
"r. c #4F626B",
"f  c #DADADA",
"u  c #E9E9E9",
"6  c #F8F8F8",
"T  c #4C4C4C",
"Y. c #4D6875",
"+  c #979797",
"V. c #526974",
"   c None",
"/  c #A6A6A6",
"-. c #C4C4C4",
"<  c #D3D3D3",
"3. c #E2E2E2",
"t  c #F1F1F1",
"J. c #F1F1F5",
"m. c #545454",
"e. c #6FA6BF",
"S. c #506974",
"8. c #909090",
"*  c #9F9F9F",
"I  c #5A717C",
"x. c #AEAEAE",
"g. c #BDBDBD",
"4  c #CCCCCC",
"s. c #74A7C2",
"7. c #DBDBDB",
"J  c #EAEAEA",
"Q  c #3E3E3E",
"A  c #8FAFBD",
"|  c #4D4D4D",
"v  c #898989",
"P  c #6398B1",
"0  c #BBBDBB",
"B. c #72A7C0",
"@  c #989898",
"$  c #A7A7A7",
"E. c #5D727B",
"p  c #B6B6B6",
"X. c #C5C5C5",
"N  c #D4D4D4",
"K  c #E3E3E3",
"0. c #5D6F77",
"]  c #F2F2F2",
"v. c #86B4CA",
"C. c #646464",
"c. c #EBF4F9",
"^. c #919191",
"1  c #A0A0A0",
"U  c #AFAFAF",
"4. c #BEBEBE",
"F  c #CDCDCD",
",  c #DCDCDC",
";. c #EBEBEB",
"y. c #3F3F3F",
" . c #4E4E4E",
"j. c #6C6C6C",
"O  c #999999",
"a  c #A8A8A8",
"&  c #B7B7B7",
"R. c #CEDDE4",
"E  c #C6C6C6",
"z. c #D5D5D5",
"7  c #E4E4E4",
"d  c #F3F3F3",
"2. c #4F5E65",
"f. c #838383",
"o. c #929292",
"o  c #A1A1A1",
"-  c #B0B0B0",
"D  c #BFBFBF",
"r  c #CECECE",
">  c #DDDDDD",
"C  c #ECECEC",
"<. c #C5DCE7",
"c  c #B8BEC2",
"`  c #556F7B",
"n. c #6D6D6D",
"h  c #8B8B8B",
"e  c #9A9A9A",
"9  c #B8B8B8",
"#. c #B9D4E1",
"p. c #C7C7C7",
"n  c #D6D6D6",
"O. c #E5E5E5",
"}  c #2A2A2A",
"q  c #F4F4F4",
"M  c #484848",
"1. c #68A1BC",
"H. c #666666",
".. c #757575",
"u. c #848484",
"=  c #939393",
"Z  c #A2A2A2",
"^  c #B1B1B1",
"Z. c #CFCFCF",
"z  c #DEDEDE",
"a. c #E1EEF3",
"6. c #EDEDED",
"=. c #414141",
"*. c #505050",
"L  c #A6C8D8",
"G. c #5F5F5F",
"W. c #7D7D7D",
"{  c #8C8C8C",
"9. c #D0E2EC",
"l. c #B9B9B9",
"k  c #C8C8C8",
"i. c #D7D7D7",
"k. c #E6E6E6",
"5  c #F5F5F5",
")  c #69A2BD",
"t. c #767676",
"(  c #AECDDC",
"M. c #949494",
"b  c #A3A3A3",
"8  c #B2B2B2",
"~. c #C1C1C1",
"[  c #D0D0D0",
"w  c #DFDFDF",
"H  c #EEEEEE",
"5. c #515151",
"_  c #679FB9",
"U. c #8CB8CC",
"I. c #E2E9EE",
",. c #8D8D8D",
"3  c #9C9C9C",
"d. c #435861",
"!. c #ABABAB",
"s  c #BABABA",
"Y  c #C9C9C9",
":  c #D8D8D8",
"l  c #F6F6F6",
"j  c #3B3B3B",
"$. c #506D7C",
"G  c #4A4A4A",
"%. c #636465",
"L. c #506A76",
"W  c #686868",
":. c #959595",
"b. c #556B75",
"g  c #A4A4A4",
"@. c #C2C2C2",
"w. c #D9E8EF",
"B  c #D1D1D1",
">. c #E0E0E0",
"m  c #EFEFEF",
"P. c #8E8E8E",
"#  c #9D9D9D",
"2  c #ACACAC",
/* pixels */
"                . X o O + @ # $ %                 ",
"            & * = - ; : > , < . 1 = 2             ",
"          $ 3 4 5 6 6 6 6 6 6 6 6 7 8 + 9         ",
"        # 0 q 6 6 6 6 6 6 6 6 6 6 6 6 w e %       ",
"      * r 6 6 6 6 6 6 6 t : r 6 6 6 6 y u i p     ",
"    a s 6 6 6 d f 0 g 1 * h j # k l y 5 t z x     ",
"  s O t 6 c v b b & n m 6 < M N b 1 B q V C . Z   ",
"  Z k 6 6 A S D 6 6 6 6 6 F G H y n 1 e n J K = . ",
"  = V 6 6 L P I U 6 6 6 y Y T R E @ W Q ! ~ 7 ^ $ ",
"8 / 6 6 6 ( ) _ ` ' 6 ] [ { } |  ...Z X.o.O.K Y @ ",
"+.@.6 6 6 #.) ) ) $.%.&.| *.=.-.;.q t z :.7 >.: ,.",
"1 F 6 6 6 <.) 1.1.1.2.8 3.4.5.l 5 t 6.; @ 3.w 7.8.",
"3 < 6 6 6 9.) ) ) ) 0.~ ~ @ *.] t m ;.9 o R > q.= ",
"i B 6 6 6 w.e.1.1.1.r.t.5.| y.u.J H ;.b 2 z f i.= ",
"o p.6 6 6 a.s.1.1.) d.f.g.7 Y h.j.i.k.O l., : z.{ ",
"x.x.6 6 6 c.v.) ) ) b.z V m C i.n.m.0 = @.q.n X.M.",
"0 M.y 6 6 6 N.B.) 1.V.q.V C k.K z f.M C.Z.z.< - Z ",
"  3 N 6 6 6 y A.) 1.S.D.H J 7 R R F.G.H.n N [ :.& ",
"  8 Z 6 6 6 y J.K.1.L.r ;.~ 3.x.o.P.$ N z.D.l.e   ",
"    1 4 6 y l q I.U.Y.E F O T.@ Y , q.n D.F M.l.  ",
"      O 3.q ] V H R.E.W.+ & w z 7.q.N < [ o X     ",
"      l.@ n m 6.J u Q.N K >.z 7.i.n < 4 1 $       ",
"        . O x.>.~ O.K R w > f : z.B 9 M.x.        ",
"            !.o./ @.n z > f < ~.2 = i s           ",
"                U * ^.h ,.h { @ / s               "
};
