/* XPM */
static char *PIC_RIGHT_xpm[] = {
/* columns rows colors chars-per-pixel */
"25 25 177 2",
"X. c #4C6D7C",
"-  c #CACACA",
",. c #D9D9D9",
")  c #E8E8E8",
"R. c #6E7376",
"W  c #567584",
"y  c #F7F7F7",
"=. c #598295",
"k. c #878787",
"7  c #969696",
".. c #3D525D",
"P  c #D7D9D9",
"w  c #B4B4B4",
"V  c #8A9498",
"I. c #D2D2D2",
"y. c #E1E1E1",
"C  c #D2D2D4",
"Z. c #F0F0F0",
"Q. c #353535",
"D  c #444444",
"%. c #535353",
"b. c #74848C",
"/  c #293033",
"9  c #9E9E9E",
"S. c #7E898E",
"L. c #5E747E",
"X  c #ADADAD",
".  c #BCBCBC",
"Y. c #CBCBCB",
"d  c #DADADA",
"u  c #E9E9E9",
"4  c #F8F8F8",
"]  c #4C4C4C",
"J. c #8D9295",
"+  c #979797",
"k  c #818D93",
"O. c #778287",
"e. c #557989",
"   c #ECEADC",
"1  c #A6A6A6",
"%  c #B5B5B5",
"G. c #C4C4C4",
"6. c #5D8DA3",
",  c #D3D3D3",
"3. c #E2E2E2",
"r  c #F1F1F1",
"z. c #454545",
"N  c #6094AC",
"D. c #587D8E",
"i  c #9F9F9F",
"B. c #AEAEAE",
"u. c #BDBDBD",
"~. c #CCCCCC",
"8. c #DBDBDB",
"x. c #202020",
"I  c #EAEAEA",
"K. c #587786",
"a. c #4D4D4D",
"V. c #5C5C5C",
"!  c #5B8497",
"t. c #9D9FA1",
"f  c #BBBDBB",
"x  c #989898",
"$  c #A7A7A7",
"<. c #B6B6B6",
"0. c #C5C5C5",
"J  c #5E8EA4",
"`  c #D4D4D4",
"U  c #E3E3E3",
"c  c #F2F2F2",
"M  c #567482",
"j  c #445258",
"^. c #464646",
"C. c #646464",
"K  c #607984",
"B  c #5B7583",
"9. c #919191",
"d. c #6195AD",
"o  c #A0A0A0",
"R  c #AFAFAF",
"4. c #BEBEBE",
"2  c #CDCDCD",
">  c #DCDCDC",
"Z  c #EBEBEB",
"7. c #8F9495",
"}  c #333D43",
"v  c #8A8A8A",
"@  c #999999",
"p  c #B7B7B7",
"!. c #C6C6C6",
"M. c #D5D5D5",
"5  c #E4E4E4",
"m. c #527180",
"s  c #F3F3F3",
"T  c #474747",
"r. c #5A8294",
"c. c #838383",
"Y  c #929292",
"j. c #A1A1A1",
"=  c #B0B0B0",
"F  c #BFBFBF",
"^  c #394B53",
"t  c #CECECE",
":  c #DDDDDD",
"A. c #ECECEC",
"#. c #4F4F4F",
"|  c #2F3A3F",
"h  c #8B8B8B",
"Q  c #659AB3",
"-. c #659AB5",
"O  c #9A9A9A",
"&  c #B8B8B8",
"n  c #D6D6D6",
"v. c #E5E5E5",
"0  c #F4F4F4",
"i. c #393939",
"q. c #484848",
"T. c #616263",
"f. c #68A1BC",
"p. c #757575",
"W. c #848484",
"*  c #939393",
"g. c #517585",
"A  c #A2A2A2",
"_  c #B1B1B1",
"e  c #CFCFCF",
"z  c #DEDEDE",
"). c #EDEDED",
"n. c #5E8A9E",
"&. c #505050",
"$. c #5F5F5F",
"/. c #7D7D7D",
"N. c #8C8C8C",
"P. c #9B9B9B",
"8  c #B9B9B9",
"l  c #C8C8C8",
"h. c #D7D7D7",
"+. c #E6E6E6",
"3  c #F5F5F5",
"H  c #69A2BD",
"S  c #767676",
"H. c #949494",
"5. c #527686",
"b  c #A3A3A3",
"6  c #B2B2B2",
"(. c #D0D0D0",
":. c #838B8F",
"q  c #DFDFDF",
"U. c #EEEEEE",
"L  c #92979A",
"l. c #6F6F6F",
"F. c #57717F",
"*. c #3E545E",
"{  c #8D8D8D",
"#  c #9C9C9C",
";. c #6295B0",
"a  c #BABABA",
"E  c #C9C9C9",
";  c #D8D8D8",
"w. c #E7E7E7",
"G  c #557483",
"~  c #4B6977",
"1. c #F6F6F6",
" . c #2F3C41",
"2. c #3B3B3B",
"(  c #6D6F6F",
"_. c #959595",
"g  c #A4A4A4",
"'  c #B3B3B3",
"@. c #C2C2C2",
"[  c #D1D1D1",
">. c #E0E0E0",
"s. c #5A6C76",
"m  c #EFEFEF",
"o. c #5B8599",
"E. c #8E8E8E",
"<  c #ACACAC",
/* pixels */
"                . X o O + @ # $ %                 ",
"            & o * = - ; : > , . o * <             ",
"          1 # 2 3 4 4 4 4 4 4 4 4 5 6 7 8         ",
"        9 . 0 4 4 4 4 4 4 4 4 4 4 4 4 q O w       ",
"      9 e 4 4 4 4 4 4 4 r ; t 4 4 4 4 y u i p     ",
"    $ a 4 4 4 s d f g o o h j k l y y 3 r z 7     ",
"  a x c 4 & v b b p n m 4 , M N B V C 0 m Z . A   ",
"  A l 4 4 S D F 4 4 4 4 4 2 G H H J K L P I U Y . ",
"  Y m 4 4 9 h T R 4 4 4 y E W Q ! ~ ^ / ( ) 5 _ $ ",
"6 1 4 4 4 A ` ' ] O 4 c [ { } |  ...X.o.O.+.U E x ",
"g @.4 4 4 < @.4 @.#.$.%.] &.*.=.-.H H ;.:.5 >.,.{ ",
"o 2 4 4 4 <.w 4 1.w 2.6 3.4.5.H H H H 6.7.3.q 8.9.",
"# , 4 4 4 0.< y 0 l q.w.u + e.H H H H r.t.y.: ,.* ",
"9 [ 4 4 4 n A 1.0 u.i.p.&.a.s.d.f.H H g.< z d h.* ",
"j.l 4 4 4 5 k.b l.z.x.c.. v.E b.n.H H m.& > ; M.N.",
"B.B.4 4 4 s V.C.@ R D z Z.m A.h.S.D.H F.@.,.n G.H.",
"f H.y 4 4 4 % # 0 z D ,.Z.A.+.U z J.K.L.e n , _ A ",
"  P.` 4 4 4 y A g y.z.I.U.I 5 y.y.Y.T.R.n ` [ H.& ",
"  ' b 4 4 4 y 0 # B.D t Z ) 3.B.Y E.$ ` M.I.a P.  ",
"    o 2 4 y 1.0 U W.Q.!.2 @ E.x E > ,.n I.~.H.8   ",
"    u.O U 0 c Z.U.l ^./.+ p q z 8.,.M., (.A X     ",
"      & x M.m ).I ) Y.` U >.z 8.; M.I.~.j.$       ",
"        . @ B.>.) v.U y.q : d ; M.[ & _.B.        ",
"            < Y 1 @.n z : d , @.< Y 9 a           ",
"                R 9 9.v { h { @ 1 a               "
};
