/* XPM */
static char * PIC_LEFT_xpm[] = {
"25 25 138 2",
"  	c None",
". 	c #D8D8D8",
"+ 	c #CECECE",
"@ 	c #DADADA",
"# 	c #BBBDBB",
"$ 	c #A4A4A4",
"% 	c #A0A0A0",
"& 	c #9F9F9F",
"* 	c #8B8B8B",
"= 	c #3B3B3B",
"- 	c #9D9D9D",
"; 	c #C8C8C8",
"> 	c #B8BEC2",
", 	c #898989",
"' 	c #A3A3A3",
") 	c #B7B7B7",
"! 	c #D6D6D6",
"~ 	c #EFEFEF",
"{ 	c #F8F8F8",
"] 	c #D3D3D3",
"^ 	c #484848",
"/ 	c #D4D4D4",
"( 	c #D1D1D1",
"_ 	c #8FAFBD",
": 	c #5B6D75",
"< 	c #BFBFBF",
"[ 	c #CDCDCD",
"} 	c #4A4A4A",
"| 	c #EEEEEE",
"1 	c #F7F7F7",
"2 	c #9A9A9A",
"3 	c #A6C8D8",
"4 	c #6398B1",
"5 	c #5A717C",
"6 	c #AFAFAF",
"7 	c #C9C9C9",
"8 	c #4C4C4C",
"9 	c #E1E1E1",
"0 	c #C6C6C6",
"a 	c #989898",
"b 	c #686868",
"c 	c #3E3E3E",
"d 	c #717171",
"e 	c #AECDDC",
"f 	c #69A2BD",
"g 	c #679FB9",
"h 	c #556F7B",
"i 	c #9B9D9F",
"j 	c #F2F2F2",
"k 	c #D0D0D0",
"l 	c #8C8C8C",
"m 	c #2A2A2A",
"n 	c #4D4D4D",
"o 	c #4E4E4E",
"p 	c #757575",
"q 	c #A2A2A2",
"r 	c #C5C5C5",
"s 	c #929292",
"t 	c #B9D4E1",
"u 	c #506D7C",
"v 	c #636465",
"w 	c #535353",
"x 	c #505050",
"y 	c #414141",
"z 	c #C4C4C4",
"A 	c #EBEBEB",
"B 	c #F4F4F4",
"C 	c #F1F1F1",
"D 	c #DEDEDE",
"E 	c #959595",
"F 	c #C5DCE7",
"G 	c #68A1BC",
"H 	c #4F5E65",
"I 	c #B2B2B2",
"J 	c #E2E2E2",
"K 	c #BEBEBE",
"L 	c #515151",
"M 	c #F6F6F6",
"N 	c #F5F5F5",
"O 	c #EDEDED",
"P 	c #CACACA",
"Q 	c #D0E2EC",
"R 	c #5D6F77",
"S 	c #E8E8E8",
"T 	c #B8B8B8",
"U 	c #A1A1A1",
"V 	c #D9E8EF",
"W 	c #6FA6BF",
"X 	c #4F626B",
"Y 	c #767676",
"Z 	c #3F3F3F",
"` 	c #848484",
" .	c #EAEAEA",
"..	c #ACACAC",
"+.	c #E1EEF3",
"@.	c #74A7C2",
"#.	c #435861",
"$.	c #838383",
"%.	c #BDBDBD",
"&.	c #E4E4E4",
"*.	c #5A5A5A",
"=.	c #6C6C6C",
"-.	c #D7D7D7",
";.	c #E6E6E6",
">.	c #999999",
",.	c #B9B9B9",
"'.	c #86B4CA",
").	c #556B75",
"!.	c #F0F0F0",
"~.	c #ECECEC",
"{.	c #6D6D6D",
"].	c #545454",
"^.	c #939393",
"/.	c #C6DCE6",
"(.	c #72A7C0",
"_.	c #526974",
":.	c #D9D9D9",
"<.	c #E3E3E3",
"[.	c #646464",
"}.	c #B3D0DD",
"|.	c #506974",
"1.	c #D2D2D2",
"2.	c #CBCBCB",
"3.	c #5F5F5F",
"4.	c #666666",
"5.	c #9FC3D3",
"6.	c #506A76",
"7.	c #AEAEAE",
"8.	c #8E8E8E",
"9.	c #A7A7A7",
"0.	c #E2E9EE",
"a.	c #8CB8CC",
"b.	c #4D6875",
"c.	c #8F8F8F",
"d.	c #CEDDE4",
"e.	c #5D727B",
"f.	c #7D7D7D",
"g.	c #979797",
"                                                  ",
"                                                  ",
"                                                  ",
"                                                  ",
"                          . +                     ",
"                @ # $ % & * = - ;                 ",
"          > , ' ' ) ! ~ { ] ^ / ' % (             ",
"          _ : < { { { { { [ } | 1 ! % 2 !         ",
"          3 4 5 6 { { { 1 7 8 9 0 a b c d         ",
"          e f g h i { j k l m n o p q r s         ",
"          t f f f u v w n x y z A B C D E         ",
"          F f G G G H I J K L M N C O P a         ",
"          Q f f f f R S S a x j C ~ A T U         ",
"          V W G G G X Y L n Z `  .| A ' ..        ",
"          +.@.G G f #.$.%.&.7 *.=.-.;.>.,.        ",
"            '.f f f ).D !.~ ~.-.{.].# ^.          ",
"            /.(.f G _.:.!.~.;.<.D $.^ [.          ",
"              }.f G |.1.|  .&.9 9 2.3.4.          ",
"                5.G 6.+ A S J 7.s 8.9.            ",
"                0.a.b.0 [ >.c.a                   ",
"                  d.e.f.g.)                       ",
"                                                  ",
"                                                  ",
"                                                  ",
"                                                  "};
