/* XPM */
static char *PIC_TOP_xpm[] = {
/* columns rows colors chars-per-pixel */
"25 25 172 2",
"*. c #4C6D7C",
";  c #CACACA",
"<. c #D9D9D9",
"d  c #E8E8E8",
"s  c #F7F7F7",
"4. c #3C3C3C",
"v  c #C6DCE6",
"v. c #5A5A5A",
"I  c #787878",
"k. c #878787",
"G  c #95BED1",
"Q. c #A5A5A5",
"x  c #7AADC4",
"2. c #B4B4B4",
"%. c #C3C3C3",
"H. c #D2D2D2",
",. c #E1E1E1",
"J  c #F0F0F0",
"I. c #353535",
"]  c #56666E",
"A. c #444444",
"z  c #8EBACE",
"t  c #9E9E9E",
"X  c #ADADAD",
"{  c #5F90A7",
".  c #BCBCBC",
")  c #4D6E7D",
"R. c #CBCBCB",
"9. c #DADADA",
"T. c #E9E9E9",
"5  c #F8F8F8",
"|  c #48616C",
"+  c #979797",
"   c #ECEADC",
"$  c #A6A6A6",
"A  c #7BAEC5",
"%  c #B5B5B5",
"^  c #4D626D",
"q. c #C4C4C4",
"<  c #D3D3D3",
"5. c #E2E2E2",
"(  c #5D8A9F",
"n  c #F1F1F1",
"z. c #454545",
"Z  c #8FBBCF",
"T  c #6FA6BF",
"f  c #9F9F9F",
"N. c #AEAEAE",
"!  c #BDBDBD",
"J. c #CCCCCC",
",  c #DBDBDB",
"W  c #EAEAEA",
"d. c #4D4D4D",
"a  c #EDF7FB",
"V. c #5C5C5C",
"U  c #49626F",
"/  c #6398B1",
"0  c #BBBDBB",
"@  c #989898",
"H  c #CDDFE9",
"2  c #A7A7A7",
"_  c #4E636E",
"g  c #B6B6B6",
"C  c #B4C2CA",
"F. c #C5C5C5",
"k  c #BCD6E2",
"P. c #D4D4D4",
"Q  c #E3E3E3",
"V  c #F2F2F2",
"D. c #555555",
"C. c #646464",
"S  c #6BA3BD",
"p  c #CBDFE9",
"0. c #919191",
"*  c #A0A0A0",
"Z. c #AFAFAF",
"`  c #71797D",
"3  c #CDCDCD",
"u. c #DCDCDC",
"x. c #212121",
">. c #EBEBEB",
"f. c #3F3F3F",
"-. c #56656C",
".. c #7B7E7F",
"S. c #6C6C6C",
"!. c #8A8A8A",
"B  c #999999",
"W. c #A8A8A8",
"h  c #F1FFFE",
"&  c #B7B7B7",
"X. c #C6C6C6",
"m. c #D5D5D5",
"6  c #E4E4E4",
"B. c #F3F3F3",
"F  c #6CA4BE",
"c. c #838383",
"o. c #929292",
"o  c #A1A1A1",
"-  c #B0B0B0",
"b  c #F1F6F9",
"6. c #BFBFBF",
">  c #DDDDDD",
";. c #595D5F",
"K  c #ECECEC",
"r. c #4F4F4F",
"=. c #46606C",
"b. c #6D6D6D",
"U. c #7C7C7C",
"~  c #8B8B8B",
"O  c #9A9A9A",
"8  c #B8B8B8",
"p. c #D6D6D6",
"E  c #CFDBE1",
"l  c #A3C7D7",
"q  c #F4F4F4",
"a. c #393939",
"w. c #484848",
"D  c #68A1BC",
" . c #5A676C",
"&. c #5F6B71",
"g. c #848484",
"=  c #939393",
"L  c #A2A2A2",
"'  c #B1B1B1",
"y  c #CFCFCF",
"m  c #DEDEDE",
"8. c #EDEDED",
":. c #414141",
"K. c #5F5F5F",
"M. c #8C8C8C",
"e  c #9B9B9B",
"i  c #D0E2EC",
"y. c #B9B9B9",
"P  c #C8C8C8",
":  c #D7D7D7",
"O. c #E6E6E6",
"4  c #F5F5F5",
"c  c #69A2BD",
"L. c #676767",
"s. c #767676",
"G. c #949494",
"j. c #A3A3A3",
"7  c #B2B2B2",
"Y. c #D0D0D0",
"w  c #DFDFDF",
"h. c #EEEEEE",
"R  c #9DC1D3",
"7. c #515151",
"l. c #6F6F6F",
"~. c #8D8D8D",
"#  c #9C9C9C",
"$. c #ABABAB",
"N  c #BABABA",
"+. c #C9C9C9",
"n. c #D8D8D8",
"e. c #E7E7E7",
"3. c #F6F6F6",
"u  c #E5F0F5",
"M  c #959595",
"}  c #537787",
"@. c #A4A4A4",
"r  c #B3B3B3",
"#. c #C2C2C2",
"i. c #D1D1D1",
"E. c #E0E0E0",
"t. c #EFEFEF",
"Y  c #68A0BA",
"1. c #8E8E8E",
"j  c #D2E4EC",
"9  c #9D9D9D",
"1  c #ACACAC",
"[  c #5E8FA6",
/* pixels */
"                . X o O + @ # $ %                 ",
"            & * = - ; : > , < . * = 1             ",
"          2 # 3 4 5 5 5 5 5 5 5 5 6 7 + 8         ",
"        9 0 q 5 5 5 5 5 5 5 5 5 5 5 5 w e r       ",
"      t y 5 5 5 5 5 5 5 u i p a 5 5 5 s d f g     ",
"    2 0 5 5 h u j k l z x c c z v b s 4 n m M     ",
"  N B V 5 C Z A S D c c c D D c F G H q J K . L   ",
"  L P 5 5 I U Y c c c D c D D D D D T R E W Q = . ",
"! = J 5 5 t ~ ^ / D c c c c c c Y ( ) _ ` d Q ' 2 ",
"7 2 5 5 5 L < 7 ] [ c c c { } |  ...L X.o.O.Q +.@ ",
"@.#.5 5 5 $.%.5 #.&.*.=.-.;.:.%.>.4 n m M 6 ,.<.1.",
"* 3 5 5 5 g 2.5 3.% 4.7 5.6.7.3.4 n 8.; @ 5.w 9.0.",
"9 < 5 5 5 q.1 s q P w.e.d @ r.V n t.>.y.L ,.u.<.o.",
"t i.5 5 5 p.o 3.q ! a.s.7.d.f.g.W h.>.j.$.m 9.p.o.",
"o P 5 5 5 6 k.L l.z.x.c.! 6 +.v.b.: e.B 8 u.n.m.M.",
"X N.5 5 5 B.V.C.B Z.A.m J t.K : S.D.0 = #.<.p.F.G.",
"0 G.s 5 5 5 % e q m A.<.J K O.Q m c.w.C.y m.< ' L ",
"  # < 5 5 5 s o @.,.z.H.h.W 6 ,.,.J.K.L.: P.i.M & ",
"  7 j.5 5 5 s q # N.A.3 >.d 5.N.0.1.2 P.m.H.N O   ",
"    * 3 5 s 3.q 6 g.I.X.3 B 1.+ P u.<.p.H.3 M 8   ",
"    ! O Q q V J h.+.z.U.+ g w m , n.m.< Y.L 1     ",
"      y.B p.t.K W T.R.P.Q E.m , n.p.< J.o W.      ",
"        . B N.E.d 6 Q ,.w > 9.n.m.i.8 M X         ",
"            1 = Q.#.p.m u.9.< #.1 = t y.          ",
"                Z.t 0.!.~.!.~.B $ y.              "
};
