/* XPM */
static char *PRINT_xpm[] = {
/* columns rows colors chars-per-pixel */
"20 20 148 2",
"v  c #FEFFFD",
"t  c #F8F7FD",
"5. c #7593B7",
"c  c #FEFFFF",
"z  c #A9A7CE",
"M. c #4B6284",
"}  c #718296",
"3  c #A9A7CF",
"^  c #7E8AA0",
"d  c #ABB9D3",
"d. c #4E6084",
"b. c #94A4BB",
"9  c #ECEBD7",
"y. c #7D8C9F",
"m  c #F0F6F6",
"a  c #FDFEFF",
"8  c #ECEBD9",
")  c #7D8CA1",
";. c #4A6487",
"[  c #808D9E",
"'  c #7D8CA3",
"*. c #808DA0",
"f  c #AAB8D2",
"%  c #EFE9D9",
"W  c #8090A9",
"l  c #EFE9DB",
"1. c #CDDDF4",
"s  c #ADB9D3",
"<. c #E6EFF8",
"0  c #E8E9D7",
"=  c #EBEAD5",
"X  c #EBEAD6",
"u  c #ECF1F4",
"7. c #7C8EA2",
"`  c #7C8B9E",
"O  c #EBEAD8",
"/  c #7C8BA0",
"x  c #FFFEFC",
"~  c #7F8C9D",
"@. c #7C8BA2",
"-. c #7F8C9F",
" . c #FFFEFF",
"p  c #A7A8D4",
"#  c #EEE8D8",
"o  c #EEE8DA",
"l. c #95A6B6",
"v. c #95A6B8",
"s. c #95A6BA",
"8. c #FBFFFE",
"7  c #A6AAD0",
"k  c #EAE9D7",
"r. c #627EA6",
"(  c #7B8DA3",
"V  c #EDEAD7",
"=. c #7E8B9E",
"y  c #F1F5F6",
"<  c #EDEAD9",
"m. c #4B6385",
"4  c #A9A8D0",
"2. c #C5D6F2",
",  c #EDE7D7",
"6. c #4B6387",
":. c #859DC3",
"2  c #A9A8D2",
";  c #EDE7D9",
"q. c #CEDFF1",
"!  c #E9EBD6",
"g. c #7D8D9D",
"b  c #FAFBFD",
"P  c #FDFFFE",
"@  c #ECE9D6",
"#. c #94B1D3",
"Y  c #F0F4F5",
"   c None",
"Z  c #A8A7CF",
".  c #ECE9DA",
"p. c #5B3D21",
"M  c #F0F1F5",
"+. c #CDDEF2",
"D  c #AAB9D6",
"j. c #96A5B8",
"Q  c #9DB7DA",
"N  c #E9EEF2",
"k. c #96A5BA",
">. c #FFFFFB",
"q  c #A7A9CF",
"&  c #EBE8D5",
"e  c #FFFFFD",
":  c #EBE8D7",
"w  c #FFFFFF",
"+  c #EBE8D9",
"-  c #EEE9D6",
"3. c #B6CFEE",
"w. c #4AAD41",
",. c #F2F7FB",
"f. c #4C6287",
"6  c #AAA7D4",
"c. c #95A4B7",
"0. c #E5EFF9",
"J  c #4F6388",
"h. c #95A4BB",
"e. c #98A5B8",
"L  c #A6A8CF",
"i. c #C2D6F1",
".. c #FEFEFC",
"1  c #A6A8D1",
"|  c #7B8BA2",
"r  c #FBFAFF",
"5  c #A9A9CF",
"F  c #EBEBF3",
"K  c #A9A6D1",
"j  c #4B6188",
"B  c #4E6285",
"R  c #E4EBF3",
"n. c #4E6287",
"T  c #EAF0F0",
"]  c #7A8D9E",
"n  c #F7F8FC",
"U  c #F7F8FD",
">  c #ECEAD5",
"X. c #F0F8FB",
"$  c #ECEADB",
"S  c #AABAD1",
"G  c #4D6486",
"E  c #4D6184",
"u. c #F3F6FB",
"H  c #4D6186",
"C  c #E8EBD8",
"A  c #ADB8D4",
"h  c #506286",
"%. c #7C8D9D",
"a. c #ADC7EA",
"o. c #E6EEF9",
"_  c #7C8D9F",
"{  c #9DB5DB",
"&. c #7C8DA1",
"I  c #FCFCFE",
"O. c #D9E6F6",
"*  c #EBE9DA",
"N. c #4C6383",
"g  c #ECF0F9",
"i  c #4C6385",
"4. c #7F8BA3",
"x. c #95A8B9",
"9. c #F5F6FB",
"$. c #4F6185",
"t. c #4F6187",
"z. c #95A5BC",
/* pixels */
"                                        ",
"    . X o O   X + @ # $ %   . # & *     ",
"    o = & - ; # *   O = : O > X # ,     ",
"    # ; <   @ 1 2 3 4 5 4 3 6 7         ",
"    8 9 o 0 @ q w e w r t y u i . -     ",
"    #   @ # p a s d d f d g h j % #     ",
"    o k l z x c v b n m M N B V o C     ",
"    O & * Z e A s S D d F G i H J       ",
"    @ K L w P I U Y M T R E W Q B k     ",
"    ! ~ ^ / ~ ( ) _ ` ' ] [ { } B       ",
"    |  .c ..c w e w X.o.O.+.@.#.$.:     ",
"    [ %.&.*.=.&.) -.-.` $.;.*.:.B <     ",
"    ) e w a >.w ,.<.O.1.2.3.4.5.6.*     ",
"    7.w 8.c  .9.0.O.q.w.3.e._ r.t.-     ",
"    y.x e w u.0.O.+.i.p.a.s.d.f.& X     ",
"    g.v e.h.j.k.l.z.x.c.v.b.n.+ <       ",
"    . f.B m.n.i t.M.H t.n.N.> # + X     ",
"                                        ",
"                                        ",
"                                        "
};
