/* XPM */
static char *PRINT_PREVIEW_xpm[] = {
/* columns rows colors chars-per-pixel */
"20 20 180 2",
"). c #5E3C16",
"n. c #DC9045",
"l  c #FCFEFD",
"G  c #C4EBFC",
"w. c #91A1B8",
"l. c #DEE0EC",
"*  c #A5B1C7",
"Z. c #DCE3E9",
"+  c #EBE9DA",
".  c #EBE9DC",
">. c #F5FAFE",
"8. c #DDF6FA",
";  c #A3B4C8",
"$. c #D2D8E6",
"L. c #E29839",
"9  c #FFFFFD",
"&. c #FAFBFD",
"u  c #FFFFFF",
"_. c #736864",
"~. c #736866",
"I  c #334768",
"1. c #33476C",
"=. c #C2DFED",
"b  c #C1C9DC",
"7  c #FDFFFC",
"*. c #8089A8",
"F  c #CAF0FB",
"X. c #C5ECFB",
"Q. c #5F3D18",
".. c #8089AA",
"0. c #B7B2AF",
"P  c #92A2BB",
"O. c #C5E9FF",
":  c #A6B2CA",
"D. c #C9D1DE",
"A  c #ECEADB",
">  c #A4B5C7",
"4. c #D3D9E5",
"c. c #CED5E5",
"5. c #C3E9F6",
"V  c #D3D9E7",
"Q  c #A3DAFF",
"Z  c #2F4769",
"r. c #A4B2CC",
"9. c #8387AA",
"E  c #F9FFFD",
"N  c #8387AC",
"g. c #A2B5C6",
"x. c #D1D9E4",
"G. c #603E18",
"D  c #CFDFEC",
"y. c #EAEDF2",
"v. c #603E19",
"B  c #8187A9",
"p. c #9A959B",
"H. c #93594E",
"s  c #A7B3C9",
"B. c #EDE8D2",
"!. c #977051",
"(. c #30486A",
"d  c #BECADA",
"d. c #E4973B",
"s. c #F7D898",
"M  c #8488AB",
"Y  c #EBE8D5",
"h. c #EDEBF6",
"j  c #EBE8D7",
"]. c #EBE8D9",
"u. c #E6EAF3",
"W. c #94A1B4",
")  c #8288A8",
"J  c #8288AA",
"8  c #FFFEFF",
"K  c #D0DAE3",
"m  c #8288AC",
":. c #DDF2FF",
"`. c #EEE9D5",
"h  c #EEE9D6",
"S  c #EEF2F5",
"Y. c #92A1B4",
"5  c #FDFEFF",
"R. c #92A1B8",
"b. c #925A4D",
"U  c #EEE6D9",
"K. c #F8D999",
"H  c #C0E1F0",
"]  c #C5E8FE",
"o  c #ECE9D6",
"   c None",
"#  c #ECE9DA",
"F. c #C4CCDF",
"=  c #A4B4C4",
"v  c #E7EBF6",
"q. c #E3983D",
"3  c #EAE9D5",
"%  c #EAE9D7",
"+. c #D9EFFD",
"'. c #EFEAD7",
"w  c #A2B4C8",
"@. c #E3F4FE",
"%. c #93A2B5",
"k. c #E0E4ED",
"i  c #FEFFFD",
"q  c #FEFFFF",
"L  c #B1C0D7",
"N. c #EFE7DA",
"(  c #324764",
"o. c #A6DAFF",
"W  c #C6E9FF",
"$  c #EDEAD9",
"}  c #D9E0EA",
"m. c #F9D797",
"g  c #EDEADB",
"7. c #D5F2FF",
"J. c #E19547",
"k  c #FCFFFF",
"^. c #A0B4CF",
"S. c #CFD5E5",
"@  c #EDE7D7",
"2. c #EDE7D9",
"a  c #FCFCFC",
"_  c #C9EDFB",
"f  c #304767",
"/. c #304769",
"n  c #F2F1F6",
"X  c #EBEAD6",
"O  c #EBEAD8",
"a. c #C99462",
"'  c #B3E0FF",
"R  c #CBDBE8",
"/  c #94A3B8",
"-  c #A3B2C5",
"y  c #A3B2C7",
"6. c #BBEBFF",
"r  c #E9EADA",
"p  c #FFFDFE",
"6  c #FFFDFF",
"C. c #DFE8EF",
"I. c #94A0B8",
"[  c #C7EAFE",
"t. c #EEF4F4",
"`  c #C2E6FF",
"V. c #E4E9ED",
"T. c #92A3B5",
"E. c #92A3B7",
"&  c #EEE8D8",
"z. c #DADEEA",
"1  c #EEE8DA",
"x  c #F8F9FB",
" . c #314868",
"e. c #31486A",
"2  c #ECEBD6",
"t  c #ECEBD9",
"T  c #8588A9",
"<. c #CED6E3",
"~  c #C3EAF9",
"!  c #A8DFFE",
"A. c #D8DEEC",
"P. c #E2E6F1",
",  c #A4B3C6",
"j. c #E7EAF3",
"{  c #B2E4FB",
"<  c #A4B3C8",
"3. c #F6F6F8",
"i. c #8388A6",
"4  c #A4B3CA",
"M. c #E3973F",
"|  c #95A1B9",
"U. c #93A4B8",
"c  c #A2B3C7",
"^  c #E0E3EC",
"0  c #FEFEFE",
"#. c #D7F1FF",
"z  c #FEFEFF",
",. c #F2FCFD",
"-. c #B0E1FF",
"e  c #324667",
"C  c #324669",
";. c #CBECFF",
"f. c #32466B",
/* pixels */
"                                        ",
"      . X o   o O + @ # X     $ % $ &   ",
"      * = - ; : ; > , < : X 1 @ 2 3 $ o ",
"      4 5 6 7 8 9 0 q 8 w e O # r # % t ",
"      y u 9 i p 8 q 9 a s d f   g h X j ",
"      , u u u k l i z x c v b e &   + & ",
"      , 0 u n m M N B V , C f Z A o # # ",
"      y i S N D F G H J K L P I j U X Y ",
"      ; 8 T R E W Q ! ~ m ^ / ( g   o   ",
"      , 8 ) _ ` ' ] [ { B } |  .1 o 3   ",
"      < i ..X.o.O.+.@.#.M $.%.C A   $   ",
"      , &.*.=.-.;.:.>.,.B <.%.1.Y t 2.  ",
"      c 3.4.B 5.6.7.8.9.0.q.w.e.X       ",
"      r.t.y.u.M i.J N p.a.s.d.f.g + +   ",
"      g.h.j.k.l.z.x.c.v.b.n.m.M.N.B.    ",
"      < V.C.Z.A.V S.D.F.G.H.J.K.L.o +   ",
"      y P.I.U.Y.T.R.E./ W.Q.b.!.~.1 #   ",
"      ^.( e e././././.C e.(.)._.h   # O ",
"      `.  # + +     #   & $ + j   t     ",
"          A + O Y   O A 3 & # # '.].t   "
};
