/* XPM */
static char * PRINT_PREVIEW_xpm[] = {
"20 20 9 1",
" 	c None",
".	c #000000",
"+	c #FFFFFF",
"@	c #B9B9B9",
"#	c #414141",
"$	c #080808",
"%	c #707070",
"&	c #868686",
"*	c #DCDCDC",
"                    ",
" .............      ",
" .+++++++++++.      ",
" .+++++++++++.      ",
" .+++++++++++.      ",
" .+++++++++++.      ",
" .+++++++++++.      ",
" .+++++++++++.      ",
" .+++++++++++.      ",
" .++++++@#$#@.      ",
" .+++++%......      ",
" .++++@..&*&..      ",
" .++++#.&+++&..     ",
" .++++$.*+++*..     ",
" .++++#.&+++&..     ",
" .++++@..&*&..      ",
" ..............     ",
"         ... ...    ",
"              ...   ",
"               .&   "};
