/* XPM */
static char * PRINT_xpm[] = {
"20 20 4 1",
" 	c None",
".	c #000000",
"+	c #FFFFFF",
"@	c #E9E9E9",
"                    ",
"                    ",
"     ..........     ",
"     .++++++++.     ",
"     .++++++++.     ",
"     .++++++++.     ",
"     .++++++++.     ",
"     .++++++++.     ",
"   ..............   ",
"   .@.@..........   ",
"   ..............   ",
"   ..............   ",
"   ..............   ",
"   ....++++++....   ",
"      .++++++.      ",
"      .++++++.      ",
"      .++++++.      ",
"      ........      ",
"                    ",
"                    "};
