/* XPM */
static char *RADIO_ON_xpm[] = {
/* columns rows colors chars-per-pixel */
"15 15 74 1",
"l c Black",
"B c #878787",
"i c #4D4D4D",
". c #F1F1F1",
"O c #D4D4D4",
"o c #B7B7B7",
"5 c #606060",
"8 c #565656",
"3 c #DDDDDD",
"4 c #2F2F2F",
"e c #D3D3D3",
"J c #252525",
"w c #E6E6E6",
"X c #C9C9C9",
"S c #8F8F8F",
"V c #383838",
"+ c #F9F9F9",
"y c #1B1B1B",
", c #DCDCDC",
"j c #BFBFBF",
"T c #686868",
"Z c #2E2E2E",
"g c #B5B5B5",
"G c #414141",
"s c #242424",
"; c #C8C8C8",
"F c #8E8E8E",
"> c #717171",
"r c #EEEEEE",
"$ c #2D2D2D",
"c c #D1D1D1",
"# c #404040",
"v c #232323",
"q c #E4E4E4",
"D c #F7F7F7",
"b c #BDBDBD",
"t c #C0C1C0",
"6 c #D0D0D0",
"P c #B3B3B3",
"h c #969696",
"I c #797979",
"7 c #3F3F3F",
"= c #C6C6C6",
"Y c #656565",
"& c #2B2B2B",
"d c #0E0E0E",
"x c #5B5B5B",
"  c #FFFFFF",
"k c #212121",
"K c #A8A8A8",
"9 c #F5F5F5",
"1 c #343434",
": c #2A2A2A",
"L c #5A5A5A",
"- c #FEFEFE",
"M c #202020",
"0 c #8A8A8A",
"% c #333333",
"m c #D7D7D7",
"N c #636363",
"C c #464646",
"U c #CDCDCD",
"A c #595959",
"2 c #E0E0E0",
"f c #323232",
"a c #7F7F7F",
"p c #757575",
"n c #3B3B3B",
"H c #A5A5A5",
"< c #F2F2F2",
"@ c #B8B8B8",
"z c #444444",
"* c #575757",
"u c #FBFBFB",
/* pixels */
"     .XoO+     ",
"   +@#$%&*=-   ",
"  ;*:>,<O>1>2  ",
" 345O-   -6789 ",
" 0&q -wer  tyX ",
"uip uasdfg 9#h ",
"w&j wklllz9 0x ",
"c4w edlllvq bn ",
"mMX rflllN- BV ",
"+*>- gCZAe qZS ",
" =16  D<u  FGr ",
" ->7t9   rHJK  ",
"  2LM#0PpfkI9  ",
"   +UhYTYhO-   ",
"               "
};
