/* XPM */
static char *RADIO_OFF_xpm[] = {
/* columns rows colors chars-per-pixel */
"15 15 63 1",
"k c #878787",
"t c #4D4D4D",
". c #F1F1F1",
"O c #D4D4D4",
"o c #B7B7B7",
"5 c #606060",
"8 c #565656",
"3 c #DDDDDD",
"4 c #2F2F2F",
"m c #252525",
"i c #E6E6E6",
"X c #C9C9C9",
"x c #8F8F8F",
"l c #383838",
"+ c #F9F9F9",
"e c #1B1B1B",
", c #DCDCDC",
"p c #BFBFBF",
"D c #686868",
"z c #2E2E2E",
"v c #414141",
"; c #C8C8C8",
"c c #8E8E8E",
"> c #717171",
"b c #EEEEEE",
"$ c #2D2D2D",
"s c #D1D1D1",
"# c #404040",
"q c #E4E4E4",
"d c #BDBDBD",
"w c #C0C1C0",
"6 c #D0D0D0",
"B c #B3B3B3",
"u c #969696",
"Z c #797979",
"7 c #3F3F3F",
"= c #C6C6C6",
"S c #656565",
"& c #2B2B2B",
"a c #5B5B5B",
"  c #FFFFFF",
"C c #212121",
"M c #A8A8A8",
"9 c #F5F5F5",
"1 c #343434",
": c #2A2A2A",
"N c #5A5A5A",
"- c #FEFEFE",
"j c #202020",
"0 c #8A8A8A",
"g c #F4F4F4",
"% c #333333",
"h c #D7D7D7",
"A c #CDCDCD",
"2 c #E0E0E0",
"V c #323232",
"y c #757575",
"f c #3B3B3B",
"n c #A5A5A5",
"< c #F2F2F2",
"@ c #B8B8B8",
"* c #575757",
"r c #FBFBFB",
/* pixels */
"     .XoO+     ",
"   +@#$%&*=-   ",
"  ;*:>,<O>1>2  ",
" 345O-   -6789 ",
" 0&q       weX ",
"rty        9#u-",
"i&p         0a<",
"s4i         dfg",
"hjX         kl ",
"+*>-       qzx ",
" =16       cvb ",
" ->7w9   bnmM  ",
"  2Nj#0ByVCZ9  ",
"   +AuSDSuO-   ",
"               "
};
