/* XPM */
static char * REFSYS_xpm[] = {
"20 20 3 1",
" 	c None",
".	c #3C3C3C",
"+	c #000000",
"                    ",
"  .                 ",
"  +                 ",
" .+.                ",
" +++                ",
"  +                 ",
"  +         ..      ",
"  +       +++.      ",
"  +        ++       ",
"  +       + +       ",
"  +      +          ",
"  +     +           ",
"  +    +            ",
"  +   +             ",
"  +  +              ",
"  + +               ",
"  ++           +.   ",
"  ++++++++++++++++. ",
"               +.   ",
"                    "};
