/* XPM */
static char * REVERSE_LUT_ICON_xpm[] = {
"20 20 11 1",
" 	c #FFFFFF",
".	c #B6B6B6",
"+	c #000000",
"@	c #B7B7B7",
"#	c #C0C0C0",
"$	c #B8B8B8",
"%	c #BEBEBE",
"&	c #B9B9B9",
"*	c #BABABA",
"=	c #BDBDBD",
"-	c #BBBBBB",
"                   .",
"                  .+",
"                 .++",
"                @+++",
"  +    +   + ++#  ++",
"  +    +   +  @ ++++",
"  +    +   + $+ ++++",
"  +    +   +$++ ++++",
"  +    +   %+++ ++++",
"  +    +  & +++ ++++",
"  +    + &+ +++ ++++",
"  +    +&++ +++ ++++",
"  +    %+++ +++ ++++",
"  +   * +++ +++ ++++",
"  +  *+ +++ +++ ++++",
"  + *++ +++ +++ ++++",
"  +=  ++   ++++ ++++",
"  -+++++++++++++++++",
" -++++++++++++++++++",
"-+++++++++++++++++++"};
