/* XPM */
static char * ROLLOUT_CLOSE_xpm[] = {
"16 16 3 1",
" 	c None",
".	c #EFEDDE",
"+	c #4D4DA6",
"................",
"....+...........",
"....++..........",
"....+++.........",
"....++++........",
"....+++++.......",
"....++++++......",
"....+++++++.....",
"....++++++......",
"....+++++.......",
"....++++........",
"....+++.........",
"....++..........",
"....+...........",
"................",
"................"};
