/* XPM */
static char *TIME_NEXT_xpm[] = {
/* columns rows colors chars-per-pixel */
"20 20 114 2",
"i  c #7280A2",
"6  c #90A7E2",
"P  c #4D6DBD",
"s  c #5A7BCE",
"e  c #536FB7",
"Q  c #A5B4DB",
"$. c #4965AB",
"V  c #A8B8E0",
"A  c #717FA1",
"|  c #8298D0",
"v  c #5676C6",
"o. c #4667BA",
"%  c #5676C8",
".  c #C4CEE6",
"3. c #BDC2D1",
"B  c #E3E5E7",
"D  c #597ACF",
"]  c #A4B3D8",
"2  c #8194C3",
"+. c #707E9E",
"^  c #707EA0",
"5  c #5F82D9",
"_  c #4E69AC",
"*  c #8EA5E0",
"#  c #AABBE2",
"N  c #93A0BD",
"<  c #6283D8",
"/  c #849BD4",
"C  c #5578CF",
"c  c #5879CC",
"g  c #6A7FB4",
"X  c #97ABDF",
"X. c #A3B2D7",
"'  c #D5D9DF",
"9  c #6A82BE",
"O. c #4763AB",
"K  c #A6B6DE",
">  c #5E81D8",
"d  c #5474C4",
"L  c #5173C9",
"{  c #4A67B2",
"+  c #B2BDD8",
"1. c #A8B0C4",
",. c #899CCB",
";. c #536DAD",
"#. c #4A6ABA",
"2. c #AEB8D2",
"<. c #8597C5",
"*. c #4665B2",
"b  c #5373C3",
"z  c #8CA3DE",
"q  c #6081D4",
"j  c #A8B9E0",
"p  c #6081D6",
"h  c #B7BECF",
"%. c #7B8DB9",
"Y  c #5677CA",
"0  c #AAB3CA",
"@  c #BDC3D3",
"$  c #5C7FD6",
"@. c #7E94CC",
"Z  c #5272C2",
"o  c #91A4D5",
"(  c #5272C4",
"7  c #5F80D5",
"W  c #B6BDCE",
"-  c #A0ACCA",
"4  c #AABCE4",
"F  c #5576C9",
"R  c #4B69B5",
"1  c #5877C6",
"M  c #546CAA",
"f  c #4E6DBA",
";  c #E2E2E6",
"=. c #4460A8",
"S  c #8AA1DA",
"t  c #D5D7DD",
":. c #9CA7C4",
"3  c #C8CCD6",
"T  c #5475C8",
"&  c #727FA0",
".. c #A8B1C8",
"H  c #4D6CBB",
"-. c #7C92C8",
"G  c #5070C0",
"!  c #4D6FC5",
"a  c #5D7ED3",
"I  c #717E9F",
"l  c #5675C4",
"J  c #526AA8",
"m  c #4C6BB8",
"   c #ECEADC",
"w  c #5979CB",
"[  c #496ABF",
"&. c #A1AED5",
"k  c #597CD3",
"=  c #6580C3",
"`  c #8798BD",
")  c #4F6FBF",
"8  c #5C7DD0",
"}  c #707D9E",
" . c #6178B3",
"y  c #AABAE2",
"u  c #5878C8",
":  c #AABAE4",
"O  c #A9B0C3",
"~  c #4B6AB9",
"E  c #6A7EB2",
",  c #5878CA",
"U  c #879ED7",
"n  c #4E6EBE",
"x  c #5B7CCF",
">. c #BFC7DD",
"r  c #8998BF",
/* pixels */
"                                        ",
"                                        ",
"                                        ",
"    . X o O   + @                       ",
"    # $ % &   * = - ;                   ",
"    : > , &   * < 1 2 3                 ",
"    4 5 , &   6 < 7 8 9 0               ",
"    : > , &   6 < q 8 w e r t           ",
"    y $ u i   * p a s , d f g h         ",
"    j k l &   z a x c v b n m M N B     ",
"    V C Z A   S D c F b G H m J N B     ",
"    K L P I   U Y T b G P R E W         ",
"    Q ! ~ ^   / ( Z ) P _ ` '           ",
"    ] [ { }   | ) P H  ...              ",
"    X.o.O.+.  @.#.$.%.3                 ",
"    &.*.=.}   -.;.:.;                   ",
"    >.,.<.1.  2.3.                      ",
"                                        ",
"                                        ",
"                                        "
};
