/* XPM */
static char *TIME_STOP_xpm[] = {
/* columns rows colors chars-per-pixel */
"20 20 135 2",
"g. c #CBCED7",
"v  c #6184DB",
"}  c #4A69B6",
"E  c #5476CC",
"-. c #4A69B8",
"s  c #A9B9E5",
"w  c #6485DA",
"3  c #5777C9",
"&. c #9FAFD7",
"/  c #4D6DBD",
"M  c #5A7BCE",
"+. c #4D6DBF",
"P  c #5A7BD0",
"d. c #ABB6D3",
"B  c #5D7FD5",
"r. c #BEC6DE",
"`  c #5071C6",
"#  c #BBC5E3",
"J  c #A5B4DF",
"9  c #6083DA",
"1. c #4968B5",
"p. c #B1BBD7",
"I  c #5676C8",
".  c #DADFEA",
"&  c #B1BEDD",
"o  c #C4CEE8",
"2  c #597ACD",
"8  c #7A85A2",
"t. c #BAC4DC",
"$  c #B7C3E1",
"$. c #4864AC",
"T  c #415893",
"R  c #A4B3DE",
"q. c #D6DAE6",
"m  c #5F82D9",
"3. c #4867B4",
"u  c #5575C5",
"+  c #C0CCE6",
"2. c #4867B6",
"A  c #5575C7",
"n  c #A7B7E3",
"g  c #6283D8",
"(  c #4B68B3",
"@. c #4B6BBB",
"Z  c #5879CC",
"f  c #6587DD",
"0. c #7984A1",
"=  c #AFB9D1",
"4  c #5474C4",
"e  c #6182D7",
";. c #4A67B2",
"<. c #9CACD4",
"c  c #A9BAE5",
"x  c #757F9D",
"=. c #4A6ABA",
"q  c #6486DC",
"W  c #5778CD",
"y. c #B8C2DC",
"L  c #5A7CD2",
"7. c #4662AA",
"U  c #5373C3",
"@  c #BECAE4",
":. c #4966AF",
"7  c #425A96",
"^  c #5373C5",
"5. c #4966B1",
"*  c #AEBBDA",
";  c #A8B9E4",
"!  c #5677CA",
"*. c #4969BB",
"Q  c #5677CC",
"%  c #B4C0DE",
"u. c #B7C1DB",
"o. c #4C6DC0",
"K  c #597BD1",
">. c #4561A9",
" . c #3E5590",
"S  c #5272C2",
"r  c #5F80D3",
"G  c #415995",
"[  c #5272C4",
"<  c #5F80D5",
"H  c #73809D",
">  c #6284DA",
"X. c #4B6CBF",
"z  c #4E6DBC",
"%. c #3D548F",
"_  c #A3B3DB",
"l  c #5171C1",
"1  c #5E7FD2",
"6. c #4764AD",
"h  c #5E7FD4",
"s. c #AFBAD5",
"a. c #AFBAD7",
":  c #6183D9",
"#. c #4A68B4",
"6  c #4D6CB9",
"8. c #435FA5",
"p  c #4D6CBB",
",. c #3C538E",
"f. c #ABB5CD",
"i  c #5070C0",
")  c #3F5793",
"~  c #5374C7",
",  c #6082D8",
"4. c #4967B3",
"b  c #5675C4",
"O  c #C1CCE7",
"d  c #6386DD",
"-  c #CDD0D9",
"F  c #4C6BB8",
"i. c #B4BEDA",
"   c #ECEADC",
"k  c #5979CB",
".. c #A1B1D9",
"j  c #5C7DD0",
"5  c #4F6FBF",
"C  c #5C7DD2",
"w. c #C0C8DE",
"|  c #4B67AF",
"'  c #5273C8",
"N  c #A7B6E1",
"a  c #737E9D",
"0  c #6285DC",
"Y  c #4B6AB7",
"{  c #4B6AB9",
"y  c #5878CA",
"9. c #3A518C",
"X  c #C6D0E8",
"D  c #4E6EBE",
"t  c #5B7CCF",
"O. c #4E6EC0",
"V  c #5E80D6",
"e. c #BFC7DF",
"]  c #5172C7",
/* pixels */
"                                        ",
"                                        ",
"                                        ",
"      . X X o O + @ # $ % & * = -       ",
"      ; : > > , < 1 2 3 4 5 6 7 8       ",
"      ; 9 0 q w e r t y u i p 7 a       ",
"      s 0 d f w g h j k u l z 7 x       ",
"      c v 0 q > g h t k b l p 7 a       ",
"      n m : : , < 1 M y 4 5 p 7 x       ",
"      N B V V < C t Z A S D F G H       ",
"      J K L L P M Z I U i p Y T x       ",
"      R E W W Q ! ~ ^ i / F ( ) H       ",
"      _ ` ' ] ~ [ l D / { } |  .H       ",
"      ..X.o.O.O.+./ @.{ #.| $.%.H       ",
"      &.*.*.*.*.=.-.#.;.:.$.>.,.H       ",
"      <.1.2.3.4.4.5.:.6.7.>.8.9.0.      ",
"      q.w.e.r.t.y.u.i.p.a.s.d.f.g.      ",
"                                        ",
"                                        ",
"                                        "
};
