/* XPM */
static char *TIME_END_xpm[] = {
/* columns rows colors chars-per-pixel */
"20 20 136 2",
"u. c #8F9DBF",
"f. c #667CB2",
"O  c #697DAF",
"/  c #5476CC",
"3. c #CED2DA",
"'  c #4D6DBD",
"6. c #3C5490",
"y. c #BEC6DA",
"+  c #C4C8D2",
">. c #E7E7E9",
"U  c #5372BF",
"f  c #C4C8D4",
"t  c #4965AB",
"i  c #5673BE",
"y  c #6083DA",
"e  c #788BBA",
"Z  c #5676C8",
"=. c #889DD2",
"7  c #95ABE3",
"e. c #3B538F",
")  c #4F6DB9",
"}  c #4560A5",
"q  c #E6E6E8",
"$. c #C3C7D3",
"O. c #8A97B8",
"9  c #5572BB",
"=  c #4864AA",
".  c #E6E6EA",
";. c #4B65A7",
":. c #909CBA",
"b  c #647AB0",
"h  c #5F82D9",
"6  c #B9BDCB",
"1. c #4B68B3",
"g  c #94AAE0",
"0. c #B3BEDB",
"G  c #546EAE",
":  c #94AAE2",
"C  c #5879CC",
"&. c #445FA4",
"t. c #ACB2C6",
"%  c #96A4C6",
"d  c #7084B6",
"2. c #7385B3",
"H  c #4763A9",
"3  c #D8DAE0",
"s  c #5474C4",
"4  c #768CC2",
"q. c #7F8FB7",
"!  c #536DAD",
"d. c #8F9EC5",
"+. c #E1E3E5",
"u  c #6486DC",
"s. c #39518D",
"(  c #5778CD",
"@. c #B5C1DF",
"9. c #9BA5BF",
"~  c #4662A8",
"P  c #5A7CD2",
"@  c #ABB7D5",
"R  c #5373C5",
"B  c #6081D6",
"m  c #92A8DE",
"$  c #C4CCE0",
"#  c #ADB4C7",
"L  c #597BD1",
"l  c #8493BA",
"p  c #8A98BA",
"^  c #8EA3D8",
"M  c #5C7FD6",
"4. c #7186BB",
"A  c #5272C2",
".. c #4F71C7",
"7. c #8499CE",
"T  c #5576C9",
"j  c #6284DA",
"*  c #748AC2",
"5. c #415CA1",
"r  c #CFD2DB",
"-. c #4B6CC1",
"w. c #7085BA",
"5  c #405896",
",  c #9FA8C3",
"z  c #ACB9DA",
"V  c #6079B8",
"r. c #A5B0CD",
"_  c #8291B8",
"&  c #E1E1E5",
"W  c #4D6CBB",
",. c #B5BFDD",
"o  c #6C83BC",
"p. c #6F84B9",
"E  c #5070C0",
"-  c #3F5795",
"K  c #8FA5DB",
"{  c #7288BE",
"k  c #5675C2",
"a. c #3F5A9D",
"o. c #4C68AE",
"1  c #5675C4",
">  c #5C77BC",
"#. c #6B7FB1",
"D  c #4C6BB8",
"i. c #E0E0E4",
"   c #ECEADC",
"<. c #4C6BBA",
"F  c #586FAA",
"a  c #5979CB",
" . c #8BA0D5",
"v  c #4F6FBF",
"w  c #5C7DD0",
"[  c #5E74AC",
"2  c #8494BE",
"J  c #3E5694",
"h. c #C6CAD4",
"<  c #BAC6E4",
"X  c #94A3CE",
"%. c #7187BD",
"`  c #AAB7D8",
"N  c #5F81D7",
";  c #B9BFCB",
"0  c #939FBD",
"8  c #6285DC",
"Q  c #4B6AB7",
"]  c #4B6AB9",
"c  c #5878CA",
"S  c #4E6EBE",
"x  c #5B7CCF",
"*. c #3D5591",
"I  c #5B7CD1",
"|  c #3D5593",
"g. c #6679A8",
"Y  c #5D76B5",
"8. c #5068A6",
"X. c #5172C7",
"n  c #B8BECC",
/* pixels */
"                                        ",
"                                        ",
"                                    .   ",
"                                X o O + ",
"      @ #         $ % &         * = - ; ",
"      : > ,       < 1 2 3       4 = 5 6 ",
"      7 8 9 0 q   < w 1 e r     4 t 5 ; ",
"      : y u i p & < w a s d f   4 t 5 ; ",
"      g h j j k l z x c s v b n 4 = - n ",
"      m M N N B k V C Z A S D F G H J n ",
"      K L P P I U Y T R E W Q F ! ~ J ; ",
"      ^ / ( ( ) _ ` R E ' ] [ n { } | 6 ",
"       ...X.o.O.+.@.v ' D #.$.  %.&.*.6 ",
"      =.-.;.:.>.  ,.<.1.2.3.    4.5.6.6 ",
"      7.8.9.      0.t q.3       w.5.e.n ",
"      r.t.        y.u.i.        p.a.s.6 ",
"                                d.f.g.h.",
"                                    >.  ",
"                                        ",
"                                        "
};
