/* XPM */
static char *TIME_BEGIN_xpm[] = {
/* columns rows colors chars-per-pixel */
"20 20 150 2",
"A  c #A9B9E1",
"q  c #7280A2",
"C  c #4A69B6",
"B  c #7089C8",
"L  c #536CAB",
"/  c #5777C9",
"R  c #435D9F",
"x. c #8593B5",
"a. c #B5C0DD",
"{  c #4D6DBD",
"j  c #CBD1E3",
"e  c #6D8BD7",
"2  c #708CD4",
"b. c #8897BC",
"`  c #4965AD",
"(  c #4F67A5",
"2. c #7289C2",
"u. c #4667BA",
"'  c #425C9E",
"b  c #6384D9",
"v  c #A8B8E4",
"$  c #5676C8",
":. c #5C7BC8",
"d  c #6989D9",
" . c #597ACD",
"F  c #556FB1",
":  c #ADB3C5",
"^  c #597ACF",
"+  c #E6E6E8",
"5. c #A4B3DA",
"3. c #4864AA",
"h. c #3E5796",
"w  c #B7C3E5",
"i. c #4864AC",
"E  c #A7B7DF",
"-. c #707EA0",
"u  c #D6DAE6",
"9  c #5F82D9",
"1  c #BDC8E5",
"%. c #415B9B",
"O. c #5A6D9C",
"D  c #5575C5",
"[  c #5274CA",
"_  c #4B68B1",
"a  c #AABBE2",
"Y  c #4B68B3",
"5  c #DCDFE8",
"9. c #5E7BC4",
"K  c #5879CC",
"y. c #A3B2D7",
"$. c #4763A9",
"*. c #4E6FC4",
"]  c #A6B6DE",
"w. c #D5D9E5",
",  c #5E81D8",
"<. c #596C9B",
"G  c #6182D7",
"7. c #4A67B2",
"B. c #A8B0C4",
"e. c #798DC1",
")  c #607BC0",
"8. c #B2BDDE",
"g. c #7F92C1",
"X  c #99ABDF",
"4. c #4662A8",
"c  c #5D80D7",
"N. c #8597C5",
"k. c #4665B2",
"t. c #3F5999",
"|  c #A5B5DF",
"f  c #6081D4",
"o  c #92A5D6",
"o. c #5373C5",
"n  c #6081D6",
"&  c #C1CBE5",
".. c #5677CA",
"3  c #5B6FA1",
"n. c #AAB0C2",
"1. c #CAD1E2",
"-  c #E0E2E8",
"k  c #788FC8",
"8  c #9DA5BB",
"#  c #5C7FD6",
"q. c #576A99",
"@. c #6B84C3",
"!  c #5F80D3",
"Q  c #5272C2",
"P  c #6883C8",
"H  c #5F80D5",
";  c #8D9CC1",
"y  c #DCDDE2",
"M. c #879ACB",
"s. c #5E79BE",
"c. c #DFE1E5",
"v. c #DFE1E7",
"j. c #A0AFD4",
"r. c #4460A6",
"l. c #4460A8",
"m  c #5E7FD2",
"%  c #727FA0",
"N  c #B5BFD9",
"U  c #4D6CB9",
"0  c #5A7ACA",
".  c #C5CEE7",
"6. c #4A6BBE",
"V  c #4D6CBB",
"i  c #7C92C8",
"*  c #8896B8",
"d. c #556897",
",. c #5070C0",
"r  c #5D7ED1",
">. c #5070C2",
"J  c #5D7ED3",
"X. c #5374C7",
"}  c #717E9F",
"f. c #DADEE6",
"W  c #5678CE",
"   c #ECEADC",
"0. c #4C6BBA",
"7  c #455FA1",
"x  c #9DA6BB",
"S  c #597CD3",
"g  c #5C7DD0",
"p. c #707D9E",
"p  c #4B67AF",
"4  c #DCDEE2",
";. c #AAB7DE",
"h  c #DCDEE4",
"@  c #AABAE2",
"+. c #B3BDD7",
"l  c #4B6AB7",
">  c #AABAE4",
"O  c #A9B0C3",
"=. c #4B6AB9",
"z  c #445EA0",
"t  c #5D70A1",
"<  c #5878CA",
"Z  c #9CA5BA",
"s  c #B0BFE6",
"V. c #E5E7E9",
"I  c #4E6EBE",
"M  c #5B7CCF",
"~  c #5B7CD1",
"z. c #BCC6DE",
"m. c #BFC7DD",
"&. c #A6B5DC",
"T  c #4A66AC",
"6  c #8396C7",
"#. c #4A66AE",
"=  c #DBDDE1",
/* pixels */
"                                        ",
"                                        ",
"                                        ",
"    . X o O           +                 ",
"    @ # $ %         & * =       - ; :   ",
"    > , < %       1 2 3 4     5 6 7 8   ",
"    > 9 0 q     w e r t y   u i p 7 8   ",
"    a 9 < q   s d f g t h j k l p z x   ",
"    @ c $ q v b n m M 3 N B V C p z Z   ",
"    A S D F G H J M K L P I U Y T R x   ",
"    E W Q F ! ~ ^ K / ( ) V l _ ` ' 8   ",
"    ] [ { } |  ...X.o.O.+.@.Y #.$.%.8   ",
"    &.*.=.-.  ;.:.>.,.<.h 1.2.3.4.%.8   ",
"    5.6.7.}     8.9.0.q.4   w.e.r.t.8   ",
"    y.u.i.p.      a.s.d.4     f.g.h.8   ",
"    j.k.l.p.        z.x.c.      v.b.n.  ",
"    m.M.N.B.          V.                ",
"                                        ",
"                                        ",
"                                        "
};
