/* XPM */
static char * TOOL_BRUSH_xpm[] = {
"30 30 2 1",
" 	c None",
".	c #010101",
"                              ",
"                              ",
"                        ....  ",
"                       .....  ",
"                     ........ ",
"                    ........  ",
"                   .........  ",
"                   ........   ",
"            ..    ........    ",
"            ....  .......     ",
"          .. ...........      ",
"          ... .........       ",
"        .. ... .....          ",
"       .... ... ....          ",
"      ...... ... ....         ",
"     ........ ... ....        ",
"    .......... ... ...        ",
"   ............ ... ...       ",
"  .............. ... .        ",
"  ............... ...         ",
"  ................ .          ",
"   ................           ",
"    ..............            ",
"     ............             ",
"      ..........              ",
"       ........               ",
"        ......                ",
"         ....                 ",
"          ..                  ",
"                              "};
