/* XPM */
static char * TOOL_BRUSH2_xpm[] = {
"30 30 2 1",
" 	c None",
".	c #000000",
"                              ",
"                        ...   ",
"                       ....   ",
"                      ....    ",
"                     ....     ",
"                    ....      ",
"                   .....      ",
"                  .....       ",
"                 .....        ",
"                .....         ",
"               ......         ",
"              ......          ",
"             ......           ",
"            ......            ",
"           ......             ",
"          ......              ",
"        . ......              ",
"       ... ....               ",
"      ..... ..                ",
"     .......                  ",
"    ........                  ",
"   .........                  ",
"   .........                  ",
"   ........                   ",
"   .......                    ",
"   ...                        ",
"   ..                         ",
"   .                          ",
"                              ",
"                              "};
