/* XPM */
static char * VIEW_IMAGE_xpm[] = {
"20 20 41 1",
" 	c None",
".	c #313131",
"+	c #2E2E2E",
"@	c #2B2B2B",
"#	c #CBCBCB",
"$	c #272727",
"%	c #FFFFFF",
"&	c #939393",
"*	c #424242",
"=	c #F2F2F2",
"-	c #242424",
";	c #929292",
">	c #202020",
",	c #585858",
"'	c #1D1D1D",
")	c #737373",
"!	c #565656",
"~	c #E3E3E3",
"{	c #1A1A1A",
"]	c #F1F1F1",
"^	c #444444",
"/	c #D5D5D5",
"(	c #161616",
"_	c #8B8B8B",
":	c #252525",
"<	c #131313",
"[	c #222222",
"}	c #4E4E4E",
"|	c #0F0F0F",
"1	c #1E1E1E",
"2	c #878787",
"3	c #A6A6A6",
"4	c #0C0C0C",
"5	c #868686",
"6	c #676767",
"7	c #1B1B1B",
"8	c #3A3A3A",
"9	c #090909",
"0	c #171717",
"a	c #050505",
"b	c #020202",
"                    ",
"                    ",
"                    ",
"  ................  ",
"  ++++++++++++++++  ",
"  @@############@@  ",
"  $$%&*=%%%%%%%%$$  ",
"  --%-;%%%%%%%%%--  ",
"  >>%>,%%%%%%%%%>>  ",
"  ''%)'!~%%%%%%%''  ",
"  {{%%~~%%]^$/%%{{  ",
"  ((%%%%%%_((:~%((  ",
"  <<%%%%%][<<<}%<<  ",
"  ||]1|2%2|||||3||  ",
"  4454446744444844  ",
"  9909999999999999  ",
"  aaaaaaaaaaaaaaaa  ",
"  bbbbbbbbbbbbbbbb  ",
"                    ",
"                    "};
