/* XPM */
static char * VIEW_ORTHO_xpm[] = {
"11 11 4 1",
" 	c None",
".	c #000000",
"+	c #CCCCCC",
"@	c #505050",
"...........",
"...........",
".++++.++++.",
".++++.++++.",
".++++.++++.",
".@@@@@@@@@.",
".@@@@@@@@@.",
".++++.++++.",
".++++.++++.",
".++++.++++.",
"..........."};
