/* XPM */
static char * ZOOM_xpm[] = {
"20 20 3 1",
" 	c None",
".	c #646464",
"+	c #000000",
"        .           ",
"      +++++         ",
"    ++.   .++       ",
"   +.       .+      ",
"  +.         .+     ",
"  +           +     ",
" +.           .+    ",
" +             +    ",
".+             +.   ",
" +             +    ",
" +.           .+    ",
"  +           +     ",
"  +.         .+     ",
"   +.       .++     ",
"    ++.   .+++++    ",
"      +++++   +++   ",
"        .      +++  ",
"                +++ ",
"                 ++ ",
"                    "};
