/* XPM */
static char *ZOOM_SEL_xpm[] = {
/* columns rows colors chars-per-pixel */
"20 20 91 1",
"0 c #C1C1C1",
"` c #303030",
"E c #617F99",
"7 c #84B0CC",
"T c #879FB3",
"D c #A7A8B1",
"O c #B0BAB9",
"_ c #909090",
"N c #A7B4C3",
"C c #6D98B3",
"m c #6D8FAB",
"K c #97AECB",
"y c #F0F0F0",
"} c #999999",
"L c #4B98E7",
"Q c #395771",
"S c #F3E5E7",
"o c #9FAAB1",
"b c #AFBCC3",
"F c #395779",
"I c #686868",
"P c #869EBC",
"] c #414141",
"B c #E2D8D9",
"+ c #C8C8C8",
"X c #A8B3BA",
"( c #487190",
"8 c #F8F8F8",
"W c #A1A1A1",
"r c #7CA0CC",
"u c #DBCFD0",
"h c #415F79",
"J c #7EA0BC",
"; c #6588B3",
"- c #A7BECB",
"{ c #707070",
"= c #80949A",
"# c #517AA1",
"V c #BAB0B1",
"i c #D0D0D0",
"q c #778EAB",
"2 c #4174A9",
", c #5782AB",
"j c #9DC0DD",
"c c #5D8AB3",
"f c #D9D9D9",
"5 c #B6C3D2",
"3 c #596479",
"> c #5982A1",
"U c #76A2C4",
"v c #396D99",
"6 c #568DBC",
"/ c #212121",
"Z c #ACC5DC",
". c #BFC0C9",
"x c #A8A8A8",
"k c #4386C5",
"Y c #5F81A3",
": c #8CB0D4",
"$ c #497CB1",
"< c #4C83BC",
"9 c #E1E1E1",
"A c #4C98DE",
"w c #4586BD",
"^ c #505050",
"s c #778391",
"H c #62A6E6",
"& c #4175A1",
") c #708692",
"G c #C7C8D1",
"% c #417EB1",
"! c #909BA2",
"4 c #B0B0B0",
"* c #5A6F88",
"1 c #4B8ECD",
"~ c #595959",
"n c #EADEDF",
"g c #808C9A",
"d c #506E88",
"  c #ECEADC",
"a c #9092A2",
"p c #B9B9B9",
"e c #596E81",
"' c #282828",
"@ c #7FA0B3",
"R c #9FB5C3",
"t c #9FACBB",
"M c #98A3AA",
"[ c #616161",
"z c #E8E8E8",
"l c #8894A2",
/* pixels */
"                    ",
"     .XooO+         ",
"   .@#$%%&*=+       ",
"  -;::>>,<1234      ",
" 567889+0oq<we0     ",
" r&t88yui+pa6ws     ",
"51di8y9fii+pg1h0    ",
"jklyz99ffi+0xcvo    ",
"j%byzn9ffii04m%M    ",
"jkNyzz9Bfui+VCvo    ",
"ZAqySz99fui+DcFO    ",
"GHwNyzn9ffi0J%3     ",
" KL#t9z9fi.P$*Ix    ",
" GUAwYTRtTc&E+WIx   ",
"  +J<1k$%2vQ!9i~^4  ",
"/// ///(/*)D  _`']W ",
"/   /  ./G    4[``'{",
"/// /// /      0{``/",
"  / /   /        }]]",
"/// /// ///       xx"
};
